<?xml version="1.0" encoding="UTF-8"?>
<svg version="1.1" xmlns="http://www.w3.org/2000/svg" width="3000" height="3000">
<path d="M0 0 C990 0 1980 0 3000 0 C3000 990 3000 1980 3000 3000 C2010 3000 1020 3000 0 3000 C0 2010 0 1020 0 0 Z " fill="#FEFEFE" transform="translate(0,0)"/>
<path d="M0 0 C39.6 0 79.2 0 120 0 C120 19.8 120 39.6 120 60 C139.8 60 159.6 60 180 60 C180 79.8 180 99.6 180 120 C219.6 120 259.2 120 300 120 C300 100.2 300 80.4 300 60 C319.8 60 339.6 60 360 60 C360 40.2 360 20.4 360 0 C399.6 0 439.2 0 480 0 C480 19.8 480 39.6 480 60 C499.8 60 519.6 60 540 60 C540 119.4 540 178.8 540 240 C520.2 240 500.4 240 480 240 C480 259.8 480 279.6 480 300 C460.2 300 440.4 300 420 300 C420 339.6 420 379.2 420 420 C439.8 420 459.6 420 480 420 C480 439.8 480 459.6 480 480 C539.4 480 598.8 480 660 480 C660 499.8 660 519.6 660 540 C699.6 540 739.2 540 780 540 C780 559.8 780 579.6 780 600 C799.8 600 819.6 600 840 600 C840 619.8 840 639.6 840 660 C859.8 660 879.6 660 900 660 C900 679.8 900 699.6 900 720 C919.8 720 939.6 720 960 720 C960 739.8 960 759.6 960 780 C979.8 780 999.6 780 1020 780 C1020 799.8 1020 819.6 1020 840 C1039.8 840 1059.6 840 1080 840 C1080 879.6 1080 919.2 1080 960 C1099.8 960 1119.6 960 1140 960 C1140 999.6 1140 1039.2 1140 1080 C1159.8 1080 1179.6 1080 1200 1080 C1200 1238.4 1200 1396.8 1200 1560 C1180.2 1560 1160.4 1560 1140 1560 C1140 1619.4 1140 1678.8 1140 1740 C1120.2 1740 1100.4 1740 1080 1740 C1080 1759.8 1080 1779.6 1080 1800 C1060.2 1800 1040.4 1800 1020 1800 C1020 1839.6 1020 1879.2 1020 1920 C1000.2 1920 980.4 1920 960 1920 C960 1939.8 960 1959.6 960 1980 C940.2 1980 920.4 1980 900 1980 C900 1999.8 900 2019.6 900 2040 C880.2 2040 860.4 2040 840 2040 C840 2059.8 840 2079.6 840 2100 C800.4 2100 760.8 2100 720 2100 C720 2119.8 720 2139.6 720 2160 C680.4 2160 640.8 2160 600 2160 C600 2179.8 600 2199.6 600 2220 C540.6 2220 481.2 2220 420 2220 C420 2239.8 420 2259.6 420 2280 C301.2 2280 182.4 2280 60 2280 C60 2260.2 60 2240.4 60 2220 C0.6 2220 -58.8 2220 -120 2220 C-120 2200.2 -120 2180.4 -120 2160 C-159.6 2160 -199.2 2160 -240 2160 C-240 2140.2 -240 2120.4 -240 2100 C-279.6 2100 -319.2 2100 -360 2100 C-360 2080.2 -360 2060.4 -360 2040 C-379.8 2040 -399.6 2040 -420 2040 C-420 2020.2 -420 2000.4 -420 1980 C-439.8 1980 -459.6 1980 -480 1980 C-480 1960.2 -480 1940.4 -480 1920 C-499.8 1920 -519.6 1920 -540 1920 C-540 1880.4 -540 1840.8 -540 1800 C-559.8 1800 -579.6 1800 -600 1800 C-600 1780.2 -600 1760.4 -600 1740 C-619.8 1740 -639.6 1740 -660 1740 C-660 1680.6 -660 1621.2 -660 1560 C-679.8 1560 -699.6 1560 -720 1560 C-720 1401.6 -720 1243.2 -720 1080 C-700.2 1080 -680.4 1080 -660 1080 C-660 1040.4 -660 1000.8 -660 960 C-640.2 960 -620.4 960 -600 960 C-600 920.4 -600 880.8 -600 840 C-580.2 840 -560.4 840 -540 840 C-540 820.2 -540 800.4 -540 780 C-520.2 780 -500.4 780 -480 780 C-480 760.2 -480 740.4 -480 720 C-460.2 720 -440.4 720 -420 720 C-420 700.2 -420 680.4 -420 660 C-400.2 660 -380.4 660 -360 660 C-360 640.2 -360 620.4 -360 600 C-340.2 600 -320.4 600 -300 600 C-300 580.2 -300 560.4 -300 540 C-260.4 540 -220.8 540 -180 540 C-180 520.2 -180 500.4 -180 480 C-120.6 480 -61.2 480 0 480 C0 460.2 0 440.4 0 420 C19.8 420 39.6 420 60 420 C60 380.4 60 340.8 60 300 C40.2 300 20.4 300 0 300 C0 280.2 0 260.4 0 240 C-19.8 240 -39.6 240 -60 240 C-60 180.6 -60 121.2 -60 60 C-40.2 60 -20.4 60 0 60 C0 40.2 0 20.4 0 0 Z " fill="#007D00" transform="translate(1260,120)"/>
<path d="M0 0 C158.4 0 316.8 0 480 0 C480 19.8 480 39.6 480 60 C539.4 60 598.8 60 660 60 C660 79.8 660 99.6 660 120 C699.6 120 739.2 120 780 120 C780 139.8 780 159.6 780 180 C799.8 180 819.6 180 840 180 C840 199.8 840 219.6 840 240 C859.8 240 879.6 240 900 240 C900 279.6 900 319.2 900 360 C880.2 360 860.4 360 840 360 C840 379.8 840 399.6 840 420 C800.4 420 760.8 420 720 420 C720 439.8 720 459.6 720 480 C680.4 480 640.8 480 600 480 C600 499.8 600 519.6 600 540 C540.6 540 481.2 540 420 540 C420 559.8 420 579.6 420 600 C301.2 600 182.4 600 60 600 C60 580.2 60 560.4 60 540 C0.6 540 -58.8 540 -120 540 C-120 520.2 -120 500.4 -120 480 C-159.6 480 -199.2 480 -240 480 C-240 460.2 -240 440.4 -240 420 C-279.6 420 -319.2 420 -360 420 C-360 400.2 -360 380.4 -360 360 C-379.8 360 -399.6 360 -420 360 C-420 320.4 -420 280.8 -420 240 C-400.2 240 -380.4 240 -360 240 C-360 220.2 -360 200.4 -360 180 C-340.2 180 -320.4 180 -300 180 C-300 160.2 -300 140.4 -300 120 C-260.4 120 -220.8 120 -180 120 C-180 100.2 -180 80.4 -180 60 C-120.6 60 -61.2 60 0 60 C0 40.2 0 20.4 0 0 Z " fill="#007D00" transform="translate(1260,1800)"/>
<path d="M0 0 C19.8 0 39.6 0 60 0 C60 39.6 60 79.2 60 120 C99.6 120 139.2 120 180 120 C180 139.8 180 159.6 180 180 C199.8 180 219.6 180 240 180 C240 199.8 240 219.6 240 240 C259.8 240 279.6 240 300 240 C300 180.6 300 121.2 300 60 C359.4 60 418.8 60 480 60 C480 79.8 480 99.6 480 120 C499.8 120 519.6 120 540 120 C540 139.8 540 159.6 540 180 C559.8 180 579.6 180 600 180 C600 199.8 600 219.6 600 240 C619.8 240 639.6 240 660 240 C660 279.6 660 319.2 660 360 C620.4 360 580.8 360 540 360 C540 340.2 540 320.4 540 300 C520.2 300 500.4 300 480 300 C480 339.6 480 379.2 480 420 C499.8 420 519.6 420 540 420 C540 459.6 540 499.2 540 540 C520.2 540 500.4 540 480 540 C480 559.8 480 579.6 480 600 C460.2 600 440.4 600 420 600 C420 619.8 420 639.6 420 660 C400.2 660 380.4 660 360 660 C360 640.2 360 620.4 360 600 C300.6 600 241.2 600 180 600 C180 580.2 180 560.4 180 540 C100.8 540 21.6 540 -60 540 C-60 520.2 -60 500.4 -60 480 C-79.8 480 -99.6 480 -120 480 C-120 499.8 -120 519.6 -120 540 C-139.8 540 -159.6 540 -180 540 C-180 579.6 -180 619.2 -180 660 C-219.6 660 -259.2 660 -300 660 C-300 640.2 -300 620.4 -300 600 C-339.6 600 -379.2 600 -420 600 C-420 520.8 -420 441.6 -420 360 C-400.2 360 -380.4 360 -360 360 C-360 340.2 -360 320.4 -360 300 C-340.2 300 -320.4 300 -300 300 C-300 240.6 -300 181.2 -300 120 C-280.2 120 -260.4 120 -240 120 C-240 159.6 -240 199.2 -240 240 C-200.4 240 -160.8 240 -120 240 C-120 220.2 -120 200.4 -120 180 C-100.2 180 -80.4 180 -60 180 C-60 160.2 -60 140.4 -60 120 C-40.2 120 -20.4 120 0 120 C0 80.4 0 40.8 0 0 Z " fill="#007E00" transform="translate(1440,780)"/>
<path d="M0 0 C39.6 0 79.2 0 120 0 C120 19.8 120 39.6 120 60 C139.8 60 159.6 60 180 60 C180 79.8 180 99.6 180 120 C219.6 120 259.2 120 300 120 C300 100.2 300 80.4 300 60 C319.8 60 339.6 60 360 60 C360 40.2 360 20.4 360 0 C399.6 0 439.2 0 480 0 C480 19.8 480 39.6 480 60 C499.8 60 519.6 60 540 60 C540 119.4 540 178.8 540 240 C520.2 240 500.4 240 480 240 C480 259.8 480 279.6 480 300 C440.4 300 400.8 300 360 300 C360 339.6 360 379.2 360 420 C280.8 420 201.6 420 120 420 C120 380.4 120 340.8 120 300 C80.4 300 40.8 300 0 300 C0 280.2 0 260.4 0 240 C-19.8 240 -39.6 240 -60 240 C-60 180.6 -60 121.2 -60 60 C-40.2 60 -20.4 60 0 60 C0 40.2 0 20.4 0 0 Z " fill="#007E00" transform="translate(1260,120)"/>
<path d="M0 0 C59.4 0 118.8 0 180 0 C180 19.8 180 39.6 180 60 C199.8 60 219.6 60 240 60 C240 79.8 240 99.6 240 120 C259.8 120 279.6 120 300 120 C300 139.8 300 159.6 300 180 C319.8 180 339.6 180 360 180 C360 219.6 360 259.2 360 300 C320.4 300 280.8 300 240 300 C240 280.2 240 260.4 240 240 C220.2 240 200.4 240 180 240 C180 279.6 180 319.2 180 360 C199.8 360 219.6 360 240 360 C240 399.6 240 439.2 240 480 C220.2 480 200.4 480 180 480 C180 499.8 180 519.6 180 540 C160.2 540 140.4 540 120 540 C120 559.8 120 579.6 120 600 C100.2 600 80.4 600 60 600 C60 580.2 60 560.4 60 540 C20.4 540 -19.2 540 -60 540 C-60 460.8 -60 381.6 -60 300 C-40.2 300 -20.4 300 0 300 C0 201 0 102 0 0 Z " fill="#DF220A" transform="translate(1740,840)"/>
<path d="M0 0 C19.8 0 39.6 0 60 0 C60 39.6 60 79.2 60 120 C79.8 120 99.6 120 120 120 C120 179.4 120 238.8 120 300 C139.8 300 159.6 300 180 300 C180 339.6 180 379.2 180 420 C160.2 420 140.4 420 120 420 C120 459.6 120 499.2 120 540 C80.4 540 40.8 540 0 540 C0 520.2 0 500.4 0 480 C-39.6 480 -79.2 480 -120 480 C-120 400.8 -120 321.6 -120 240 C-100.2 240 -80.4 240 -60 240 C-60 220.2 -60 200.4 -60 180 C-40.2 180 -20.4 180 0 180 C0 120.6 0 61.2 0 0 Z " fill="#DE200A" transform="translate(1140,900)"/>
<path d="M0 0 C39.6 0 79.2 0 120 0 C120 19.8 120 39.6 120 60 C139.8 60 159.6 60 180 60 C180 79.8 180 99.6 180 120 C199.8 120 219.6 120 240 120 C240 139.8 240 159.6 240 180 C259.8 180 279.6 180 300 180 C300 219.6 300 259.2 300 300 C260.4 300 220.8 300 180 300 C180 280.2 180 260.4 180 240 C160.2 240 140.4 240 120 240 C120 220.2 120 200.4 120 180 C100.2 180 80.4 180 60 180 C60 160.2 60 140.4 60 120 C40.2 120 20.4 120 0 120 C0 80.4 0 40.8 0 0 Z " fill="#E2B974" transform="translate(1800,840)"/>
<path d="M0 0 C19.8 0 39.6 0 60 0 C60 39.6 60 79.2 60 120 C79.8 120 99.6 120 120 120 C120 199.2 120 278.4 120 360 C60.6 360 1.2 360 -60 360 C-60 300.6 -60 241.2 -60 180 C-40.2 180 -20.4 180 0 180 C0 120.6 0 61.2 0 0 Z " fill="#DF2B0A" transform="translate(1140,900)"/>
<path d="M0 0 C19.8 0 39.6 0 60 0 C60 39.6 60 79.2 60 120 C139.2 120 218.4 120 300 120 C300 80.4 300 40.8 300 0 C319.8 0 339.6 0 360 0 C360 39.6 360 79.2 360 120 C379.8 120 399.6 120 420 120 C420 139.8 420 159.6 420 180 C261.6 180 103.2 180 -60 180 C-60 160.2 -60 140.4 -60 120 C-40.2 120 -20.4 120 0 120 C0 80.4 0 40.8 0 0 Z " fill="#000000" transform="translate(1320,420)"/>
<path d="M0 0 C19.8 0 39.6 0 60 0 C60 39.6 60 79.2 60 120 C40.2 120 20.4 120 0 120 C0 159.6 0 199.2 0 240 C19.8 240 39.6 240 60 240 C60 279.6 60 319.2 60 360 C20.4 360 -19.2 360 -60 360 C-60 320.4 -60 280.8 -60 240 C-79.8 240 -99.6 240 -120 240 C-120 200.4 -120 160.8 -120 120 C-100.2 120 -80.4 120 -60 120 C-60 100.2 -60 80.4 -60 60 C-40.2 60 -20.4 60 0 60 C0 40.2 0 20.4 0 0 Z " fill="#685A5A" transform="translate(840,240)"/>
<path d="M0 0 C19.8 0 39.6 0 60 0 C60 118.8 60 237.6 60 360 C99.6 360 139.2 360 180 360 C180 379.8 180 399.6 180 420 C120.6 420 61.2 420 0 420 C0 281.4 0 142.8 0 0 Z " fill="#040404" transform="translate(2040,2340)"/>
<path d="M0 0 C19.8 0 39.6 0 60 0 C60 138.6 60 277.2 60 420 C0.6 420 -58.8 420 -120 420 C-120 400.2 -120 380.4 -120 360 C-80.4 360 -40.8 360 0 360 C0 241.2 0 122.4 0 0 Z " fill="#040404" transform="translate(900,2340)"/>
<path d="M0 0 C158.4 0 316.8 0 480 0 C480 19.8 480 39.6 480 60 C321.6 60 163.2 60 0 60 C0 40.2 0 20.4 0 0 Z " fill="#000200" transform="translate(1260,1740)"/>
<path d="M0 0 C19.8 0 39.6 0 60 0 C60 158.4 60 316.8 60 480 C40.2 480 20.4 480 0 480 C0 321.6 0 163.2 0 0 Z " fill="#000000" transform="translate(2400,1200)"/>
<path d="M0 0 C19.8 0 39.6 0 60 0 C60 158.4 60 316.8 60 480 C40.2 480 20.4 480 0 480 C0 321.6 0 163.2 0 0 Z " fill="#000000" transform="translate(540,1200)"/>
<path d="M0 0 C19.8 0 39.6 0 60 0 C60 39.6 60 79.2 60 120 C79.8 120 99.6 120 120 120 C120 139.8 120 159.6 120 180 C139.8 180 159.6 180 180 180 C180 199.8 180 219.6 180 240 C140.4 240 100.8 240 60 240 C60 259.8 60 279.6 60 300 C40.2 300 20.4 300 0 300 C0 201 0 102 0 0 Z " fill="#DD200A" transform="translate(1740,840)"/>
<path d="M0 0 C19.8 0 39.6 0 60 0 C60 19.8 60 39.6 60 60 C79.8 60 99.6 60 120 60 C120 99.6 120 139.2 120 180 C100.2 180 80.4 180 60 180 C60 219.6 60 259.2 60 300 C20.4 300 -19.2 300 -60 300 C-60 280.2 -60 260.4 -60 240 C-40.2 240 -20.4 240 0 240 C0 160.8 0 81.6 0 0 Z " fill="#665858" transform="translate(2160,360)"/>
<path d="M0 0 C79.2 0 158.4 0 240 0 C240 39.6 240 79.2 240 120 C160.8 120 81.6 120 0 120 C0 80.4 0 40.8 0 0 Z " fill="#BF9855" transform="translate(1380,420)"/>
<path d="M0 0 C118.8 0 237.6 0 360 0 C360 19.8 360 39.6 360 60 C241.2 60 122.4 60 0 60 C0 40.2 0 20.4 0 0 Z " fill="#000000" transform="translate(1320,2340)"/>
<path d="M0 0 C19.8 0 39.6 0 60 0 C60 39.6 60 79.2 60 120 C99.6 120 139.2 120 180 120 C180 139.8 180 159.6 180 180 C100.8 180 21.6 180 -60 180 C-60 160.2 -60 140.4 -60 120 C-40.2 120 -20.4 120 0 120 C0 80.4 0 40.8 0 0 Z " fill="#428D17" transform="translate(1440,780)"/>
<path d="M0 0 C79.2 0 158.4 0 240 0 C240 19.8 240 39.6 240 60 C200.4 60 160.8 60 120 60 C120 79.8 120 99.6 120 120 C100.2 120 80.4 120 60 120 C60 100.2 60 80.4 60 60 C40.2 60 20.4 60 0 60 C0 40.2 0 20.4 0 0 Z " fill="#448E18" transform="translate(1380,1620)"/>
<path d="M0 0 C19.8 0 39.6 0 60 0 C60 99 60 198 60 300 C40.2 300 20.4 300 0 300 C0 201 0 102 0 0 Z " fill="#040404" transform="translate(2700,1440)"/>
<path d="M0 0 C19.8 0 39.6 0 60 0 C60 99 60 198 60 300 C40.2 300 20.4 300 0 300 C0 201 0 102 0 0 Z " fill="#010101" transform="translate(240,1440)"/>
<path d="M0 0 C19.8 0 39.6 0 60 0 C60 39.6 60 79.2 60 120 C79.8 120 99.6 120 120 120 C120 139.8 120 159.6 120 180 C100.2 180 80.4 180 60 180 C60 199.8 60 219.6 60 240 C40.2 240 20.4 240 0 240 C0 160.8 0 81.6 0 0 Z " fill="#E2540B" transform="translate(1680,1140)"/>
<path d="M0 0 C39.6 0 79.2 0 120 0 C120 19.8 120 39.6 120 60 C100.2 60 80.4 60 60 60 C60 99.6 60 139.2 60 180 C40.2 180 20.4 180 0 180 C0 160.2 0 140.4 0 120 C-19.8 120 -39.6 120 -60 120 C-60 100.2 -60 80.4 -60 60 C-40.2 60 -20.4 60 0 60 C0 40.2 0 20.4 0 0 Z " fill="#908585" transform="translate(2100,180)"/>
<path d="M0 0 C79.2 0 158.4 0 240 0 C240 19.8 240 39.6 240 60 C160.8 60 81.6 60 0 60 C0 40.2 0 20.4 0 0 Z " fill="#438D17" transform="translate(1380,1260)"/>
<path d="M0 0 C19.8 0 39.6 0 60 0 C60 19.8 60 39.6 60 60 C99.6 60 139.2 60 180 60 C180 79.8 180 99.6 180 120 C120.6 120 61.2 120 0 120 C0 80.4 0 40.8 0 0 Z " fill="#000000" transform="translate(1920,1080)"/>
<path d="M0 0 C19.8 0 39.6 0 60 0 C60 19.8 60 39.6 60 60 C79.8 60 99.6 60 120 60 C120 99.6 120 139.2 120 180 C100.2 180 80.4 180 60 180 C60 160.2 60 140.4 60 120 C40.2 120 20.4 120 0 120 C0 80.4 0 40.8 0 0 Z " fill="#FF9A06" transform="translate(1740,1140)"/>
<path d="M0 0 C39.6 0 79.2 0 120 0 C120 39.6 120 79.2 120 120 C80.4 120 40.8 120 0 120 C0 80.4 0 40.8 0 0 Z " fill="#EDB454" transform="translate(1980,1020)"/>
<path d="M0 0 C39.6 0 79.2 0 120 0 C120 39.6 120 79.2 120 120 C80.4 120 40.8 120 0 120 C0 80.4 0 40.8 0 0 Z " fill="#EDB454" transform="translate(1800,840)"/>
<path d="M0 0 C79.2 0 158.4 0 240 0 C240 19.8 240 39.6 240 60 C160.8 60 81.6 60 0 60 C0 40.2 0 20.4 0 0 Z " fill="#000000" transform="translate(1380,360)"/>
<path d="M0 0 C59.4 0 118.8 0 180 0 C180 19.8 180 39.6 180 60 C120.6 60 61.2 60 0 60 C0 40.2 0 20.4 0 0 Z " fill="#000000" transform="translate(1680,2280)"/>
<path d="M0 0 C59.4 0 118.8 0 180 0 C180 19.8 180 39.6 180 60 C120.6 60 61.2 60 0 60 C0 40.2 0 20.4 0 0 Z " fill="#000000" transform="translate(1140,2280)"/>
<path d="M0 0 C59.4 0 118.8 0 180 0 C180 19.8 180 39.6 180 60 C120.6 60 61.2 60 0 60 C0 40.2 0 20.4 0 0 Z " fill="#000600" transform="translate(1740,1800)"/>
<path d="M0 0 C59.4 0 118.8 0 180 0 C180 19.8 180 39.6 180 60 C120.6 60 61.2 60 0 60 C0 40.2 0 20.4 0 0 Z " fill="#000200" transform="translate(1080,1800)"/>
<path d="M0 0 C19.8 0 39.6 0 60 0 C60 59.4 60 118.8 60 180 C40.2 180 20.4 180 0 180 C0 120.6 0 61.2 0 0 Z " fill="#020202" transform="translate(2460,1680)"/>
<path d="M0 0 C19.8 0 39.6 0 60 0 C60 59.4 60 118.8 60 180 C40.2 180 20.4 180 0 180 C0 120.6 0 61.2 0 0 Z " fill="#000000" transform="translate(2340,1680)"/>
<path d="M0 0 C19.8 0 39.6 0 60 0 C60 59.4 60 118.8 60 180 C40.2 180 20.4 180 0 180 C0 120.6 0 61.2 0 0 Z " fill="#000000" transform="translate(600,1680)"/>
<path d="M0 0 C19.8 0 39.6 0 60 0 C60 59.4 60 118.8 60 180 C40.2 180 20.4 180 0 180 C0 120.6 0 61.2 0 0 Z " fill="#060606" transform="translate(480,1680)"/>
<path d="M0 0 C19.8 0 39.6 0 60 0 C60 59.4 60 118.8 60 180 C40.2 180 20.4 180 0 180 C0 120.6 0 61.2 0 0 Z " fill="#448D18" transform="translate(1680,1380)"/>
<path d="M0 0 C39.6 0 79.2 0 120 0 C120 39.6 120 79.2 120 120 C100.2 120 80.4 120 60 120 C60 100.2 60 80.4 60 60 C40.2 60 20.4 60 0 60 C0 40.2 0 20.4 0 0 Z " fill="#E2540B" transform="translate(1740,1320)"/>
<path d="M0 0 C19.8 0 39.6 0 60 0 C60 39.6 60 79.2 60 120 C20.4 120 -19.2 120 -60 120 C-60 100.2 -60 80.4 -60 60 C-40.2 60 -20.4 60 0 60 C0 40.2 0 20.4 0 0 Z " fill="#FD9706" transform="translate(1140,1140)"/>
<path d="M0 0 C19.8 0 39.6 0 60 0 C60 59.4 60 118.8 60 180 C40.2 180 20.4 180 0 180 C0 120.6 0 61.2 0 0 Z " fill="#448E18" transform="translate(1260,1020)"/>
<path d="M0 0 C59.4 0 118.8 0 180 0 C180 19.8 180 39.6 180 60 C120.6 60 61.2 60 0 60 C0 40.2 0 20.4 0 0 Z " fill="#000000" transform="translate(1740,600)"/>
<path d="M0 0 C59.4 0 118.8 0 180 0 C180 19.8 180 39.6 180 60 C120.6 60 61.2 60 0 60 C0 40.2 0 20.4 0 0 Z " fill="#000000" transform="translate(1080,600)"/>
<path d="M0 0 C19.8 0 39.6 0 60 0 C60 39.6 60 79.2 60 120 C20.4 120 -19.2 120 -60 120 C-60 100.2 -60 80.4 -60 60 C-40.2 60 -20.4 60 0 60 C0 40.2 0 20.4 0 0 Z " fill="#746868" transform="translate(840,480)"/>
<path d="M0 0 C19.8 0 39.6 0 60 0 C60 39.6 60 79.2 60 120 C20.4 120 -19.2 120 -60 120 C-60 100.2 -60 80.4 -60 60 C-40.2 60 -20.4 60 0 60 C0 40.2 0 20.4 0 0 Z " fill="#665858" transform="translate(840,240)"/>
<path d="M0 0 C19.8 0 39.6 0 60 0 C60 59.4 60 118.8 60 180 C40.2 180 20.4 180 0 180 C0 120.6 0 61.2 0 0 Z " fill="#020202" transform="translate(1740,180)"/>
<path d="M0 0 C19.8 0 39.6 0 60 0 C60 59.4 60 118.8 60 180 C40.2 180 20.4 180 0 180 C0 120.6 0 61.2 0 0 Z " fill="#000000" transform="translate(1200,180)"/>
<path d="M0 0 C39.6 0 79.2 0 120 0 C120 19.8 120 39.6 120 60 C80.4 60 40.8 60 0 60 C0 40.2 0 20.4 0 0 Z " fill="#000000" transform="translate(1860,2220)"/>
<path d="M0 0 C39.6 0 79.2 0 120 0 C120 19.8 120 39.6 120 60 C80.4 60 40.8 60 0 60 C0 40.2 0 20.4 0 0 Z " fill="#000000" transform="translate(1020,2220)"/>
<path d="M0 0 C39.6 0 79.2 0 120 0 C120 19.8 120 39.6 120 60 C80.4 60 40.8 60 0 60 C0 40.2 0 20.4 0 0 Z " fill="#000000" transform="translate(1980,2160)"/>
<path d="M0 0 C39.6 0 79.2 0 120 0 C120 19.8 120 39.6 120 60 C80.4 60 40.8 60 0 60 C0 40.2 0 20.4 0 0 Z " fill="#000000" transform="translate(900,2160)"/>
<path d="M0 0 C19.8 0 39.6 0 60 0 C60 39.6 60 79.2 60 120 C40.2 120 20.4 120 0 120 C0 80.4 0 40.8 0 0 Z " fill="#000000" transform="translate(2220,1920)"/>
<path d="M0 0 C19.8 0 39.6 0 60 0 C60 39.6 60 79.2 60 120 C40.2 120 20.4 120 0 120 C0 80.4 0 40.8 0 0 Z " fill="#000000" transform="translate(720,1920)"/>
<path d="M0 0 C39.6 0 79.2 0 120 0 C120 19.8 120 39.6 120 60 C80.4 60 40.8 60 0 60 C0 40.2 0 20.4 0 0 Z " fill="#000200" transform="translate(1920,1860)"/>
<path d="M0 0 C39.6 0 79.2 0 120 0 C120 19.8 120 39.6 120 60 C80.4 60 40.8 60 0 60 C0 40.2 0 20.4 0 0 Z " fill="#000200" transform="translate(960,1860)"/>
<path d="M0 0 C39.6 0 79.2 0 120 0 C120 19.8 120 39.6 120 60 C80.4 60 40.8 60 0 60 C0 40.2 0 20.4 0 0 Z " fill="#E2530A" transform="translate(1080,1260)"/>
<path d="M0 0 C19.8 0 39.6 0 60 0 C60 39.6 60 79.2 60 120 C40.2 120 20.4 120 0 120 C0 80.4 0 40.8 0 0 Z " fill="#B51B08" transform="translate(1680,1140)"/>
<path d="M0 0 C19.8 0 39.6 0 60 0 C60 39.6 60 79.2 60 120 C40.2 120 20.4 120 0 120 C0 80.4 0 40.8 0 0 Z " fill="#DC440A" transform="translate(1200,1140)"/>
<path d="M0 0 C19.8 0 39.6 0 60 0 C60 39.6 60 79.2 60 120 C40.2 120 20.4 120 0 120 C0 80.4 0 40.8 0 0 Z " fill="#007E00" transform="translate(1920,1080)"/>
<path d="M0 0 C19.8 0 39.6 0 60 0 C60 39.6 60 79.2 60 120 C40.2 120 20.4 120 0 120 C0 80.4 0 40.8 0 0 Z " fill="#000000" transform="translate(2340,1080)"/>
<path d="M0 0 C19.8 0 39.6 0 60 0 C60 39.6 60 79.2 60 120 C40.2 120 20.4 120 0 120 C0 80.4 0 40.8 0 0 Z " fill="#000000" transform="translate(600,1080)"/>
<path d="M0 0 C19.8 0 39.6 0 60 0 C60 39.6 60 79.2 60 120 C40.2 120 20.4 120 0 120 C0 80.4 0 40.8 0 0 Z " fill="#000000" transform="translate(2100,1020)"/>
<path d="M0 0 C19.8 0 39.6 0 60 0 C60 39.6 60 79.2 60 120 C40.2 120 20.4 120 0 120 C0 80.4 0 40.8 0 0 Z " fill="#000000" transform="translate(2280,960)"/>
<path d="M0 0 C19.8 0 39.6 0 60 0 C60 39.6 60 79.2 60 120 C40.2 120 20.4 120 0 120 C0 80.4 0 40.8 0 0 Z " fill="#000000" transform="translate(660,960)"/>
<path d="M0 0 C19.8 0 39.6 0 60 0 C60 39.6 60 79.2 60 120 C40.2 120 20.4 120 0 120 C0 80.4 0 40.8 0 0 Z " fill="#DA1F0A" transform="translate(1740,840)"/>
<path d="M0 0 C39.6 0 79.2 0 120 0 C120 19.8 120 39.6 120 60 C80.4 60 40.8 60 0 60 C0 40.2 0 20.4 0 0 Z " fill="#000200" transform="translate(1800,780)"/>
<path d="M0 0 C39.6 0 79.2 0 120 0 C120 19.8 120 39.6 120 60 C80.4 60 40.8 60 0 60 C0 40.2 0 20.4 0 0 Z " fill="#000000" transform="translate(1920,660)"/>
<path d="M0 0 C39.6 0 79.2 0 120 0 C120 19.8 120 39.6 120 60 C80.4 60 40.8 60 0 60 C0 40.2 0 20.4 0 0 Z " fill="#000000" transform="translate(960,660)"/>
<path d="M0 0 C39.6 0 79.2 0 120 0 C120 19.8 120 39.6 120 60 C80.4 60 40.8 60 0 60 C0 40.2 0 20.4 0 0 Z " fill="#D2CECE" transform="translate(2100,600)"/>
<path d="M0 0 C19.8 0 39.6 0 60 0 C60 39.6 60 79.2 60 120 C40.2 120 20.4 120 0 120 C0 80.4 0 40.8 0 0 Z " fill="#B7B0B0" transform="translate(720,360)"/>
<path d="M0 0 C39.6 0 79.2 0 120 0 C120 19.8 120 39.6 120 60 C80.4 60 40.8 60 0 60 C0 40.2 0 20.4 0 0 Z " fill="#000000" transform="translate(1440,240)"/>
<path d="M0 0 C39.6 0 79.2 0 120 0 C120 19.8 120 39.6 120 60 C80.4 60 40.8 60 0 60 C0 40.2 0 20.4 0 0 Z " fill="#665858" transform="translate(2100,180)"/>
<path d="M0 0 C39.6 0 79.2 0 120 0 C120 19.8 120 39.6 120 60 C80.4 60 40.8 60 0 60 C0 40.2 0 20.4 0 0 Z " fill="#000000" transform="translate(1620,120)"/>
<path d="M0 0 C39.6 0 79.2 0 120 0 C120 19.8 120 39.6 120 60 C80.4 60 40.8 60 0 60 C0 40.2 0 20.4 0 0 Z " fill="#000000" transform="translate(1260,120)"/>
<path d="M0 0 C19.8 0 39.6 0 60 0 C60 39.6 60 79.2 60 120 C40.2 120 20.4 120 0 120 C0 80.4 0 40.8 0 0 Z " fill="#675959" transform="translate(900,120)"/>
<path d="M0 0 C19.8 0 39.6 0 60 0 C60 19.8 60 39.6 60 60 C40.2 60 20.4 60 0 60 C0 40.2 0 20.4 0 0 Z " fill="#181818" transform="translate(2040,2700)"/>
<path d="M0 0 C19.8 0 39.6 0 60 0 C60 19.8 60 39.6 60 60 C40.2 60 20.4 60 0 60 C0 40.2 0 20.4 0 0 Z " fill="#040404" transform="translate(1980,2280)"/>
<path d="M0 0 C19.8 0 39.6 0 60 0 C60 19.8 60 39.6 60 60 C40.2 60 20.4 60 0 60 C0 40.2 0 20.4 0 0 Z " fill="#0E0E0E" transform="translate(1800,2280)"/>
<path d="M0 0 C19.8 0 39.6 0 60 0 C60 19.8 60 39.6 60 60 C40.2 60 20.4 60 0 60 C0 40.2 0 20.4 0 0 Z " fill="#040404" transform="translate(960,2280)"/>
<path d="M0 0 C19.8 0 39.6 0 60 0 C60 19.8 60 39.6 60 60 C40.2 60 20.4 60 0 60 C0 40.2 0 20.4 0 0 Z " fill="#000000" transform="translate(2100,2100)"/>
<path d="M0 0 C19.8 0 39.6 0 60 0 C60 19.8 60 39.6 60 60 C40.2 60 20.4 60 0 60 C0 40.2 0 20.4 0 0 Z " fill="#098209" transform="translate(900,2100)"/>
<path d="M0 0 C19.8 0 39.6 0 60 0 C60 19.8 60 39.6 60 60 C40.2 60 20.4 60 0 60 C0 40.2 0 20.4 0 0 Z " fill="#000000" transform="translate(840,2100)"/>
<path d="M0 0 C19.8 0 39.6 0 60 0 C60 19.8 60 39.6 60 60 C40.2 60 20.4 60 0 60 C0 40.2 0 20.4 0 0 Z " fill="#000000" transform="translate(2160,2040)"/>
<path d="M0 0 C19.8 0 39.6 0 60 0 C60 19.8 60 39.6 60 60 C40.2 60 20.4 60 0 60 C0 40.2 0 20.4 0 0 Z " fill="#000000" transform="translate(780,2040)"/>
<path d="M0 0 C19.8 0 39.6 0 60 0 C60 19.8 60 39.6 60 60 C40.2 60 20.4 60 0 60 C0 40.2 0 20.4 0 0 Z " fill="#000200" transform="translate(2100,1980)"/>
<path d="M0 0 C19.8 0 39.6 0 60 0 C60 19.8 60 39.6 60 60 C40.2 60 20.4 60 0 60 C0 40.2 0 20.4 0 0 Z " fill="#000200" transform="translate(840,1980)"/>
<path d="M0 0 C19.8 0 39.6 0 60 0 C60 19.8 60 39.6 60 60 C40.2 60 20.4 60 0 60 C0 40.2 0 20.4 0 0 Z " fill="#000200" transform="translate(2040,1920)"/>
<path d="M0 0 C19.8 0 39.6 0 60 0 C60 19.8 60 39.6 60 60 C40.2 60 20.4 60 0 60 C0 40.2 0 20.4 0 0 Z " fill="#000200" transform="translate(900,1920)"/>
<path d="M0 0 C19.8 0 39.6 0 60 0 C60 19.8 60 39.6 60 60 C40.2 60 20.4 60 0 60 C0 40.2 0 20.4 0 0 Z " fill="#040404" transform="translate(2520,1860)"/>
<path d="M0 0 C19.8 0 39.6 0 60 0 C60 19.8 60 39.6 60 60 C40.2 60 20.4 60 0 60 C0 40.2 0 20.4 0 0 Z " fill="#000000" transform="translate(2280,1860)"/>
<path d="M0 0 C19.8 0 39.6 0 60 0 C60 19.8 60 39.6 60 60 C40.2 60 20.4 60 0 60 C0 40.2 0 20.4 0 0 Z " fill="#000000" transform="translate(660,1860)"/>
<path d="M0 0 C19.8 0 39.6 0 60 0 C60 19.8 60 39.6 60 60 C40.2 60 20.4 60 0 60 C0 40.2 0 20.4 0 0 Z " fill="#040404" transform="translate(420,1860)"/>
<path d="M0 0 C19.8 0 39.6 0 60 0 C60 19.8 60 39.6 60 60 C40.2 60 20.4 60 0 60 C0 40.2 0 20.4 0 0 Z " fill="#040404" transform="translate(2580,1800)"/>
<path d="M0 0 C19.8 0 39.6 0 60 0 C60 19.8 60 39.6 60 60 C40.2 60 20.4 60 0 60 C0 40.2 0 20.4 0 0 Z " fill="#040404" transform="translate(360,1800)"/>
<path d="M0 0 C19.8 0 39.6 0 60 0 C60 19.8 60 39.6 60 60 C40.2 60 20.4 60 0 60 C0 40.2 0 20.4 0 0 Z " fill="#242424" transform="translate(2640,1740)"/>
<path d="M0 0 C19.8 0 39.6 0 60 0 C60 19.8 60 39.6 60 60 C40.2 60 20.4 60 0 60 C0 40.2 0 20.4 0 0 Z " fill="#040404" transform="translate(300,1740)"/>
<path d="M0 0 C19.8 0 39.6 0 60 0 C60 19.8 60 39.6 60 60 C40.2 60 20.4 60 0 60 C0 40.2 0 20.4 0 0 Z " fill="#0F0F0F" transform="translate(540,1620)"/>
<path d="M0 0 C19.8 0 39.6 0 60 0 C60 19.8 60 39.6 60 60 C40.2 60 20.4 60 0 60 C0 40.2 0 20.4 0 0 Z " fill="#448E18" transform="translate(1620,1560)"/>
<path d="M0 0 C19.8 0 39.6 0 60 0 C60 19.8 60 39.6 60 60 C40.2 60 20.4 60 0 60 C0 40.2 0 20.4 0 0 Z " fill="#448E18" transform="translate(1320,1560)"/>
<path d="M0 0 C19.8 0 39.6 0 60 0 C60 19.8 60 39.6 60 60 C40.2 60 20.4 60 0 60 C0 40.2 0 20.4 0 0 Z " fill="#448E18" transform="translate(1260,1500)"/>
<path d="M0 0 C19.8 0 39.6 0 60 0 C60 19.8 60 39.6 60 60 C40.2 60 20.4 60 0 60 C0 40.2 0 20.4 0 0 Z " fill="#141414" transform="translate(2400,1440)"/>
<path d="M0 0 C19.8 0 39.6 0 60 0 C60 19.8 60 39.6 60 60 C40.2 60 20.4 60 0 60 C0 40.2 0 20.4 0 0 Z " fill="#D71F0A" transform="translate(1800,1380)"/>
<path d="M0 0 C19.8 0 39.6 0 60 0 C60 19.8 60 39.6 60 60 C40.2 60 20.4 60 0 60 C0 40.2 0 20.4 0 0 Z " fill="#DF210A" transform="translate(1860,1320)"/>
<path d="M0 0 C19.8 0 39.6 0 60 0 C60 19.8 60 39.6 60 60 C40.2 60 20.4 60 0 60 C0 40.2 0 20.4 0 0 Z " fill="#FF9A06" transform="translate(1740,1320)"/>
<path d="M0 0 C19.8 0 39.6 0 60 0 C60 19.8 60 39.6 60 60 C40.2 60 20.4 60 0 60 C0 40.2 0 20.4 0 0 Z " fill="#DF200A" transform="translate(1680,1320)"/>
<path d="M0 0 C19.8 0 39.6 0 60 0 C60 19.8 60 39.6 60 60 C40.2 60 20.4 60 0 60 C0 40.2 0 20.4 0 0 Z " fill="#448E18" transform="translate(1620,1320)"/>
<path d="M0 0 C19.8 0 39.6 0 60 0 C60 19.8 60 39.6 60 60 C40.2 60 20.4 60 0 60 C0 40.2 0 20.4 0 0 Z " fill="#D6260A" transform="translate(1920,1260)"/>
<path d="M0 0 C19.8 0 39.6 0 60 0 C60 19.8 60 39.6 60 60 C40.2 60 20.4 60 0 60 C0 40.2 0 20.4 0 0 Z " fill="#E2540B" transform="translate(1860,1260)"/>
<path d="M0 0 C19.8 0 39.6 0 60 0 C60 19.8 60 39.6 60 60 C40.2 60 20.4 60 0 60 C0 40.2 0 20.4 0 0 Z " fill="#C42E09" transform="translate(1920,1200)"/>
<path d="M0 0 C19.8 0 39.6 0 60 0 C60 19.8 60 39.6 60 60 C40.2 60 20.4 60 0 60 C0 40.2 0 20.4 0 0 Z " fill="#DF200A" transform="translate(1860,1200)"/>
<path d="M0 0 C19.8 0 39.6 0 60 0 C60 19.8 60 39.6 60 60 C40.2 60 20.4 60 0 60 C0 40.2 0 20.4 0 0 Z " fill="#448E18" transform="translate(1320,1200)"/>
<path d="M0 0 C19.8 0 39.6 0 60 0 C60 19.8 60 39.6 60 60 C40.2 60 20.4 60 0 60 C0 40.2 0 20.4 0 0 Z " fill="#E2540B" transform="translate(1860,1140)"/>
<path d="M0 0 C19.8 0 39.6 0 60 0 C60 19.8 60 39.6 60 60 C40.2 60 20.4 60 0 60 C0 40.2 0 20.4 0 0 Z " fill="#B61A08" transform="translate(1800,1140)"/>
<path d="M0 0 C19.8 0 39.6 0 60 0 C60 19.8 60 39.6 60 60 C40.2 60 20.4 60 0 60 C0 40.2 0 20.4 0 0 Z " fill="#CF210A" transform="translate(1680,1140)"/>
<path d="M0 0 C19.8 0 39.6 0 60 0 C60 19.8 60 39.6 60 60 C40.2 60 20.4 60 0 60 C0 40.2 0 20.4 0 0 Z " fill="#E2530B" transform="translate(1200,1140)"/>
<path d="M0 0 C19.8 0 39.6 0 60 0 C60 19.8 60 39.6 60 60 C40.2 60 20.4 60 0 60 C0 40.2 0 20.4 0 0 Z " fill="#E2540B" transform="translate(1080,1140)"/>
<path d="M0 0 C19.8 0 39.6 0 60 0 C60 19.8 60 39.6 60 60 C40.2 60 20.4 60 0 60 C0 40.2 0 20.4 0 0 Z " fill="#A62B08" transform="translate(1020,1140)"/>
<path d="M0 0 C19.8 0 39.6 0 60 0 C60 19.8 60 39.6 60 60 C40.2 60 20.4 60 0 60 C0 40.2 0 20.4 0 0 Z " fill="#000000" transform="translate(1920,1080)"/>
<path d="M0 0 C19.8 0 39.6 0 60 0 C60 19.8 60 39.6 60 60 C40.2 60 20.4 60 0 60 C0 40.2 0 20.4 0 0 Z " fill="#E2540B" transform="translate(1800,1080)"/>
<path d="M0 0 C19.8 0 39.6 0 60 0 C60 19.8 60 39.6 60 60 C40.2 60 20.4 60 0 60 C0 40.2 0 20.4 0 0 Z " fill="#DF200A" transform="translate(1080,1080)"/>
<path d="M0 0 C19.8 0 39.6 0 60 0 C60 19.8 60 39.6 60 60 C40.2 60 20.4 60 0 60 C0 40.2 0 20.4 0 0 Z " fill="#000000" transform="translate(1860,1020)"/>
<path d="M0 0 C19.8 0 39.6 0 60 0 C60 19.8 60 39.6 60 60 C40.2 60 20.4 60 0 60 C0 40.2 0 20.4 0 0 Z " fill="#B31A08" transform="translate(1800,1020)"/>
<path d="M0 0 C19.8 0 39.6 0 60 0 C60 19.8 60 39.6 60 60 C40.2 60 20.4 60 0 60 C0 40.2 0 20.4 0 0 Z " fill="#448E18" transform="translate(1680,1020)"/>
<path d="M0 0 C19.8 0 39.6 0 60 0 C60 19.8 60 39.6 60 60 C40.2 60 20.4 60 0 60 C0 40.2 0 20.4 0 0 Z " fill="#E2540B" transform="translate(1200,1020)"/>
<path d="M0 0 C19.8 0 39.6 0 60 0 C60 19.8 60 39.6 60 60 C40.2 60 20.4 60 0 60 C0 40.2 0 20.4 0 0 Z " fill="#000000" transform="translate(2040,960)"/>
<path d="M0 0 C19.8 0 39.6 0 60 0 C60 19.8 60 39.6 60 60 C40.2 60 20.4 60 0 60 C0 40.2 0 20.4 0 0 Z " fill="#448E18" transform="translate(1620,960)"/>
<path d="M0 0 C19.8 0 39.6 0 60 0 C60 19.8 60 39.6 60 60 C40.2 60 20.4 60 0 60 C0 40.2 0 20.4 0 0 Z " fill="#448E18" transform="translate(1320,960)"/>
<path d="M0 0 C19.8 0 39.6 0 60 0 C60 19.8 60 39.6 60 60 C40.2 60 20.4 60 0 60 C0 40.2 0 20.4 0 0 Z " fill="#000000" transform="translate(2220,900)"/>
<path d="M0 0 C19.8 0 39.6 0 60 0 C60 19.8 60 39.6 60 60 C40.2 60 20.4 60 0 60 C0 40.2 0 20.4 0 0 Z " fill="#000000" transform="translate(1980,900)"/>
<path d="M0 0 C19.8 0 39.6 0 60 0 C60 19.8 60 39.6 60 60 C40.2 60 20.4 60 0 60 C0 40.2 0 20.4 0 0 Z " fill="#997536" transform="translate(1800,900)"/>
<path d="M0 0 C19.8 0 39.6 0 60 0 C60 19.8 60 39.6 60 60 C40.2 60 20.4 60 0 60 C0 40.2 0 20.4 0 0 Z " fill="#0B830B" transform="translate(780,900)"/>
<path d="M0 0 C19.8 0 39.6 0 60 0 C60 19.8 60 39.6 60 60 C40.2 60 20.4 60 0 60 C0 40.2 0 20.4 0 0 Z " fill="#000000" transform="translate(720,900)"/>
<path d="M0 0 C19.8 0 39.6 0 60 0 C60 19.8 60 39.6 60 60 C40.2 60 20.4 60 0 60 C0 40.2 0 20.4 0 0 Z " fill="#000000" transform="translate(2160,840)"/>
<path d="M0 0 C19.8 0 39.6 0 60 0 C60 19.8 60 39.6 60 60 C40.2 60 20.4 60 0 60 C0 40.2 0 20.4 0 0 Z " fill="#000000" transform="translate(1920,840)"/>
<path d="M0 0 C19.8 0 39.6 0 60 0 C60 19.8 60 39.6 60 60 C40.2 60 20.4 60 0 60 C0 40.2 0 20.4 0 0 Z " fill="#000000" transform="translate(780,840)"/>
<path d="M0 0 C19.8 0 39.6 0 60 0 C60 19.8 60 39.6 60 60 C40.2 60 20.4 60 0 60 C0 40.2 0 20.4 0 0 Z " fill="#000000" transform="translate(2100,780)"/>
<path d="M0 0 C19.8 0 39.6 0 60 0 C60 19.8 60 39.6 60 60 C40.2 60 20.4 60 0 60 C0 40.2 0 20.4 0 0 Z " fill="#000000" transform="translate(840,780)"/>
<path d="M0 0 C19.8 0 39.6 0 60 0 C60 19.8 60 39.6 60 60 C40.2 60 20.4 60 0 60 C0 40.2 0 20.4 0 0 Z " fill="#000000" transform="translate(2040,720)"/>
<path d="M0 0 C19.8 0 39.6 0 60 0 C60 19.8 60 39.6 60 60 C40.2 60 20.4 60 0 60 C0 40.2 0 20.4 0 0 Z " fill="#000000" transform="translate(900,720)"/>
<path d="M0 0 C19.8 0 39.6 0 60 0 C60 19.8 60 39.6 60 60 C40.2 60 20.4 60 0 60 C0 40.2 0 20.4 0 0 Z " fill="#675959" transform="translate(2100,600)"/>
<path d="M0 0 C19.8 0 39.6 0 60 0 C60 19.8 60 39.6 60 60 C40.2 60 20.4 60 0 60 C0 40.2 0 20.4 0 0 Z " fill="#DFDCDC" transform="translate(2220,540)"/>
<path d="M0 0 C19.8 0 39.6 0 60 0 C60 19.8 60 39.6 60 60 C40.2 60 20.4 60 0 60 C0 40.2 0 20.4 0 0 Z " fill="#938989" transform="translate(780,540)"/>
<path d="M0 0 C19.8 0 39.6 0 60 0 C60 19.8 60 39.6 60 60 C40.2 60 20.4 60 0 60 C0 40.2 0 20.4 0 0 Z " fill="#716363" transform="translate(2220,480)"/>
<path d="M0 0 C19.8 0 39.6 0 60 0 C60 19.8 60 39.6 60 60 C40.2 60 20.4 60 0 60 C0 40.2 0 20.4 0 0 Z " fill="#8E8383" transform="translate(840,480)"/>
<path d="M0 0 C19.8 0 39.6 0 60 0 C60 19.8 60 39.6 60 60 C40.2 60 20.4 60 0 60 C0 40.2 0 20.4 0 0 Z " fill="#F6F5F5" transform="translate(720,480)"/>
<path d="M0 0 C19.8 0 39.6 0 60 0 C60 19.8 60 39.6 60 60 C40.2 60 20.4 60 0 60 C0 40.2 0 20.4 0 0 Z " fill="#DFDCDC" transform="translate(840,420)"/>
<path d="M0 0 C19.8 0 39.6 0 60 0 C60 19.8 60 39.6 60 60 C40.2 60 20.4 60 0 60 C0 40.2 0 20.4 0 0 Z " fill="#000000" transform="translate(1680,360)"/>
<path d="M0 0 C19.8 0 39.6 0 60 0 C60 19.8 60 39.6 60 60 C40.2 60 20.4 60 0 60 C0 40.2 0 20.4 0 0 Z " fill="#000000" transform="translate(1260,360)"/>
<path d="M0 0 C19.8 0 39.6 0 60 0 C60 19.8 60 39.6 60 60 C40.2 60 20.4 60 0 60 C0 40.2 0 20.4 0 0 Z " fill="#9D9494" transform="translate(720,360)"/>
<path d="M0 0 C19.8 0 39.6 0 60 0 C60 19.8 60 39.6 60 60 C40.2 60 20.4 60 0 60 C0 40.2 0 20.4 0 0 Z " fill="#655757" transform="translate(2100,300)"/>
<path d="M0 0 C19.8 0 39.6 0 60 0 C60 19.8 60 39.6 60 60 C40.2 60 20.4 60 0 60 C0 40.2 0 20.4 0 0 Z " fill="#776A6A" transform="translate(780,300)"/>
<path d="M0 0 C19.8 0 39.6 0 60 0 C60 19.8 60 39.6 60 60 C40.2 60 20.4 60 0 60 C0 40.2 0 20.4 0 0 Z " fill="#867B7B" transform="translate(2040,240)"/>
<path d="M0 0 C19.8 0 39.6 0 60 0 C60 19.8 60 39.6 60 60 C40.2 60 20.4 60 0 60 C0 40.2 0 20.4 0 0 Z " fill="#756969" transform="translate(840,240)"/>
<path d="M0 0 C19.8 0 39.6 0 60 0 C60 19.8 60 39.6 60 60 C40.2 60 20.4 60 0 60 C0 40.2 0 20.4 0 0 Z " fill="#000000" transform="translate(1560,180)"/>
<path d="M0 0 C19.8 0 39.6 0 60 0 C60 19.8 60 39.6 60 60 C40.2 60 20.4 60 0 60 C0 40.2 0 20.4 0 0 Z " fill="#000000" transform="translate(1380,180)"/>
<path d="M0 0 C19.8 0 39.6 0 60 0 C60 19.8 60 39.6 60 60 C40.2 60 20.4 60 0 60 C0 40.2 0 20.4 0 0 Z " fill="#645656" transform="translate(2220,120)"/>
<path d="M0 0 C19.8 0 39.6 0 60 0 C60 19.8 60 39.6 60 60 C40.2 60 20.4 60 0 60 C0 40.2 0 20.4 0 0 Z " fill="#675959" transform="translate(960,60)"/>
</svg>
