<?xml version="1.0" encoding="UTF-8"?>
<svg version="1.1" xmlns="http://www.w3.org/2000/svg" width="3000" height="3000">
<path d="M0 0 C990 0 1980 0 3000 0 C3000 990 3000 1980 3000 3000 C2010 3000 1020 3000 0 3000 C0 2010 0 1020 0 0 Z " fill="#FEFEFE" transform="translate(0,0)"/>
<path d="M0 0 C376.2 0 752.4 0 1140 0 C1140 653.4 1140 1306.8 1140 1980 C704.4 1980 268.8 1980 -180 1980 C-180 1386 -180 792 -180 180 C-160.2 180 -140.4 180 -120 180 C-120 160.2 -120 140.4 -120 120 C-100.2 120 -80.4 120 -60 120 C-60 100.2 -60 80.4 -60 60 C-40.2 60 -20.4 60 0 60 C0 40.2 0 20.4 0 0 Z " fill="#F3C268" transform="translate(1020,300)"/>
<path d="M0 0 C376.2 0 752.4 0 1140 0 C1140 653.4 1140 1306.8 1140 1980 C704.4 1980 268.8 1980 -180 1980 C-180 1386 -180 792 -180 180 C-160.2 180 -140.4 180 -120 180 C-120 160.2 -120 140.4 -120 120 C-100.2 120 -80.4 120 -60 120 C-60 100.2 -60 80.4 -60 60 C-40.2 60 -20.4 60 0 60 C0 40.2 0 20.4 0 0 Z M60 60 C60 119.4 60 178.8 60 240 C0.6 240 -58.8 240 -120 240 C-120 794.4 -120 1348.8 -120 1920 C276 1920 672 1920 1080 1920 C1080 1306.2 1080 692.4 1080 60 C743.4 60 406.8 60 60 60 Z " fill="#000000" transform="translate(1020,300)"/>
<path d="M0 0 C118.8 0 237.6 0 360 0 C360 356.4 360 712.8 360 1080 C241.2 1080 122.4 1080 0 1080 C0 723.6 0 367.2 0 0 Z " fill="#FFF4E1" transform="translate(1620,1020)"/>
<path d="M0 0 C118.8 0 237.6 0 360 0 C360 356.4 360 712.8 360 1080 C241.2 1080 122.4 1080 0 1080 C0 723.6 0 367.2 0 0 Z " fill="#FFF4E2" transform="translate(1020,1020)"/>
<path d="M0 0 C158.4 0 316.8 0 480 0 C480 435.6 480 871.2 480 1320 C321.6 1320 163.2 1320 0 1320 C0 884.4 0 448.8 0 0 Z M60 180 C60 536.4 60 892.8 60 1260 C178.8 1260 297.6 1260 420 1260 C420 903.6 420 547.2 420 180 C301.2 180 182.4 180 60 180 Z " fill="#000000" transform="translate(1560,840)"/>
<path d="M0 0 C158.4 0 316.8 0 480 0 C480 435.6 480 871.2 480 1320 C321.6 1320 163.2 1320 0 1320 C0 884.4 0 448.8 0 0 Z M60 180 C60 536.4 60 892.8 60 1260 C178.8 1260 297.6 1260 420 1260 C420 903.6 420 547.2 420 180 C301.2 180 182.4 180 60 180 Z " fill="#000000" transform="translate(960,840)"/>
<path d="M0 0 C198 0 396 0 600 0 C600 59.4 600 118.8 600 180 C402 180 204 180 0 180 C0 120.6 0 61.2 0 0 Z " fill="#000000" transform="translate(1200,480)"/>
<path d="M0 0 C158.4 0 316.8 0 480 0 C480 19.8 480 39.6 480 60 C321.6 60 163.2 60 0 60 C0 40.2 0 20.4 0 0 Z " fill="#FFDC9B" transform="translate(1260,540)"/>
<path d="M0 0 C118.8 0 237.6 0 360 0 C360 19.8 360 39.6 360 60 C241.2 60 122.4 60 0 60 C0 40.2 0 20.4 0 0 Z " fill="#FFDC9B" transform="translate(1620,900)"/>
<path d="M0 0 C118.8 0 237.6 0 360 0 C360 19.8 360 39.6 360 60 C241.2 60 122.4 60 0 60 C0 40.2 0 20.4 0 0 Z " fill="#FFDC9B" transform="translate(1020,900)"/>
<path d="M0 0 C79.2 0 158.4 0 240 0 C240 19.8 240 39.6 240 60 C160.8 60 81.6 60 0 60 C0 40.2 0 20.4 0 0 Z " fill="#000000" transform="translate(1680,1920)"/>
<path d="M0 0 C79.2 0 158.4 0 240 0 C240 19.8 240 39.6 240 60 C160.8 60 81.6 60 0 60 C0 40.2 0 20.4 0 0 Z " fill="#010101" transform="translate(1680,1800)"/>
<path d="M0 0 C79.2 0 158.4 0 240 0 C240 19.8 240 39.6 240 60 C160.8 60 81.6 60 0 60 C0 40.2 0 20.4 0 0 Z " fill="#010101" transform="translate(1680,1680)"/>
<path d="M0 0 C79.2 0 158.4 0 240 0 C240 19.8 240 39.6 240 60 C160.8 60 81.6 60 0 60 C0 40.2 0 20.4 0 0 Z " fill="#000000" transform="translate(1680,1560)"/>
<path d="M0 0 C79.2 0 158.4 0 240 0 C240 19.8 240 39.6 240 60 C160.8 60 81.6 60 0 60 C0 40.2 0 20.4 0 0 Z " fill="#020202" transform="translate(1080,1560)"/>
<path d="M0 0 C79.2 0 158.4 0 240 0 C240 19.8 240 39.6 240 60 C160.8 60 81.6 60 0 60 C0 40.2 0 20.4 0 0 Z " fill="#010101" transform="translate(1680,1440)"/>
<path d="M0 0 C79.2 0 158.4 0 240 0 C240 19.8 240 39.6 240 60 C160.8 60 81.6 60 0 60 C0 40.2 0 20.4 0 0 Z " fill="#000000" transform="translate(1080,1440)"/>
<path d="M0 0 C79.2 0 158.4 0 240 0 C240 19.8 240 39.6 240 60 C160.8 60 81.6 60 0 60 C0 40.2 0 20.4 0 0 Z " fill="#000000" transform="translate(1680,1320)"/>
<path d="M0 0 C79.2 0 158.4 0 240 0 C240 19.8 240 39.6 240 60 C160.8 60 81.6 60 0 60 C0 40.2 0 20.4 0 0 Z " fill="#010101" transform="translate(1080,1320)"/>
<path d="M0 0 C79.2 0 158.4 0 240 0 C240 19.8 240 39.6 240 60 C160.8 60 81.6 60 0 60 C0 40.2 0 20.4 0 0 Z " fill="#030303" transform="translate(1680,1200)"/>
<path d="M0 0 C79.2 0 158.4 0 240 0 C240 19.8 240 39.6 240 60 C160.8 60 81.6 60 0 60 C0 40.2 0 20.4 0 0 Z " fill="#000000" transform="translate(1080,1200)"/>
<path d="M0 0 C79.2 0 158.4 0 240 0 C240 19.8 240 39.6 240 60 C160.8 60 81.6 60 0 60 C0 40.2 0 20.4 0 0 Z " fill="#010101" transform="translate(1680,1080)"/>
<path d="M0 0 C79.2 0 158.4 0 240 0 C240 19.8 240 39.6 240 60 C160.8 60 81.6 60 0 60 C0 40.2 0 20.4 0 0 Z " fill="#000000" transform="translate(1080,1080)"/>
<path d="M0 0 C39.6 0 79.2 0 120 0 C120 19.8 120 39.6 120 60 C80.4 60 40.8 60 0 60 C0 40.2 0 20.4 0 0 Z " fill="#121212" transform="translate(1680,1560)"/>
<path d="M0 0 C19.8 0 39.6 0 60 0 C60 39.6 60 79.2 60 120 C40.2 120 20.4 120 0 120 C0 80.4 0 40.8 0 0 Z " fill="#0C0C0C" transform="translate(1980,1020)"/>
<path d="M0 0 C19.8 0 39.6 0 60 0 C60 19.8 60 39.6 60 60 C40.2 60 20.4 60 0 60 C0 40.2 0 20.4 0 0 Z " fill="#0B0B0B" transform="translate(840,2160)"/>
<path d="M0 0 C19.8 0 39.6 0 60 0 C60 19.8 60 39.6 60 60 C40.2 60 20.4 60 0 60 C0 40.2 0 20.4 0 0 Z " fill="#0F0F0F" transform="translate(2100,1500)"/>
<path d="M0 0 C19.8 0 39.6 0 60 0 C60 19.8 60 39.6 60 60 C40.2 60 20.4 60 0 60 C0 40.2 0 20.4 0 0 Z " fill="#0B0B0B" transform="translate(1260,1200)"/>
<path d="M0 0 C19.8 0 39.6 0 60 0 C60 19.8 60 39.6 60 60 C40.2 60 20.4 60 0 60 C0 40.2 0 20.4 0 0 Z " fill="#0E0E0E" transform="translate(1320,840)"/>
<path d="M0 0 C19.8 0 39.6 0 60 0 C60 19.8 60 39.6 60 60 C40.2 60 20.4 60 0 60 C0 40.2 0 20.4 0 0 Z " fill="#F4C268" transform="translate(960,420)"/>
<path d="M0 0 C19.8 0 39.6 0 60 0 C60 19.8 60 39.6 60 60 C40.2 60 20.4 60 0 60 C0 40.2 0 20.4 0 0 Z " fill="#101010" transform="translate(960,360)"/>
</svg>
