<?xml version="1.0" encoding="UTF-8"?>
<svg version="1.1" xmlns="http://www.w3.org/2000/svg" width="3000" height="3000">
<path d="M0 0 C990 0 1980 0 3000 0 C3000 990 3000 1980 3000 3000 C2010 3000 1020 3000 0 3000 C0 2010 0 1020 0 0 Z " fill="#FEFEFE" transform="translate(0,0)"/>
<path d="M0 0 C79.2 0 158.4 0 240 0 C240 19.8 240 39.6 240 60 C279.6 60 319.2 60 360 60 C360 79.8 360 99.6 360 120 C399.6 120 439.2 120 480 120 C480 139.8 480 159.6 480 180 C499.8 180 519.6 180 540 180 C540 199.8 540 219.6 540 240 C559.8 240 579.6 240 600 240 C600 279.6 600 319.2 600 360 C619.8 360 639.6 360 660 360 C660 399.6 660 439.2 660 480 C679.8 480 699.6 480 720 480 C720 559.2 720 638.4 720 720 C700.2 720 680.4 720 660 720 C660 759.6 660 799.2 660 840 C640.2 840 620.4 840 600 840 C600 879.6 600 919.2 600 960 C580.2 960 560.4 960 540 960 C540 979.8 540 999.6 540 1020 C520.2 1020 500.4 1020 480 1020 C480 1039.8 480 1059.6 480 1080 C440.4 1080 400.8 1080 360 1080 C360 1099.8 360 1119.6 360 1140 C320.4 1140 280.8 1140 240 1140 C240 1159.8 240 1179.6 240 1200 C160.8 1200 81.6 1200 0 1200 C0 1180.2 0 1160.4 0 1140 C-39.6 1140 -79.2 1140 -120 1140 C-120 1120.2 -120 1100.4 -120 1080 C-159.6 1080 -199.2 1080 -240 1080 C-240 1060.2 -240 1040.4 -240 1020 C-259.8 1020 -279.6 1020 -300 1020 C-300 1000.2 -300 980.4 -300 960 C-319.8 960 -339.6 960 -360 960 C-360 920.4 -360 880.8 -360 840 C-379.8 840 -399.6 840 -420 840 C-420 800.4 -420 760.8 -420 720 C-439.8 720 -459.6 720 -480 720 C-480 640.8 -480 561.6 -480 480 C-460.2 480 -440.4 480 -420 480 C-420 440.4 -420 400.8 -420 360 C-400.2 360 -380.4 360 -360 360 C-360 320.4 -360 280.8 -360 240 C-340.2 240 -320.4 240 -300 240 C-300 220.2 -300 200.4 -300 180 C-280.2 180 -260.4 180 -240 180 C-240 160.2 -240 140.4 -240 120 C-200.4 120 -160.8 120 -120 120 C-120 100.2 -120 80.4 -120 60 C-80.4 60 -40.8 60 0 60 C0 40.2 0 20.4 0 0 Z " fill="#F6BF00" transform="translate(1380,660)"/>
<path d="M0 0 C39.6 0 79.2 0 120 0 C120 19.8 120 39.6 120 60 C159.6 60 199.2 60 240 60 C240 79.8 240 99.6 240 120 C259.8 120 279.6 120 300 120 C300 100.2 300 80.4 300 60 C319.8 60 339.6 60 360 60 C360 119.4 360 178.8 360 240 C399.6 240 439.2 240 480 240 C480 259.8 480 279.6 480 300 C460.2 300 440.4 300 420 300 C420 319.8 420 339.6 420 360 C400.2 360 380.4 360 360 360 C360 399.6 360 439.2 360 480 C320.4 480 280.8 480 240 480 C240 519.6 240 559.2 240 600 C200.4 600 160.8 600 120 600 C120 619.8 120 639.6 120 660 C80.4 660 40.8 660 0 660 C0 620.4 0 580.8 0 540 C-19.8 540 -39.6 540 -60 540 C-60 520.2 -60 500.4 -60 480 C-99.6 480 -139.2 480 -180 480 C-180 440.4 -180 400.8 -180 360 C-199.8 360 -219.6 360 -240 360 C-240 320.4 -240 280.8 -240 240 C-220.2 240 -200.4 240 -180 240 C-180 200.4 -180 160.8 -180 120 C-160.2 120 -140.4 120 -120 120 C-120 100.2 -120 80.4 -120 60 C-80.4 60 -40.8 60 0 60 C0 40.2 0 20.4 0 0 Z " fill="#F6BF00" transform="translate(1440,960)"/>
<path d="M0 0 C39.6 0 79.2 0 120 0 C120 118.8 120 237.6 120 360 C100.2 360 80.4 360 60 360 C60 379.8 60 399.6 60 420 C40.2 420 20.4 420 0 420 C0 439.8 0 459.6 0 480 C-99 480 -198 480 -300 480 C-300 420.6 -300 361.2 -300 300 C-260.4 300 -220.8 300 -180 300 C-180 260.4 -180 220.8 -180 180 C-140.4 180 -100.8 180 -60 180 C-60 140.4 -60 100.8 -60 60 C-40.2 60 -20.4 60 0 60 C0 40.2 0 20.4 0 0 Z " fill="#F6BF00" transform="translate(1860,1260)"/>
<path d="M0 0 C19.8 0 39.6 0 60 0 C60 39.6 60 79.2 60 120 C79.8 120 99.6 120 120 120 C120 159.6 120 199.2 120 240 C139.8 240 159.6 240 180 240 C180 319.2 180 398.4 180 480 C160.2 480 140.4 480 120 480 C120 519.6 120 559.2 120 600 C100.2 600 80.4 600 60 600 C60 520.8 60 441.6 60 360 C40.2 360 20.4 360 0 360 C0 340.2 0 320.4 0 300 C-39.6 300 -79.2 300 -120 300 C-120 240.6 -120 181.2 -120 120 C-80.4 120 -40.8 120 0 120 C0 80.4 0 40.8 0 0 Z " fill="#F6BF01" transform="translate(1920,900)"/>
<path d="M0 0 C19.8 0 39.6 0 60 0 C60 59.4 60 118.8 60 180 C99.6 180 139.2 180 180 180 C180 199.8 180 219.6 180 240 C140.4 240 100.8 240 60 240 C60 299.4 60 358.8 60 420 C40.2 420 20.4 420 0 420 C0 360.6 0 301.2 0 240 C-39.6 240 -79.2 240 -120 240 C-120 220.2 -120 200.4 -120 180 C-80.4 180 -40.8 180 0 180 C0 120.6 0 61.2 0 0 Z " fill="#CFE1E1" transform="translate(780,1320)"/>
<path d="M0 0 C19.8 0 39.6 0 60 0 C60 39.6 60 79.2 60 120 C99.6 120 139.2 120 180 120 C180 139.8 180 159.6 180 180 C140.4 180 100.8 180 60 180 C60 219.6 60 259.2 60 300 C40.2 300 20.4 300 0 300 C0 260.4 0 220.8 0 180 C-39.6 180 -79.2 180 -120 180 C-120 160.2 -120 140.4 -120 120 C-80.4 120 -40.8 120 0 120 C0 80.4 0 40.8 0 0 Z " fill="#CEE0E0" transform="translate(2040,600)"/>
<path d="M0 0 C39.6 0 79.2 0 120 0 C120 19.8 120 39.6 120 60 C139.8 60 159.6 60 180 60 C180 79.8 180 99.6 180 120 C100.8 120 21.6 120 -60 120 C-60 100.2 -60 80.4 -60 60 C-40.2 60 -20.4 60 0 60 C0 40.2 0 20.4 0 0 Z " fill="#F7C61C" transform="translate(1740,780)"/>
<path d="M0 0 C19.8 0 39.6 0 60 0 C60 39.6 60 79.2 60 120 C40.2 120 20.4 120 0 120 C0 139.8 0 159.6 0 180 C-39.6 180 -79.2 180 -120 180 C-120 160.2 -120 140.4 -120 120 C-100.2 120 -80.4 120 -60 120 C-60 100.2 -60 80.4 -60 60 C-40.2 60 -20.4 60 0 60 C0 40.2 0 20.4 0 0 Z " fill="#FFFFFF" transform="translate(1680,1320)"/>
<path d="M0 0 C19.8 0 39.6 0 60 0 C60 19.8 60 39.6 60 60 C79.8 60 99.6 60 120 60 C120 79.8 120 99.6 120 120 C100.2 120 80.4 120 60 120 C60 139.8 60 159.6 60 180 C40.2 180 20.4 180 0 180 C0 160.2 0 140.4 0 120 C-19.8 120 -39.6 120 -60 120 C-60 100.2 -60 80.4 -60 60 C-40.2 60 -20.4 60 0 60 C0 40.2 0 20.4 0 0 Z " fill="#CEE0E0" transform="translate(2220,480)"/>
<path d="M0 0 C79.2 0 158.4 0 240 0 C240 19.8 240 39.6 240 60 C160.8 60 81.6 60 0 60 C0 40.2 0 20.4 0 0 Z " fill="#000000" transform="translate(1380,1800)"/>
<path d="M0 0 C39.6 0 79.2 0 120 0 C120 19.8 120 39.6 120 60 C139.8 60 159.6 60 180 60 C180 79.8 180 99.6 180 120 C140.4 120 100.8 120 60 120 C60 100.2 60 80.4 60 60 C40.2 60 20.4 60 0 60 C0 40.2 0 20.4 0 0 Z " fill="#CF9943" transform="translate(1260,1440)"/>
<path d="M0 0 C19.8 0 39.6 0 60 0 C60 79.2 60 158.4 60 240 C40.2 240 20.4 240 0 240 C0 160.8 0 81.6 0 0 Z " fill="#000000" transform="translate(2040,1140)"/>
<path d="M0 0 C19.8 0 39.6 0 60 0 C60 79.2 60 158.4 60 240 C40.2 240 20.4 240 0 240 C0 160.8 0 81.6 0 0 Z " fill="#000000" transform="translate(900,1140)"/>
<path d="M0 0 C79.2 0 158.4 0 240 0 C240 19.8 240 39.6 240 60 C160.8 60 81.6 60 0 60 C0 40.2 0 20.4 0 0 Z " fill="#000000" transform="translate(1380,660)"/>
<path d="M0 0 C19.8 0 39.6 0 60 0 C60 59.4 60 118.8 60 180 C40.2 180 20.4 180 0 180 C0 120.6 0 61.2 0 0 Z " fill="#F7CA2C" transform="translate(1920,1260)"/>
<path d="M0 0 C19.8 0 39.6 0 60 0 C60 59.4 60 118.8 60 180 C40.2 180 20.4 180 0 180 C0 120.6 0 61.2 0 0 Z " fill="#CEE0E0" transform="translate(780,1320)"/>
<path d="M0 0 C39.6 0 79.2 0 120 0 C120 19.8 120 39.6 120 60 C100.2 60 80.4 60 60 60 C60 79.8 60 99.6 60 120 C40.2 120 20.4 120 0 120 C0 80.4 0 40.8 0 0 Z " fill="#FFE822" transform="translate(1800,1200)"/>
<path d="M0 0 C19.8 0 39.6 0 60 0 C60 59.4 60 118.8 60 180 C40.2 180 20.4 180 0 180 C0 120.6 0 61.2 0 0 Z " fill="#FFE822" transform="translate(1740,1020)"/>
<path d="M0 0 C39.6 0 79.2 0 120 0 C120 19.8 120 39.6 120 60 C80.4 60 40.8 60 0 60 C0 40.2 0 20.4 0 0 Z " fill="#000000" transform="translate(1620,1740)"/>
<path d="M0 0 C39.6 0 79.2 0 120 0 C120 19.8 120 39.6 120 60 C80.4 60 40.8 60 0 60 C0 40.2 0 20.4 0 0 Z " fill="#000000" transform="translate(1260,1740)"/>
<path d="M0 0 C39.6 0 79.2 0 120 0 C120 19.8 120 39.6 120 60 C80.4 60 40.8 60 0 60 C0 40.2 0 20.4 0 0 Z " fill="#000000" transform="translate(1740,1680)"/>
<path d="M0 0 C19.8 0 39.6 0 60 0 C60 39.6 60 79.2 60 120 C40.2 120 20.4 120 0 120 C0 80.4 0 40.8 0 0 Z " fill="#F6C20C" transform="translate(1560,1620)"/>
<path d="M0 0 C39.6 0 79.2 0 120 0 C120 19.8 120 39.6 120 60 C80.4 60 40.8 60 0 60 C0 40.2 0 20.4 0 0 Z " fill="#F8CE3D" transform="translate(1260,1680)"/>
<path d="M0 0 C39.6 0 79.2 0 120 0 C120 19.8 120 39.6 120 60 C80.4 60 40.8 60 0 60 C0 40.2 0 20.4 0 0 Z " fill="#000000" transform="translate(1140,1680)"/>
<path d="M0 0 C39.6 0 79.2 0 120 0 C120 19.8 120 39.6 120 60 C80.4 60 40.8 60 0 60 C0 40.2 0 20.4 0 0 Z " fill="#FFE822" transform="translate(1440,1560)"/>
<path d="M0 0 C19.8 0 39.6 0 60 0 C60 39.6 60 79.2 60 120 C40.2 120 20.4 120 0 120 C0 80.4 0 40.8 0 0 Z " fill="#000000" transform="translate(1920,1500)"/>
<path d="M0 0 C39.6 0 79.2 0 120 0 C120 19.8 120 39.6 120 60 C80.4 60 40.8 60 0 60 C0 40.2 0 20.4 0 0 Z " fill="#F7C415" transform="translate(1740,1500)"/>
<path d="M0 0 C39.6 0 79.2 0 120 0 C120 19.8 120 39.6 120 60 C80.4 60 40.8 60 0 60 C0 40.2 0 20.4 0 0 Z " fill="#FFE822" transform="translate(1560,1500)"/>
<path d="M0 0 C19.8 0 39.6 0 60 0 C60 39.6 60 79.2 60 120 C40.2 120 20.4 120 0 120 C0 80.4 0 40.8 0 0 Z " fill="#000000" transform="translate(1020,1500)"/>
<path d="M0 0 C39.6 0 79.2 0 120 0 C120 19.8 120 39.6 120 60 C80.4 60 40.8 60 0 60 C0 40.2 0 20.4 0 0 Z " fill="#CEE0E0" transform="translate(840,1500)"/>
<path d="M0 0 C39.6 0 79.2 0 120 0 C120 19.8 120 39.6 120 60 C80.4 60 40.8 60 0 60 C0 40.2 0 20.4 0 0 Z " fill="#F7C92A" transform="translate(1260,1440)"/>
<path d="M0 0 C19.8 0 39.6 0 60 0 C60 39.6 60 79.2 60 120 C40.2 120 20.4 120 0 120 C0 80.4 0 40.8 0 0 Z " fill="#000000" transform="translate(1980,1380)"/>
<path d="M0 0 C19.8 0 39.6 0 60 0 C60 39.6 60 79.2 60 120 C40.2 120 20.4 120 0 120 C0 80.4 0 40.8 0 0 Z " fill="#000000" transform="translate(960,1380)"/>
<path d="M0 0 C19.8 0 39.6 0 60 0 C60 39.6 60 79.2 60 120 C40.2 120 20.4 120 0 120 C0 80.4 0 40.8 0 0 Z " fill="#FFE822" transform="translate(1740,1320)"/>
<path d="M0 0 C19.8 0 39.6 0 60 0 C60 39.6 60 79.2 60 120 C40.2 120 20.4 120 0 120 C0 80.4 0 40.8 0 0 Z " fill="#CF9943" transform="translate(1200,1320)"/>
<path d="M0 0 C19.8 0 39.6 0 60 0 C60 39.6 60 79.2 60 120 C40.2 120 20.4 120 0 120 C0 80.4 0 40.8 0 0 Z " fill="#CF9943" transform="translate(1140,1200)"/>
<path d="M0 0 C19.8 0 39.6 0 60 0 C60 39.6 60 79.2 60 120 C40.2 120 20.4 120 0 120 C0 80.4 0 40.8 0 0 Z " fill="#CF9943" transform="translate(1200,1080)"/>
<path d="M0 0 C19.8 0 39.6 0 60 0 C60 39.6 60 79.2 60 120 C40.2 120 20.4 120 0 120 C0 80.4 0 40.8 0 0 Z " fill="#000000" transform="translate(1980,1020)"/>
<path d="M0 0 C19.8 0 39.6 0 60 0 C60 39.6 60 79.2 60 120 C40.2 120 20.4 120 0 120 C0 80.4 0 40.8 0 0 Z " fill="#000000" transform="translate(960,1020)"/>
<path d="M0 0 C19.8 0 39.6 0 60 0 C60 39.6 60 79.2 60 120 C40.2 120 20.4 120 0 120 C0 80.4 0 40.8 0 0 Z " fill="#F6C108" transform="translate(1860,900)"/>
<path d="M0 0 C39.6 0 79.2 0 120 0 C120 19.8 120 39.6 120 60 C80.4 60 40.8 60 0 60 C0 40.2 0 20.4 0 0 Z " fill="#CF9943" transform="translate(1560,960)"/>
<path d="M0 0 C39.6 0 79.2 0 120 0 C120 19.8 120 39.6 120 60 C80.4 60 40.8 60 0 60 C0 40.2 0 20.4 0 0 Z " fill="#CE9842" transform="translate(1320,960)"/>
<path d="M0 0 C19.8 0 39.6 0 60 0 C60 39.6 60 79.2 60 120 C40.2 120 20.4 120 0 120 C0 80.4 0 40.8 0 0 Z " fill="#000000" transform="translate(1920,900)"/>
<path d="M0 0 C39.6 0 79.2 0 120 0 C120 19.8 120 39.6 120 60 C80.4 60 40.8 60 0 60 C0 40.2 0 20.4 0 0 Z " fill="#CF9943" transform="translate(1440,900)"/>
<path d="M0 0 C19.8 0 39.6 0 60 0 C60 39.6 60 79.2 60 120 C40.2 120 20.4 120 0 120 C0 80.4 0 40.8 0 0 Z " fill="#000000" transform="translate(1020,900)"/>
<path d="M0 0 C19.8 0 39.6 0 60 0 C60 39.6 60 79.2 60 120 C40.2 120 20.4 120 0 120 C0 80.4 0 40.8 0 0 Z " fill="#CEE0E0" transform="translate(2040,780)"/>
<path d="M0 0 C39.6 0 79.2 0 120 0 C120 19.8 120 39.6 120 60 C80.4 60 40.8 60 0 60 C0 40.2 0 20.4 0 0 Z " fill="#000000" transform="translate(1740,780)"/>
<path d="M0 0 C39.6 0 79.2 0 120 0 C120 19.8 120 39.6 120 60 C80.4 60 40.8 60 0 60 C0 40.2 0 20.4 0 0 Z " fill="#F7C61D" transform="translate(1620,780)"/>
<path d="M0 0 C39.6 0 79.2 0 120 0 C120 19.8 120 39.6 120 60 C80.4 60 40.8 60 0 60 C0 40.2 0 20.4 0 0 Z " fill="#000000" transform="translate(1140,780)"/>
<path d="M0 0 C39.6 0 79.2 0 120 0 C120 19.8 120 39.6 120 60 C80.4 60 40.8 60 0 60 C0 40.2 0 20.4 0 0 Z " fill="#CEE0E0" transform="translate(2100,720)"/>
<path d="M0 0 C39.6 0 79.2 0 120 0 C120 19.8 120 39.6 120 60 C80.4 60 40.8 60 0 60 C0 40.2 0 20.4 0 0 Z " fill="#000000" transform="translate(1620,720)"/>
<path d="M0 0 C39.6 0 79.2 0 120 0 C120 19.8 120 39.6 120 60 C80.4 60 40.8 60 0 60 C0 40.2 0 20.4 0 0 Z " fill="#000000" transform="translate(1260,720)"/>
<path d="M0 0 C19.8 0 39.6 0 60 0 C60 39.6 60 79.2 60 120 C40.2 120 20.4 120 0 120 C0 80.4 0 40.8 0 0 Z " fill="#CEE0E0" transform="translate(2040,600)"/>
<path d="M0 0 C19.8 0 39.6 0 60 0 C60 19.8 60 39.6 60 60 C40.2 60 20.4 60 0 60 C0 40.2 0 20.4 0 0 Z " fill="#F7C720" transform="translate(1260,1680)"/>
<path d="M0 0 C19.8 0 39.6 0 60 0 C60 19.8 60 39.6 60 60 C40.2 60 20.4 60 0 60 C0 40.2 0 20.4 0 0 Z " fill="#000000" transform="translate(1860,1620)"/>
<path d="M0 0 C19.8 0 39.6 0 60 0 C60 19.8 60 39.6 60 60 C40.2 60 20.4 60 0 60 C0 40.2 0 20.4 0 0 Z " fill="#F7C722" transform="translate(1560,1620)"/>
<path d="M0 0 C19.8 0 39.6 0 60 0 C60 19.8 60 39.6 60 60 C40.2 60 20.4 60 0 60 C0 40.2 0 20.4 0 0 Z " fill="#000000" transform="translate(1080,1620)"/>
<path d="M0 0 C19.8 0 39.6 0 60 0 C60 19.8 60 39.6 60 60 C40.2 60 20.4 60 0 60 C0 40.2 0 20.4 0 0 Z " fill="#FAD75F" transform="translate(1680,1560)"/>
<path d="M0 0 C19.8 0 39.6 0 60 0 C60 19.8 60 39.6 60 60 C40.2 60 20.4 60 0 60 C0 40.2 0 20.4 0 0 Z " fill="#F0D524" transform="translate(1440,1560)"/>
<path d="M0 0 C19.8 0 39.6 0 60 0 C60 19.8 60 39.6 60 60 C40.2 60 20.4 60 0 60 C0 40.2 0 20.4 0 0 Z " fill="#F7C518" transform="translate(1080,1560)"/>
<path d="M0 0 C19.8 0 39.6 0 60 0 C60 19.8 60 39.6 60 60 C40.2 60 20.4 60 0 60 C0 40.2 0 20.4 0 0 Z " fill="#F9CE3A" transform="translate(1740,1500)"/>
<path d="M0 0 C19.8 0 39.6 0 60 0 C60 19.8 60 39.6 60 60 C40.2 60 20.4 60 0 60 C0 40.2 0 20.4 0 0 Z " fill="#FFFFFF" transform="translate(780,1500)"/>
<path d="M0 0 C19.8 0 39.6 0 60 0 C60 19.8 60 39.6 60 60 C40.2 60 20.4 60 0 60 C0 40.2 0 20.4 0 0 Z " fill="#F7C517" transform="translate(1920,1440)"/>
<path d="M0 0 C19.8 0 39.6 0 60 0 C60 19.8 60 39.6 60 60 C40.2 60 20.4 60 0 60 C0 40.2 0 20.4 0 0 Z " fill="#FFE822" transform="translate(1680,1440)"/>
<path d="M0 0 C19.8 0 39.6 0 60 0 C60 19.8 60 39.6 60 60 C40.2 60 20.4 60 0 60 C0 40.2 0 20.4 0 0 Z " fill="#CF9943" transform="translate(1260,1440)"/>
<path d="M0 0 C19.8 0 39.6 0 60 0 C60 19.8 60 39.6 60 60 C40.2 60 20.4 60 0 60 C0 40.2 0 20.4 0 0 Z " fill="#F9D148" transform="translate(1920,1380)"/>
<path d="M0 0 C19.8 0 39.6 0 60 0 C60 19.8 60 39.6 60 60 C40.2 60 20.4 60 0 60 C0 40.2 0 20.4 0 0 Z " fill="#F8D147" transform="translate(1920,1260)"/>
<path d="M0 0 C19.8 0 39.6 0 60 0 C60 19.8 60 39.6 60 60 C40.2 60 20.4 60 0 60 C0 40.2 0 20.4 0 0 Z " fill="#F8CA2F" transform="translate(1560,1260)"/>
<path d="M0 0 C19.8 0 39.6 0 60 0 C60 19.8 60 39.6 60 60 C40.2 60 20.4 60 0 60 C0 40.2 0 20.4 0 0 Z " fill="#F9D041" transform="translate(1860,1200)"/>
<path d="M0 0 C19.8 0 39.6 0 60 0 C60 19.8 60 39.6 60 60 C40.2 60 20.4 60 0 60 C0 40.2 0 20.4 0 0 Z " fill="#F7C71F" transform="translate(1860,1140)"/>
<path d="M0 0 C19.8 0 39.6 0 60 0 C60 19.8 60 39.6 60 60 C40.2 60 20.4 60 0 60 C0 40.2 0 20.4 0 0 Z " fill="#FFFFFF" transform="translate(1260,1080)"/>
<path d="M0 0 C19.8 0 39.6 0 60 0 C60 19.8 60 39.6 60 60 C40.2 60 20.4 60 0 60 C0 40.2 0 20.4 0 0 Z " fill="#F8CB2D" transform="translate(1080,1080)"/>
<path d="M0 0 C19.8 0 39.6 0 60 0 C60 19.8 60 39.6 60 60 C40.2 60 20.4 60 0 60 C0 40.2 0 20.4 0 0 Z " fill="#F7C517" transform="translate(1920,1020)"/>
<path d="M0 0 C19.8 0 39.6 0 60 0 C60 19.8 60 39.6 60 60 C40.2 60 20.4 60 0 60 C0 40.2 0 20.4 0 0 Z " fill="#F7C415" transform="translate(1800,1020)"/>
<path d="M0 0 C19.8 0 39.6 0 60 0 C60 19.8 60 39.6 60 60 C40.2 60 20.4 60 0 60 C0 40.2 0 20.4 0 0 Z " fill="#FADA6B" transform="translate(1740,1020)"/>
<path d="M0 0 C19.8 0 39.6 0 60 0 C60 19.8 60 39.6 60 60 C40.2 60 20.4 60 0 60 C0 40.2 0 20.4 0 0 Z " fill="#CF9943" transform="translate(1680,1020)"/>
<path d="M0 0 C19.8 0 39.6 0 60 0 C60 19.8 60 39.6 60 60 C40.2 60 20.4 60 0 60 C0 40.2 0 20.4 0 0 Z " fill="#FFFFFF" transform="translate(1320,1020)"/>
<path d="M0 0 C19.8 0 39.6 0 60 0 C60 19.8 60 39.6 60 60 C40.2 60 20.4 60 0 60 C0 40.2 0 20.4 0 0 Z " fill="#CF9943" transform="translate(1260,1020)"/>
<path d="M0 0 C19.8 0 39.6 0 60 0 C60 19.8 60 39.6 60 60 C40.2 60 20.4 60 0 60 C0 40.2 0 20.4 0 0 Z " fill="#F8CC32" transform="translate(1200,960)"/>
<path d="M0 0 C19.8 0 39.6 0 60 0 C60 19.8 60 39.6 60 60 C40.2 60 20.4 60 0 60 C0 40.2 0 20.4 0 0 Z " fill="#F7C61A" transform="translate(1860,900)"/>
<path d="M0 0 C19.8 0 39.6 0 60 0 C60 19.8 60 39.6 60 60 C40.2 60 20.4 60 0 60 C0 40.2 0 20.4 0 0 Z " fill="#F9D454" transform="translate(1740,900)"/>
<path d="M0 0 C19.8 0 39.6 0 60 0 C60 19.8 60 39.6 60 60 C40.2 60 20.4 60 0 60 C0 40.2 0 20.4 0 0 Z " fill="#000000" transform="translate(1860,840)"/>
<path d="M0 0 C19.8 0 39.6 0 60 0 C60 19.8 60 39.6 60 60 C40.2 60 20.4 60 0 60 C0 40.2 0 20.4 0 0 Z " fill="#F7C20D" transform="translate(1680,840)"/>
<path d="M0 0 C19.8 0 39.6 0 60 0 C60 19.8 60 39.6 60 60 C40.2 60 20.4 60 0 60 C0 40.2 0 20.4 0 0 Z " fill="#000000" transform="translate(1080,840)"/>
<path d="M0 0 C19.8 0 39.6 0 60 0 C60 19.8 60 39.6 60 60 C40.2 60 20.4 60 0 60 C0 40.2 0 20.4 0 0 Z " fill="#F8CF41" transform="translate(1620,780)"/>
<path d="M0 0 C19.8 0 39.6 0 60 0 C60 19.8 60 39.6 60 60 C40.2 60 20.4 60 0 60 C0 40.2 0 20.4 0 0 Z " fill="#FFFFFF" transform="translate(2040,720)"/>
<path d="M0 0 C19.8 0 39.6 0 60 0 C60 19.8 60 39.6 60 60 C40.2 60 20.4 60 0 60 C0 40.2 0 20.4 0 0 Z " fill="#DBE8E8" transform="translate(1920,720)"/>
<path d="M0 0 C19.8 0 39.6 0 60 0 C60 19.8 60 39.6 60 60 C40.2 60 20.4 60 0 60 C0 40.2 0 20.4 0 0 Z " fill="#F8C926" transform="translate(1380,720)"/>
</svg>
