<?xml version="1.0" encoding="UTF-8"?>
<svg version="1.1" xmlns="http://www.w3.org/2000/svg" width="3000" height="3000">
<path d="M0 0 C990 0 1980 0 3000 0 C3000 990 3000 1980 3000 3000 C2010 3000 1020 3000 0 3000 C0 2010 0 1020 0 0 Z " fill="#FFFFFF" transform="translate(0,0)"/>
<path d="M0 0 C297 0 594 0 900 0 C900 19.8 900 39.6 900 60 C919.8 60 939.6 60 960 60 C960 79.8 960 99.6 960 120 C940.2 120 920.4 120 900 120 C900 159.6 900 199.2 900 240 C939.6 240 979.2 240 1020 240 C1020 220.2 1020 200.4 1020 180 C1039.8 180 1059.6 180 1080 180 C1080 556.2 1080 932.4 1080 1320 C862.2 1320 644.4 1320 420 1320 C420 1379.4 420 1438.8 420 1500 C400.2 1500 380.4 1500 360 1500 C360 1559.4 360 1618.8 360 1680 C340.2 1680 320.4 1680 300 1680 C300 1699.8 300 1719.6 300 1740 C161.4 1740 22.8 1740 -120 1740 C-120 1720.2 -120 1700.4 -120 1680 C-139.8 1680 -159.6 1680 -180 1680 C-180 1660.2 -180 1640.4 -180 1620 C-199.8 1620 -219.6 1620 -240 1620 C-240 1560.6 -240 1501.2 -240 1440 C-259.8 1440 -279.6 1440 -300 1440 C-300 1321.2 -300 1202.4 -300 1080 C-319.8 1080 -339.6 1080 -360 1080 C-360 842.4 -360 604.8 -360 360 C-340.2 360 -320.4 360 -300 360 C-300 340.2 -300 320.4 -300 300 C-280.2 300 -260.4 300 -240 300 C-240 280.2 -240 260.4 -240 240 C-160.8 240 -81.6 240 0 240 C0 160.8 0 81.6 0 0 Z " fill="#50534D" transform="translate(960,540)"/>
<path d="M0 0 C257.4 0 514.8 0 780 0 C780 79.2 780 158.4 780 240 C839.4 240 898.8 240 960 240 C960 556.8 960 873.6 960 1200 C762 1200 564 1200 360 1200 C360 1160.4 360 1120.8 360 1080 C379.8 1080 399.6 1080 420 1080 C420 1040.4 420 1000.8 420 960 C519 960 618 960 720 960 C720 940.2 720 920.4 720 900 C621 900 522 900 420 900 C420 860.4 420 820.8 420 780 C538.8 780 657.6 780 780 780 C780 760.2 780 740.4 780 720 C661.2 720 542.4 720 420 720 C420 680.4 420 640.8 420 600 C519 600 618 600 720 600 C720 580.2 720 560.4 720 540 C621 540 522 540 420 540 C420 500.4 420 460.8 420 420 C538.8 420 657.6 420 780 420 C780 400.2 780 380.4 780 360 C641.4 360 502.8 360 360 360 C360 340.2 360 320.4 360 300 C340.2 300 320.4 300 300 300 C300 280.2 300 260.4 300 240 C280.2 240 260.4 240 240 240 C240 220.2 240 200.4 240 180 C160.8 180 81.6 180 0 180 C0 120.6 0 61.2 0 0 Z " fill="#FFFFFF" transform="translate(1020,600)"/>
<path d="M0 0 C297 0 594 0 900 0 C900 19.8 900 39.6 900 60 C919.8 60 939.6 60 960 60 C960 79.8 960 99.6 960 120 C940.2 120 920.4 120 900 120 C900 159.6 900 199.2 900 240 C939.6 240 979.2 240 1020 240 C1020 220.2 1020 200.4 1020 180 C1039.8 180 1059.6 180 1080 180 C1080 556.2 1080 932.4 1080 1320 C862.2 1320 644.4 1320 420 1320 C420 1300.2 420 1280.4 420 1260 C618 1260 816 1260 1020 1260 C1020 943.2 1020 626.4 1020 300 C960.6 300 901.2 300 840 300 C840 220.8 840 141.6 840 60 C582.6 60 325.2 60 60 60 C60 119.4 60 178.8 60 240 C139.2 240 218.4 240 300 240 C300 259.8 300 279.6 300 300 C121.8 300 -56.4 300 -240 300 C-240 280.2 -240 260.4 -240 240 C-160.8 240 -81.6 240 0 240 C0 160.8 0 81.6 0 0 Z " fill="#000000" transform="translate(960,540)"/>
<path d="M0 0 C138.6 0 277.2 0 420 0 C420 19.8 420 39.6 420 60 C301.2 60 182.4 60 60 60 C60 99.6 60 139.2 60 180 C159 180 258 180 360 180 C360 199.8 360 219.6 360 240 C261 240 162 240 60 240 C60 279.6 60 319.2 60 360 C178.8 360 297.6 360 420 360 C420 379.8 420 399.6 420 420 C301.2 420 182.4 420 60 420 C60 459.6 60 499.2 60 540 C159 540 258 540 360 540 C360 559.8 360 579.6 360 600 C261 600 162 600 60 600 C60 639.6 60 679.2 60 720 C40.2 720 20.4 720 0 720 C0 838.8 0 957.6 0 1080 C-19.8 1080 -39.6 1080 -60 1080 C-60 1139.4 -60 1198.8 -60 1260 C-79.8 1260 -99.6 1260 -120 1260 C-120 1279.8 -120 1299.6 -120 1320 C-258.6 1320 -397.2 1320 -540 1320 C-540 1300.2 -540 1280.4 -540 1260 C-421.2 1260 -302.4 1260 -180 1260 C-180 1240.2 -180 1220.4 -180 1200 C-160.2 1200 -140.4 1200 -120 1200 C-120 1140.6 -120 1081.2 -120 1020 C-100.2 1020 -80.4 1020 -60 1020 C-60 901.2 -60 782.4 -60 660 C-40.2 660 -20.4 660 0 660 C0 442.2 0 224.4 0 0 Z " fill="#B7BFB2" transform="translate(1380,960)"/>
<path d="M0 0 C138.6 0 277.2 0 420 0 C420 138.6 420 277.2 420 420 C281.4 420 142.8 420 0 420 C0 281.4 0 142.8 0 0 Z " fill="#BCC4B7" transform="translate(780,1500)"/>
<path d="M0 0 C158.4 0 316.8 0 480 0 C480 99 480 198 480 300 C301.8 300 123.6 300 -60 300 C-60 220.8 -60 141.6 -60 60 C-40.2 60 -20.4 60 0 60 C0 40.2 0 20.4 0 0 Z " fill="#89CC51" transform="translate(780,900)"/>
<path d="M0 0 C138.6 0 277.2 0 420 0 C420 59.4 420 118.8 420 180 C281.4 180 142.8 180 0 180 C0 120.6 0 61.2 0 0 Z " fill="#8BFF2E" transform="translate(780,960)"/>
<path d="M0 0 C19.8 0 39.6 0 60 0 C60 237.6 60 475.2 60 720 C40.2 720 20.4 720 0 720 C0 482.4 0 244.8 0 0 Z " fill="#000000" transform="translate(1320,900)"/>
<path d="M0 0 C19.8 0 39.6 0 60 0 C60 237.6 60 475.2 60 720 C40.2 720 20.4 720 0 720 C0 482.4 0 244.8 0 0 Z " fill="#000000" transform="translate(600,900)"/>
<path d="M0 0 C178.2 0 356.4 0 540 0 C540 19.8 540 39.6 540 60 C361.8 60 183.6 60 0 60 C0 40.2 0 20.4 0 0 Z " fill="#6C7565" transform="translate(1140,660)"/>
<path d="M0 0 C158.4 0 316.8 0 480 0 C480 19.8 480 39.6 480 60 C321.6 60 163.2 60 0 60 C0 40.2 0 20.4 0 0 Z " fill="#898F85" transform="translate(780,900)"/>
<path d="M0 0 C138.6 0 277.2 0 420 0 C420 19.8 420 39.6 420 60 C281.4 60 142.8 60 0 60 C0 40.2 0 20.4 0 0 Z " fill="#000000" transform="translate(780,2160)"/>
<path d="M0 0 C19.8 0 39.6 0 60 0 C60 118.8 60 237.6 60 360 C40.2 360 20.4 360 0 360 C0 241.2 0 122.4 0 0 Z " fill="#000000" transform="translate(1260,1620)"/>
<path d="M0 0 C19.8 0 39.6 0 60 0 C60 118.8 60 237.6 60 360 C40.2 360 20.4 360 0 360 C0 241.2 0 122.4 0 0 Z " fill="#000000" transform="translate(660,1620)"/>
<path d="M0 0 C118.8 0 237.6 0 360 0 C360 19.8 360 39.6 360 60 C241.2 60 122.4 60 0 60 C0 40.2 0 20.4 0 0 Z " fill="#666F5F" transform="translate(1440,1320)"/>
<path d="M0 0 C118.8 0 237.6 0 360 0 C360 19.8 360 39.6 360 60 C241.2 60 122.4 60 0 60 C0 40.2 0 20.4 0 0 Z " fill="#667060" transform="translate(1440,960)"/>
<path d="M0 0 C99 0 198 0 300 0 C300 19.8 300 39.6 300 60 C201 60 102 60 0 60 C0 40.2 0 20.4 0 0 Z " fill="#667060" transform="translate(1440,1500)"/>
<path d="M0 0 C19.8 0 39.6 0 60 0 C60 19.8 60 39.6 60 60 C79.8 60 99.6 60 120 60 C120 79.8 120 99.6 120 120 C100.2 120 80.4 120 60 120 C60 139.8 60 159.6 60 180 C40.2 180 20.4 180 0 180 C0 160.2 0 140.4 0 120 C-19.8 120 -39.6 120 -60 120 C-60 100.2 -60 80.4 -60 60 C-40.2 60 -20.4 60 0 60 C0 40.2 0 20.4 0 0 Z " fill="#50534D" transform="translate(840,1260)"/>
<path d="M0 0 C19.8 0 39.6 0 60 0 C60 19.8 60 39.6 60 60 C79.8 60 99.6 60 120 60 C120 79.8 120 99.6 120 120 C100.2 120 80.4 120 60 120 C60 139.8 60 159.6 60 180 C40.2 180 20.4 180 0 180 C0 160.2 0 140.4 0 120 C-19.8 120 -39.6 120 -60 120 C-60 100.2 -60 80.4 -60 60 C-40.2 60 -20.4 60 0 60 C0 40.2 0 20.4 0 0 Z " fill="#5389B9" transform="translate(1140,1260)"/>
<path d="M0 0 C99 0 198 0 300 0 C300 19.8 300 39.6 300 60 C201 60 102 60 0 60 C0 40.2 0 20.4 0 0 Z " fill="#687161" transform="translate(1440,1140)"/>
<path d="M0 0 C19.8 0 39.6 0 60 0 C60 79.2 60 158.4 60 240 C40.2 240 20.4 240 0 240 C0 160.8 0 81.6 0 0 Z " fill="#898F85" transform="translate(720,960)"/>
<path d="M0 0 C19.8 0 39.6 0 60 0 C60 59.4 60 118.8 60 180 C40.2 180 20.4 180 0 180 C0 120.6 0 61.2 0 0 Z " fill="#000000" transform="translate(1200,1980)"/>
<path d="M0 0 C19.8 0 39.6 0 60 0 C60 59.4 60 118.8 60 180 C40.2 180 20.4 180 0 180 C0 120.6 0 61.2 0 0 Z " fill="#000000" transform="translate(720,1980)"/>
<path d="M0 0 C59.4 0 118.8 0 180 0 C180 19.8 180 39.6 180 60 C120.6 60 61.2 60 0 60 C0 40.2 0 20.4 0 0 Z " fill="#B7BFB2" transform="translate(840,1800)"/>
<path d="M0 0 C59.4 0 118.8 0 180 0 C180 19.8 180 39.6 180 60 C120.6 60 61.2 60 0 60 C0 40.2 0 20.4 0 0 Z " fill="#B5BDB0" transform="translate(840,1680)"/>
<path d="M0 0 C59.4 0 118.8 0 180 0 C180 19.8 180 39.6 180 60 C120.6 60 61.2 60 0 60 C0 40.2 0 20.4 0 0 Z " fill="#B7BFB2" transform="translate(840,1560)"/>
<path d="M0 0 C59.4 0 118.8 0 180 0 C180 19.8 180 39.6 180 60 C120.6 60 61.2 60 0 60 C0 40.2 0 20.4 0 0 Z " fill="#525D4B" transform="translate(1440,1320)"/>
<path d="M0 0 C59.4 0 118.8 0 180 0 C180 19.8 180 39.6 180 60 C120.6 60 61.2 60 0 60 C0 40.2 0 20.4 0 0 Z " fill="#525D4B" transform="translate(1440,960)"/>
<path d="M0 0 C59.4 0 118.8 0 180 0 C180 19.8 180 39.6 180 60 C120.6 60 61.2 60 0 60 C0 40.2 0 20.4 0 0 Z " fill="#525D4B" transform="translate(1140,660)"/>
<path d="M0 0 C39.6 0 79.2 0 120 0 C120 19.8 120 39.6 120 60 C80.4 60 40.8 60 0 60 C0 40.2 0 20.4 0 0 Z " fill="#B4BCAE" transform="translate(1080,1800)"/>
<path d="M0 0 C39.6 0 79.2 0 120 0 C120 19.8 120 39.6 120 60 C80.4 60 40.8 60 0 60 C0 40.2 0 20.4 0 0 Z " fill="#B7BFB2" transform="translate(1080,1680)"/>
<path d="M0 0 C39.6 0 79.2 0 120 0 C120 19.8 120 39.6 120 60 C80.4 60 40.8 60 0 60 C0 40.2 0 20.4 0 0 Z " fill="#B7BFB2" transform="translate(1080,1560)"/>
<path d="M0 0 C39.6 0 79.2 0 120 0 C120 19.8 120 39.6 120 60 C80.4 60 40.8 60 0 60 C0 40.2 0 20.4 0 0 Z " fill="#596352" transform="translate(1440,1500)"/>
<path d="M0 0 C39.6 0 79.2 0 120 0 C120 19.8 120 39.6 120 60 C80.4 60 40.8 60 0 60 C0 40.2 0 20.4 0 0 Z " fill="#535E4C" transform="translate(1440,1140)"/>
<path d="M0 0 C39.6 0 79.2 0 120 0 C120 19.8 120 39.6 120 60 C80.4 60 40.8 60 0 60 C0 40.2 0 20.4 0 0 Z " fill="#B7BFB2" transform="translate(1860,840)"/>
<path d="M0 0 C39.6 0 79.2 0 120 0 C120 19.8 120 39.6 120 60 C80.4 60 40.8 60 0 60 C0 40.2 0 20.4 0 0 Z " fill="#525D4B" transform="translate(1560,660)"/>
<path d="M0 0 C39.6 0 79.2 0 120 0 C120 19.8 120 39.6 120 60 C80.4 60 40.8 60 0 60 C0 40.2 0 20.4 0 0 Z " fill="#677060" transform="translate(1320,660)"/>
<path d="M0 0 C19.8 0 39.6 0 60 0 C60 19.8 60 39.6 60 60 C40.2 60 20.4 60 0 60 C0 40.2 0 20.4 0 0 Z " fill="#1B1B1B" transform="translate(1140,2160)"/>
<path d="M0 0 C19.8 0 39.6 0 60 0 C60 19.8 60 39.6 60 60 C40.2 60 20.4 60 0 60 C0 40.2 0 20.4 0 0 Z " fill="#D0D8CA" transform="translate(1140,1860)"/>
<path d="M0 0 C19.8 0 39.6 0 60 0 C60 19.8 60 39.6 60 60 C40.2 60 20.4 60 0 60 C0 40.2 0 20.4 0 0 Z " fill="#B7BFB2" transform="translate(1080,1860)"/>
<path d="M0 0 C19.8 0 39.6 0 60 0 C60 19.8 60 39.6 60 60 C40.2 60 20.4 60 0 60 C0 40.2 0 20.4 0 0 Z " fill="#D0D8CA" transform="translate(1020,1860)"/>
<path d="M0 0 C19.8 0 39.6 0 60 0 C60 19.8 60 39.6 60 60 C40.2 60 20.4 60 0 60 C0 40.2 0 20.4 0 0 Z " fill="#B7BFB2" transform="translate(960,1860)"/>
<path d="M0 0 C19.8 0 39.6 0 60 0 C60 19.8 60 39.6 60 60 C40.2 60 20.4 60 0 60 C0 40.2 0 20.4 0 0 Z " fill="#D0D8CA" transform="translate(900,1860)"/>
<path d="M0 0 C19.8 0 39.6 0 60 0 C60 19.8 60 39.6 60 60 C40.2 60 20.4 60 0 60 C0 40.2 0 20.4 0 0 Z " fill="#B7BFB2" transform="translate(840,1860)"/>
<path d="M0 0 C19.8 0 39.6 0 60 0 C60 19.8 60 39.6 60 60 C40.2 60 20.4 60 0 60 C0 40.2 0 20.4 0 0 Z " fill="#D0D8CA" transform="translate(780,1860)"/>
<path d="M0 0 C19.8 0 39.6 0 60 0 C60 19.8 60 39.6 60 60 C40.2 60 20.4 60 0 60 C0 40.2 0 20.4 0 0 Z " fill="#898F85" transform="translate(1080,1800)"/>
<path d="M0 0 C19.8 0 39.6 0 60 0 C60 19.8 60 39.6 60 60 C40.2 60 20.4 60 0 60 C0 40.2 0 20.4 0 0 Z " fill="#B7BFB2" transform="translate(1020,1800)"/>
<path d="M0 0 C19.8 0 39.6 0 60 0 C60 19.8 60 39.6 60 60 C40.2 60 20.4 60 0 60 C0 40.2 0 20.4 0 0 Z " fill="#898F85" transform="translate(960,1800)"/>
<path d="M0 0 C19.8 0 39.6 0 60 0 C60 19.8 60 39.6 60 60 C40.2 60 20.4 60 0 60 C0 40.2 0 20.4 0 0 Z " fill="#8C9288" transform="translate(840,1800)"/>
<path d="M0 0 C19.8 0 39.6 0 60 0 C60 19.8 60 39.6 60 60 C40.2 60 20.4 60 0 60 C0 40.2 0 20.4 0 0 Z " fill="#B7BFB2" transform="translate(780,1800)"/>
<path d="M0 0 C19.8 0 39.6 0 60 0 C60 19.8 60 39.6 60 60 C40.2 60 20.4 60 0 60 C0 40.2 0 20.4 0 0 Z " fill="#D0D8CA" transform="translate(1140,1740)"/>
<path d="M0 0 C19.8 0 39.6 0 60 0 C60 19.8 60 39.6 60 60 C40.2 60 20.4 60 0 60 C0 40.2 0 20.4 0 0 Z " fill="#B7BFB2" transform="translate(1080,1740)"/>
<path d="M0 0 C19.8 0 39.6 0 60 0 C60 19.8 60 39.6 60 60 C40.2 60 20.4 60 0 60 C0 40.2 0 20.4 0 0 Z " fill="#D0D8CA" transform="translate(1020,1740)"/>
<path d="M0 0 C19.8 0 39.6 0 60 0 C60 19.8 60 39.6 60 60 C40.2 60 20.4 60 0 60 C0 40.2 0 20.4 0 0 Z " fill="#B7BFB2" transform="translate(960,1740)"/>
<path d="M0 0 C19.8 0 39.6 0 60 0 C60 19.8 60 39.6 60 60 C40.2 60 20.4 60 0 60 C0 40.2 0 20.4 0 0 Z " fill="#D0D8CA" transform="translate(900,1740)"/>
<path d="M0 0 C19.8 0 39.6 0 60 0 C60 19.8 60 39.6 60 60 C40.2 60 20.4 60 0 60 C0 40.2 0 20.4 0 0 Z " fill="#B7BFB2" transform="translate(840,1740)"/>
<path d="M0 0 C19.8 0 39.6 0 60 0 C60 19.8 60 39.6 60 60 C40.2 60 20.4 60 0 60 C0 40.2 0 20.4 0 0 Z " fill="#F8F8F7" transform="translate(1380,1680)"/>
<path d="M0 0 C19.8 0 39.6 0 60 0 C60 19.8 60 39.6 60 60 C40.2 60 20.4 60 0 60 C0 40.2 0 20.4 0 0 Z " fill="#8A9086" transform="translate(1080,1680)"/>
<path d="M0 0 C19.8 0 39.6 0 60 0 C60 19.8 60 39.6 60 60 C40.2 60 20.4 60 0 60 C0 40.2 0 20.4 0 0 Z " fill="#B7BFB2" transform="translate(1020,1680)"/>
<path d="M0 0 C19.8 0 39.6 0 60 0 C60 19.8 60 39.6 60 60 C40.2 60 20.4 60 0 60 C0 40.2 0 20.4 0 0 Z " fill="#898F85" transform="translate(960,1680)"/>
<path d="M0 0 C19.8 0 39.6 0 60 0 C60 19.8 60 39.6 60 60 C40.2 60 20.4 60 0 60 C0 40.2 0 20.4 0 0 Z " fill="#898F85" transform="translate(840,1680)"/>
<path d="M0 0 C19.8 0 39.6 0 60 0 C60 19.8 60 39.6 60 60 C40.2 60 20.4 60 0 60 C0 40.2 0 20.4 0 0 Z " fill="#B7BFB2" transform="translate(780,1680)"/>
<path d="M0 0 C19.8 0 39.6 0 60 0 C60 19.8 60 39.6 60 60 C40.2 60 20.4 60 0 60 C0 40.2 0 20.4 0 0 Z " fill="#D0D8CA" transform="translate(1140,1620)"/>
<path d="M0 0 C19.8 0 39.6 0 60 0 C60 19.8 60 39.6 60 60 C40.2 60 20.4 60 0 60 C0 40.2 0 20.4 0 0 Z " fill="#B7BFB2" transform="translate(1080,1620)"/>
<path d="M0 0 C19.8 0 39.6 0 60 0 C60 19.8 60 39.6 60 60 C40.2 60 20.4 60 0 60 C0 40.2 0 20.4 0 0 Z " fill="#D0D8CA" transform="translate(1020,1620)"/>
<path d="M0 0 C19.8 0 39.6 0 60 0 C60 19.8 60 39.6 60 60 C40.2 60 20.4 60 0 60 C0 40.2 0 20.4 0 0 Z " fill="#B7BFB2" transform="translate(960,1620)"/>
<path d="M0 0 C19.8 0 39.6 0 60 0 C60 19.8 60 39.6 60 60 C40.2 60 20.4 60 0 60 C0 40.2 0 20.4 0 0 Z " fill="#D0D8CA" transform="translate(900,1620)"/>
<path d="M0 0 C19.8 0 39.6 0 60 0 C60 19.8 60 39.6 60 60 C40.2 60 20.4 60 0 60 C0 40.2 0 20.4 0 0 Z " fill="#B7BFB2" transform="translate(840,1620)"/>
<path d="M0 0 C19.8 0 39.6 0 60 0 C60 19.8 60 39.6 60 60 C40.2 60 20.4 60 0 60 C0 40.2 0 20.4 0 0 Z " fill="#D0D8CA" transform="translate(780,1620)"/>
<path d="M0 0 C19.8 0 39.6 0 60 0 C60 19.8 60 39.6 60 60 C40.2 60 20.4 60 0 60 C0 40.2 0 20.4 0 0 Z " fill="#898F85" transform="translate(1080,1560)"/>
<path d="M0 0 C19.8 0 39.6 0 60 0 C60 19.8 60 39.6 60 60 C40.2 60 20.4 60 0 60 C0 40.2 0 20.4 0 0 Z " fill="#B7BFB2" transform="translate(1020,1560)"/>
<path d="M0 0 C19.8 0 39.6 0 60 0 C60 19.8 60 39.6 60 60 C40.2 60 20.4 60 0 60 C0 40.2 0 20.4 0 0 Z " fill="#898F85" transform="translate(960,1560)"/>
<path d="M0 0 C19.8 0 39.6 0 60 0 C60 19.8 60 39.6 60 60 C40.2 60 20.4 60 0 60 C0 40.2 0 20.4 0 0 Z " fill="#898F85" transform="translate(840,1560)"/>
<path d="M0 0 C19.8 0 39.6 0 60 0 C60 19.8 60 39.6 60 60 C40.2 60 20.4 60 0 60 C0 40.2 0 20.4 0 0 Z " fill="#DDDFDC" transform="translate(1740,1500)"/>
<path d="M0 0 C19.8 0 39.6 0 60 0 C60 19.8 60 39.6 60 60 C40.2 60 20.4 60 0 60 C0 40.2 0 20.4 0 0 Z " fill="#747D6E" transform="translate(1680,1500)"/>
<path d="M0 0 C19.8 0 39.6 0 60 0 C60 19.8 60 39.6 60 60 C40.2 60 20.4 60 0 60 C0 40.2 0 20.4 0 0 Z " fill="#525D4B" transform="translate(1440,1500)"/>
<path d="M0 0 C19.8 0 39.6 0 60 0 C60 19.8 60 39.6 60 60 C40.2 60 20.4 60 0 60 C0 40.2 0 20.4 0 0 Z " fill="#D0D8CA" transform="translate(1140,1500)"/>
<path d="M0 0 C19.8 0 39.6 0 60 0 C60 19.8 60 39.6 60 60 C40.2 60 20.4 60 0 60 C0 40.2 0 20.4 0 0 Z " fill="#B7BFB2" transform="translate(1080,1500)"/>
<path d="M0 0 C19.8 0 39.6 0 60 0 C60 19.8 60 39.6 60 60 C40.2 60 20.4 60 0 60 C0 40.2 0 20.4 0 0 Z " fill="#D0D8CA" transform="translate(1020,1500)"/>
<path d="M0 0 C19.8 0 39.6 0 60 0 C60 19.8 60 39.6 60 60 C40.2 60 20.4 60 0 60 C0 40.2 0 20.4 0 0 Z " fill="#B7BFB2" transform="translate(960,1500)"/>
<path d="M0 0 C19.8 0 39.6 0 60 0 C60 19.8 60 39.6 60 60 C40.2 60 20.4 60 0 60 C0 40.2 0 20.4 0 0 Z " fill="#D0D8CA" transform="translate(900,1500)"/>
<path d="M0 0 C19.8 0 39.6 0 60 0 C60 19.8 60 39.6 60 60 C40.2 60 20.4 60 0 60 C0 40.2 0 20.4 0 0 Z " fill="#B1B9AC" transform="translate(840,1500)"/>
<path d="M0 0 C19.8 0 39.6 0 60 0 C60 19.8 60 39.6 60 60 C40.2 60 20.4 60 0 60 C0 40.2 0 20.4 0 0 Z " fill="#D0D8CA" transform="translate(780,1500)"/>
<path d="M0 0 C19.8 0 39.6 0 60 0 C60 19.8 60 39.6 60 60 C40.2 60 20.4 60 0 60 C0 40.2 0 20.4 0 0 Z " fill="#5389B9" transform="translate(840,1380)"/>
<path d="M0 0 C19.8 0 39.6 0 60 0 C60 19.8 60 39.6 60 60 C40.2 60 20.4 60 0 60 C0 40.2 0 20.4 0 0 Z " fill="#838B7E" transform="translate(1740,1320)"/>
<path d="M0 0 C19.8 0 39.6 0 60 0 C60 19.8 60 39.6 60 60 C40.2 60 20.4 60 0 60 C0 40.2 0 20.4 0 0 Z " fill="#5D6756" transform="translate(1620,1320)"/>
<path d="M0 0 C19.8 0 39.6 0 60 0 C60 19.8 60 39.6 60 60 C40.2 60 20.4 60 0 60 C0 40.2 0 20.4 0 0 Z " fill="#598DBB" transform="translate(900,1320)"/>
<path d="M0 0 C19.8 0 39.6 0 60 0 C60 19.8 60 39.6 60 60 C40.2 60 20.4 60 0 60 C0 40.2 0 20.4 0 0 Z " fill="#5389B9" transform="translate(780,1320)"/>
<path d="M0 0 C19.8 0 39.6 0 60 0 C60 19.8 60 39.6 60 60 C40.2 60 20.4 60 0 60 C0 40.2 0 20.4 0 0 Z " fill="#5389B9" transform="translate(840,1260)"/>
<path d="M0 0 C19.8 0 39.6 0 60 0 C60 19.8 60 39.6 60 60 C40.2 60 20.4 60 0 60 C0 40.2 0 20.4 0 0 Z " fill="#CBCFC9" transform="translate(1740,1140)"/>
<path d="M0 0 C19.8 0 39.6 0 60 0 C60 19.8 60 39.6 60 60 C40.2 60 20.4 60 0 60 C0 40.2 0 20.4 0 0 Z " fill="#747D6E" transform="translate(1680,1140)"/>
<path d="M0 0 C19.8 0 39.6 0 60 0 C60 19.8 60 39.6 60 60 C40.2 60 20.4 60 0 60 C0 40.2 0 20.4 0 0 Z " fill="#616B5B" transform="translate(1560,1140)"/>
<path d="M0 0 C19.8 0 39.6 0 60 0 C60 19.8 60 39.6 60 60 C40.2 60 20.4 60 0 60 C0 40.2 0 20.4 0 0 Z " fill="#98FF44" transform="translate(1020,1020)"/>
<path d="M0 0 C19.8 0 39.6 0 60 0 C60 19.8 60 39.6 60 60 C40.2 60 20.4 60 0 60 C0 40.2 0 20.4 0 0 Z " fill="#8A9185" transform="translate(1740,960)"/>
<path d="M0 0 C19.8 0 39.6 0 60 0 C60 19.8 60 39.6 60 60 C40.2 60 20.4 60 0 60 C0 40.2 0 20.4 0 0 Z " fill="#5F6959" transform="translate(1620,960)"/>
<path d="M0 0 C19.8 0 39.6 0 60 0 C60 19.8 60 39.6 60 60 C40.2 60 20.4 60 0 60 C0 40.2 0 20.4 0 0 Z " fill="#000000" transform="translate(1260,840)"/>
<path d="M0 0 C19.8 0 39.6 0 60 0 C60 19.8 60 39.6 60 60 C40.2 60 20.4 60 0 60 C0 40.2 0 20.4 0 0 Z " fill="#000000" transform="translate(660,840)"/>
<path d="M0 0 C19.8 0 39.6 0 60 0 C60 19.8 60 39.6 60 60 C40.2 60 20.4 60 0 60 C0 40.2 0 20.4 0 0 Z " fill="#000000" transform="translate(1920,660)"/>
<path d="M0 0 C19.8 0 39.6 0 60 0 C60 19.8 60 39.6 60 60 C40.2 60 20.4 60 0 60 C0 40.2 0 20.4 0 0 Z " fill="#747D6E" transform="translate(1440,660)"/>
<path d="M0 0 C19.8 0 39.6 0 60 0 C60 19.8 60 39.6 60 60 C40.2 60 20.4 60 0 60 C0 40.2 0 20.4 0 0 Z " fill="#5A6453" transform="translate(1260,660)"/>
</svg>
