<?xml version="1.0" encoding="UTF-8"?>
<svg version="1.1" xmlns="http://www.w3.org/2000/svg" width="3000" height="3000">
<path d="M0 0 C990 0 1980 0 3000 0 C3000 990 3000 1980 3000 3000 C2010 3000 1020 3000 0 3000 C0 2010 0 1020 0 0 Z " fill="#FEFEFE" transform="translate(0,0)"/>
<path d="M0 0 C45.21 0 90.42 0 137 0 C137 22.44 137 44.88 137 68 C159.44 68 181.88 68 205 68 C205 90.77 205 113.54 205 137 C249.88 137 294.76 137 341 137 C341 114.23 341 91.46 341 68 C363.44 68 385.88 68 409 68 C409 45.56 409 23.12 409 0 C454.21 0 499.42 0 546 0 C546 22.44 546 44.88 546 68 C568.44 68 590.88 68 614 68 C614 135.65 614 203.3 614 273 C591.56 273 569.12 273 546 273 C546 295.44 546 317.88 546 341 C523.56 341 501.12 341 478 341 C478 386.21 478 431.42 478 478 C500.44 478 522.88 478 546 478 C546 500.44 546 522.88 546 546 C613.32 546 680.64 546 750 546 C750 568.44 750 590.88 750 614 C795.21 614 840.42 614 887 614 C887 636.44 887 658.88 887 682 C909.44 682 931.88 682 955 682 C955 704.44 955 726.88 955 750 C977.44 750 999.88 750 1023 750 C1023 772.44 1023 794.88 1023 818 C1045.44 818 1067.88 818 1091 818 C1091 840.77 1091 863.54 1091 887 C1113.44 887 1135.88 887 1159 887 C1159 909.44 1159 931.88 1159 955 C1181.77 955 1204.54 955 1228 955 C1228 999.88 1228 1044.76 1228 1091 C1250.44 1091 1272.88 1091 1296 1091 C1296 1136.21 1296 1181.42 1296 1228 C1318.44 1228 1340.88 1228 1364 1228 C1364 1250.44 1364 1272.88 1364 1296 C1386.44 1296 1408.88 1296 1432 1296 C1432 1318.44 1432 1340.88 1432 1364 C1409.56 1364 1387.12 1364 1364 1364 C1364 1498.97 1364 1633.94 1364 1773 C1341.56 1773 1319.12 1773 1296 1773 C1296 1840.65 1296 1908.3 1296 1978 C1273.56 1978 1251.12 1978 1228 1978 C1228 2000.44 1228 2022.88 1228 2046 C1205.23 2046 1182.46 2046 1159 2046 C1159 2090.88 1159 2135.76 1159 2182 C1136.56 2182 1114.12 2182 1091 2182 C1091 2204.44 1091 2226.88 1091 2250 C1068.56 2250 1046.12 2250 1023 2250 C1023 2272.44 1023 2294.88 1023 2318 C1000.56 2318 978.12 2318 955 2318 C955 2340.77 955 2363.54 955 2387 C909.79 2387 864.58 2387 818 2387 C818 2409.44 818 2431.88 818 2455 C773.12 2455 728.24 2455 682 2455 C682 2477.44 682 2499.88 682 2523 C614.68 2523 547.36 2523 478 2523 C478 2545.44 478 2567.88 478 2591 C342.7 2591 207.4 2591 68 2591 C68 2568.56 68 2546.12 68 2523 C0.68 2523 -66.64 2523 -136 2523 C-136 2500.56 -136 2478.12 -136 2455 C-180.88 2455 -225.76 2455 -272 2455 C-272 2432.56 -272 2410.12 -272 2387 C-317.21 2387 -362.42 2387 -409 2387 C-409 2364.23 -409 2341.46 -409 2318 C-431.44 2318 -453.88 2318 -477 2318 C-477 2295.56 -477 2273.12 -477 2250 C-499.44 2250 -521.88 2250 -545 2250 C-545 2227.56 -545 2205.12 -545 2182 C-567.44 2182 -589.88 2182 -613 2182 C-613 2137.12 -613 2092.24 -613 2046 C-635.77 2046 -658.54 2046 -682 2046 C-682 2023.56 -682 2001.12 -682 1978 C-704.44 1978 -726.88 1978 -750 1978 C-750 1910.35 -750 1842.7 -750 1773 C-772.44 1773 -794.88 1773 -818 1773 C-818 1638.03 -818 1503.06 -818 1364 C-840.44 1364 -862.88 1364 -886 1364 C-886 1341.56 -886 1319.12 -886 1296 C-863.56 1296 -841.12 1296 -818 1296 C-818 1273.56 -818 1251.12 -818 1228 C-795.56 1228 -773.12 1228 -750 1228 C-750 1182.79 -750 1137.58 -750 1091 C-727.56 1091 -705.12 1091 -682 1091 C-682 1046.12 -682 1001.24 -682 955 C-659.23 955 -636.46 955 -613 955 C-613 932.56 -613 910.12 -613 887 C-590.56 887 -568.12 887 -545 887 C-545 864.23 -545 841.46 -545 818 C-522.56 818 -500.12 818 -477 818 C-477 795.56 -477 773.12 -477 750 C-454.56 750 -432.12 750 -409 750 C-409 727.56 -409 705.12 -409 682 C-386.56 682 -364.12 682 -341 682 C-341 659.56 -341 637.12 -341 614 C-295.79 614 -250.58 614 -204 614 C-204 591.56 -204 569.12 -204 546 C-136.68 546 -69.36 546 0 546 C0 523.56 0 501.12 0 478 C22.44 478 44.88 478 68 478 C68 432.79 68 387.58 68 341 C45.56 341 23.12 341 0 341 C0 318.56 0 296.12 0 273 C-22.44 273 -44.88 273 -68 273 C-68 205.35 -68 137.7 -68 68 C-45.56 68 -23.12 68 0 68 C0 45.56 0 23.12 0 0 Z " fill="#007E00" transform="translate(1227,102)"/>
<path d="M0 0 C22.44 0 44.88 0 68 0 C68 22.77 68 45.54 68 69 C113.21 69 158.42 69 205 69 C205 91.44 205 113.88 205 137 C249.88 137 294.76 137 341 137 C341 159.44 341 181.88 341 205 C408.32 205 475.64 205 545 205 C545 227.44 545 249.88 545 273 C680.3 273 815.6 273 955 273 C955 250.56 955 228.12 955 205 C1022.32 205 1089.64 205 1159 205 C1159 182.56 1159 160.12 1159 137 C1203.88 137 1248.76 137 1295 137 C1295 114.56 1295 92.12 1295 69 C1340.21 69 1385.42 69 1432 69 C1432 46.23 1432 23.46 1432 0 C1454.44 0 1476.88 0 1500 0 C1500 22.77 1500 45.54 1500 69 C1522.44 69 1544.88 69 1568 69 C1568 113.88 1568 158.76 1568 205 C1590.44 205 1612.88 205 1636 205 C1636 227.44 1636 249.88 1636 273 C1658.77 273 1681.54 273 1705 273 C1705 295.44 1705 317.88 1705 341 C1727.44 341 1749.88 341 1773 341 C1773 363.77 1773 386.54 1773 410 C1817.88 410 1862.76 410 1909 410 C1909 432.44 1909 454.88 1909 478 C1976.65 478 2044.3 478 2114 478 C2114 455.56 2114 433.12 2114 410 C2136.44 410 2158.88 410 2182 410 C2182 387.23 2182 364.46 2182 341 C2204.44 341 2226.88 341 2250 341 C2250 419.87 2250 498.74 2250 580 C1260 580 270 580 -750 580 C-750 501.13 -750 422.26 -750 341 C-727.56 341 -705.12 341 -682 341 C-682 363.77 -682 386.54 -682 410 C-659.56 410 -637.12 410 -614 410 C-614 432.44 -614 454.88 -614 478 C-546.35 478 -478.7 478 -409 478 C-409 455.56 -409 433.12 -409 410 C-364.12 410 -319.24 410 -273 410 C-273 387.23 -273 364.46 -273 341 C-250.56 341 -228.12 341 -205 341 C-205 318.56 -205 296.12 -205 273 C-182.23 273 -159.46 273 -136 273 C-136 250.56 -136 228.12 -136 205 C-113.56 205 -91.12 205 -68 205 C-68 160.12 -68 115.24 -68 69 C-45.56 69 -23.12 69 0 69 C0 46.23 0 23.46 0 0 Z " fill="#FFFFFF" transform="translate(750,2420)"/>
<path d="M0 0 C45.21 0 90.42 0 137 0 C137 22.44 137 44.88 137 68 C159.44 68 181.88 68 205 68 C205 90.77 205 113.54 205 137 C249.88 137 294.76 137 341 137 C341 114.23 341 91.46 341 68 C363.44 68 385.88 68 409 68 C409 45.56 409 23.12 409 0 C454.21 0 499.42 0 546 0 C546 22.44 546 44.88 546 68 C568.44 68 590.88 68 614 68 C614 135.65 614 203.3 614 273 C591.56 273 569.12 273 546 273 C546 295.44 546 317.88 546 341 C500.79 341 455.58 341 409 341 C409 386.21 409 431.42 409 478 C319.24 478 229.48 478 137 478 C137 432.79 137 387.58 137 341 C91.79 341 46.58 341 0 341 C0 318.56 0 296.12 0 273 C-22.44 273 -44.88 273 -68 273 C-68 205.35 -68 137.7 -68 68 C-45.56 68 -23.12 68 0 68 C0 45.56 0 23.12 0 0 Z " fill="#007E00" transform="translate(1227,102)"/>
<path d="M0 0 C44.88 0 89.76 0 136 0 C136 22.77 136 45.54 136 69 C158.44 69 180.88 69 204 69 C204 91.44 204 113.88 204 137 C226.77 137 249.54 137 273 137 C273 159.44 273 181.88 273 205 C295.44 205 317.88 205 341 205 C341 249.88 341 294.76 341 341 C295.79 341 250.58 341 204 341 C204 318.56 204 296.12 204 273 C181.56 273 159.12 273 136 273 C136 250.56 136 228.12 136 205 C113.56 205 91.12 205 68 205 C68 182.56 68 160.12 68 137 C45.56 137 23.12 137 0 137 C0 91.79 0 46.58 0 0 Z " fill="#E2B974" transform="translate(1841,920)"/>
<path d="M0 0 C22.77 0 45.54 0 69 0 C69 45.21 69 90.42 69 137 C158.76 137 248.52 137 341 137 C341 91.79 341 46.58 341 0 C363.77 0 386.54 0 410 0 C410 45.21 410 90.42 410 137 C432.44 137 454.88 137 478 137 C478 159.44 478 181.88 478 205 C297.82 205 117.64 205 -68 205 C-68 182.56 -68 160.12 -68 137 C-45.56 137 -23.12 137 0 137 C0 91.79 0 46.58 0 0 Z " fill="#000000" transform="translate(1295,443)"/>
<path d="M0 0 C44.88 0 89.76 0 136 0 C136 22.44 136 44.88 136 68 C158.44 68 180.88 68 204 68 C204 113.21 204 158.42 204 205 C181.56 205 159.12 205 136 205 C136 227.44 136 249.88 136 273 C91.12 273 46.24 273 0 273 C0 250.56 0 228.12 0 205 C-22.44 205 -44.88 205 -68 205 C-68 159.79 -68 114.58 -68 68 C-45.56 68 -23.12 68 0 68 C0 45.56 0 23.12 0 0 Z " fill="#D37CAA" transform="translate(1432,1943)"/>
<path d="M0 0 C22.44 0 44.88 0 68 0 C68 89.76 68 179.52 68 272 C90.77 272 113.54 272 137 272 C137 384.53 137 497.06 137 613 C114.23 613 91.46 613 68 613 C68 523.24 68 433.48 68 341 C45.56 341 23.12 341 0 341 C0 228.47 0 115.94 0 0 Z " fill="#040404" transform="translate(68,648)"/>
<path d="M0 0 C22.44 0 44.88 0 68 0 C68 112.53 68 225.06 68 341 C45.56 341 23.12 341 0 341 C0 430.76 0 520.52 0 613 C-22.77 613 -45.54 613 -69 613 C-69 500.47 -69 387.94 -69 272 C-46.23 272 -23.46 272 0 272 C0 182.24 0 92.48 0 0 Z " fill="#010101" transform="translate(2864,648)"/>
<path d="M0 0 C22.44 0 44.88 0 68 0 C68 22.44 68 44.88 68 68 C90.44 68 112.88 68 136 68 C136 90.44 136 112.88 136 136 C113.56 136 91.12 136 68 136 C68 270.97 68 405.94 68 545 C45.56 545 23.12 545 0 545 C0 365.15 0 185.3 0 0 Z " fill="#000000" transform="translate(2523,1330)"/>
<path d="M0 0 C22.44 0 44.88 0 68 0 C68 179.85 68 359.7 68 545 C45.56 545 23.12 545 0 545 C0 410.03 0 275.06 0 136 C-22.44 136 -44.88 136 -68 136 C-68 113.56 -68 91.12 -68 68 C-45.56 68 -23.12 68 0 68 C0 45.56 0 23.12 0 0 Z " fill="#000000" transform="translate(409,1330)"/>
<path d="M0 0 C89.76 0 179.52 0 272 0 C272 45.21 272 90.42 272 137 C182.24 137 92.48 137 0 137 C0 91.79 0 46.58 0 0 Z " fill="#BF9855" transform="translate(1364,443)"/>
<path d="M0 0 C135.3 0 270.6 0 410 0 C410 22.44 410 44.88 410 68 C274.7 68 139.4 68 0 68 C0 45.56 0 23.12 0 0 Z " fill="#000000" transform="translate(1295,2625)"/>
<path d="M0 0 C22.44 0 44.88 0 68 0 C68 45.21 68 90.42 68 137 C112.88 137 157.76 137 204 137 C204 159.44 204 181.88 204 205 C114.24 205 24.48 205 -68 205 C-68 182.56 -68 160.12 -68 137 C-45.56 137 -23.12 137 0 137 C0 91.79 0 46.58 0 0 Z " fill="#428D17" transform="translate(1432,852)"/>
<path d="M0 0 C45.21 0 90.42 0 137 0 C137 22.77 137 45.54 137 69 C114.56 69 92.12 69 69 69 C69 91.44 69 113.88 69 137 C1.35 137 -66.3 137 -136 137 C-136 114.56 -136 92.12 -136 69 C-91.12 69 -46.24 69 0 69 C0 46.23 0 23.46 0 0 Z " fill="#040404" transform="translate(2795,2761)"/>
<path d="M0 0 C45.21 0 90.42 0 137 0 C137 22.77 137 45.54 137 69 C181.88 69 226.76 69 273 69 C273 91.44 273 113.88 273 137 C205.35 137 137.7 137 68 137 C68 114.56 68 92.12 68 69 C45.56 69 23.12 69 0 69 C0 46.23 0 23.46 0 0 Z " fill="#010101" transform="translate(68,2761)"/>
<path d="M0 0 C22.44 0 44.88 0 68 0 C68 67.65 68 135.3 68 205 C90.77 205 113.54 205 137 205 C137 227.44 137 249.88 137 273 C91.79 273 46.58 273 0 273 C0 182.91 0 92.82 0 0 Z " fill="#448E18" transform="translate(1227,1125)"/>
<path d="M0 0 C45.21 0 90.42 0 137 0 C137 44.88 137 89.76 137 136 C91.79 136 46.58 136 0 136 C0 91.12 0 46.24 0 0 Z " fill="#EDB454" transform="translate(2045,1125)"/>
<path d="M0 0 C44.88 0 89.76 0 136 0 C136 45.21 136 90.42 136 137 C91.12 137 46.24 137 0 137 C0 91.79 0 46.58 0 0 Z " fill="#EDB454" transform="translate(1841,920)"/>
<path d="M0 0 C89.76 0 179.52 0 272 0 C272 22.44 272 44.88 272 68 C182.24 68 92.48 68 0 68 C0 45.56 0 23.12 0 0 Z " fill="#438C18" transform="translate(1364,1807)"/>
<path d="M0 0 C89.76 0 179.52 0 272 0 C272 22.44 272 44.88 272 68 C182.24 68 92.48 68 0 68 C0 45.56 0 23.12 0 0 Z " fill="#438D17" transform="translate(1364,1398)"/>
<path d="M0 0 C89.76 0 179.52 0 272 0 C272 22.44 272 44.88 272 68 C182.24 68 92.48 68 0 68 C0 45.56 0 23.12 0 0 Z " fill="#000000" transform="translate(1364,375)"/>
<path d="M0 0 C22.44 0 44.88 0 68 0 C68 67.65 68 135.3 68 205 C45.56 205 23.12 205 0 205 C0 137.35 0 69.7 0 0 Z " fill="#000000" transform="translate(2455,1875)"/>
<path d="M0 0 C22.44 0 44.88 0 68 0 C68 67.65 68 135.3 68 205 C45.56 205 23.12 205 0 205 C0 137.35 0 69.7 0 0 Z " fill="#000000" transform="translate(477,1875)"/>
<path d="M0 0 C22.44 0 44.88 0 68 0 C68 67.65 68 135.3 68 205 C45.56 205 23.12 205 0 205 C0 137.35 0 69.7 0 0 Z " fill="#448D18" transform="translate(1705,1534)"/>
<path d="M0 0 C22.44 0 44.88 0 68 0 C68 67.65 68 135.3 68 205 C45.56 205 23.12 205 0 205 C0 137.35 0 69.7 0 0 Z " fill="#020202" transform="translate(1773,170)"/>
<path d="M0 0 C22.44 0 44.88 0 68 0 C68 67.65 68 135.3 68 205 C45.56 205 23.12 205 0 205 C0 137.35 0 69.7 0 0 Z " fill="#000000" transform="translate(1159,170)"/>
<path d="M0 0 C67.32 0 134.64 0 204 0 C204 22.44 204 44.88 204 68 C136.68 68 69.36 68 0 68 C0 45.56 0 23.12 0 0 Z " fill="#000000" transform="translate(1705,2557)"/>
<path d="M0 0 C67.32 0 134.64 0 204 0 C204 22.44 204 44.88 204 68 C136.68 68 69.36 68 0 68 C0 45.56 0 23.12 0 0 Z " fill="#000000" transform="translate(1091,2557)"/>
<path d="M0 0 C67.32 0 134.64 0 204 0 C204 22.44 204 44.88 204 68 C136.68 68 69.36 68 0 68 C0 45.56 0 23.12 0 0 Z " fill="#000700" transform="translate(1773,1330)"/>
<path d="M0 0 C67.32 0 134.64 0 204 0 C204 22.44 204 44.88 204 68 C136.68 68 69.36 68 0 68 C0 45.56 0 23.12 0 0 Z " fill="#000200" transform="translate(1023,1330)"/>
<path d="M0 0 C67.32 0 134.64 0 204 0 C204 22.44 204 44.88 204 68 C136.68 68 69.36 68 0 68 C0 45.56 0 23.12 0 0 Z " fill="#000000" transform="translate(1773,648)"/>
<path d="M0 0 C67.32 0 134.64 0 204 0 C204 22.44 204 44.88 204 68 C136.68 68 69.36 68 0 68 C0 45.56 0 23.12 0 0 Z " fill="#000000" transform="translate(1023,648)"/>
<path d="M0 0 C45.21 0 90.42 0 137 0 C137 22.77 137 45.54 137 69 C91.79 69 46.58 69 0 69 C0 46.23 0 23.46 0 0 Z " fill="#000000" transform="translate(2045,2420)"/>
<path d="M0 0 C45.21 0 90.42 0 137 0 C137 22.77 137 45.54 137 69 C91.79 69 46.58 69 0 69 C0 46.23 0 23.46 0 0 Z " fill="#000000" transform="translate(818,2420)"/>
<path d="M0 0 C22.77 0 45.54 0 69 0 C69 45.21 69 90.42 69 137 C46.23 137 23.46 137 0 137 C0 91.79 0 46.58 0 0 Z " fill="#000200" transform="translate(1636,2011)"/>
<path d="M0 0 C22.77 0 45.54 0 69 0 C69 45.21 69 90.42 69 137 C46.23 137 23.46 137 0 137 C0 91.79 0 46.58 0 0 Z " fill="#000200" transform="translate(1295,2011)"/>
<path d="M0 0 C45.21 0 90.42 0 137 0 C137 22.77 137 45.54 137 69 C91.79 69 46.58 69 0 69 C0 46.23 0 23.46 0 0 Z " fill="#000000" transform="translate(2045,1261)"/>
<path d="M0 0 C22.77 0 45.54 0 69 0 C69 45.21 69 90.42 69 137 C46.23 137 23.46 137 0 137 C0 91.79 0 46.58 0 0 Z " fill="#040404" transform="translate(2795,511)"/>
<path d="M0 0 C22.77 0 45.54 0 69 0 C69 45.21 69 90.42 69 137 C46.23 137 23.46 137 0 137 C0 91.79 0 46.58 0 0 Z " fill="#040404" transform="translate(136,511)"/>
<path d="M0 0 C44.88 0 89.76 0 136 0 C136 22.77 136 45.54 136 69 C91.12 69 46.24 69 0 69 C0 46.23 0 23.46 0 0 Z " fill="#040404" transform="translate(2523,2761)"/>
<path d="M0 0 C44.88 0 89.76 0 136 0 C136 22.77 136 45.54 136 69 C91.12 69 46.24 69 0 69 C0 46.23 0 23.46 0 0 Z " fill="#030303" transform="translate(341,2761)"/>
<path d="M0 0 C22.77 0 45.54 0 69 0 C69 44.88 69 89.76 69 136 C46.23 136 23.46 136 0 136 C0 91.12 0 46.24 0 0 Z " fill="#000000" transform="translate(2386,1057)"/>
<path d="M0 0 C22.77 0 45.54 0 69 0 C69 44.88 69 89.76 69 136 C46.23 136 23.46 136 0 136 C0 91.12 0 46.24 0 0 Z " fill="#000000" transform="translate(545,1057)"/>
<path d="M0 0 C22.44 0 44.88 0 68 0 C68 45.21 68 90.42 68 137 C45.56 137 23.12 137 0 137 C0 91.79 0 46.58 0 0 Z " fill="#000000" transform="translate(2455,1193)"/>
<path d="M0 0 C22.44 0 44.88 0 68 0 C68 45.21 68 90.42 68 137 C45.56 137 23.12 137 0 137 C0 91.79 0 46.58 0 0 Z " fill="#000000" transform="translate(477,1193)"/>
<path d="M0 0 C22.44 0 44.88 0 68 0 C68 45.21 68 90.42 68 137 C45.56 137 23.12 137 0 137 C0 91.79 0 46.58 0 0 Z " fill="#000000" transform="translate(1773,920)"/>
<path d="M0 0 C45.21 0 90.42 0 137 0 C137 22.44 137 44.88 137 68 C91.79 68 46.58 68 0 68 C0 45.56 0 23.12 0 0 Z " fill="#000000" transform="translate(1977,716)"/>
<path d="M0 0 C45.21 0 90.42 0 137 0 C137 22.44 137 44.88 137 68 C91.79 68 46.58 68 0 68 C0 45.56 0 23.12 0 0 Z " fill="#000000" transform="translate(886,716)"/>
<path d="M0 0 C45.21 0 90.42 0 137 0 C137 22.44 137 44.88 137 68 C91.79 68 46.58 68 0 68 C0 45.56 0 23.12 0 0 Z " fill="#000000" transform="translate(1636,102)"/>
<path d="M0 0 C45.21 0 90.42 0 137 0 C137 22.44 137 44.88 137 68 C91.79 68 46.58 68 0 68 C0 45.56 0 23.12 0 0 Z " fill="#000000" transform="translate(1227,102)"/>
<path d="M0 0 C22.44 0 44.88 0 68 0 C68 44.88 68 89.76 68 136 C45.56 136 23.12 136 0 136 C0 91.12 0 46.24 0 0 Z " fill="#040404" transform="translate(2318,2489)"/>
<path d="M0 0 C44.88 0 89.76 0 136 0 C136 22.44 136 44.88 136 68 C91.12 68 46.24 68 0 68 C0 45.56 0 23.12 0 0 Z " fill="#000000" transform="translate(1909,2489)"/>
<path d="M0 0 C44.88 0 89.76 0 136 0 C136 22.44 136 44.88 136 68 C91.12 68 46.24 68 0 68 C0 45.56 0 23.12 0 0 Z " fill="#000000" transform="translate(955,2489)"/>
<path d="M0 0 C22.44 0 44.88 0 68 0 C68 44.88 68 89.76 68 136 C45.56 136 23.12 136 0 136 C0 91.12 0 46.24 0 0 Z " fill="#000000" transform="translate(614,2489)"/>
<path d="M0 0 C44.88 0 89.76 0 136 0 C136 22.44 136 44.88 136 68 C91.12 68 46.24 68 0 68 C0 45.56 0 23.12 0 0 Z " fill="#000200" transform="translate(1432,2216)"/>
<path d="M0 0 C22.44 0 44.88 0 68 0 C68 44.88 68 89.76 68 136 C45.56 136 23.12 136 0 136 C0 91.12 0 46.24 0 0 Z " fill="#000000" transform="translate(2318,2148)"/>
<path d="M0 0 C22.44 0 44.88 0 68 0 C68 44.88 68 89.76 68 136 C45.56 136 23.12 136 0 136 C0 91.12 0 46.24 0 0 Z " fill="#000000" transform="translate(614,2148)"/>
<path d="M0 0 C44.88 0 89.76 0 136 0 C136 22.44 136 44.88 136 68 C91.12 68 46.24 68 0 68 C0 45.56 0 23.12 0 0 Z " fill="#000200" transform="translate(1432,1875)"/>
<path d="M0 0 C22.44 0 44.88 0 68 0 C68 44.88 68 89.76 68 136 C45.56 136 23.12 136 0 136 C0 91.12 0 46.24 0 0 Z " fill="#000000" transform="translate(2182,1125)"/>
<path d="M0 0 C44.88 0 89.76 0 136 0 C136 22.44 136 44.88 136 68 C91.12 68 46.24 68 0 68 C0 45.56 0 23.12 0 0 Z " fill="#000200" transform="translate(1841,852)"/>
<path d="M0 0 C44.88 0 89.76 0 136 0 C136 22.44 136 44.88 136 68 C91.12 68 46.24 68 0 68 C0 45.56 0 23.12 0 0 Z " fill="#000000" transform="translate(1432,239)"/>
<path d="M0 0 C22.77 0 45.54 0 69 0 C69 22.11 69 44.22 69 67 C113.88 67 158.76 67 205 67 C205 67.33 205 67.66 205 68 C137.35 68 69.7 68 0 68 C0 45.56 0 23.12 0 0 Z " fill="#101010" transform="translate(136,2830)"/>
<path d="M0 0 C22.77 0 45.54 0 69 0 C69 22.44 69 44.88 69 68 C46.23 68 23.46 68 0 68 C0 45.56 0 23.12 0 0 Z " fill="#040404" transform="translate(2386,2625)"/>
<path d="M0 0 C22.77 0 45.54 0 69 0 C69 22.44 69 44.88 69 68 C46.23 68 23.46 68 0 68 C0 45.56 0 23.12 0 0 Z " fill="#020202" transform="translate(545,2625)"/>
<path d="M0 0 C22.44 0 44.88 0 68 0 C68 22.77 68 45.54 68 69 C45.56 69 23.12 69 0 69 C0 46.23 0 23.46 0 0 Z " fill="#040404" transform="translate(2250,2420)"/>
<path d="M0 0 C22.44 0 44.88 0 68 0 C68 22.77 68 45.54 68 69 C45.56 69 23.12 69 0 69 C0 46.23 0 23.46 0 0 Z " fill="#000000" transform="translate(682,2420)"/>
<path d="M0 0 C22.77 0 45.54 0 69 0 C69 22.44 69 44.88 69 68 C46.23 68 23.46 68 0 68 C0 45.56 0 23.12 0 0 Z " fill="#000000" transform="translate(2386,2080)"/>
<path d="M0 0 C22.77 0 45.54 0 69 0 C69 22.44 69 44.88 69 68 C46.23 68 23.46 68 0 68 C0 45.56 0 23.12 0 0 Z " fill="#000000" transform="translate(545,2080)"/>
<path d="M0 0 C22.44 0 44.88 0 68 0 C68 22.77 68 45.54 68 69 C45.56 69 23.12 69 0 69 C0 46.23 0 23.46 0 0 Z " fill="#E278B0" transform="translate(1364,2011)"/>
<path d="M0 0 C22.77 0 45.54 0 69 0 C69 22.44 69 44.88 69 68 C46.23 68 23.46 68 0 68 C0 45.56 0 23.12 0 0 Z " fill="#448E18" transform="translate(1636,1739)"/>
<path d="M0 0 C22.77 0 45.54 0 69 0 C69 22.44 69 44.88 69 68 C46.23 68 23.46 68 0 68 C0 45.56 0 23.12 0 0 Z " fill="#448E18" transform="translate(1295,1739)"/>
<path d="M0 0 C22.44 0 44.88 0 68 0 C68 22.77 68 45.54 68 69 C45.56 69 23.12 69 0 69 C0 46.23 0 23.46 0 0 Z " fill="#448E18" transform="translate(1227,1670)"/>
<path d="M0 0 C22.77 0 45.54 0 69 0 C69 22.44 69 44.88 69 68 C46.23 68 23.46 68 0 68 C0 45.56 0 23.12 0 0 Z " fill="#448E18" transform="translate(1636,1466)"/>
<path d="M0 0 C22.77 0 45.54 0 69 0 C69 22.44 69 44.88 69 68 C46.23 68 23.46 68 0 68 C0 45.56 0 23.12 0 0 Z " fill="#448E18" transform="translate(1295,1330)"/>
<path d="M0 0 C22.44 0 44.88 0 68 0 C68 22.77 68 45.54 68 69 C45.56 69 23.12 69 0 69 C0 46.23 0 23.46 0 0 Z " fill="#040404" transform="translate(2727,1261)"/>
<path d="M0 0 C22.44 0 44.88 0 68 0 C68 22.77 68 45.54 68 69 C45.56 69 23.12 69 0 69 C0 46.23 0 23.46 0 0 Z " fill="#040404" transform="translate(205,1261)"/>
<path d="M0 0 C22.77 0 45.54 0 69 0 C69 22.44 69 44.88 69 68 C46.23 68 23.46 68 0 68 C0 45.56 0 23.12 0 0 Z " fill="#448E18" transform="translate(1636,1057)"/>
<path d="M0 0 C22.77 0 45.54 0 69 0 C69 22.44 69 44.88 69 68 C46.23 68 23.46 68 0 68 C0 45.56 0 23.12 0 0 Z " fill="#448E18" transform="translate(1295,1057)"/>
<path d="M0 0 C22.77 0 45.54 0 69 0 C69 22.44 69 44.88 69 68 C46.23 68 23.46 68 0 68 C0 45.56 0 23.12 0 0 Z " fill="#000000" transform="translate(2045,989)"/>
<path d="M0 0 C22.44 0 44.88 0 68 0 C68 22.77 68 45.54 68 69 C45.56 69 23.12 69 0 69 C0 46.23 0 23.46 0 0 Z " fill="#000000" transform="translate(2250,920)"/>
<path d="M0 0 C22.44 0 44.88 0 68 0 C68 22.77 68 45.54 68 69 C45.56 69 23.12 69 0 69 C0 46.23 0 23.46 0 0 Z " fill="#000000" transform="translate(1977,920)"/>
<path d="M0 0 C22.44 0 44.88 0 68 0 C68 22.77 68 45.54 68 69 C45.56 69 23.12 69 0 69 C0 46.23 0 23.46 0 0 Z " fill="#000000" transform="translate(682,920)"/>
<path d="M0 0 C22.44 0 44.88 0 68 0 C68 22.77 68 45.54 68 69 C45.56 69 23.12 69 0 69 C0 46.23 0 23.46 0 0 Z " fill="#151515" transform="translate(68,920)"/>
<path d="M0 0 C22.44 0 44.88 0 68 0 C68 22.77 68 45.54 68 69 C45.56 69 23.12 69 0 69 C0 46.23 0 23.46 0 0 Z " fill="#000000" transform="translate(1568,170)"/>
<path d="M0 0 C22.44 0 44.88 0 68 0 C68 22.77 68 45.54 68 69 C45.56 69 23.12 69 0 69 C0 46.23 0 23.46 0 0 Z " fill="#000000" transform="translate(1364,170)"/>
<path d="M0 0 C22.44 0 44.88 0 68 0 C68 22.44 68 44.88 68 68 C45.56 68 23.12 68 0 68 C0 45.56 0 23.12 0 0 Z " fill="#040404" transform="translate(2932,2693)"/>
<path d="M0 0 C22.44 0 44.88 0 68 0 C68 22.44 68 44.88 68 68 C45.56 68 23.12 68 0 68 C0 45.56 0 23.12 0 0 Z " fill="#040404" transform="translate(2455,2693)"/>
<path d="M0 0 C22.44 0 44.88 0 68 0 C68 22.44 68 44.88 68 68 C45.56 68 23.12 68 0 68 C0 45.56 0 23.12 0 0 Z " fill="#000000" transform="translate(477,2693)"/>
<path d="M0 0 C22.44 0 44.88 0 68 0 C68 22.44 68 44.88 68 68 C45.56 68 23.12 68 0 68 C0 45.56 0 23.12 0 0 Z " fill="#000000" transform="translate(0,2693)"/>
<path d="M0 0 C22.44 0 44.88 0 68 0 C68 22.44 68 44.88 68 68 C45.56 68 23.12 68 0 68 C0 45.56 0 23.12 0 0 Z " fill="#0E0E0E" transform="translate(1841,2557)"/>
<path d="M0 0 C22.44 0 44.88 0 68 0 C68 22.44 68 44.88 68 68 C45.56 68 23.12 68 0 68 C0 45.56 0 23.12 0 0 Z " fill="#000000" transform="translate(2182,2352)"/>
<path d="M0 0 C22.44 0 44.88 0 68 0 C68 22.44 68 44.88 68 68 C45.56 68 23.12 68 0 68 C0 45.56 0 23.12 0 0 Z " fill="#000000" transform="translate(750,2352)"/>
<path d="M0 0 C22.44 0 44.88 0 68 0 C68 22.44 68 44.88 68 68 C45.56 68 23.12 68 0 68 C0 45.56 0 23.12 0 0 Z " fill="#000000" transform="translate(2250,2284)"/>
<path d="M0 0 C22.44 0 44.88 0 68 0 C68 22.44 68 44.88 68 68 C45.56 68 23.12 68 0 68 C0 45.56 0 23.12 0 0 Z " fill="#000000" transform="translate(682,2284)"/>
<path d="M0 0 C22.44 0 44.88 0 68 0 C68 22.44 68 44.88 68 68 C45.56 68 23.12 68 0 68 C0 45.56 0 23.12 0 0 Z " fill="#000200" transform="translate(1568,2148)"/>
<path d="M0 0 C22.44 0 44.88 0 68 0 C68 22.44 68 44.88 68 68 C45.56 68 23.12 68 0 68 C0 45.56 0 23.12 0 0 Z " fill="#000200" transform="translate(1364,2148)"/>
<path d="M0 0 C22.44 0 44.88 0 68 0 C68 22.44 68 44.88 68 68 C45.56 68 23.12 68 0 68 C0 45.56 0 23.12 0 0 Z " fill="#000200" transform="translate(1568,1943)"/>
<path d="M0 0 C22.44 0 44.88 0 68 0 C68 22.44 68 44.88 68 68 C45.56 68 23.12 68 0 68 C0 45.56 0 23.12 0 0 Z " fill="#000200" transform="translate(1364,1943)"/>
<path d="M0 0 C22.44 0 44.88 0 68 0 C68 22.44 68 44.88 68 68 C45.56 68 23.12 68 0 68 C0 45.56 0 23.12 0 0 Z " fill="#0F0F0F" transform="translate(409,1807)"/>
<path d="M0 0 C22.44 0 44.88 0 68 0 C68 22.44 68 44.88 68 68 C45.56 68 23.12 68 0 68 C0 45.56 0 23.12 0 0 Z " fill="#000200" transform="translate(1977,1398)"/>
<path d="M0 0 C22.44 0 44.88 0 68 0 C68 22.44 68 44.88 68 68 C45.56 68 23.12 68 0 68 C0 45.56 0 23.12 0 0 Z " fill="#001800" transform="translate(1705,1398)"/>
<path d="M0 0 C22.44 0 44.88 0 68 0 C68 22.44 68 44.88 68 68 C45.56 68 23.12 68 0 68 C0 45.56 0 23.12 0 0 Z " fill="#000900" transform="translate(1227,1398)"/>
<path d="M0 0 C22.44 0 44.88 0 68 0 C68 22.44 68 44.88 68 68 C45.56 68 23.12 68 0 68 C0 45.56 0 23.12 0 0 Z " fill="#000200" transform="translate(955,1398)"/>
<path d="M0 0 C22.44 0 44.88 0 68 0 C68 22.44 68 44.88 68 68 C45.56 68 23.12 68 0 68 C0 45.56 0 23.12 0 0 Z " fill="#040404" transform="translate(2659,1330)"/>
<path d="M0 0 C22.44 0 44.88 0 68 0 C68 22.44 68 44.88 68 68 C45.56 68 23.12 68 0 68 C0 45.56 0 23.12 0 0 Z " fill="#007E00" transform="translate(1227,1330)"/>
<path d="M0 0 C22.44 0 44.88 0 68 0 C68 22.44 68 44.88 68 68 C45.56 68 23.12 68 0 68 C0 45.56 0 23.12 0 0 Z " fill="#001500" transform="translate(1023,1330)"/>
<path d="M0 0 C22.44 0 44.88 0 68 0 C68 22.44 68 44.88 68 68 C45.56 68 23.12 68 0 68 C0 45.56 0 23.12 0 0 Z " fill="#040404" transform="translate(273,1330)"/>
<path d="M0 0 C22.44 0 44.88 0 68 0 C68 22.44 68 44.88 68 68 C45.56 68 23.12 68 0 68 C0 45.56 0 23.12 0 0 Z " fill="#000000" transform="translate(1977,1193)"/>
<path d="M0 0 C22.44 0 44.88 0 68 0 C68 22.44 68 44.88 68 68 C45.56 68 23.12 68 0 68 C0 45.56 0 23.12 0 0 Z " fill="#000000" transform="translate(1909,1125)"/>
<path d="M0 0 C22.44 0 44.88 0 68 0 C68 22.44 68 44.88 68 68 C45.56 68 23.12 68 0 68 C0 45.56 0 23.12 0 0 Z " fill="#448E18" transform="translate(1705,1125)"/>
<path d="M0 0 C22.44 0 44.88 0 68 0 C68 22.44 68 44.88 68 68 C45.56 68 23.12 68 0 68 C0 45.56 0 23.12 0 0 Z " fill="#000000" transform="translate(2114,1057)"/>
<path d="M0 0 C22.44 0 44.88 0 68 0 C68 22.44 68 44.88 68 68 C45.56 68 23.12 68 0 68 C0 45.56 0 23.12 0 0 Z " fill="#000000" transform="translate(1841,1057)"/>
<path d="M0 0 C22.44 0 44.88 0 68 0 C68 22.44 68 44.88 68 68 C45.56 68 23.12 68 0 68 C0 45.56 0 23.12 0 0 Z " fill="#000000" transform="translate(2318,989)"/>
<path d="M0 0 C22.44 0 44.88 0 68 0 C68 22.44 68 44.88 68 68 C45.56 68 23.12 68 0 68 C0 45.56 0 23.12 0 0 Z " fill="#0B830B" transform="translate(682,989)"/>
<path d="M0 0 C22.44 0 44.88 0 68 0 C68 22.44 68 44.88 68 68 C45.56 68 23.12 68 0 68 C0 45.56 0 23.12 0 0 Z " fill="#000000" transform="translate(614,989)"/>
<path d="M0 0 C22.44 0 44.88 0 68 0 C68 22.44 68 44.88 68 68 C45.56 68 23.12 68 0 68 C0 45.56 0 23.12 0 0 Z " fill="#000000" transform="translate(2182,852)"/>
<path d="M0 0 C22.44 0 44.88 0 68 0 C68 22.44 68 44.88 68 68 C45.56 68 23.12 68 0 68 C0 45.56 0 23.12 0 0 Z " fill="#000000" transform="translate(750,852)"/>
<path d="M0 0 C22.44 0 44.88 0 68 0 C68 22.44 68 44.88 68 68 C45.56 68 23.12 68 0 68 C0 45.56 0 23.12 0 0 Z " fill="#000000" transform="translate(2114,784)"/>
<path d="M0 0 C22.44 0 44.88 0 68 0 C68 22.44 68 44.88 68 68 C45.56 68 23.12 68 0 68 C0 45.56 0 23.12 0 0 Z " fill="#000000" transform="translate(818,784)"/>
<path d="M0 0 C22.44 0 44.88 0 68 0 C68 22.44 68 44.88 68 68 C45.56 68 23.12 68 0 68 C0 45.56 0 23.12 0 0 Z " fill="#040404" transform="translate(2727,443)"/>
<path d="M0 0 C22.44 0 44.88 0 68 0 C68 22.44 68 44.88 68 68 C45.56 68 23.12 68 0 68 C0 45.56 0 23.12 0 0 Z " fill="#040404" transform="translate(205,443)"/>
<path d="M0 0 C22.44 0 44.88 0 68 0 C68 22.44 68 44.88 68 68 C45.56 68 23.12 68 0 68 C0 45.56 0 23.12 0 0 Z " fill="#000000" transform="translate(1705,375)"/>
<path d="M0 0 C22.44 0 44.88 0 68 0 C68 22.44 68 44.88 68 68 C45.56 68 23.12 68 0 68 C0 45.56 0 23.12 0 0 Z " fill="#000000" transform="translate(1227,375)"/>
</svg>
