<?xml version="1.0" encoding="UTF-8"?>
<svg version="1.1" xmlns="http://www.w3.org/2000/svg" width="3000" height="3000">
<path d="M0 0 C990 0 1980 0 3000 0 C3000 990 3000 1980 3000 3000 C2010 3000 1020 3000 0 3000 C0 2010 0 1020 0 0 Z " fill="#FEFEFE" transform="translate(0,0)"/>
<path d="M0 0 C59.4 0 118.8 0 180 0 C180 19.8 180 39.6 180 60 C199.8 60 219.6 60 240 60 C240 79.8 240 99.6 240 120 C279.6 120 319.2 120 360 120 C360 100.2 360 80.4 360 60 C379.8 60 399.6 60 420 60 C420 40.2 420 20.4 420 0 C479.4 0 538.8 0 600 0 C600 19.8 600 39.6 600 60 C639.6 60 679.2 60 720 60 C720 79.8 720 99.6 720 120 C739.8 120 759.6 120 780 120 C780 139.8 780 159.6 780 180 C799.8 180 819.6 180 840 180 C840 219.6 840 259.2 840 300 C859.8 300 879.6 300 900 300 C900 379.2 900 458.4 900 540 C880.2 540 860.4 540 840 540 C840 579.6 840 619.2 840 660 C820.2 660 800.4 660 780 660 C780 679.8 780 699.6 780 720 C760.2 720 740.4 720 720 720 C720 739.8 720 759.6 720 780 C700.2 780 680.4 780 660 780 C660 799.8 660 819.6 660 840 C640.2 840 620.4 840 600 840 C600 859.8 600 879.6 600 900 C580.2 900 560.4 900 540 900 C540 919.8 540 939.6 540 960 C520.2 960 500.4 960 480 960 C480 979.8 480 999.6 480 1020 C460.2 1020 440.4 1020 420 1020 C420 1039.8 420 1059.6 420 1080 C400.2 1080 380.4 1080 360 1080 C360 1099.8 360 1119.6 360 1140 C320.4 1140 280.8 1140 240 1140 C240 1120.2 240 1100.4 240 1080 C220.2 1080 200.4 1080 180 1080 C180 1060.2 180 1040.4 180 1020 C160.2 1020 140.4 1020 120 1020 C120 1000.2 120 980.4 120 960 C100.2 960 80.4 960 60 960 C60 940.2 60 920.4 60 900 C40.2 900 20.4 900 0 900 C0 880.2 0 860.4 0 840 C-19.8 840 -39.6 840 -60 840 C-60 820.2 -60 800.4 -60 780 C-79.8 780 -99.6 780 -120 780 C-120 760.2 -120 740.4 -120 720 C-139.8 720 -159.6 720 -180 720 C-180 700.2 -180 680.4 -180 660 C-199.8 660 -219.6 660 -240 660 C-240 620.4 -240 580.8 -240 540 C-259.8 540 -279.6 540 -300 540 C-300 460.8 -300 381.6 -300 300 C-280.2 300 -260.4 300 -240 300 C-240 260.4 -240 220.8 -240 180 C-220.2 180 -200.4 180 -180 180 C-180 160.2 -180 140.4 -180 120 C-160.2 120 -140.4 120 -120 120 C-120 100.2 -120 80.4 -120 60 C-80.4 60 -40.8 60 0 60 C0 40.2 0 20.4 0 0 Z " fill="#FE0F0F" transform="translate(1200,840)"/>
<path d="M0 0 C59.4 0 118.8 0 180 0 C180 19.8 180 39.6 180 60 C219.6 60 259.2 60 300 60 C300 79.8 300 99.6 300 120 C319.8 120 339.6 120 360 120 C360 139.8 360 159.6 360 180 C320.4 180 280.8 180 240 180 C240 219.6 240 259.2 240 300 C220.2 300 200.4 300 180 300 C180 319.8 180 339.6 180 360 C140.4 360 100.8 360 60 360 C60 340.2 60 320.4 60 300 C79.8 300 99.6 300 120 300 C120 280.2 120 260.4 120 240 C139.8 240 159.6 240 180 240 C180 200.4 180 160.8 180 120 C160.2 120 140.4 120 120 120 C120 100.2 120 80.4 120 60 C80.4 60 40.8 60 0 60 C0 40.2 0 20.4 0 0 Z " fill="#FF1919" transform="translate(1680,1020)"/>
<path d="M0 0 C19.8 0 39.6 0 60 0 C60 19.8 60 39.6 60 60 C79.8 60 99.6 60 120 60 C120 40.2 120 20.4 120 0 C139.8 0 159.6 0 180 0 C180 19.8 180 39.6 180 60 C199.8 60 219.6 60 240 60 C240 79.8 240 99.6 240 120 C220.2 120 200.4 120 180 120 C180 139.8 180 159.6 180 180 C160.2 180 140.4 180 120 180 C120 199.8 120 219.6 120 240 C100.2 240 80.4 240 60 240 C60 220.2 60 200.4 60 180 C40.2 180 20.4 180 0 180 C0 160.2 0 140.4 0 120 C-19.8 120 -39.6 120 -60 120 C-60 100.2 -60 80.4 -60 60 C-40.2 60 -20.4 60 0 60 C0 40.2 0 20.4 0 0 Z " fill="#FE0C0C" transform="translate(1980,660)"/>
<path d="M0 0 C39.6 0 79.2 0 120 0 C120 39.6 120 79.2 120 120 C139.8 120 159.6 120 180 120 C180 159.6 180 199.2 180 240 C160.2 240 140.4 240 120 240 C120 220.2 120 200.4 120 180 C100.2 180 80.4 180 60 180 C60 160.2 60 140.4 60 120 C40.2 120 20.4 120 0 120 C0 80.4 0 40.8 0 0 Z " fill="#BD0707" transform="translate(960,1380)"/>
<path d="M0 0 C79.2 0 158.4 0 240 0 C240 19.8 240 39.6 240 60 C220.2 60 200.4 60 180 60 C180 79.8 180 99.6 180 120 C140.4 120 100.8 120 60 120 C60 100.2 60 80.4 60 60 C40.2 60 20.4 60 0 60 C0 40.2 0 20.4 0 0 Z " fill="#BD0707" transform="translate(1380,1860)"/>
<path d="M0 0 C19.8 0 39.6 0 60 0 C60 59.4 60 118.8 60 180 C40.2 180 20.4 180 0 180 C0 199.8 0 219.6 0 240 C-39.6 240 -79.2 240 -120 240 C-120 220.2 -120 200.4 -120 180 C-100.2 180 -80.4 180 -60 180 C-60 160.2 -60 140.4 -60 120 C-40.2 120 -20.4 120 0 120 C0 80.4 0 40.8 0 0 Z " fill="#FF4F4F" transform="translate(1860,1140)"/>
<path d="M0 0 C39.6 0 79.2 0 120 0 C120 39.6 120 79.2 120 120 C100.2 120 80.4 120 60 120 C60 139.8 60 159.6 60 180 C40.2 180 20.4 180 0 180 C0 120.6 0 61.2 0 0 Z " fill="#BD0707" transform="translate(1920,1380)"/>
<path d="M0 0 C19.8 0 39.6 0 60 0 C60 79.2 60 158.4 60 240 C40.2 240 20.4 240 0 240 C0 160.8 0 81.6 0 0 Z " fill="#040404" transform="translate(2040,1140)"/>
<path d="M0 0 C19.8 0 39.6 0 60 0 C60 79.2 60 158.4 60 240 C40.2 240 20.4 240 0 240 C0 160.8 0 81.6 0 0 Z " fill="#040404" transform="translate(900,1140)"/>
<path d="M0 0 C59.4 0 118.8 0 180 0 C180 39.6 180 79.2 180 120 C160.2 120 140.4 120 120 120 C120 100.2 120 80.4 120 60 C80.4 60 40.8 60 0 60 C0 40.2 0 20.4 0 0 Z " fill="#FF9191" transform="translate(1680,1020)"/>
<path d="M0 0 C39.6 0 79.2 0 120 0 C120 39.6 120 79.2 120 120 C100.2 120 80.4 120 60 120 C60 100.2 60 80.4 60 60 C40.2 60 20.4 60 0 60 C0 40.2 0 20.4 0 0 Z " fill="#BD0707" transform="translate(1260,1740)"/>
<path d="M0 0 C39.6 0 79.2 0 120 0 C120 39.6 120 79.2 120 120 C100.2 120 80.4 120 60 120 C60 100.2 60 80.4 60 60 C40.2 60 20.4 60 0 60 C0 40.2 0 20.4 0 0 Z " fill="#BD0707" transform="translate(1140,1620)"/>
<path d="M0 0 C19.8 0 39.6 0 60 0 C60 59.4 60 118.8 60 180 C40.2 180 20.4 180 0 180 C0 120.6 0 61.2 0 0 Z " fill="#BD0707" transform="translate(1980,1200)"/>
<path d="M0 0 C19.8 0 39.6 0 60 0 C60 59.4 60 118.8 60 180 C40.2 180 20.4 180 0 180 C0 120.6 0 61.2 0 0 Z " fill="#BD0707" transform="translate(960,1200)"/>
<path d="M0 0 C59.4 0 118.8 0 180 0 C180 19.8 180 39.6 180 60 C120.6 60 61.2 60 0 60 C0 40.2 0 20.4 0 0 Z " fill="#040404" transform="translate(1620,840)"/>
<path d="M0 0 C59.4 0 118.8 0 180 0 C180 19.8 180 39.6 180 60 C120.6 60 61.2 60 0 60 C0 40.2 0 20.4 0 0 Z " fill="#040404" transform="translate(1200,840)"/>
<path d="M0 0 C39.6 0 79.2 0 120 0 C120 19.8 120 39.6 120 60 C80.4 60 40.8 60 0 60 C0 40.2 0 20.4 0 0 Z " fill="#040404" transform="translate(1440,1920)"/>
<path d="M0 0 C19.8 0 39.6 0 60 0 C60 39.6 60 79.2 60 120 C40.2 120 20.4 120 0 120 C0 80.4 0 40.8 0 0 Z " fill="#040404" transform="translate(1980,1380)"/>
<path d="M0 0 C19.8 0 39.6 0 60 0 C60 39.6 60 79.2 60 120 C40.2 120 20.4 120 0 120 C0 80.4 0 40.8 0 0 Z " fill="#040404" transform="translate(960,1380)"/>
<path d="M0 0 C39.6 0 79.2 0 120 0 C120 19.8 120 39.6 120 60 C80.4 60 40.8 60 0 60 C0 40.2 0 20.4 0 0 Z " fill="#FF4242" transform="translate(1740,1320)"/>
<path d="M0 0 C19.8 0 39.6 0 60 0 C60 39.6 60 79.2 60 120 C40.2 120 20.4 120 0 120 C0 80.4 0 40.8 0 0 Z " fill="#FFFBFB" transform="translate(1860,1140)"/>
<path d="M0 0 C19.8 0 39.6 0 60 0 C60 39.6 60 79.2 60 120 C40.2 120 20.4 120 0 120 C0 80.4 0 40.8 0 0 Z " fill="#040404" transform="translate(1980,1020)"/>
<path d="M0 0 C19.8 0 39.6 0 60 0 C60 39.6 60 79.2 60 120 C40.2 120 20.4 120 0 120 C0 80.4 0 40.8 0 0 Z " fill="#040404" transform="translate(960,1020)"/>
<path d="M0 0 C39.6 0 79.2 0 120 0 C120 19.8 120 39.6 120 60 C80.4 60 40.8 60 0 60 C0 40.2 0 20.4 0 0 Z " fill="#040404" transform="translate(1440,960)"/>
<path d="M0 0 C39.6 0 79.2 0 120 0 C120 19.8 120 39.6 120 60 C80.4 60 40.8 60 0 60 C0 40.2 0 20.4 0 0 Z " fill="#040404" transform="translate(1800,900)"/>
<path d="M0 0 C39.6 0 79.2 0 120 0 C120 19.8 120 39.6 120 60 C80.4 60 40.8 60 0 60 C0 40.2 0 20.4 0 0 Z " fill="#040404" transform="translate(1080,900)"/>
<path d="M0 0 C19.8 0 39.6 0 60 0 C60 19.8 60 39.6 60 60 C40.2 60.33 20.4 60.66 0 61 C0 40.87 0 20.74 0 0 Z " fill="#FE1D1D" transform="translate(1080,1320)"/>
<path d="M0 0 C19.8 0 39.6 0 60 0 C60 19.8 60 39.6 60 60 C40.2 60 20.4 60 0 60 C0 40.2 0 20.4 0 0 Z " fill="#040404" transform="translate(1560,1860)"/>
<path d="M0 0 C19.8 0 39.6 0 60 0 C60 19.8 60 39.6 60 60 C40.2 60 20.4 60 0 60 C0 40.2 0 20.4 0 0 Z " fill="#040404" transform="translate(1380,1860)"/>
<path d="M0 0 C19.8 0 39.6 0 60 0 C60 19.8 60 39.6 60 60 C40.2 60 20.4 60 0 60 C0 40.2 0 20.4 0 0 Z " fill="#040404" transform="translate(1620,1800)"/>
<path d="M0 0 C19.8 0 39.6 0 60 0 C60 19.8 60 39.6 60 60 C40.2 60 20.4 60 0 60 C0 40.2 0 20.4 0 0 Z " fill="#BD0707" transform="translate(1560,1800)"/>
<path d="M0 0 C19.8 0 39.6 0 60 0 C60 19.8 60 39.6 60 60 C40.2 60 20.4 60 0 60 C0 40.2 0 20.4 0 0 Z " fill="#BD0707" transform="translate(1380,1800)"/>
<path d="M0 0 C19.8 0 39.6 0 60 0 C60 19.8 60 39.6 60 60 C40.2 60 20.4 60 0 60 C0 40.2 0 20.4 0 0 Z " fill="#040404" transform="translate(1320,1800)"/>
<path d="M0 0 C19.8 0 39.6 0 60 0 C60 19.8 60 39.6 60 60 C40.2 60 20.4 60 0 60 C0 40.2 0 20.4 0 0 Z " fill="#040404" transform="translate(1680,1740)"/>
<path d="M0 0 C19.8 0 39.6 0 60 0 C60 19.8 60 39.6 60 60 C40.2 60 20.4 60 0 60 C0 40.2 0 20.4 0 0 Z " fill="#BD0707" transform="translate(1620,1740)"/>
<path d="M0 0 C19.8 0 39.6 0 60 0 C60 19.8 60 39.6 60 60 C40.2 60 20.4 60 0 60 C0 40.2 0 20.4 0 0 Z " fill="#040404" transform="translate(1260,1740)"/>
<path d="M0 0 C19.8 0 39.6 0 60 0 C60 19.8 60 39.6 60 60 C40.2 60 20.4 60 0 60 C0 40.2 0 20.4 0 0 Z " fill="#040404" transform="translate(1740,1680)"/>
<path d="M0 0 C19.8 0 39.6 0 60 0 C60 19.8 60 39.6 60 60 C40.2 60 20.4 60 0 60 C0 40.2 0 20.4 0 0 Z " fill="#BD0707" transform="translate(1680,1680)"/>
<path d="M0 0 C19.8 0 39.6 0 60 0 C60 19.8 60 39.6 60 60 C40.2 60 20.4 60 0 60 C0 40.2 0 20.4 0 0 Z " fill="#BD0707" transform="translate(1260,1680)"/>
<path d="M0 0 C19.8 0 39.6 0 60 0 C60 19.8 60 39.6 60 60 C40.2 60 20.4 60 0 60 C0 40.2 0 20.4 0 0 Z " fill="#040404" transform="translate(1200,1680)"/>
<path d="M0 0 C19.8 0 39.6 0 60 0 C60 19.8 60 39.6 60 60 C40.2 60 20.4 60 0 60 C0 40.2 0 20.4 0 0 Z " fill="#040404" transform="translate(1800,1620)"/>
<path d="M0 0 C19.8 0 39.6 0 60 0 C60 19.8 60 39.6 60 60 C40.2 60 20.4 60 0 60 C0 40.2 0 20.4 0 0 Z " fill="#BD0707" transform="translate(1740,1620)"/>
<path d="M0 0 C19.8 0 39.6 0 60 0 C60 19.8 60 39.6 60 60 C40.2 60 20.4 60 0 60 C0 40.2 0 20.4 0 0 Z " fill="#040404" transform="translate(1140,1620)"/>
<path d="M0 0 C19.8 0 39.6 0 60 0 C60 19.8 60 39.6 60 60 C40.2 60 20.4 60 0 60 C0 40.2 0 20.4 0 0 Z " fill="#040404" transform="translate(1860,1560)"/>
<path d="M0 0 C19.8 0 39.6 0 60 0 C60 19.8 60 39.6 60 60 C40.2 60 20.4 60 0 60 C0 40.2 0 20.4 0 0 Z " fill="#BD0707" transform="translate(1800,1560)"/>
<path d="M0 0 C19.8 0 39.6 0 60 0 C60 19.8 60 39.6 60 60 C40.2 60 20.4 60 0 60 C0 40.2 0 20.4 0 0 Z " fill="#FE1919" transform="translate(1200,1560)"/>
<path d="M0 0 C19.8 0 39.6 0 60 0 C60 19.8 60 39.6 60 60 C40.2 60 20.4 60 0 60 C0 40.2 0 20.4 0 0 Z " fill="#BD0707" transform="translate(1140,1560)"/>
<path d="M0 0 C19.8 0 39.6 0 60 0 C60 19.8 60 39.6 60 60 C40.2 60 20.4 60 0 60 C0 40.2 0 20.4 0 0 Z " fill="#040404" transform="translate(1080,1560)"/>
<path d="M0 0 C19.8 0 39.6 0 60 0 C60 19.8 60 39.6 60 60 C40.2 60 20.4 60 0 60 C0 40.2 0 20.4 0 0 Z " fill="#040404" transform="translate(1920,1500)"/>
<path d="M0 0 C19.8 0 39.6 0 60 0 C60 19.8 60 39.6 60 60 C40.2 60 20.4 60 0 60 C0 40.2 0 20.4 0 0 Z " fill="#BD0707" transform="translate(1860,1500)"/>
<path d="M0 0 C19.8 0 39.6 0 60 0 C60 19.8 60 39.6 60 60 C40.2 60 20.4 60 0 60 C0 40.2 0 20.4 0 0 Z " fill="#FE1919" transform="translate(1680,1500)"/>
<path d="M0 0 C19.8 0 39.6 0 60 0 C60 19.8 60 39.6 60 60 C40.2 60 20.4 60 0 60 C0 40.2 0 20.4 0 0 Z " fill="#BD0707" transform="translate(1080,1500)"/>
<path d="M0 0 C19.8 0 39.6 0 60 0 C60 19.8 60 39.6 60 60 C40.2 60 20.4 60 0 60 C0 40.2 0 20.4 0 0 Z " fill="#040404" transform="translate(1020,1500)"/>
<path d="M0 0 C19.8 0 39.6 0 60 0 C60 19.8 60 39.6 60 60 C40.2 60 20.4 60 0 60 C0 40.2 0 20.4 0 0 Z " fill="#FFA2A2" transform="translate(1740,1320)"/>
<path d="M0 0 C19.8 0 39.6 0 60 0 C60 19.8 60 39.6 60 60 C40.2 60 20.4 60 0 60 C0 40.2 0 20.4 0 0 Z " fill="#FFFEFE" transform="translate(1800,1260)"/>
<path d="M0 0 C19.8 0 39.6 0 60 0 C60 19.8 60 39.6 60 60 C40.2 60 20.4 60 0 60 C0 40.2 0 20.4 0 0 Z " fill="#FF1010" transform="translate(1980,1140)"/>
<path d="M0 0 C19.8 0 39.6 0 60 0 C60 19.8 60 39.6 60 60 C40.2 60 20.4 60 0 60 C0 40.2 0 20.4 0 0 Z " fill="#FF4747" transform="translate(1920,1140)"/>
<path d="M0 0 C19.8 0 39.6 0 60 0 C60 19.8 60 39.6 60 60 C40.2 60 20.4 60 0 60 C0 40.2 0 20.4 0 0 Z " fill="#FF2020" transform="translate(1140,1140)"/>
<path d="M0 0 C19.8 0 39.6 0 60 0 C60 19.8 60 39.6 60 60 C40.2 60 20.4 60 0 60 C0 40.2 0 20.4 0 0 Z " fill="#FF4F4F" transform="translate(1860,1080)"/>
<path d="M0 0 C19.8 0 39.6 0 60 0 C60 19.8 60 39.6 60 60 C40.2 60 20.4 60 0 60 C0 40.2 0 20.4 0 0 Z " fill="#FFFBFB" transform="translate(1800,1080)"/>
<path d="M0 0 C19.8 0 39.6 0 60 0 C60 19.8 60 39.6 60 60 C40.2 60 20.4 60 0 60 C0 40.2 0 20.4 0 0 Z " fill="#FF4F4F" transform="translate(1800,1020)"/>
<path d="M0 0 C19.8 0 39.6 0 60 0 C60 19.8 60 39.6 60 60 C40.2 60 20.4 60 0 60 C0 40.2 0 20.4 0 0 Z " fill="#FF6666" transform="translate(1680,1020)"/>
<path d="M0 0 C19.8 0 39.6 0 60 0 C60 19.8 60 39.6 60 60 C40.2 60 20.4 60 0 60 C0 40.2 0 20.4 0 0 Z " fill="#040404" transform="translate(1920,960)"/>
<path d="M0 0 C19.8 0 39.6 0 60 0 C60 19.8 60 39.6 60 60 C40.2 60 20.4 60 0 60 C0 40.2 0 20.4 0 0 Z " fill="#040404" transform="translate(1020,960)"/>
<path d="M0 0 C19.8 0 39.6 0 60 0 C60 19.8 60 39.6 60 60 C40.2 60 20.4 60 0 60 C0 40.2 0 20.4 0 0 Z " fill="#040404" transform="translate(1560,900)"/>
<path d="M0 0 C19.8 0 39.6 0 60 0 C60 19.8 60 39.6 60 60 C40.2 60 20.4 60 0 60 C0 40.2 0 20.4 0 0 Z " fill="#040404" transform="translate(1380,900)"/>
<path d="M0 0 C19.8 0 39.6 0 60 0 C60 19.8 60 39.6 60 60 C40.2 60 20.4 60 0 60 C0 40.2 0 20.4 0 0 Z " fill="#242424" transform="translate(1740,840)"/>
</svg>
