<?xml version="1.0" encoding="UTF-8"?>
<svg version="1.1" xmlns="http://www.w3.org/2000/svg" width="3000" height="3000">
<path d="M0 0 C990 0 1980 0 3000 0 C3000 990 3000 1980 3000 3000 C2010 3000 1020 3000 0 3000 C0 2010 0 1020 0 0 Z " fill="#FEFEFE" transform="translate(0,0)"/>
<path d="M0 0 C118.8 0 237.6 0 360 0 C360 19.8 360 39.6 360 60 C419.4 60 478.8 60 540 60 C540 79.8 540 99.6 540 120 C579.6 120 619.2 120 660 120 C660 139.8 660 159.6 660 180 C679.8 180 699.6 180 720 180 C720 199.8 720 219.6 720 240 C739.8 240 759.6 240 780 240 C780 259.8 780 279.6 780 300 C799.8 300 819.6 300 840 300 C840 319.8 840 339.6 840 360 C859.8 360 879.6 360 900 360 C900 379.8 900 399.6 900 420 C919.8 420 939.6 420 960 420 C960 439.8 960 459.6 960 480 C979.8 480 999.6 480 1020 480 C1020 519.6 1020 559.2 1020 600 C1039.8 600 1059.6 600 1080 600 C1080 659.4 1080 718.8 1080 780 C1099.8 780 1119.6 780 1140 780 C1140 898.8 1140 1017.6 1140 1140 C1120.2 1140 1100.4 1140 1080 1140 C1080 1199.4 1080 1258.8 1080 1320 C1060.2 1320 1040.4 1320 1020 1320 C1020 1359.6 1020 1399.2 1020 1440 C1000.2 1440 980.4 1440 960 1440 C960 1479.6 960 1519.2 960 1560 C979.8 1560 999.6 1560 1020 1560 C1020 1579.8 1020 1599.6 1020 1620 C1039.8 1620 1059.6 1620 1080 1620 C1080 1639.8 1080 1659.6 1080 1680 C1099.8 1680 1119.6 1680 1140 1680 C1140 1699.8 1140 1719.6 1140 1740 C1159.8 1740 1179.6 1740 1200 1740 C1200 1759.8 1200 1779.6 1200 1800 C1219.8 1800 1239.6 1800 1260 1800 C1260 1819.8 1260 1839.6 1260 1860 C1279.8 1860 1299.6 1860 1320 1860 C1320 1879.8 1320 1899.6 1320 1920 C1339.8 1920 1359.6 1920 1380 1920 C1380 1939.8 1380 1959.6 1380 1980 C1399.8 1980 1419.6 1980 1440 1980 C1440 1999.8 1440 2019.6 1440 2040 C1420.2 2040 1400.4 2040 1380 2040 C1380 2059.8 1380 2079.6 1380 2100 C1360.2 2100 1340.4 2100 1320 2100 C1320 2119.8 1320 2139.6 1320 2160 C1300.2 2160 1280.4 2160 1260 2160 C1260 2179.8 1260 2199.6 1260 2220 C1240.2 2220 1220.4 2220 1200 2220 C1200 2200.2 1200 2180.4 1200 2160 C1180.2 2160 1160.4 2160 1140 2160 C1140 2140.2 1140 2120.4 1140 2100 C1120.2 2100 1100.4 2100 1080 2100 C1080 2080.2 1080 2060.4 1080 2040 C1060.2 2040 1040.4 2040 1020 2040 C1020 2020.2 1020 2000.4 1020 1980 C1000.2 1980 980.4 1980 960 1980 C960 1960.2 960 1940.4 960 1920 C940.2 1920 920.4 1920 900 1920 C900 1900.2 900 1880.4 900 1860 C880.2 1860 860.4 1860 840 1860 C840 1840.2 840 1820.4 840 1800 C820.2 1800 800.4 1800 780 1800 C780 1780.2 780 1760.4 780 1740 C740.4 1740 700.8 1740 660 1740 C660 1759.8 660 1779.6 660 1800 C620.4 1800 580.8 1800 540 1800 C540 1819.8 540 1839.6 540 1860 C480.6 1860 421.2 1860 360 1860 C360 1879.8 360 1899.6 360 1920 C241.2 1920 122.4 1920 0 1920 C0 1900.2 0 1880.4 0 1860 C-59.4 1860 -118.8 1860 -180 1860 C-180 1840.2 -180 1820.4 -180 1800 C-219.6 1800 -259.2 1800 -300 1800 C-300 1780.2 -300 1760.4 -300 1740 C-319.8 1740 -339.6 1740 -360 1740 C-360 1720.2 -360 1700.4 -360 1680 C-379.8 1680 -399.6 1680 -420 1680 C-420 1660.2 -420 1640.4 -420 1620 C-439.8 1620 -459.6 1620 -480 1620 C-480 1600.2 -480 1580.4 -480 1560 C-499.8 1560 -519.6 1560 -540 1560 C-540 1540.2 -540 1520.4 -540 1500 C-559.8 1500 -579.6 1500 -600 1500 C-600 1480.2 -600 1460.4 -600 1440 C-619.8 1440 -639.6 1440 -660 1440 C-660 1400.4 -660 1360.8 -660 1320 C-679.8 1320 -699.6 1320 -720 1320 C-720 1260.6 -720 1201.2 -720 1140 C-739.8 1140 -759.6 1140 -780 1140 C-780 1021.2 -780 902.4 -780 780 C-760.2 780 -740.4 780 -720 780 C-720 720.6 -720 661.2 -720 600 C-700.2 600 -680.4 600 -660 600 C-660 560.4 -660 520.8 -660 480 C-640.2 480 -620.4 480 -600 480 C-600 460.2 -600 440.4 -600 420 C-580.2 420 -560.4 420 -540 420 C-540 400.2 -540 380.4 -540 360 C-520.2 360 -500.4 360 -480 360 C-480 340.2 -480 320.4 -480 300 C-460.2 300 -440.4 300 -420 300 C-420 280.2 -420 260.4 -420 240 C-400.2 240 -380.4 240 -360 240 C-360 220.2 -360 200.4 -360 180 C-340.2 180 -320.4 180 -300 180 C-300 160.2 -300 140.4 -300 120 C-260.4 120 -220.8 120 -180 120 C-180 100.2 -180 80.4 -180 60 C-120.6 60 -61.2 60 0 60 C0 40.2 0 20.4 0 0 Z " fill="#FFFFFF" transform="translate(1320,540)"/>
<path d="M0 0 C118.8 0 237.6 0 360 0 C360 19.8 360 39.6 360 60 C419.4 60 478.8 60 540 60 C540 79.8 540 99.6 540 120 C579.6 120 619.2 120 660 120 C660 139.8 660 159.6 660 180 C679.8 180 699.6 180 720 180 C720 199.8 720 219.6 720 240 C739.8 240 759.6 240 780 240 C780 259.8 780 279.6 780 300 C799.8 300 819.6 300 840 300 C840 319.8 840 339.6 840 360 C859.8 360 879.6 360 900 360 C900 379.8 900 399.6 900 420 C919.8 420 939.6 420 960 420 C960 439.8 960 459.6 960 480 C979.8 480 999.6 480 1020 480 C1020 519.6 1020 559.2 1020 600 C1039.8 600 1059.6 600 1080 600 C1080 659.4 1080 718.8 1080 780 C1099.8 780 1119.6 780 1140 780 C1140 898.8 1140 1017.6 1140 1140 C1120.2 1140 1100.4 1140 1080 1140 C1080 1199.4 1080 1258.8 1080 1320 C1060.2 1320 1040.4 1320 1020 1320 C1020 1359.6 1020 1399.2 1020 1440 C1000.2 1440 980.4 1440 960 1440 C960 1479.6 960 1519.2 960 1560 C979.8 1560 999.6 1560 1020 1560 C1020 1579.8 1020 1599.6 1020 1620 C1039.8 1620 1059.6 1620 1080 1620 C1080 1639.8 1080 1659.6 1080 1680 C1099.8 1680 1119.6 1680 1140 1680 C1140 1699.8 1140 1719.6 1140 1740 C1159.8 1740 1179.6 1740 1200 1740 C1200 1759.8 1200 1779.6 1200 1800 C1219.8 1800 1239.6 1800 1260 1800 C1260 1819.8 1260 1839.6 1260 1860 C1279.8 1860 1299.6 1860 1320 1860 C1320 1879.8 1320 1899.6 1320 1920 C1339.8 1920 1359.6 1920 1380 1920 C1380 1939.8 1380 1959.6 1380 1980 C1399.8 1980 1419.6 1980 1440 1980 C1440 1999.8 1440 2019.6 1440 2040 C1420.2 2040 1400.4 2040 1380 2040 C1380 2059.8 1380 2079.6 1380 2100 C1360.2 2100 1340.4 2100 1320 2100 C1320 2119.8 1320 2139.6 1320 2160 C1300.2 2160 1280.4 2160 1260 2160 C1260 2179.8 1260 2199.6 1260 2220 C1240.2 2220 1220.4 2220 1200 2220 C1200 2200.2 1200 2180.4 1200 2160 C1180.2 2160 1160.4 2160 1140 2160 C1140 2140.2 1140 2120.4 1140 2100 C1120.2 2100 1100.4 2100 1080 2100 C1080 2080.2 1080 2060.4 1080 2040 C1060.2 2040 1040.4 2040 1020 2040 C1020 2020.2 1020 2000.4 1020 1980 C1000.2 1980 980.4 1980 960 1980 C960 1960.2 960 1940.4 960 1920 C940.2 1920 920.4 1920 900 1920 C900 1900.2 900 1880.4 900 1860 C880.2 1860 860.4 1860 840 1860 C840 1840.2 840 1820.4 840 1800 C820.2 1800 800.4 1800 780 1800 C780 1780.2 780 1760.4 780 1740 C740.4 1740 700.8 1740 660 1740 C660 1759.8 660 1779.6 660 1800 C620.4 1800 580.8 1800 540 1800 C540 1819.8 540 1839.6 540 1860 C480.6 1860 421.2 1860 360 1860 C360 1879.8 360 1899.6 360 1920 C241.2 1920 122.4 1920 0 1920 C0 1900.2 0 1880.4 0 1860 C-59.4 1860 -118.8 1860 -180 1860 C-180 1840.2 -180 1820.4 -180 1800 C-219.6 1800 -259.2 1800 -300 1800 C-300 1780.2 -300 1760.4 -300 1740 C-319.8 1740 -339.6 1740 -360 1740 C-360 1720.2 -360 1700.4 -360 1680 C-379.8 1680 -399.6 1680 -420 1680 C-420 1660.2 -420 1640.4 -420 1620 C-439.8 1620 -459.6 1620 -480 1620 C-480 1600.2 -480 1580.4 -480 1560 C-499.8 1560 -519.6 1560 -540 1560 C-540 1540.2 -540 1520.4 -540 1500 C-559.8 1500 -579.6 1500 -600 1500 C-600 1480.2 -600 1460.4 -600 1440 C-619.8 1440 -639.6 1440 -660 1440 C-660 1400.4 -660 1360.8 -660 1320 C-679.8 1320 -699.6 1320 -720 1320 C-720 1260.6 -720 1201.2 -720 1140 C-739.8 1140 -759.6 1140 -780 1140 C-780 1021.2 -780 902.4 -780 780 C-760.2 780 -740.4 780 -720 780 C-720 720.6 -720 661.2 -720 600 C-700.2 600 -680.4 600 -660 600 C-660 560.4 -660 520.8 -660 480 C-640.2 480 -620.4 480 -600 480 C-600 460.2 -600 440.4 -600 420 C-580.2 420 -560.4 420 -540 420 C-540 400.2 -540 380.4 -540 360 C-520.2 360 -500.4 360 -480 360 C-480 340.2 -480 320.4 -480 300 C-460.2 300 -440.4 300 -420 300 C-420 280.2 -420 260.4 -420 240 C-400.2 240 -380.4 240 -360 240 C-360 220.2 -360 200.4 -360 180 C-340.2 180 -320.4 180 -300 180 C-300 160.2 -300 140.4 -300 120 C-260.4 120 -220.8 120 -180 120 C-180 100.2 -180 80.4 -180 60 C-120.6 60 -61.2 60 0 60 C0 40.2 0 20.4 0 0 Z M0 120 C0 139.8 0 159.6 0 180 C-59.4 180 -118.8 180 -180 180 C-180 199.8 -180 219.6 -180 240 C-219.6 240 -259.2 240 -300 240 C-300 259.8 -300 279.6 -300 300 C-319.8 300 -339.6 300 -360 300 C-360 319.8 -360 339.6 -360 360 C-379.8 360 -399.6 360 -420 360 C-420 379.8 -420 399.6 -420 420 C-439.8 420 -459.6 420 -480 420 C-480 439.8 -480 459.6 -480 480 C-499.8 480 -519.6 480 -540 480 C-540 519.6 -540 559.2 -540 600 C-559.8 600 -579.6 600 -600 600 C-600 659.4 -600 718.8 -600 780 C-619.8 780 -639.6 780 -660 780 C-660 898.8 -660 1017.6 -660 1140 C-640.2 1140 -620.4 1140 -600 1140 C-600 1199.4 -600 1258.8 -600 1320 C-580.2 1320 -560.4 1320 -540 1320 C-540 1359.6 -540 1399.2 -540 1440 C-520.2 1440 -500.4 1440 -480 1440 C-480 1459.8 -480 1479.6 -480 1500 C-460.2 1500 -440.4 1500 -420 1500 C-420 1519.8 -420 1539.6 -420 1560 C-400.2 1560 -380.4 1560 -360 1560 C-360 1579.8 -360 1599.6 -360 1620 C-340.2 1620 -320.4 1620 -300 1620 C-300 1639.8 -300 1659.6 -300 1680 C-260.4 1680 -220.8 1680 -180 1680 C-180 1699.8 -180 1719.6 -180 1740 C-120.6 1740 -61.2 1740 0 1740 C0 1759.8 0 1779.6 0 1800 C118.8 1800 237.6 1800 360 1800 C360 1780.2 360 1760.4 360 1740 C419.4 1740 478.8 1740 540 1740 C540 1720.2 540 1700.4 540 1680 C579.6 1680 619.2 1680 660 1680 C660 1660.2 660 1640.4 660 1620 C679.8 1620 699.6 1620 720 1620 C720 1600.2 720 1580.4 720 1560 C739.8 1560 759.6 1560 780 1560 C780 1540.2 780 1520.4 780 1500 C799.8 1500 819.6 1500 840 1500 C840 1480.2 840 1460.4 840 1440 C859.8 1440 879.6 1440 900 1440 C900 1400.4 900 1360.8 900 1320 C919.8 1320 939.6 1320 960 1320 C960 1260.6 960 1201.2 960 1140 C979.8 1140 999.6 1140 1020 1140 C1020 1021.2 1020 902.4 1020 780 C1000.2 780 980.4 780 960 780 C960 720.6 960 661.2 960 600 C940.2 600 920.4 600 900 600 C900 560.4 900 520.8 900 480 C880.2 480 860.4 480 840 480 C840 460.2 840 440.4 840 420 C820.2 420 800.4 420 780 420 C780 400.2 780 380.4 780 360 C760.2 360 740.4 360 720 360 C720 340.2 720 320.4 720 300 C700.2 300 680.4 300 660 300 C660 280.2 660 260.4 660 240 C620.4 240 580.8 240 540 240 C540 220.2 540 200.4 540 180 C480.6 180 421.2 180 360 180 C360 160.2 360 140.4 360 120 C241.2 120 122.4 120 0 120 Z " fill="#090909" transform="translate(1320,540)"/>
<path d="M0 0 C19.8 0 39.6 0 60 0 C60 19.8 60 39.6 60 60 C119.4 60 178.8 60 240 60 C240 79.8 240 99.6 240 120 C299.4 120 358.8 120 420 120 C420 139.8 420 159.6 420 180 C439.8 180 459.6 180 480 180 C480 199.8 480 219.6 480 240 C499.8 240 519.6 240 540 240 C540 259.8 540 279.6 540 300 C559.8 300 579.6 300 600 300 C600 319.8 600 339.6 600 360 C619.8 360 639.6 360 660 360 C660 379.8 660 399.6 660 420 C679.8 420 699.6 420 720 420 C720 439.8 720 459.6 720 480 C700.2 480 680.4 480 660 480 C660 499.8 660 519.6 660 540 C640.2 540 620.4 540 600 540 C600 559.8 600 579.6 600 600 C580.2 600 560.4 600 540 600 C540 619.8 540 639.6 540 660 C520.2 660 500.4 660 480 660 C480 640.2 480 620.4 480 600 C460.2 600 440.4 600 420 600 C420 580.2 420 560.4 420 540 C400.2 540 380.4 540 360 540 C360 520.2 360 500.4 360 480 C340.2 480 320.4 480 300 480 C300 460.2 300 440.4 300 420 C280.2 420 260.4 420 240 420 C240 400.2 240 380.4 240 360 C220.2 360 200.4 360 180 360 C180 340.2 180 320.4 180 300 C160.2 300 140.4 300 120 300 C120 280.2 120 260.4 120 240 C100.2 240 80.4 240 60 240 C60 200.4 60 160.8 60 120 C20.4 120 -19.2 120 -60 120 C-60 100.2 -60 80.4 -60 60 C-40.2 60 -20.4 60 0 60 C0 40.2 0 20.4 0 0 Z " fill="#000000" transform="translate(2040,2100)"/>
<path d="M0 0 C257.4 0 514.8 0 780 0 C780 79.2 780 158.4 780 240 C522.6 240 265.2 240 0 240 C0 160.8 0 81.6 0 0 Z " fill="#000000" transform="translate(1140,1620)"/>
<path d="M0 0 C217.8 0 435.6 0 660 0 C660 79.2 660 158.4 660 240 C442.2 240 224.4 240 0 240 C0 160.8 0 81.6 0 0 Z " fill="#000000" transform="translate(1140,1320)"/>
<path d="M0 0 C178.2 0 356.4 0 540 0 C540 79.2 540 158.4 540 240 C361.8 240 183.6 240 0 240 C0 160.8 0 81.6 0 0 Z " fill="#000000" transform="translate(1140,1020)"/>
<path d="M0 0 C19.8 0 39.6 0 60 0 C60 316.8 60 633.6 60 960 C376.8 960 693.6 960 1020 960 C1020 979.8 1020 999.6 1020 1020 C683.4 1020 346.8 1020 0 1020 C0 683.4 0 346.8 0 0 Z " fill="#010101" transform="translate(1020,960)"/>
<path d="M0 0 C217.8 0 435.6 0 660 0 C660 39.6 660 79.2 660 120 C442.2 120 224.4 120 0 120 C0 80.4 0 40.8 0 0 Z " fill="#2B6EED" transform="translate(1200,1680)"/>
<path d="M0 0 C178.2 0 356.4 0 540 0 C540 39.6 540 79.2 540 120 C361.8 120 183.6 120 0 120 C0 80.4 0 40.8 0 0 Z " fill="#2CC7CC" transform="translate(1200,1380)"/>
<path d="M0 0 C118.8 0 237.6 0 360 0 C360 19.8 360 39.6 360 60 C261 60 162 60 60 60 C60 79.8 60 99.6 60 120 C40.2 120 20.4 120 0 120 C0 139.8 0 159.6 0 180 C-99 180 -198 180 -300 180 C-300 160.2 -300 140.4 -300 120 C-260.4 120 -220.8 120 -180 120 C-180 100.2 -180 80.4 -180 60 C-120.6 60 -61.2 60 0 60 C0 40.2 0 20.4 0 0 Z " fill="#131313" transform="translate(1320,540)"/>
<path d="M0 0 C19.8 0 39.6 0 60 0 C60 59.4 60 118.8 60 180 C-177.6 180 -415.2 180 -660 180 C-660 160.2 -660 140.4 -660 120 C-442.2 120 -224.4 120 0 120 C0 80.4 0 40.8 0 0 Z " fill="#121212" transform="translate(1860,1680)"/>
<path d="M0 0 C138.6 0 277.2 0 420 0 C420 39.6 420 79.2 420 120 C281.4 120 142.8 120 0 120 C0 80.4 0 40.8 0 0 Z " fill="#8CF04A" transform="translate(1200,1080)"/>
<path d="M0 0 C39.6 0 79.2 0 120 0 C120 99 120 198 120 300 C100.2 300 80.4 300 60 300 C60 260.4 60 220.8 60 180 C40.2 180 20.4 180 0 180 C0 120.6 0 61.2 0 0 Z " fill="#131313" transform="translate(600,1680)"/>
<path d="M0 0 C118.8 0 237.6 0 360 0 C360 19.8 360 39.6 360 60 C241.2 60 122.4 60 0 60 C0 40.2 0 20.4 0 0 Z " fill="#131313" transform="translate(1320,2400)"/>
<path d="M0 0 C118.8 0 237.6 0 360 0 C360 19.8 360 39.6 360 60 C241.2 60 122.4 60 0 60 C0 40.2 0 20.4 0 0 Z " fill="#010101" transform="translate(1320,2340)"/>
<path d="M0 0 C19.8 0 39.6 0 60 0 C60 118.8 60 237.6 60 360 C40.2 360 20.4 360 0 360 C0 241.2 0 122.4 0 0 Z " fill="#131313" transform="translate(2400,1320)"/>
<path d="M0 0 C19.8 0 39.6 0 60 0 C60 118.8 60 237.6 60 360 C40.2 360 20.4 360 0 360 C0 241.2 0 122.4 0 0 Z " fill="#000000" transform="translate(2340,1320)"/>
<path d="M0 0 C19.8 0 39.6 0 60 0 C60 118.8 60 237.6 60 360 C40.2 360 20.4 360 0 360 C0 241.2 0 122.4 0 0 Z " fill="#131313" transform="translate(540,1320)"/>
<path d="M0 0 C39.6 0 79.2 0 120 0 C120 19.8 120 39.6 120 60 C100.2 60 80.4 60 60 60 C60 99.6 60 139.2 60 180 C40.2 180 20.4 180 0 180 C0 120.6 0 61.2 0 0 Z " fill="#131313" transform="translate(600,1680)"/>
<path d="M0 0 C59.4 0 118.8 0 180 0 C180 19.8 180 39.6 180 60 C120.6 60 61.2 60 0 60 C0 40.2 0 20.4 0 0 Z " fill="#131313" transform="translate(1680,2340)"/>
<path d="M0 0 C59.4 0 118.8 0 180 0 C180 19.8 180 39.6 180 60 C120.6 60 61.2 60 0 60 C0 40.2 0 20.4 0 0 Z " fill="#131313" transform="translate(1140,2340)"/>
<path d="M0 0 C59.4 0 118.8 0 180 0 C180 19.8 180 39.6 180 60 C120.6 60 61.2 60 0 60 C0 40.2 0 20.4 0 0 Z " fill="#010101" transform="translate(1680,2280)"/>
<path d="M0 0 C59.4 0 118.8 0 180 0 C180 19.8 180 39.6 180 60 C120.6 60 61.2 60 0 60 C0 40.2 0 20.4 0 0 Z " fill="#000000" transform="translate(1140,2280)"/>
<path d="M0 0 C19.8 0 39.6 0 60 0 C60 59.4 60 118.8 60 180 C40.2 180 20.4 180 0 180 C0 120.6 0 61.2 0 0 Z " fill="#131313" transform="translate(2340,1140)"/>
<path d="M0 0 C19.8 0 39.6 0 60 0 C60 59.4 60 118.8 60 180 C40.2 180 20.4 180 0 180 C0 120.6 0 61.2 0 0 Z " fill="#000000" transform="translate(2280,1140)"/>
<path d="M0 0 C19.8 0 39.6 0 60 0 C60 59.4 60 118.8 60 180 C40.2 180 20.4 180 0 180 C0 120.6 0 61.2 0 0 Z " fill="#131313" transform="translate(600,1140)"/>
<path d="M0 0 C59.4 0 118.8 0 180 0 C180 19.8 180 39.6 180 60 C120.6 60 61.2 60 0 60 C0 40.2 0 20.4 0 0 Z " fill="#000000" transform="translate(1680,660)"/>
<path d="M0 0 C59.4 0 118.8 0 180 0 C180 19.8 180 39.6 180 60 C120.6 60 61.2 60 0 60 C0 40.2 0 20.4 0 0 Z " fill="#131313" transform="translate(1680,600)"/>
<path d="M0 0 C39.6 0 79.2 0 120 0 C120 19.8 120 39.6 120 60 C80.4 60 40.8 60 0 60 C0 40.2 0 20.4 0 0 Z " fill="#131313" transform="translate(1860,2280)"/>
<path d="M0 0 C39.6 0 79.2 0 120 0 C120 19.8 120 39.6 120 60 C80.4 60 40.8 60 0 60 C0 40.2 0 20.4 0 0 Z " fill="#131313" transform="translate(1020,2280)"/>
<path d="M0 0 C39.6 0 79.2 0 120 0 C120 19.8 120 39.6 120 60 C80.4 60 40.8 60 0 60 C0 40.2 0 20.4 0 0 Z " fill="#000000" transform="translate(1860,2220)"/>
<path d="M0 0 C39.6 0 79.2 0 120 0 C120 19.8 120 39.6 120 60 C80.4 60 40.8 60 0 60 C0 40.2 0 20.4 0 0 Z " fill="#000000" transform="translate(1020,2220)"/>
<path d="M0 0 C19.8 0 39.6 0 60 0 C60 39.6 60 79.2 60 120 C40.2 120 20.4 120 0 120 C0 80.4 0 40.8 0 0 Z " fill="#020202" transform="translate(660,1740)"/>
<path d="M0 0 C19.8 0 39.6 0 60 0 C60 39.6 60 79.2 60 120 C40.2 120 20.4 120 0 120 C0 80.4 0 40.8 0 0 Z " fill="#222222" transform="translate(1020,960)"/>
<path d="M0 0 C19.8 0 39.6 0 60 0 C60 39.6 60 79.2 60 120 C40.2 120 20.4 120 0 120 C0 80.4 0 40.8 0 0 Z " fill="#131313" transform="translate(660,1020)"/>
<path d="M0 0 C39.6 0 79.2 0 120 0 C120 19.8 120 39.6 120 60 C80.4 60 40.8 60 0 60 C0 40.2 0 20.4 0 0 Z " fill="#000000" transform="translate(720,960)"/>
<path d="M0 0 C39.6 0 79.2 0 120 0 C120 19.8 120 39.6 120 60 C80.4 60 40.8 60 0 60 C0 40.2 0 20.4 0 0 Z " fill="#131313" transform="translate(1860,660)"/>
<path d="M0 0 C19.8 0 39.6 0 60 0 C60 19.8 60 39.6 60 60 C40.2 60.33 20.4 60.66 0 61 C0 40.87 0 20.74 0 0 Z " fill="#060606" transform="translate(2220,1860)"/>
<path d="M0 0 C19.8 0 39.6 0 60 0 C60 19.8 60 39.6 60 60 C40.2 60 20.4 60 0 60 C0 40.2 0 20.4 0 0 Z " fill="#131313" transform="translate(2700,2520)"/>
<path d="M0 0 C19.8 0 39.6 0 60 0 C60 19.8 60 39.6 60 60 C40.2 60 20.4 60 0 60 C0 40.2 0 20.4 0 0 Z " fill="#F5F5F5" transform="translate(2580,2340)"/>
<path d="M0 0 C19.8 0 39.6 0 60 0 C60 19.8 60 39.6 60 60 C40.2 60 20.4 60 0 60 C0 40.2 0 20.4 0 0 Z " fill="#131313" transform="translate(2460,2280)"/>
<path d="M0 0 C19.8 0 39.6 0 60 0 C60 19.8 60 39.6 60 60 C40.2 60 20.4 60 0 60 C0 40.2 0 20.4 0 0 Z " fill="#131313" transform="translate(2400,2220)"/>
<path d="M0 0 C19.8 0 39.6 0 60 0 C60 19.8 60 39.6 60 60 C40.2 60 20.4 60 0 60 C0 40.2 0 20.4 0 0 Z " fill="#131313" transform="translate(960,2220)"/>
<path d="M0 0 C19.8 0 39.6 0 60 0 C60 19.8 60 39.6 60 60 C40.2 60 20.4 60 0 60 C0 40.2 0 20.4 0 0 Z " fill="#000000" transform="translate(960,2160)"/>
<path d="M0 0 C19.8 0 39.6 0 60 0 C60 19.8 60 39.6 60 60 C40.2 60 20.4 60 0 60 C0 40.2 0 20.4 0 0 Z " fill="#131313" transform="translate(900,2160)"/>
<path d="M0 0 C19.8 0 39.6 0 60 0 C60 19.8 60 39.6 60 60 C40.2 60 20.4 60 0 60 C0 40.2 0 20.4 0 0 Z " fill="#000000" transform="translate(900,2100)"/>
<path d="M0 0 C19.8 0 39.6 0 60 0 C60 19.8 60 39.6 60 60 C40.2 60 20.4 60 0 60 C0 40.2 0 20.4 0 0 Z " fill="#131313" transform="translate(840,2100)"/>
<path d="M0 0 C19.8 0 39.6 0 60 0 C60 19.8 60 39.6 60 60 C40.2 60 20.4 60 0 60 C0 40.2 0 20.4 0 0 Z " fill="#000000" transform="translate(2100,2040)"/>
<path d="M0 0 C19.8 0 39.6 0 60 0 C60 19.8 60 39.6 60 60 C40.2 60 20.4 60 0 60 C0 40.2 0 20.4 0 0 Z " fill="#000000" transform="translate(840,2040)"/>
<path d="M0 0 C19.8 0 39.6 0 60 0 C60 19.8 60 39.6 60 60 C40.2 60 20.4 60 0 60 C0 40.2 0 20.4 0 0 Z " fill="#131313" transform="translate(780,2040)"/>
<path d="M0 0 C19.8 0 39.6 0 60 0 C60 19.8 60 39.6 60 60 C40.2 60 20.4 60 0 60 C0 40.2 0 20.4 0 0 Z " fill="#000000" transform="translate(780,1980)"/>
<path d="M0 0 C19.8 0 39.6 0 60 0 C60 19.8 60 39.6 60 60 C40.2 60 20.4 60 0 60 C0 40.2 0 20.4 0 0 Z " fill="#131313" transform="translate(720,1980)"/>
<path d="M0 0 C19.8 0 39.6 0 60 0 C60 19.8 60 39.6 60 60 C40.2 60 20.4 60 0 60 C0 40.2 0 20.4 0 0 Z " fill="#000000" transform="translate(2280,1800)"/>
<path d="M0 0 C19.8 0 39.6 0 60 0 C60 19.8 60 39.6 60 60 C40.2 60 20.4 60 0 60 C0 40.2 0 20.4 0 0 Z " fill="#1E1E1E" transform="translate(660,1680)"/>
<path d="M0 0 C19.8 0 39.6 0 60 0 C60 19.8 60 39.6 60 60 C40.2 60 20.4 60 0 60 C0 40.2 0 20.4 0 0 Z " fill="#99F25E" transform="translate(1200,1140)"/>
<path d="M0 0 C19.8 0 39.6 0 60 0 C60 19.8 60 39.6 60 60 C40.2 60 20.4 60 0 60 C0 40.2 0 20.4 0 0 Z " fill="#000000" transform="translate(2220,1080)"/>
<path d="M0 0 C19.8 0 39.6 0 60 0 C60 19.8 60 39.6 60 60 C40.2 60 20.4 60 0 60 C0 40.2 0 20.4 0 0 Z " fill="#080808" transform="translate(1620,1080)"/>
<path d="M0 0 C19.8 0 39.6 0 60 0 C60 19.8 60 39.6 60 60 C40.2 60 20.4 60 0 60 C0 40.2 0 20.4 0 0 Z " fill="#000000" transform="translate(2160,960)"/>
<path d="M0 0 C19.8 0 39.6 0 60 0 C60 19.8 60 39.6 60 60 C40.2 60 20.4 60 0 60 C0 40.2 0 20.4 0 0 Z " fill="#000000" transform="translate(1020,960)"/>
<path d="M0 0 C19.8 0 39.6 0 60 0 C60 19.8 60 39.6 60 60 C40.2 60 20.4 60 0 60 C0 40.2 0 20.4 0 0 Z " fill="#131313" transform="translate(720,960)"/>
<path d="M0 0 C19.8 0 39.6 0 60 0 C60 19.8 60 39.6 60 60 C40.2 60 20.4 60 0 60 C0 40.2 0 20.4 0 0 Z " fill="#131313" transform="translate(2160,900)"/>
<path d="M0 0 C19.8 0 39.6 0 60 0 C60 19.8 60 39.6 60 60 C40.2 60 20.4 60 0 60 C0 40.2 0 20.4 0 0 Z " fill="#000000" transform="translate(2100,900)"/>
<path d="M0 0 C19.8 0 39.6 0 60 0 C60 19.8 60 39.6 60 60 C40.2 60 20.4 60 0 60 C0 40.2 0 20.4 0 0 Z " fill="#131313" transform="translate(2100,840)"/>
<path d="M0 0 C19.8 0 39.6 0 60 0 C60 19.8 60 39.6 60 60 C40.2 60 20.4 60 0 60 C0 40.2 0 20.4 0 0 Z " fill="#000000" transform="translate(2040,840)"/>
<path d="M0 0 C19.8 0 39.6 0 60 0 C60 19.8 60 39.6 60 60 C40.2 60 20.4 60 0 60 C0 40.2 0 20.4 0 0 Z " fill="#000000" transform="translate(900,840)"/>
<path d="M0 0 C19.8 0 39.6 0 60 0 C60 19.8 60 39.6 60 60 C40.2 60 20.4 60 0 60 C0 40.2 0 20.4 0 0 Z " fill="#131313" transform="translate(2040,780)"/>
<path d="M0 0 C19.8 0 39.6 0 60 0 C60 19.8 60 39.6 60 60 C40.2 60 20.4 60 0 60 C0 40.2 0 20.4 0 0 Z " fill="#000000" transform="translate(1980,780)"/>
<path d="M0 0 C19.8 0 39.6 0 60 0 C60 19.8 60 39.6 60 60 C40.2 60 20.4 60 0 60 C0 40.2 0 20.4 0 0 Z " fill="#131313" transform="translate(900,780)"/>
<path d="M0 0 C19.8 0 39.6 0 60 0 C60 19.8 60 39.6 60 60 C40.2 60 20.4 60 0 60 C0 40.2 0 20.4 0 0 Z " fill="#131313" transform="translate(1980,720)"/>
<path d="M0 0 C19.8 0 39.6 0 60 0 C60 19.8 60 39.6 60 60 C40.2 60 20.4 60 0 60 C0 40.2 0 20.4 0 0 Z " fill="#131313" transform="translate(960,720)"/>
<path d="M0 0 C19.8 0 39.6 0 60 0 C60 19.8 60 39.6 60 60 C40.2 60 20.4 60 0 60 C0 40.2 0 20.4 0 0 Z " fill="#000000" transform="translate(1140,660)"/>
</svg>
