<?xml version="1.0" encoding="UTF-8"?>
<svg version="1.1" xmlns="http://www.w3.org/2000/svg" width="3000" height="3000">
<path d="M0 0 C990 0 1980 0 3000 0 C3000 990 3000 1980 3000 3000 C2010 3000 1020 3000 0 3000 C0 2010 0 1020 0 0 Z " fill="#FEFEFE" transform="translate(0,0)"/>
<path d="M0 0 C141.24 0 282.48 0 428 0 C428 188.43 428 376.86 428 571 C545.81 571 663.62 571 785 571 C785 712.57 785 854.14 785 1000 C408.14 1000 31.28 1000 -357 1000 C-357 764.05 -357 528.1 -357 285 C-239.19 285 -121.38 285 0 285 C0 190.95 0 96.9 0 0 Z " fill="#000000" transform="translate(1227,1269)"/>
<path d="M0 0 C23.43 0 46.86 0 71 0 C71 23.76 71 47.52 71 72 C94.76 72 118.52 72 143 72 C143 95.43 143 118.86 143 143 C166.43 143 189.86 143 214 143 C214 119.57 214 96.14 214 72 C237.43 72 260.86 72 285 72 C285 48.24 285 24.48 285 0 C332.19 0 379.38 0 428 0 C428 23.76 428 47.52 428 72 C451.76 72 475.52 72 500 72 C500 95.43 500 118.86 500 143 C523.43 143 546.86 143 571 143 C571 119.57 571 96.14 571 72 C594.76 72 618.52 72 643 72 C643 48.24 643 24.48 643 0 C666.43 0 689.86 0 714 0 C714 141.57 714 283.14 714 429 C690.57 429 667.14 429 643 429 C643 452.43 643 475.86 643 500 C619.24 500 595.48 500 571 500 C571 523.76 571 547.52 571 572 C429.76 572 288.52 572 143 572 C143 548.24 143 524.48 143 500 C119.24 500 95.48 500 71 500 C71 476.57 71 453.14 71 429 C47.57 429 24.14 429 0 429 C0 287.43 0 145.86 0 0 Z " fill="#E8AB00" transform="translate(1084,554)"/>
<path d="M0 0 C94.38 0 188.76 0 286 0 C286 282.81 286 565.62 286 857 C191.62 857 97.24 857 0 857 C0 574.19 0 291.38 0 0 Z " fill="#BED6D6" transform="translate(1298,1340)"/>
<path d="M0 0 C94.38 0 188.76 0 286 0 C286 188.43 286 376.86 286 571 C191.62 571 97.24 571 0 571 C0 382.57 0 194.14 0 0 Z " fill="#E0EEEE" transform="translate(941,1626)"/>
<path d="M0 0 C23.43 0 46.86 0 71 0 C71 23.76 71 47.52 71 72 C94.76 72 118.52 72 143 72 C143 95.43 143 118.86 143 143 C166.43 143 189.86 143 214 143 C214 119.57 214 96.14 214 72 C261.19 72 308.38 72 357 72 C357 213.24 357 354.48 357 500 C262.62 500 168.24 500 71 500 C71 476.57 71 453.14 71 429 C47.57 429 24.14 429 0 429 C0 287.43 0 145.86 0 0 Z " fill="#F3D334" transform="translate(1084,554)"/>
<path d="M0 0 C47.19 0 94.38 0 143 0 C143 282.81 143 565.62 143 857 C95.81 857 48.62 857 0 857 C0 574.19 0 291.38 0 0 Z " fill="#E0EEEE" transform="translate(1298,1340)"/>
<path d="M0 0 C94.38 0 188.76 0 286 0 C286 94.38 286 188.76 286 286 C191.62 286 97.24 286 0 286 C0 191.62 0 97.24 0 0 Z " fill="#A7C4C4" transform="translate(1655,1911)"/>
<path d="M0 0 C23.43 0 46.86 0 71 0 C71 141.57 71 283.14 71 429 C47.57 429 24.14 429 0 429 C0 334.62 0 240.24 0 143 C-23.76 143 -47.52 143 -72 143 C-72 119.57 -72 96.14 -72 72 C-48.24 72 -24.48 72 0 72 C0 48.24 0 24.48 0 0 Z " fill="#000000" transform="translate(1727,554)"/>
<path d="M0 0 C23.43 0 46.86 0 71 0 C71 23.76 71 47.52 71 72 C94.76 72 118.52 72 143 72 C143 95.43 143 118.86 143 143 C119.24 143 95.48 143 71 143 C71 237.38 71 331.76 71 429 C47.57 429 24.14 429 0 429 C0 287.43 0 145.86 0 0 Z " fill="#000000" transform="translate(1084,554)"/>
<path d="M0 0 C141.24 0 282.48 0 428 0 C428 23.76 428 47.52 428 72 C286.76 72 145.52 72 0 72 C0 48.24 0 24.48 0 0 Z " fill="#000000" transform="translate(1227,1054)"/>
<path d="M0 0 C47.19 0 94.38 0 143 0 C143 47.19 143 94.38 143 143 C95.81 143 48.62 143 0 143 C0 95.81 0 48.62 0 0 Z " fill="#F3D334" transform="translate(1369,340)"/>
<path d="M0 0 C47.19 0 94.38 0 143 0 C143 23.76 143 47.52 143 72 C95.81 72 48.62 72 0 72 C0 48.24 0 24.48 0 0 Z " fill="#010101" transform="translate(1369,554)"/>
<path d="M0 0 C47.19 0 94.38 0 143 0 C143 23.43 143 46.86 143 71 C95.81 71 48.62 71 0 71 C0 47.57 0 24.14 0 0 Z " fill="#C8DCDC" transform="translate(1441,2126)"/>
<path d="M0 0 C23.43 0 46.86 0 71 0 C71 47.19 71 94.38 71 143 C47.57 143 24.14 143 0 143 C0 95.81 0 48.62 0 0 Z " fill="#E5A800" transform="translate(1441,340)"/>
<path d="M0 0 C23.76 0 47.52 0 72 0 C72 23.76 72 47.52 72 72 C48.24 72 24.48 72 0 72 C0 48.24 0 24.48 0 0 Z " fill="#0D0D0D" transform="translate(1369,2197)"/>
<path d="M0 0 C23.76 0 47.52 0 72 0 C72 23.43 72 46.86 72 71 C48.24 71 24.48 71 0 71 C0 47.57 0 24.14 0 0 Z " fill="#000000" transform="translate(1655,983)"/>
<path d="M0 0 C23.76 0 47.52 0 72 0 C72 23.43 72 46.86 72 71 C48.24 71 24.48 71 0 71 C0 47.57 0 24.14 0 0 Z " fill="#000000" transform="translate(1155,983)"/>
<path d="M0 0 C23.76 0 47.52 0 72 0 C72 23.43 72 46.86 72 71 C48.24 71 24.48 71 0 71 C0 47.57 0 24.14 0 0 Z " fill="#F4D43C" transform="translate(1369,840)"/>
<path d="M0 0 C23.43 0 46.86 0 71 0 C71 23.76 71 47.52 71 72 C47.57 72 24.14 72 0 72 C0 48.24 0 24.48 0 0 Z " fill="#000000" transform="translate(1584,697)"/>
<path d="M0 0 C23.43 0 46.86 0 71 0 C71 23.76 71 47.52 71 72 C47.57 72 24.14 72 0 72 C0 48.24 0 24.48 0 0 Z " fill="#000000" transform="translate(1227,697)"/>
<path d="M0 0 C23.76 0 47.52 0 72 0 C72 23.43 72 46.86 72 71 C48.24 71 24.48 71 0 71 C0 47.57 0 24.14 0 0 Z " fill="#000000" transform="translate(1655,626)"/>
<path d="M0 0 C23.76 0 47.52 0 72 0 C72 23.43 72 46.86 72 71 C48.24 71 24.48 71 0 71 C0 47.57 0 24.14 0 0 Z " fill="#000000" transform="translate(1512,626)"/>
<path d="M0 0 C23.43 0 46.86 0 71 0 C71 23.76 71 47.52 71 72 C47.57 72 24.14 72 0 72 C0 48.24 0 24.48 0 0 Z " fill="#E8AB00" transform="translate(1727,411)"/>
<path d="M0 0 C23.43 0 46.86 0 71 0 C71 23.76 71 47.52 71 72 C47.57 72 24.14 72 0 72 C0 48.24 0 24.48 0 0 Z " fill="#F3D334" transform="translate(1084,411)"/>
<path d="M0 0 C23.43 0 46.86 0 71 0 C71 23.43 71 46.86 71 71 C47.57 71 24.14 71 0 71 C0 47.57 0 24.14 0 0 Z " fill="#0B0B0B" transform="translate(1227,1483)"/>
<path d="M0 0 C23.43 0 46.86 0 71 0 C71 23.43 71 46.86 71 71 C47.57 71 24.14 71 0 71 C0 47.57 0 24.14 0 0 Z " fill="#171717" transform="translate(1584,1269)"/>
<path d="M0 0 C23.43 0 46.86 0 71 0 C71 23.43 71 46.86 71 71 C47.57 71 24.14 71 0 71 C0 47.57 0 24.14 0 0 Z " fill="#E9AF0F" transform="translate(1441,840)"/>
<path d="M0 0 C23.43 0 46.86 0 71 0 C71 23.43 71 46.86 71 71 C47.57 71 24.14 71 0 71 C0 47.57 0 24.14 0 0 Z " fill="#0D0D0D" transform="translate(1727,626)"/>
<path d="M0 0 C23.43 0 46.86 0 71 0 C71 23.43 71 46.86 71 71 C47.57 71 24.14 71 0 71 C0 47.57 0 24.14 0 0 Z " fill="#000000" transform="translate(1298,626)"/>
</svg>
