<?xml version="1.0" encoding="UTF-8"?>
<svg version="1.1" xmlns="http://www.w3.org/2000/svg" width="3000" height="3000">
<path d="M0 0 C990 0 1980 0 3000 0 C3000 990 3000 1980 3000 3000 C2010 3000 1020 3000 0 3000 C0 2010 0 1020 0 0 Z " fill="#FEFEFE" transform="translate(0,0)"/>
<path d="M0 0 C79.2 0 158.4 0 240 0 C240 19.8 240 39.6 240 60 C339 60 438 60 540 60 C540 79.8 540 99.6 540 120 C579.6 120 619.2 120 660 120 C660 139.8 660 159.6 660 180 C699.6 180 739.2 180 780 180 C780 199.8 780 219.6 780 240 C799.8 240 819.6 240 840 240 C840 259.8 840 279.6 840 300 C879.6 300 919.2 300 960 300 C960 319.8 960 339.6 960 360 C979.8 360 999.6 360 1020 360 C1020 379.8 1020 399.6 1020 420 C1039.8 420 1059.6 420 1080 420 C1080 439.8 1080 459.6 1080 480 C1099.8 480 1119.6 480 1140 480 C1140 519.6 1140 559.2 1140 600 C1159.8 600 1179.6 600 1200 600 C1200 659.4 1200 718.8 1200 780 C1180.2 780 1160.4 780 1140 780 C1140 819.6 1140 859.2 1140 900 C1120.2 900 1100.4 900 1080 900 C1080 919.8 1080 939.6 1080 960 C1040.4 960 1000.8 960 960 960 C960 979.8 960 999.6 960 1020 C940.2 1020 920.4 1020 900 1020 C900 1039.8 900 1059.6 900 1080 C860.4 1080 820.8 1080 780 1080 C780 1099.8 780 1119.6 780 1140 C760.2 1140 740.4 1140 720 1140 C720 1179.6 720 1219.2 720 1260 C739.8 1260 759.6 1260 780 1260 C780 1299.6 780 1339.2 780 1380 C799.8 1380 819.6 1380 840 1380 C840 1419.6 840 1459.2 840 1500 C780.6 1500 721.2 1500 660 1500 C660 1480.2 660 1460.4 660 1440 C640.2 1440 620.4 1440 600 1440 C600 1400.4 600 1360.8 600 1320 C580.2 1320 560.4 1320 540 1320 C540 1300.2 540 1280.4 540 1260 C500.4 1260 460.8 1260 420 1260 C420 1240.2 420 1220.4 420 1200 C400.2 1200 380.4 1200 360 1200 C360 1180.2 360 1160.4 360 1140 C241.2 1140 122.4 1140 0 1140 C0 1120.2 0 1100.4 0 1080 C-158.4 1080 -316.8 1080 -480 1080 C-480 1060.2 -480 1040.4 -480 1020 C-539.4 1020 -598.8 1020 -660 1020 C-660 1000.2 -660 980.4 -660 960 C-679.8 960 -699.6 960 -720 960 C-720 940.2 -720 920.4 -720 900 C-739.8 900 -759.6 900 -780 900 C-780 801 -780 702 -780 600 C-760.2 600 -740.4 600 -720 600 C-720 560.4 -720 520.8 -720 480 C-700.2 480 -680.4 480 -660 480 C-660 460.2 -660 440.4 -660 420 C-640.2 420 -620.4 420 -600 420 C-600 380.4 -600 340.8 -600 300 C-580.2 300 -560.4 300 -540 300 C-540 280.2 -540 260.4 -540 240 C-520.2 240 -500.4 240 -480 240 C-480 220.2 -480 200.4 -480 180 C-440.4 180 -400.8 180 -360 180 C-360 160.2 -360 140.4 -360 120 C-320.4 120 -280.8 120 -240 120 C-240 100.2 -240 80.4 -240 60 C-160.8 60 -81.6 60 0 60 C0 40.2 0 20.4 0 0 Z " fill="#D2617F" transform="translate(1380,720)"/>
<path d="M0 0 C19.8 0 39.6 0 60 0 C60 19.8 60 39.6 60 60 C79.8 60 99.6 60 120 60 C120 40.2 120 20.4 120 0 C139.8 0 159.6 0 180 0 C180 19.8 180 39.6 180 60 C199.8 60 219.6 60 240 60 C240 40.2 240 20.4 240 0 C259.8 0 279.6 0 300 0 C300 59.4 300 118.8 300 180 C319.8 180 339.6 180 360 180 C360 199.8 360 219.6 360 240 C379.8 240 399.6 240 420 240 C420 259.8 420 279.6 420 300 C499.2 300 578.4 300 660 300 C660 319.8 660 339.6 660 360 C679.8 360 699.6 360 720 360 C720 340.2 720 320.4 720 300 C739.8 300 759.6 300 780 300 C780 280.2 780 260.4 780 240 C918.6 240 1057.2 240 1200 240 C1200 259.8 1200 279.6 1200 300 C1160.4 300 1120.8 300 1080 300 C1080 319.8 1080 339.6 1080 360 C1060.2 360 1040.4 360 1020 360 C1020 379.8 1020 399.6 1020 420 C980.4 420 940.8 420 900 420 C900 439.8 900 459.6 900 480 C880.2 480 860.4 480 840 480 C840 519.6 840 559.2 840 600 C859.8 600 879.6 600 900 600 C900 639.6 900 679.2 900 720 C919.8 720 939.6 720 960 720 C960 759.6 960 799.2 960 840 C900.6 840 841.2 840 780 840 C780 820.2 780 800.4 780 780 C760.2 780 740.4 780 720 780 C720 740.4 720 700.8 720 660 C700.2 660 680.4 660 660 660 C660 640.2 660 620.4 660 600 C620.4 600 580.8 600 540 600 C540 580.2 540 560.4 540 540 C520.2 540 500.4 540 480 540 C480 520.2 480 500.4 480 480 C361.2 480 242.4 480 120 480 C120 460.2 120 440.4 120 420 C-38.4 420 -196.8 420 -360 420 C-360 400.2 -360 380.4 -360 360 C-221.4 360 -82.8 360 60 360 C60 320.4 60 280.8 60 240 C40.2 240 20.4 240 0 240 C0 220.2 0 200.4 0 180 C-19.8 180 -39.6 180 -60 180 C-60 160.2 -60 140.4 -60 120 C-119.4 120 -178.8 120 -240 120 C-240 100.2 -240 80.4 -240 60 C-160.8 60 -81.6 60 0 60 C0 40.2 0 20.4 0 0 Z " fill="#D46380" transform="translate(1260,1380)"/>
<path d="M0 0 C99 0 198 0 300 0 C300 19.8 300 39.6 300 60 C379.2 60 458.4 60 540 60 C540 40.2 540 20.4 540 0 C619.2 0 698.4 0 780 0 C780 39.6 780 79.2 780 120 C819.6 120 859.2 120 900 120 C900 139.8 900 159.6 900 180 C919.8 180 939.6 180 960 180 C960 219.6 960 259.2 960 300 C999.6 300 1039.2 300 1080 300 C1080 319.8 1080 339.6 1080 360 C941.4 360 802.8 360 660 360 C660 379.8 660 399.6 660 420 C640.2 420 620.4 420 600 420 C600 439.8 600 459.6 600 480 C580.2 480 560.4 480 540 480 C540 460.2 540 440.4 540 420 C460.8 420 381.6 420 300 420 C300 400.2 300 380.4 300 360 C280.2 360 260.4 360 240 360 C240 340.2 240 320.4 240 300 C220.2 300 200.4 300 180 300 C180 240.6 180 181.2 180 120 C160.2 120 140.4 120 120 120 C120 139.8 120 159.6 120 180 C100.2 180 80.4 180 60 180 C60 160.2 60 140.4 60 120 C40.2 120 20.4 120 0 120 C0 139.8 0 159.6 0 180 C-19.8 180 -39.6 180 -60 180 C-60 140.4 -60 100.8 -60 60 C-40.2 60 -20.4 60 0 60 C0 40.2 0 20.4 0 0 Z " fill="#D56381" transform="translate(1380,1260)"/>
<path d="M0 0 C138.6 0 277.2 0 420 0 C420 19.8 420 39.6 420 60 C380.4 60 340.8 60 300 60 C300 79.8 300 99.6 300 120 C280.2 120 260.4 120 240 120 C240 139.8 240 159.6 240 180 C200.4 180 160.8 180 120 180 C120 199.8 120 219.6 120 240 C100.2 240 80.4 240 60 240 C60 279.6 60 319.2 60 360 C79.8 360 99.6 360 120 360 C120 399.6 120 439.2 120 480 C139.8 480 159.6 480 180 480 C180 519.6 180 559.2 180 600 C120.6 600 61.2 600 0 600 C0 580.2 0 560.4 0 540 C-19.8 540 -39.6 540 -60 540 C-60 500.4 -60 460.8 -60 420 C-79.8 420 -99.6 420 -120 420 C-120 400.2 -120 380.4 -120 360 C-159.6 360 -199.2 360 -240 360 C-240 340.2 -240 320.4 -240 300 C-259.8 300 -279.6 300 -300 300 C-300 280.2 -300 260.4 -300 240 C-280.2 240 -260.4 240 -240 240 C-240 220.2 -240 200.4 -240 180 C-220.2 180 -200.4 180 -180 180 C-180 160.2 -180 140.4 -180 120 C-140.4 120 -100.8 120 -60 120 C-60 100.2 -60 80.4 -60 60 C-40.2 60 -20.4 60 0 60 C0 40.2 0 20.4 0 0 Z " fill="#D4617F" transform="translate(2040,1620)"/>
<path d="M0 0 C19.8 0 39.6 0 60 0 C60 39.6 60 79.2 60 120 C79.8 120 99.6 120 120 120 C120 159.6 120 199.2 120 240 C80.4 240 40.8 240 0 240 C0 299.4 0 358.8 0 420 C19.8 420 39.6 420 60 420 C60 439.8 60 459.6 60 480 C40.2 480 20.4 480 0 480 C0 519.6 0 559.2 0 600 C39.6 600 79.2 600 120 600 C120 639.6 120 679.2 120 720 C60.6 720 1.2 720 -60 720 C-60 700.2 -60 680.4 -60 660 C-79.8 660 -99.6 660 -120 660 C-120 640.2 -120 620.4 -120 600 C-139.8 600 -159.6 600 -180 600 C-180 501 -180 402 -180 300 C-160.2 300 -140.4 300 -120 300 C-120 260.4 -120 220.8 -120 180 C-100.2 180 -80.4 180 -60 180 C-60 160.2 -60 140.4 -60 120 C-40.2 120 -20.4 120 0 120 C0 80.4 0 40.8 0 0 Z " fill="#D4617F" transform="translate(780,1020)"/>
<path d="M0 0 C19.8 0 39.6 0 60 0 C60 19.8 60 39.6 60 60 C79.8 60 99.6 60 120 60 C120 40.2 120 20.4 120 0 C139.8 0 159.6 0 180 0 C180 19.8 180 39.6 180 60 C199.8 60 219.6 60 240 60 C240 40.2 240 20.4 240 0 C259.8 0 279.6 0 300 0 C300 39.6 300 79.2 300 120 C260.4 120 220.8 120 180 120 C180 159.6 180 199.2 180 240 C160.2 240 140.4 240 120 240 C120 299.4 120 358.8 120 420 C-38.4 420 -196.8 420 -360 420 C-360 400.2 -360 380.4 -360 360 C-221.4 360 -82.8 360 60 360 C60 320.4 60 280.8 60 240 C40.2 240 20.4 240 0 240 C0 220.2 0 200.4 0 180 C-19.8 180 -39.6 180 -60 180 C-60 160.2 -60 140.4 -60 120 C-119.4 120 -178.8 120 -240 120 C-240 100.2 -240 80.4 -240 60 C-160.8 60 -81.6 60 0 60 C0 40.2 0 20.4 0 0 Z " fill="#D4617F" transform="translate(1260,1380)"/>
<path d="M0 0 C19.8 0 39.6 0 60 0 C60 19.8 60 39.6 60 60 C119.4 60 178.8 60 240 60 C240 79.8 240 99.6 240 120 C259.8 120 279.6 120 300 120 C300 139.8 300 159.6 300 180 C319.8 180 339.6 180 360 180 C360 219.6 360 259.2 360 300 C221.4 300 82.8 300 -60 300 C-60 260.4 -60 220.8 -60 180 C-79.8 180 -99.6 180 -120 180 C-120 160.2 -120 140.4 -120 120 C-100.2 120 -80.4 120 -60 120 C-60 100.2 -60 80.4 -60 60 C-40.2 60 -20.4 60 0 60 C0 40.2 0 20.4 0 0 Z " fill="#D76E8A" transform="translate(960,1440)"/>
<path d="M0 0 C79.2 0 158.4 0 240 0 C240 19.8 240 39.6 240 60 C319.2 60 398.4 60 480 60 C480 99.6 480 139.2 480 180 C381 180 282 180 180 180 C180 199.8 180 219.6 180 240 C160.2 240 140.4 240 120 240 C120 259.8 120 279.6 120 300 C100.2 300 80.4 300 60 300 C60 319.8 60 339.6 60 360 C40.2 360 20.4 360 0 360 C0 320.4 0 280.8 0 240 C19.8 240 39.6 240 60 240 C60 220.2 60 200.4 60 180 C40.2 180 20.4 180 0 180 C0 120.6 0 61.2 0 0 Z " fill="#D46280" transform="translate(780,1260)"/>
<path d="M0 0 C19.8 0 39.6 0 60 0 C60 19.8 60 39.6 60 60 C99.6 60 139.2 60 180 60 C180 99.6 180 139.2 180 180 C199.8 180 219.6 180 240 180 C240 120.6 240 61.2 240 0 C259.8 0 279.6 0 300 0 C300 39.6 300 79.2 300 120 C319.8 120 339.6 120 360 120 C360 179.4 360 238.8 360 300 C340.2 300 320.4 300 300 300 C300 339.6 300 379.2 300 420 C280.2 420 260.4 420 240 420 C240 400.2 240 380.4 240 360 C200.4 360 160.8 360 120 360 C120 320.4 120 280.8 120 240 C100.2 240 80.4 240 60 240 C60 220.2 60 200.4 60 180 C40.2 180 20.4 180 0 180 C0 120.6 0 61.2 0 0 Z " fill="#D4617F" transform="translate(2220,1200)"/>
<path d="M0 0 C59.4 0 118.8 0 180 0 C180 19.8 180 39.6 180 60 C239.4 60 298.8 60 360 60 C360 99.6 360 139.2 360 180 C340.2 180 320.4 180 300 180 C300 199.8 300 219.6 300 240 C240.6 240 181.2 240 120 240 C120 220.2 120 200.4 120 180 C100.2 180 80.4 180 60 180 C60 140.4 60 100.8 60 60 C40.2 60 20.4 60 0 60 C0 40.2 0 20.4 0 0 Z " fill="#D66280" transform="translate(1260,960)"/>
<path d="M0 0 C79.2 0 158.4 0 240 0 C240 39.6 240 79.2 240 120 C259.8 120 279.6 120 300 120 C300 159.6 300 199.2 300 240 C280.2 240 260.4 240 240 240 C240 259.8 240 279.6 240 300 C220.2 300 200.4 300 180 300 C180 280.2 180 260.4 180 240 C160.2 240 140.4 240 120 240 C120 220.2 120 200.4 120 180 C100.2 180 80.4 180 60 180 C60 140.4 60 100.8 60 60 C40.2 60 20.4 60 0 60 C0 40.2 0 20.4 0 0 Z " fill="#D76B87" transform="translate(1920,1260)"/>
<path d="M0 0 C19.8 0 39.6 0 60 0 C60 39.6 60 79.2 60 120 C40.2 120 20.4 120 0 120 C0 139.8 0 159.6 0 180 C39.6 180 79.2 180 120 180 C120 219.6 120 259.2 120 300 C60.6 300 1.2 300 -60 300 C-60 260.4 -60 220.8 -60 180 C-79.8 180 -99.6 180 -120 180 C-120 160.2 -120 140.4 -120 120 C-100.2 120 -80.4 120 -60 120 C-60 100.2 -60 80.4 -60 60 C-40.2 60 -20.4 60 0 60 C0 40.2 0 20.4 0 0 Z " fill="#E18EA4" transform="translate(960,1440)"/>
<path d="M0 0 C19.8 0 39.6 0 60 0 C60 59.4 60 118.8 60 180 C99.6 180 139.2 180 180 180 C180 199.8 180 219.6 180 240 C140.4 240 100.8 240 60 240 C60 299.4 60 358.8 60 420 C40.2 420 20.4 420 0 420 C0 360.6 0 301.2 0 240 C-39.6 240 -79.2 240 -120 240 C-120 220.2 -120 200.4 -120 180 C-80.4 180 -40.8 180 0 180 C0 120.6 0 61.2 0 0 Z " fill="#CEE0E0" transform="translate(780,480)"/>
<path d="M0 0 C19.8 0 39.6 0 60 0 C60 59.4 60 118.8 60 180 C-98.4 180 -256.8 180 -420 180 C-420 160.2 -420 140.4 -420 120 C-281.4 120 -142.8 120 0 120 C0 80.4 0 40.8 0 0 Z " fill="#161616" transform="translate(1320,1620)"/>
<path d="M0 0 C19.8 0 39.6 0 60 0 C60 39.6 60 79.2 60 120 C99.6 120 139.2 120 180 120 C180 139.8 180 159.6 180 180 C140.4 180 100.8 180 60 180 C60 219.6 60 259.2 60 300 C40.2 300 20.4 300 0 300 C0 260.4 0 220.8 0 180 C-39.6 180 -79.2 180 -120 180 C-120 160.2 -120 140.4 -120 120 C-80.4 120 -40.8 120 0 120 C0 80.4 0 40.8 0 0 Z " fill="#D3E3E3" transform="translate(780,1800)"/>
<path d="M0 0 C19.8 0 39.6 0 60 0 C60 39.6 60 79.2 60 120 C99.6 120 139.2 120 180 120 C180 139.8 180 159.6 180 180 C140.4 180 100.8 180 60 180 C60 219.6 60 259.2 60 300 C40.2 300 20.4 300 0 300 C0 260.4 0 220.8 0 180 C-39.6 180 -79.2 180 -120 180 C-120 160.2 -120 140.4 -120 120 C-80.4 120 -40.8 120 0 120 C0 80.4 0 40.8 0 0 Z " fill="#CFE0E0" transform="translate(2280,660)"/>
<path d="M0 0 C138.6 0 277.2 0 420 0 C420 19.8 420 39.6 420 60 C380.4 60 340.8 60 300 60 C300 79.8 300 99.6 300 120 C280.2 120 260.4 120 240 120 C240 100.2 240 80.4 240 60 C160.8 60 81.6 60 0 60 C0 40.2 0 20.4 0 0 Z " fill="#000000" transform="translate(2040,1620)"/>
<path d="M0 0 C19.8 0 39.6 0 60 0 C60 19.8 60 39.6 60 60 C99.6 60 139.2 60 180 60 C180 79.8 180 99.6 180 120 C160.2 120 140.4 120 120 120 C120 139.8 120 159.6 120 180 C100.2 180 80.4 180 60 180 C60 160.2 60 140.4 60 120 C40.2 120 20.4 120 0 120 C0 139.8 0 159.6 0 180 C-19.8 180 -39.6 180 -60 180 C-60 140.4 -60 100.8 -60 60 C-40.2 60 -20.4 60 0 60 C0 40.2 0 20.4 0 0 Z " fill="#E38BA2" transform="translate(1380,1260)"/>
<path d="M0 0 C39.6 0 79.2 0 120 0 C120 79.2 120 158.4 120 240 C100.2 240 80.4 240 60 240 C60 200.4 60 160.8 60 120 C20.4 120 -19.2 120 -60 120 C-60 100.2 -60 80.4 -60 60 C-40.2 60 -20.4 60 0 60 C0 40.2 0 20.4 0 0 Z " fill="#D66885" transform="translate(2340,1140)"/>
<path d="M0 0 C59.4 0 118.8 0 180 0 C180 39.6 180 79.2 180 120 C160.2 120 140.4 120 120 120 C120 139.8 120 159.6 120 180 C100.2 180 80.4 180 60 180 C60 160.2 60 140.4 60 120 C40.2 120 20.4 120 0 120 C0 80.4 0 40.8 0 0 Z " fill="#DB7690" transform="translate(1440,1020)"/>
<path d="M0 0 C118.8 0 237.6 0 360 0 C360 19.8 360 39.6 360 60 C241.2 60 122.4 60 0 60 C0 40.2 0 20.4 0 0 Z " fill="#000000" transform="translate(1380,1800)"/>
<path d="M0 0 C19.8 0 39.6 0 60 0 C60 19.8 60 39.6 60 60 C79.8 60 99.6 60 120 60 C120 99.6 120 139.2 120 180 C60.6 180 1.2 180 -60 180 C-60 160.2 -60 140.4 -60 120 C-40.2 120 -20.4 120 0 120 C0 80.4 0 40.8 0 0 Z " fill="#DE819A" transform="translate(1200,1560)"/>
<path d="M0 0 C19.8 0 39.6 0 60 0 C60 59.4 60 118.8 60 180 C0.6 180 -58.8 180 -120 180 C-120 160.2 -120 140.4 -120 120 C-80.4 120 -40.8 120 0 120 C0 80.4 0 40.8 0 0 Z " fill="#000000" transform="translate(1320,1620)"/>
<path d="M0 0 C39.6 0 79.2 0 120 0 C120 39.6 120 79.2 120 120 C60.6 120 1.2 120 -60 120 C-60 100.2 -60 80.4 -60 60 C-40.2 60 -20.4 60 0 60 C0 40.2 0 20.4 0 0 Z " fill="#D4617F" transform="translate(1020,1500)"/>
<path d="M0 0 C19.8 0 39.6 0 60 0 C60 99 60 198 60 300 C40.2 300 20.4 300 0 300 C0 201 0 102 0 0 Z " fill="#000000" transform="translate(600,1320)"/>
<path d="M0 0 C39.6 0 79.2 0 120 0 C120 39.6 120 79.2 120 120 C100.2 120 80.4 120 60 120 C60 139.8 60 159.6 60 180 C40.2 180 20.4 180 0 180 C0 120.6 0 61.2 0 0 Z " fill="#D76B87" transform="translate(780,1260)"/>
<path d="M0 0 C99 0 198 0 300 0 C300 19.8 300 39.6 300 60 C201 60 102 60 0 60 C0 40.2 0 20.4 0 0 Z " fill="#000000" transform="translate(1620,780)"/>
<path d="M0 0 C19.8 0 39.6 0 60 0 C60 39.6 60 79.2 60 120 C0.6 120 -58.8 120 -120 120 C-120 100.2 -120 80.4 -120 60 C-80.4 60 -40.8 60 0 60 C0 40.2 0 20.4 0 0 Z " fill="#010101" transform="translate(2160,2100)"/>
<path d="M0 0 C79.2 0 158.4 0 240 0 C240 19.8 240 39.6 240 60 C160.8 60 81.6 60 0 60 C0 40.2 0 20.4 0 0 Z " fill="#090909" transform="translate(2040,1620)"/>
<path d="M0 0 C39.6 0 79.2 0 120 0 C120 39.6 120 79.2 120 120 C80.4 120 40.8 120 0 120 C0 80.4 0 40.8 0 0 Z " fill="#DC728E" transform="translate(1440,1500)"/>
<path d="M0 0 C39.6 0 79.2 0 120 0 C120 59.4 120 118.8 120 180 C100.2 180 80.4 180 60 180 C60 140.4 60 100.8 60 60 C40.2 60 20.4 60 0 60 C0 40.2 0 20.4 0 0 Z " fill="#DA6F8B" transform="translate(1920,1260)"/>
<path d="M0 0 C79.2 0 158.4 0 240 0 C240 19.8 240 39.6 240 60 C160.8 60 81.6 60 0 60 C0 40.2 0 20.4 0 0 Z " fill="#000000" transform="translate(1680,1260)"/>
<path d="M0 0 C79.2 0 158.4 0 240 0 C240 19.8 240 39.6 240 60 C160.8 60 81.6 60 0 60 C0 40.2 0 20.4 0 0 Z " fill="#DA748E" transform="translate(1440,1260)"/>
<path d="M0 0 C79.2 0 158.4 0 240 0 C240 19.8 240 39.6 240 60 C160.8 60 81.6 60 0 60 C0 40.2 0 20.4 0 0 Z " fill="#AF5E73" transform="translate(1020,1260)"/>
<path d="M0 0 C39.6 0 79.2 0 120 0 C120 19.8 120 39.6 120 60 C100.2 60 80.4 60 60 60 C60 99.6 60 139.2 60 180 C40.2 180 20.4 180 0 180 C0 120.6 0 61.2 0 0 Z " fill="#B15D73" transform="translate(1920,840)"/>
<path d="M0 0 C79.2 0 158.4 0 240 0 C240 19.8 240 39.6 240 60 C160.8 60 81.6 60 0 60 C0 40.2 0 20.4 0 0 Z " fill="#D66784" transform="translate(900,900)"/>
<path d="M0 0 C79.2 0 158.4 0 240 0 C240 19.8 240 39.6 240 60 C160.8 60 81.6 60 0 60 C0 40.2 0 20.4 0 0 Z " fill="#000000" transform="translate(1140,780)"/>
<path d="M0 0 C79.2 0 158.4 0 240 0 C240 19.8 240 39.6 240 60 C160.8 60 81.6 60 0 60 C0 40.2 0 20.4 0 0 Z " fill="#000000" transform="translate(1380,720)"/>
<path d="M0 0 C59.4 0 118.8 0 180 0 C180 19.8 180 39.6 180 60 C120.6 60 61.2 60 0 60 C0 40.2 0 20.4 0 0 Z " fill="#F4C1CF" transform="translate(900,1680)"/>
<path d="M0 0 C59.4 0 118.8 0 180 0 C180 19.8 180 39.6 180 60 C120.6 60 61.2 60 0 60 C0 40.2 0 20.4 0 0 Z " fill="#000000" transform="translate(720,1680)"/>
<path d="M0 0 C59.4 0 118.8 0 180 0 C180 19.8 180 39.6 180 60 C120.6 60 61.2 60 0 60 C0 40.2 0 20.4 0 0 Z " fill="#B35F75" transform="translate(1740,1620)"/>
<path d="M0 0 C39.6 0 79.2 0 120 0 C120 39.6 120 79.2 120 120 C100.2 120 80.4 120 60 120 C60 100.2 60 80.4 60 60 C40.2 60 20.4 60 0 60 C0 40.2 0 20.4 0 0 Z " fill="#BE6279" transform="translate(1560,1500)"/>
<path d="M0 0 C19.8 0 39.6 0 60 0 C60 39.6 60 79.2 60 120 C20.4 120 -19.2 120 -60 120 C-60 100.2 -60 80.4 -60 60 C-40.2 60 -20.4 60 0 60 C0 40.2 0 20.4 0 0 Z " fill="#E49AAD" transform="translate(960,1440)"/>
<path d="M0 0 C19.8 0 39.6 0 60 0 C60 19.8 60 39.6 60 60 C79.8 60 99.6 60 120 60 C120 79.8 120 99.6 120 120 C80.4 120 40.8 120 0 120 C0 80.4 0 40.8 0 0 Z " fill="#B55E75" transform="translate(2220,1380)"/>
<path d="M0 0 C19.8 0 39.6 0 60 0 C60 39.6 60 79.2 60 120 C20.4 120 -19.2 120 -60 120 C-60 100.2 -60 80.4 -60 60 C-40.2 60 -20.4 60 0 60 C0 40.2 0 20.4 0 0 Z " fill="#AC5D72" transform="translate(1500,1380)"/>
<path d="M0 0 C59.4 0 118.8 0 180 0 C180 19.8 180 39.6 180 60 C120.6 60 61.2 60 0 60 C0 40.2 0 20.4 0 0 Z " fill="#AC5D72" transform="translate(840,1380)"/>
<path d="M0 0 C19.8 0 39.6 0 60 0 C60 59.4 60 118.8 60 180 C40.2 180 20.4 180 0 180 C0 120.6 0 61.2 0 0 Z " fill="#000000" transform="translate(2520,1320)"/>
<path d="M0 0 C19.8 0 39.6 0 60 0 C60 59.4 60 118.8 60 180 C40.2 180 20.4 180 0 180 C0 120.6 0 61.2 0 0 Z " fill="#D76C88" transform="translate(2400,1200)"/>
<path d="M0 0 C19.8 0 39.6 0 60 0 C60 59.4 60 118.8 60 180 C40.2 180 20.4 180 0 180 C0 120.6 0 61.2 0 0 Z " fill="#D4617F" transform="translate(2040,1260)"/>
<path d="M0 0 C59.4 0 118.8 0 180 0 C180 19.8 180 39.6 180 60 C120.6 60 61.2 60 0 60 C0 40.2 0 20.4 0 0 Z " fill="#B25F74" transform="translate(1980,1200)"/>
<path d="M0 0 C19.8 0 39.6 0 60 0 C60 19.8 60 39.6 60 60 C79.8 60 99.6 60 120 60 C120 79.8 120 99.6 120 120 C80.4 120 40.8 120 0 120 C0 80.4 0 40.8 0 0 Z " fill="#B05D73" transform="translate(900,1140)"/>
<path d="M0 0 C19.8 0 39.6 0 60 0 C60 39.6 60 79.2 60 120 C40.2 120 20.4 120 0 120 C0 80.4 0 40.8 0 0 Z " fill="#000000" transform="translate(1980,2040)"/>
<path d="M0 0 C19.8 0 39.6 0 60 0 C60 39.6 60 79.2 60 120 C40.2 120 20.4 120 0 120 C0 80.4 0 40.8 0 0 Z " fill="#030303" transform="translate(2100,1980)"/>
<path d="M0 0 C19.8 0 39.6 0 60 0 C60 39.6 60 79.2 60 120 C40.2 120 20.4 120 0 120 C0 80.4 0 40.8 0 0 Z " fill="#CEE0E0" transform="translate(780,1980)"/>
<path d="M0 0 C39.6 0 79.2 0 120 0 C120 19.8 120 39.6 120 60 C80.4 60 40.8 60 0 60 C0 40.2 0 20.4 0 0 Z " fill="#000000" transform="translate(1800,1920)"/>
<path d="M0 0 C39.6 0 79.2 0 120 0 C120 19.8 120 39.6 120 60 C80.4 60 40.8 60 0 60 C0 40.2 0 20.4 0 0 Z " fill="#CEE0E0" transform="translate(660,1920)"/>
<path d="M0 0 C19.8 0 39.6 0 60 0 C60 39.6 60 79.2 60 120 C40.2 120 20.4 120 0 120 C0 80.4 0 40.8 0 0 Z " fill="#000000" transform="translate(2040,1860)"/>
<path d="M0 0 C19.8 0 39.6 0 60 0 C60 39.6 60 79.2 60 120 C40.2 120 20.4 120 0 120 C0 80.4 0 40.8 0 0 Z " fill="#CEE0E0" transform="translate(780,1800)"/>
<path d="M0 0 C39.6 0 79.2 0 120 0 C120 19.8 120 39.6 120 60 C80.4 60 40.8 60 0 60 C0 40.2 0 20.4 0 0 Z " fill="#000000" transform="translate(2160,1740)"/>
<path d="M0 0 C39.6 0 79.2 0 120 0 C120 19.8 120 39.6 120 60 C80.4 60 40.8 60 0 60 C0 40.2 0 20.4 0 0 Z " fill="#020202" transform="translate(1860,1740)"/>
<path d="M0 0 C39.6 0 79.2 0 120 0 C120 19.8 120 39.6 120 60 C80.4 60 40.8 60 0 60 C0 40.2 0 20.4 0 0 Z " fill="#000000" transform="translate(900,1740)"/>
<path d="M0 0 C39.6 0 79.2 0 120 0 C120 19.8 120 39.6 120 60 C80.4 60 40.8 60 0 60 C0 40.2 0 20.4 0 0 Z " fill="#DB718C" transform="translate(1680,1680)"/>
<path d="M0 0 C39.6 0 79.2 0 120 0 C120 19.8 120 39.6 120 60 C80.4 60 40.8 60 0 60 C0 40.2 0 20.4 0 0 Z " fill="#F1BBC8" transform="translate(1140,1680)"/>
<path d="M0 0 C39.6 0 79.2 0 120 0 C120 19.8 120 39.6 120 60 C80.4 60 40.8 60 0 60 C0 40.2 0 20.4 0 0 Z " fill="#000000" transform="translate(2040,1620)"/>
<path d="M0 0 C39.6 0 79.2 0 120 0 C120 19.8 120 39.6 120 60 C80.4 60 40.8 60 0 60 C0 40.2 0 20.4 0 0 Z " fill="#D76B87" transform="translate(2220,1560)"/>
<path d="M0 0 C19.8 0 39.6 0 60 0 C60 39.6 60 79.2 60 120 C40.2 120 20.4 120 0 120 C0 80.4 0 40.8 0 0 Z " fill="#DE8199" transform="translate(1440,1500)"/>
<path d="M0 0 C19.8 0 39.6 0 60 0 C60 39.6 60 79.2 60 120 C40.2 120 20.4 120 0 120 C0 80.4 0 40.8 0 0 Z " fill="#DA7791" transform="translate(1320,1500)"/>
<path d="M0 0 C19.8 0 39.6 0 60 0 C60 39.6 60 79.2 60 120 C40.2 120 20.4 120 0 120 C0 80.4 0 40.8 0 0 Z " fill="#000000" transform="translate(2460,1500)"/>
<path d="M0 0 C39.6 0 79.2 0 120 0 C120 19.8 120 39.6 120 60 C80.4 60 40.8 60 0 60 C0 40.2 0 20.4 0 0 Z " fill="#AF5D73" transform="translate(2340,1500)"/>
<path d="M0 0 C19.8 0 39.6 0 60 0 C60 39.6 60 79.2 60 120 C40.2 120 20.4 120 0 120 C0 80.4 0 40.8 0 0 Z " fill="#000000" transform="translate(1380,1500)"/>
<path d="M0 0 C19.8 0 39.6 0 60 0 C60 39.6 60 79.2 60 120 C40.2 120 20.4 120 0 120 C0 80.4 0 40.8 0 0 Z " fill="#AC5D72" transform="translate(720,1500)"/>
<path d="M0 0 C19.8 0 39.6 0 60 0 C60 39.6 60 79.2 60 120 C40.2 120 20.4 120 0 120 C0 80.4 0 40.8 0 0 Z " fill="#DA7791" transform="translate(1380,1380)"/>
<path d="M0 0 C39.6 0 79.2 0 120 0 C120 19.8 120 39.6 120 60 C80.4 60 40.8 60 0 60 C0 40.2 0 20.4 0 0 Z " fill="#AE5E73" transform="translate(1020,1440)"/>
<path d="M0 0 C19.8 0 39.6 0 60 0 C60 39.6 60 79.2 60 120 C40.2 120 20.4 120 0 120 C0 80.4 0 40.8 0 0 Z " fill="#DE849C" transform="translate(780,1320)"/>
<path d="M0 0 C39.6 0 79.2 0 120 0 C120 19.8 120 39.6 120 60 C80.4 60 40.8 60 0 60 C0 40.2 0 20.4 0 0 Z " fill="#000000" transform="translate(1560,1320)"/>
<path d="M0 0 C19.8 0 39.6 0 60 0 C60 39.6 60 79.2 60 120 C40.2 120 20.4 120 0 120 C0 80.4 0 40.8 0 0 Z " fill="#000000" transform="translate(2460,1200)"/>
<path d="M0 0 C19.8 0 39.6 0 60 0 C60 39.6 60 79.2 60 120 C40.2 120 20.4 120 0 120 C0 80.4 0 40.8 0 0 Z " fill="#AF5E73" transform="translate(2160,1260)"/>
<path d="M0 0 C39.6 0 79.2 0 120 0 C120 19.8 120 39.6 120 60 C80.4 60 40.8 60 0 60 C0 40.2 0 20.4 0 0 Z " fill="#DA6684" transform="translate(1440,1260)"/>
<path d="M0 0 C19.8 0 39.6 0 60 0 C60 39.6 60 79.2 60 120 C40.2 120 20.4 120 0 120 C0 80.4 0 40.8 0 0 Z " fill="#080808" transform="translate(660,1200)"/>
<path d="M0 0 C19.8 0 39.6 0 60 0 C60 39.6 60 79.2 60 120 C40.2 120 20.4 120 0 120 C0 80.4 0 40.8 0 0 Z " fill="#B35F76" transform="translate(1620,1020)"/>
<path d="M0 0 C39.6 0 79.2 0 120 0 C120 19.8 120 39.6 120 60 C80.4 60 40.8 60 0 60 C0 40.2 0 20.4 0 0 Z " fill="#000000" transform="translate(2220,1020)"/>
<path d="M0 0 C39.6 0 79.2 0 120 0 C120 19.8 120 39.6 120 60 C80.4 60 40.8 60 0 60 C0 40.2 0 20.4 0 0 Z " fill="#E191A6" transform="translate(1500,1020)"/>
<path d="M0 0 C19.8 0 39.6 0 60 0 C60 39.6 60 79.2 60 120 C40.2 120 20.4 120 0 120 C0 80.4 0 40.8 0 0 Z " fill="#000000" transform="translate(780,1020)"/>
<path d="M0 0 C39.6 0 79.2 0 120 0 C120 19.8 120 39.6 120 60 C80.4 60 40.8 60 0 60 C0 40.2 0 20.4 0 0 Z " fill="#DB6B88" transform="translate(1440,960)"/>
<path d="M0 0 C39.6 0 79.2 0 120 0 C120 19.8 120 39.6 120 60 C80.4 60 40.8 60 0 60 C0 40.2 0 20.4 0 0 Z " fill="#E07F98" transform="translate(900,960)"/>
<path d="M0 0 C39.6 0 79.2 0 120 0 C120 19.8 120 39.6 120 60 C80.4 60 40.8 60 0 60 C0 40.2 0 20.4 0 0 Z " fill="#000000" transform="translate(2040,900)"/>
<path d="M0 0 C19.8 0 39.6 0 60 0 C60 39.6 60 79.2 60 120 C40.2 120 20.4 120 0 120 C0 80.4 0 40.8 0 0 Z " fill="#B85F77" transform="translate(1560,900)"/>
<path d="M0 0 C39.6 0 79.2 0 120 0 C120 19.8 120 39.6 120 60 C80.4 60 40.8 60 0 60 C0 40.2 0 20.4 0 0 Z " fill="#D96684" transform="translate(1320,900)"/>
<path d="M0 0 C39.6 0 79.2 0 120 0 C120 19.8 120 39.6 120 60 C80.4 60 40.8 60 0 60 C0 40.2 0 20.4 0 0 Z " fill="#000000" transform="translate(900,900)"/>
<path d="M0 0 C39.6 0 79.2 0 120 0 C120 19.8 120 39.6 120 60 C80.4 60 40.8 60 0 60 C0 40.2 0 20.4 0 0 Z " fill="#000000" transform="translate(1920,840)"/>
<path d="M0 0 C19.8 0 39.6 0 60 0 C60 39.6 60 79.2 60 120 C40.2 120 20.4 120 0 120 C0 80.4 0 40.8 0 0 Z " fill="#AC5D72" transform="translate(1260,840)"/>
<path d="M0 0 C39.6 0 79.2 0 120 0 C120 19.8 120 39.6 120 60 C80.4 60 40.8 60 0 60 C0 40.2 0 20.4 0 0 Z " fill="#000000" transform="translate(1020,840)"/>
<path d="M0 0 C39.6 0 79.2 0 120 0 C120 19.8 120 39.6 120 60 C80.4 60 40.8 60 0 60 C0 40.2 0 20.4 0 0 Z " fill="#CEE0E0" transform="translate(2160,780)"/>
<path d="M0 0 C39.6 0 79.2 0 120 0 C120 19.8 120 39.6 120 60 C80.4 60 40.8 60 0 60 C0 40.2 0 20.4 0 0 Z " fill="#373737" transform="translate(1380,720)"/>
<path d="M0 0 C19.8 0 39.6 0 60 0 C60 39.6 60 79.2 60 120 C40.2 120 20.4 120 0 120 C0 80.4 0 40.8 0 0 Z " fill="#CEE0E0" transform="translate(2280,660)"/>
<path d="M0 0 C39.6 0 79.2 0 120 0 C120 19.8 120 39.6 120 60 C80.4 60 40.8 60 0 60 C0 40.2 0 20.4 0 0 Z " fill="#CEE0E0" transform="translate(840,660)"/>
<path d="M0 0 C39.6 0 79.2 0 120 0 C120 19.8 120 39.6 120 60 C80.4 60 40.8 60 0 60 C0 40.2 0 20.4 0 0 Z " fill="#CEE0E0" transform="translate(660,660)"/>
<path d="M0 0 C19.8 0 39.6 0 60 0 C60 19.8 60 39.6 60 60 C40.2 60 20.4 60 0 60 C0 40.2 0 20.4 0 0 Z " fill="#000000" transform="translate(1920,1980)"/>
<path d="M0 0 C19.8 0 39.6 0 60 0 C60 19.8 60 39.6 60 60 C40.2 60 20.4 60 0 60 C0 40.2 0 20.4 0 0 Z " fill="#FFFFFF" transform="translate(780,1920)"/>
<path d="M0 0 C19.8 0 39.6 0 60 0 C60 19.8 60 39.6 60 60 C40.2 60 20.4 60 0 60 C0 40.2 0 20.4 0 0 Z " fill="#000000" transform="translate(1740,1860)"/>
<path d="M0 0 C19.8 0 39.6 0 60 0 C60 19.8 60 39.6 60 60 C40.2 60 20.4 60 0 60 C0 40.2 0 20.4 0 0 Z " fill="#000000" transform="translate(2100,1800)"/>
<path d="M0 0 C19.8 0 39.6 0 60 0 C60 19.8 60 39.6 60 60 C40.2 60 20.4 60 0 60 C0 40.2 0 20.4 0 0 Z " fill="#000000" transform="translate(1800,1800)"/>
<path d="M0 0 C19.8 0 39.6 0 60 0 C60 19.8 60 39.6 60 60 C40.2 60 20.4 60 0 60 C0 40.2 0 20.4 0 0 Z " fill="#DA7690" transform="translate(1440,1740)"/>
<path d="M0 0 C19.8 0 39.6 0 60 0 C60 19.8 60 39.6 60 60 C40.2 60 20.4 60 0 60 C0 40.2 0 20.4 0 0 Z " fill="#0F0F0F" transform="translate(1140,1740)"/>
<path d="M0 0 C19.8 0 39.6 0 60 0 C60 19.8 60 39.6 60 60 C40.2 60 20.4 60 0 60 C0 40.2 0 20.4 0 0 Z " fill="#000000" transform="translate(1980,1680)"/>
<path d="M0 0 C19.8 0 39.6 0 60 0 C60 19.8 60 39.6 60 60 C40.2 60 20.4 60 0 60 C0 40.2 0 20.4 0 0 Z " fill="#DE7D95" transform="translate(1680,1680)"/>
<path d="M0 0 C19.8 0 39.6 0 60 0 C60 19.8 60 39.6 60 60 C40.2 60 20.4 60 0 60 C0 40.2 0 20.4 0 0 Z " fill="#D46280" transform="translate(1260,1680)"/>
<path d="M0 0 C19.8 0 39.6 0 60 0 C60 19.8 60 39.6 60 60 C40.2 60 20.4 60 0 60 C0 40.2 0 20.4 0 0 Z " fill="#E59EB0" transform="translate(1140,1680)"/>
<path d="M0 0 C19.8 0 39.6 0 60 0 C60 19.8 60 39.6 60 60 C40.2 60 20.4 60 0 60 C0 40.2 0 20.4 0 0 Z " fill="#EAB1C0" transform="translate(1020,1680)"/>
<path d="M0 0 C19.8 0 39.6 0 60 0 C60 19.8 60 39.6 60 60 C40.2 60 20.4 60 0 60 C0 40.2 0 20.4 0 0 Z " fill="#101010" transform="translate(840,1680)"/>
<path d="M0 0 C19.8 0 39.6 0 60 0 C60 19.8 60 39.6 60 60 C40.2 60 20.4 60 0 60 C0 40.2 0 20.4 0 0 Z " fill="#131313" transform="translate(2160,1620)"/>
<path d="M0 0 C19.8 0 39.6 0 60 0 C60 19.8 60 39.6 60 60 C40.2 60 20.4 60 0 60 C0 40.2 0 20.4 0 0 Z " fill="#D9718C" transform="translate(1980,1620)"/>
<path d="M0 0 C19.8 0 39.6 0 60 0 C60 19.8 60 39.6 60 60 C40.2 60 20.4 60 0 60 C0 40.2 0 20.4 0 0 Z " fill="#AD5D73" transform="translate(1740,1620)"/>
<path d="M0 0 C19.8 0 39.6 0 60 0 C60 19.8 60 39.6 60 60 C40.2 60 20.4 60 0 60 C0 40.2 0 20.4 0 0 Z " fill="#D86E89" transform="translate(1380,1620)"/>
<path d="M0 0 C19.8 0 39.6 0 60 0 C60 19.8 60 39.6 60 60 C40.2 60 20.4 60 0 60 C0 40.2 0 20.4 0 0 Z " fill="#EFA9BB" transform="translate(1260,1620)"/>
<path d="M0 0 C19.8 0 39.6 0 60 0 C60 19.8 60 39.6 60 60 C40.2 60 20.4 60 0 60 C0 40.2 0 20.4 0 0 Z " fill="#DB7993" transform="translate(1080,1620)"/>
<path d="M0 0 C19.8 0 39.6 0 60 0 C60 19.8 60 39.6 60 60 C40.2 60 20.4 60 0 60 C0 40.2 0 20.4 0 0 Z " fill="#E190A5" transform="translate(1020,1620)"/>
<path d="M0 0 C19.8 0 39.6 0 60 0 C60 19.8 60 39.6 60 60 C40.2 60 20.4 60 0 60 C0 40.2 0 20.4 0 0 Z " fill="#000000" transform="translate(660,1620)"/>
<path d="M0 0 C19.8 0 39.6 0 60 0 C60 19.8 60 39.6 60 60 C40.2 60 20.4 60 0 60 C0 40.2 0 20.4 0 0 Z " fill="#DA7791" transform="translate(2220,1560)"/>
<path d="M0 0 C19.8 0 39.6 0 60 0 C60 19.8 60 39.6 60 60 C40.2 60 20.4 60 0 60 C0 40.2 0 20.4 0 0 Z " fill="#F4C9D4" transform="translate(840,1560)"/>
<path d="M0 0 C19.8 0 39.6 0 60 0 C60 19.8 60 39.6 60 60 C40.2 60 20.4 60 0 60 C0 40.2 0 20.4 0 0 Z " fill="#E08BA1" transform="translate(780,1560)"/>
<path d="M0 0 C19.8 0 39.6 0 60 0 C60 19.8 60 39.6 60 60 C40.2 60 20.4 60 0 60 C0 40.2 0 20.4 0 0 Z " fill="#D96483" transform="translate(1500,1500)"/>
<path d="M0 0 C19.8 0 39.6 0 60 0 C60 19.8 60 39.6 60 60 C40.2 60 20.4 60 0 60 C0 40.2 0 20.4 0 0 Z " fill="#E392A7" transform="translate(1440,1500)"/>
<path d="M0 0 C19.8 0 39.6 0 60 0 C60 19.8 60 39.6 60 60 C40.2 60 20.4 60 0 60 C0 40.2 0 20.4 0 0 Z " fill="#DF889E" transform="translate(1320,1500)"/>
<path d="M0 0 C19.8 0 39.6 0 60 0 C60 19.8 60 39.6 60 60 C40.2 60 20.4 60 0 60 C0 40.2 0 20.4 0 0 Z " fill="#F1BECC" transform="translate(900,1500)"/>
<path d="M0 0 C19.8 0 39.6 0 60 0 C60 19.8 60 39.6 60 60 C40.2 60 20.4 60 0 60 C0 40.2 0 20.4 0 0 Z " fill="#DA7590" transform="translate(780,1500)"/>
<path d="M0 0 C19.8 0 39.6 0 60 0 C60 19.8 60 39.6 60 60 C40.2 60 20.4 60 0 60 C0 40.2 0 20.4 0 0 Z " fill="#E691A7" transform="translate(2040,1440)"/>
<path d="M0 0 C19.8 0 39.6 0 60 0 C60 19.8 60 39.6 60 60 C40.2 60 20.4 60 0 60 C0 40.2 0 20.4 0 0 Z " fill="#DB738E" transform="translate(1860,1440)"/>
<path d="M0 0 C19.8 0 39.6 0 60 0 C60 19.8 60 39.6 60 60 C40.2 60 20.4 60 0 60 C0 40.2 0 20.4 0 0 Z " fill="#DD7590" transform="translate(1740,1440)"/>
<path d="M0 0 C19.8 0 39.6 0 60 0 C60 19.8 60 39.6 60 60 C40.2 60 20.4 60 0 60 C0 40.2 0 20.4 0 0 Z " fill="#000000" transform="translate(1440,1440)"/>
<path d="M0 0 C19.8 0 39.6 0 60 0 C60 19.8 60 39.6 60 60 C40.2 60 20.4 60 0 60 C0 40.2 0 20.4 0 0 Z " fill="#EDAABB" transform="translate(960,1440)"/>
<path d="M0 0 C19.8 0 39.6 0 60 0 C60 19.8 60 39.6 60 60 C40.2 60 20.4 60 0 60 C0 40.2 0 20.4 0 0 Z " fill="#AC5D72" transform="translate(780,1440)"/>
<path d="M0 0 C19.8 0 39.6 0 60 0 C60 19.8 60 39.6 60 60 C40.2 60 20.4 60 0 60 C0 40.2 0 20.4 0 0 Z " fill="#AF5E73" transform="translate(2220,1380)"/>
<path d="M0 0 C19.8 0 39.6 0 60 0 C60 19.8 60 39.6 60 60 C40.2 60 20.4 60 0 60 C0 40.2 0 20.4 0 0 Z " fill="#E08DA3" transform="translate(1680,1380)"/>
<path d="M0 0 C19.8 0 39.6 0 60 0 C60 19.8 60 39.6 60 60 C40.2 60 20.4 60 0 60 C0 40.2 0 20.4 0 0 Z " fill="#000000" transform="translate(1500,1380)"/>
<path d="M0 0 C19.8 0 39.6 0 60 0 C60 19.8 60 39.6 60 60 C40.2 60 20.4 60 0 60 C0 40.2 0 20.4 0 0 Z " fill="#E8AABA" transform="translate(1440,1380)"/>
<path d="M0 0 C19.8 0 39.6 0 60 0 C60 19.8 60 39.6 60 60 C40.2 60 20.4 60 0 60 C0 40.2 0 20.4 0 0 Z " fill="#D4617F" transform="translate(1380,1380)"/>
<path d="M0 0 C19.8 0 39.6 0 60 0 C60 19.8 60 39.6 60 60 C40.2 60 20.4 60 0 60 C0 40.2 0 20.4 0 0 Z " fill="#E0819A" transform="translate(1980,1320)"/>
<path d="M0 0 C19.8 0 39.6 0 60 0 C60 19.8 60 39.6 60 60 C40.2 60 20.4 60 0 60 C0 40.2 0 20.4 0 0 Z " fill="#D86F8B" transform="translate(1680,1320)"/>
<path d="M0 0 C19.8 0 39.6 0 60 0 C60 19.8 60 39.6 60 60 C40.2 60 20.4 60 0 60 C0 40.2 0 20.4 0 0 Z " fill="#080808" transform="translate(1560,1320)"/>
<path d="M0 0 C19.8 0 39.6 0 60 0 C60 19.8 60 39.6 60 60 C40.2 60 20.4 60 0 60 C0 40.2 0 20.4 0 0 Z " fill="#F2A0B5" transform="translate(1500,1320)"/>
<path d="M0 0 C19.8 0 39.6 0 60 0 C60 19.8 60 39.6 60 60 C40.2 60 20.4 60 0 60 C0 40.2 0 20.4 0 0 Z " fill="#AC5D72" transform="translate(1260,1320)"/>
<path d="M0 0 C19.8 0 39.6 0 60 0 C60 19.8 60 39.6 60 60 C40.2 60 20.4 60 0 60 C0 40.2 0 20.4 0 0 Z " fill="#E7A4B6" transform="translate(780,1320)"/>
<path d="M0 0 C19.8 0 39.6 0 60 0 C60 19.8 60 39.6 60 60 C40.2 60 20.4 60 0 60 C0 40.2 0 20.4 0 0 Z " fill="#C86D85" transform="translate(2100,1260)"/>
<path d="M0 0 C19.8 0 39.6 0 60 0 C60 19.8 60 39.6 60 60 C40.2 60 20.4 60 0 60 C0 40.2 0 20.4 0 0 Z " fill="#E1829A" transform="translate(1560,1260)"/>
<path d="M0 0 C19.8 0 39.6 0 60 0 C60 19.8 60 39.6 60 60 C40.2 60 20.4 60 0 60 C0 40.2 0 20.4 0 0 Z " fill="#EFA7BA" transform="translate(1380,1260)"/>
<path d="M0 0 C19.8 0 39.6 0 60 0 C60 19.8 60 39.6 60 60 C40.2 60 20.4 60 0 60 C0 40.2 0 20.4 0 0 Z " fill="#D7768F" transform="translate(960,1260)"/>
<path d="M0 0 C19.8 0 39.6 0 60 0 C60 19.8 60 39.6 60 60 C40.2 60 20.4 60 0 60 C0 40.2 0 20.4 0 0 Z " fill="#DC7A93" transform="translate(780,1260)"/>
<path d="M0 0 C19.8 0 39.6 0 60 0 C60 19.8 60 39.6 60 60 C40.2 60 20.4 60 0 60 C0 40.2 0 20.4 0 0 Z " fill="#111111" transform="translate(2460,1200)"/>
<path d="M0 0 C19.8 0 39.6 0 60 0 C60 19.8 60 39.6 60 60 C40.2 60 20.4 60 0 60 C0 40.2 0 20.4 0 0 Z " fill="#ECB8C6" transform="translate(2400,1200)"/>
<path d="M0 0 C19.8 0 39.6 0 60 0 C60 19.8 60 39.6 60 60 C40.2 60 20.4 60 0 60 C0 40.2 0 20.4 0 0 Z " fill="#DD8199" transform="translate(2220,1200)"/>
<path d="M0 0 C19.8 0 39.6 0 60 0 C60 19.8 60 39.6 60 60 C40.2 60 20.4 60 0 60 C0 40.2 0 20.4 0 0 Z " fill="#D86E8A" transform="translate(1860,1200)"/>
<path d="M0 0 C19.8 0 39.6 0 60 0 C60 19.8 60 39.6 60 60 C40.2 60 20.4 60 0 60 C0 40.2 0 20.4 0 0 Z " fill="#000000" transform="translate(660,1200)"/>
<path d="M0 0 C19.8 0 39.6 0 60 0 C60 19.8 60 39.6 60 60 C40.2 60 20.4 60 0 60 C0 40.2 0 20.4 0 0 Z " fill="#000000" transform="translate(2400,1140)"/>
<path d="M0 0 C19.8 0 39.6 0 60 0 C60 19.8 60 39.6 60 60 C40.2 60 20.4 60 0 60 C0 40.2 0 20.4 0 0 Z " fill="#E6A3B4" transform="translate(2340,1140)"/>
<path d="M0 0 C19.8 0 39.6 0 60 0 C60 19.8 60 39.6 60 60 C40.2 60 20.4 60 0 60 C0 40.2 0 20.4 0 0 Z " fill="#AC5D72" transform="translate(1800,1140)"/>
<path d="M0 0 C19.8 0 39.6 0 60 0 C60 19.8 60 39.6 60 60 C40.2 60 20.4 60 0 60 C0 40.2 0 20.4 0 0 Z " fill="#AE5E72" transform="translate(1560,1140)"/>
<path d="M0 0 C19.8 0 39.6 0 60 0 C60 19.8 60 39.6 60 60 C40.2 60 20.4 60 0 60 C0 40.2 0 20.4 0 0 Z " fill="#DC7690" transform="translate(1200,1140)"/>
<path d="M0 0 C19.8 0 39.6 0 60 0 C60 19.8 60 39.6 60 60 C40.2 60 20.4 60 0 60 C0 40.2 0 20.4 0 0 Z " fill="#000000" transform="translate(720,1140)"/>
<path d="M0 0 C19.8 0 39.6 0 60 0 C60 19.8 60 39.6 60 60 C40.2 60 20.4 60 0 60 C0 40.2 0 20.4 0 0 Z " fill="#000000" transform="translate(2340,1080)"/>
<path d="M0 0 C19.8 0 39.6 0 60 0 C60 19.8 60 39.6 60 60 C40.2 60 20.4 60 0 60 C0 40.2 0 20.4 0 0 Z " fill="#DA7590" transform="translate(2280,1080)"/>
<path d="M0 0 C19.8 0 39.6 0 60 0 C60 19.8 60 39.6 60 60 C40.2 60 20.4 60 0 60 C0 40.2 0 20.4 0 0 Z " fill="#BE627A" transform="translate(1800,1080)"/>
<path d="M0 0 C19.8 0 39.6 0 60 0 C60 19.8 60 39.6 60 60 C40.2 60 20.4 60 0 60 C0 40.2 0 20.4 0 0 Z " fill="#AC5D72" transform="translate(1080,1080)"/>
<path d="M0 0 C19.8 0 39.6 0 60 0 C60 19.8 60 39.6 60 60 C40.2 60 20.4 60 0 60 C0 40.2 0 20.4 0 0 Z " fill="#AF5E73" transform="translate(840,1080)"/>
<path d="M0 0 C19.8 0 39.6 0 60 0 C60 19.8 60 39.6 60 60 C40.2 60 20.4 60 0 60 C0 40.2 0 20.4 0 0 Z " fill="#DC879D" transform="translate(1920,1020)"/>
<path d="M0 0 C19.8 0 39.6 0 60 0 C60 19.8 60 39.6 60 60 C40.2 60 20.4 60 0 60 C0 40.2 0 20.4 0 0 Z " fill="#B96178" transform="translate(1860,1020)"/>
<path d="M0 0 C19.8 0 39.6 0 60 0 C60 19.8 60 39.6 60 60 C40.2 60 20.4 60 0 60 C0 40.2 0 20.4 0 0 Z " fill="#DE7892" transform="translate(1680,1020)"/>
<path d="M0 0 C19.8 0 39.6 0 60 0 C60 19.8 60 39.6 60 60 C40.2 60 20.4 60 0 60 C0 40.2 0 20.4 0 0 Z " fill="#B35F75" transform="translate(1260,1020)"/>
<path d="M0 0 C19.8 0 39.6 0 60 0 C60 19.8 60 39.6 60 60 C40.2 60 20.4 60 0 60 C0 40.2 0 20.4 0 0 Z " fill="#E795AA" transform="translate(1200,1020)"/>
<path d="M0 0 C19.8 0 39.6 0 60 0 C60 19.8 60 39.6 60 60 C40.2 60 20.4 60 0 60 C0 40.2 0 20.4 0 0 Z " fill="#B86178" transform="translate(1140,1020)"/>
<path d="M0 0 C19.8 0 39.6 0 60 0 C60 19.8 60 39.6 60 60 C40.2 60 20.4 60 0 60 C0 40.2 0 20.4 0 0 Z " fill="#DB6C89" transform="translate(1080,1020)"/>
<path d="M0 0 C19.8 0 39.6 0 60 0 C60 19.8 60 39.6 60 60 C40.2 60 20.4 60 0 60 C0 40.2 0 20.4 0 0 Z " fill="#000000" transform="translate(2160,960)"/>
<path d="M0 0 C19.8 0 39.6 0 60 0 C60 19.8 60 39.6 60 60 C40.2 60 20.4 60 0 60 C0 40.2 0 20.4 0 0 Z " fill="#D26D88" transform="translate(1860,960)"/>
<path d="M0 0 C19.8 0 39.6 0 60 0 C60 19.8 60 39.6 60 60 C40.2 60 20.4 60 0 60 C0 40.2 0 20.4 0 0 Z " fill="#B15F74" transform="translate(1200,960)"/>
<path d="M0 0 C19.8 0 39.6 0 60 0 C60 19.8 60 39.6 60 60 C40.2 60 20.4 60 0 60 C0 40.2 0 20.4 0 0 Z " fill="#ECABBC" transform="translate(900,960)"/>
<path d="M0 0 C19.8 0 39.6 0 60 0 C60 19.8 60 39.6 60 60 C40.2 60 20.4 60 0 60 C0 40.2 0 20.4 0 0 Z " fill="#000000" transform="translate(840,960)"/>
<path d="M0 0 C19.8 0 39.6 0 60 0 C60 19.8 60 39.6 60 60 C40.2 60 20.4 60 0 60 C0 40.2 0 20.4 0 0 Z " fill="#D86F8A" transform="translate(1980,900)"/>
<path d="M0 0 C19.8 0 39.6 0 60 0 C60 19.8 60 39.6 60 60 C40.2 60 20.4 60 0 60 C0 40.2 0 20.4 0 0 Z " fill="#DE8099" transform="translate(1680,900)"/>
<path d="M0 0 C19.8 0 39.6 0 60 0 C60 19.8 60 39.6 60 60 C40.2 60 20.4 60 0 60 C0 40.2 0 20.4 0 0 Z " fill="#E2879E" transform="translate(1320,900)"/>
<path d="M0 0 C19.8 0 39.6 0 60 0 C60 19.8 60 39.6 60 60 C40.2 60 20.4 60 0 60 C0 40.2 0 20.4 0 0 Z " fill="#D86F8B" transform="translate(1020,900)"/>
<path d="M0 0 C19.8 0 39.6 0 60 0 C60 19.8 60 39.6 60 60 C40.2 60 20.4 60 0 60 C0 40.2 0 20.4 0 0 Z " fill="#FFFFFF" transform="translate(2280,780)"/>
<path d="M0 0 C19.8 0 39.6 0 60 0 C60 19.8 60 39.6 60 60 C40.2 60 20.4 60 0 60 C0 40.2 0 20.4 0 0 Z " fill="#000000" transform="translate(1860,780)"/>
<path d="M0 0 C19.8 0 39.6 0 60 0 C60 19.8 60 39.6 60 60 C40.2 60 20.4 60 0 60 C0 40.2 0 20.4 0 0 Z " fill="#202020" transform="translate(1800,780)"/>
<path d="M0 0 C19.8 0 39.6 0 60 0 C60 19.8 60 39.6 60 60 C40.2 60 20.4 60 0 60 C0 40.2 0 20.4 0 0 Z " fill="#D76C88" transform="translate(1440,780)"/>
<path d="M0 0 C19.8 0 39.6 0 60 0 C60 19.8 60 39.6 60 60 C40.2 60 20.4 60 0 60 C0 40.2 0 20.4 0 0 Z " fill="#101010" transform="translate(1380,720)"/>
<path d="M0 0 C19.8 0 39.6 0 60 0 C60 19.8 60 39.6 60 60 C40.2 60 20.4 60 0 60 C0 40.2 0 20.4 0 0 Z " fill="#FFFFFF" transform="translate(780,660)"/>
<path d="M0 0 C19.8 0 39.6 0 60 0 C60 19.8 60 39.6 60 60 C40.2 60 20.4 60 0 60 C0 40.2 0 20.4 0 0 Z " fill="#CEE0E0" transform="translate(960,540)"/>
<path d="M0 0 C19.8 0 39.6 0 60 0 C60 19.8 60 39.6 60 60 C40.2 60 20.4 60 0 60 C0 40.2 0 20.4 0 0 Z " fill="#CEE0E0" transform="translate(1020,480)"/>
<path d="M0 0 C19.8 0 39.6 0 60 0 C60 19.8 60 39.6 60 60 C40.2 60 20.4 60 0 60 C0 40.2 0 20.4 0 0 Z " fill="#CEE0E0" transform="translate(900,480)"/>
<path d="M0 0 C19.8 0 39.6 0 60 0 C60 19.8 60 39.6 60 60 C40.2 60 20.4 60 0 60 C0 40.2 0 20.4 0 0 Z " fill="#CEE0E0" transform="translate(960,420)"/>
</svg>
