<?xml version="1.0" encoding="UTF-8"?>
<svg version="1.1" xmlns="http://www.w3.org/2000/svg" width="3000" height="3000">
<path d="M0 0 C990 0 1980 0 3000 0 C3000 990 3000 1980 3000 3000 C2010 3000 1020 3000 0 3000 C0 2010 0 1020 0 0 Z " fill="#FEFEFE" transform="translate(0,0)"/>
<path d="M0 0 C80.85 0 161.7 0 245 0 C245 20.13 245 40.26 245 61 C325.85 61 406.7 61 490 61 C490 40.87 490 20.74 490 0 C570.85 0 651.7 0 735 0 C735 20.13 735 40.26 735 61 C755.13 61 775.26 61 796 61 C796 101.26 796 141.52 796 183 C836.59 183 877.18 183 919 183 C919 142.74 919 102.48 919 61 C939.13 61 959.26 61 980 61 C980 40.87 980 20.74 980 0 C1060.85 0 1141.7 0 1225 0 C1225 20.13 1225 40.26 1225 61 C1305.85 61 1386.7 61 1470 61 C1470 40.87 1470 20.74 1470 0 C1550.85 0 1631.7 0 1715 0 C1715 20.13 1715 40.26 1715 61 C1775.39 61 1835.78 61 1898 61 C1898 81.13 1898 101.26 1898 122 C1938.59 122 1979.18 122 2021 122 C2021 142.13 2021 162.26 2021 183 C2000.54 183 1980.08 183 1959 183 C1959 203.46 1959 223.92 1959 245 C1938.87 245 1918.74 245 1898 245 C1898 265.13 1898 285.26 1898 306 C1877.87 306 1857.74 306 1837 306 C1837 326.13 1837 346.26 1837 367 C1816.87 367 1796.74 367 1776 367 C1776 387.13 1776 407.26 1776 428 C1796.13 428 1816.26 428 1837 428 C1837 508.85 1837 589.7 1837 673 C1857.13 673 1877.26 673 1898 673 C1898 753.85 1898 834.7 1898 918 C1877.87 918 1857.74 918 1837 918 C1837 998.85 1837 1079.7 1837 1163 C1816.87 1163 1796.74 1163 1776 1163 C1776 1203.59 1776 1244.18 1776 1286 C1755.87 1286 1735.74 1286 1715 1286 C1715 1427.24 1715 1568.48 1715 1714 C1694.54 1714 1674.08 1714 1653 1714 C1653 1734.13 1653 1754.26 1653 1775 C1632.87 1775 1612.74 1775 1592 1775 C1592 1795.46 1592 1815.92 1592 1837 C1551.74 1837 1511.48 1837 1470 1837 C1470 1816.54 1470 1796.08 1470 1775 C1449.54 1775 1429.08 1775 1408 1775 C1408 1754.87 1408 1734.74 1408 1714 C1387.87 1714 1367.74 1714 1347 1714 C1347 1653.28 1347 1592.56 1347 1530 C1306.74 1530 1266.48 1530 1225 1530 C1225 1550.46 1225 1570.92 1225 1592 C1144.15 1592 1063.3 1592 980 1592 C980 1612.13 980 1632.26 980 1653 C899.15 1653 818.3 1653 735 1653 C735 1632.87 735 1612.74 735 1592 C654.15 1592 573.3 1592 490 1592 C490 1571.54 490 1551.08 490 1530 C449.74 1530 409.48 1530 368 1530 C368 1590.72 368 1651.44 368 1714 C347.54 1714 327.08 1714 306 1714 C306 1734.13 306 1754.26 306 1775 C285.87 1775 265.74 1775 245 1775 C245 1795.46 245 1815.92 245 1837 C204.74 1837 164.48 1837 123 1837 C123 1816.54 123 1796.08 123 1775 C102.87 1775 82.74 1775 62 1775 C62 1754.87 62 1734.74 62 1714 C41.54 1714 21.08 1714 0 1714 C0 1572.76 0 1431.52 0 1286 C-20.13 1286 -40.26 1286 -61 1286 C-61 1245.41 -61 1204.82 -61 1163 C-81.13 1163 -101.26 1163 -122 1163 C-122 1082.15 -122 1001.3 -122 918 C-142.13 918 -162.26 918 -183 918 C-183 837.15 -183 756.3 -183 673 C-162.87 673 -142.74 673 -122 673 C-122 592.15 -122 511.3 -122 428 C-101.87 428 -81.74 428 -61 428 C-61 407.87 -61 387.74 -61 367 C-81.13 367 -101.26 367 -122 367 C-122 346.87 -122 326.74 -122 306 C-142.13 306 -162.26 306 -183 306 C-183 285.87 -183 265.74 -183 245 C-203.46 245 -223.92 245 -245 245 C-245 224.54 -245 204.08 -245 183 C-265.13 183 -285.26 183 -306 183 C-306 162.87 -306 142.74 -306 122 C-265.41 122 -224.82 122 -183 122 C-183 101.87 -183 81.74 -183 61 C-122.61 61 -62.22 61 0 61 C0 40.87 0 20.74 0 0 Z " fill="#FE74BE" transform="translate(667,1041)"/>
<path d="M0 0 C80.85 0 161.7 0 245 0 C245 20.13 245 40.26 245 61 C265.13 61 285.26 61 306 61 C306 81.46 306 101.92 306 123 C326.13 123 346.26 123 367 123 C367 143.13 367 163.26 367 184 C387.46 184 407.92 184 429 184 C429 264.85 429 345.7 429 429 C408.54 429 388.08 429 367 429 C367 449.13 367 469.26 367 490 C346.87 490 326.74 490 306 490 C306 510.13 306 530.26 306 551 C285.87 551 265.74 551 245 551 C245 631.85 245 712.7 245 796 C224.87 796 204.74 796 184 796 C184 816.13 184 836.26 184 857 C143.41 857 102.82 857 61 857 C61 836.87 61 816.74 61 796 C40.87 796 20.74 796 0 796 C0 715.15 0 634.3 0 551 C-20.13 551 -40.26 551 -61 551 C-61 530.87 -61 510.74 -61 490 C-81.13 490 -101.26 490 -122 490 C-122 469.87 -122 449.74 -122 429 C-142.46 429 -162.92 429 -184 429 C-184 348.15 -184 267.3 -184 184 C-163.54 184 -143.08 184 -122 184 C-122 163.87 -122 143.74 -122 123 C-101.87 123 -81.74 123 -61 123 C-61 102.54 -61 82.08 -61 61 C-40.87 61 -20.74 61 0 61 C0 40.87 0 20.74 0 0 Z " fill="#EDC55D" transform="translate(1402,61)"/>
<path d="M0 0 C202.29 0 404.58 0 613 0 C613 20.13 613 40.26 613 61 C653.26 61 693.52 61 735 61 C735 81.13 735 101.26 735 122 C775.26 122 815.52 122 857 122 C857 162.59 857 203.18 857 245 C816.74 245 776.48 245 735 245 C735 265.13 735 285.26 735 306 C694.74 306 654.48 306 613 306 C613 326.13 613 346.26 613 367 C410.71 367 208.42 367 0 367 C0 346.87 0 326.74 0 306 C-40.26 306 -80.52 306 -122 306 C-122 285.87 -122 265.74 -122 245 C-162.59 245 -203.18 245 -245 245 C-245 204.41 -245 163.82 -245 122 C-204.41 122 -163.82 122 -122 122 C-122 101.87 -122 81.74 -122 61 C-81.74 61 -41.48 61 0 61 C0 40.87 0 20.74 0 0 Z " fill="#FF74BE" transform="translate(1218,1898)"/>
<path d="M0 0 C80.85 0 161.7 0 245 0 C245 80.85 245 161.7 245 245 C204.41 245 163.82 245 122 245 C122 265.13 122 285.26 122 306 C101.87 306 81.74 306 61 306 C61 326.46 61 346.92 61 368 C81.13 368 101.26 368 122 368 C122 388.13 122 408.26 122 429 C101.87 429 81.74 429 61 429 C61 449.13 61 469.26 61 490 C0.61 490 -59.78 490 -122 490 C-122 469.87 -122 449.74 -122 429 C-142.46 429 -162.92 429 -184 429 C-184 348.15 -184 267.3 -184 184 C-163.54 184 -143.08 184 -122 184 C-122 163.87 -122 143.74 -122 123 C-101.87 123 -81.74 123 -61 123 C-61 102.54 -61 82.08 -61 61 C-40.87 61 -20.74 61 0 61 C0 40.87 0 20.74 0 0 Z " fill="#EDC55D" transform="translate(1402,61)"/>
<path d="M0 0 C20.13 0 40.26 0 61 0 C61 20.13 61 40.26 61 61 C121.72 61 182.44 61 245 61 C245 81.13 245 101.26 245 122 C224.87 122 204.74 122 184 122 C184 202.85 184 283.7 184 367 C163.87 367 143.74 367 123 367 C123 387.13 123 407.26 123 428 C82.41 428 41.82 428 0 428 C0 407.87 0 387.74 0 367 C-20.13 367 -40.26 367 -61 367 C-61 286.15 -61 205.3 -61 122 C-81.13 122 -101.26 122 -122 122 C-122 101.87 -122 81.74 -122 61 C-81.74 61 -41.48 61 0 61 C0 40.87 0 20.74 0 0 Z " fill="#030303" transform="translate(1463,490)"/>
<path d="M0 0 C202.29 0 404.58 0 613 0 C613 20.46 613 40.92 613 62 C410.71 62 208.42 62 0 62 C0 41.54 0 21.08 0 0 Z " fill="#030303" transform="translate(1218,2265)"/>
<path d="M0 0 C40.59 0 81.18 0 123 0 C123 100.98 123 201.96 123 306 C82.41 306 41.82 306 0 306 C0 205.02 0 104.04 0 0 Z " fill="#4A4A5D" transform="translate(1463,612)"/>
<path d="M0 0 C202.29 0 404.58 0 613 0 C613 20.13 613 40.26 613 61 C410.71 61 208.42 61 0 61 C0 40.87 0 20.74 0 0 Z " fill="#040404" transform="translate(1218,1837)"/>
<path d="M0 0 C60.72 0 121.44 0 184 0 C184 60.72 184 121.44 184 184 C123.28 184 62.56 184 0 184 C0 123.28 0 62.56 0 0 Z " fill="#040404" transform="translate(973,1592)"/>
<path d="M0 0 C60.39 0 120.78 0 183 0 C183 60.72 183 121.44 183 184 C122.61 184 62.22 184 0 184 C0 123.28 0 62.56 0 0 Z " fill="#040404" transform="translate(1892,1592)"/>
<path d="M0 0 C20.46 0 40.92 0 62 0 C62 141.24 62 282.48 62 428 C41.54 428 21.08 428 0 428 C0 286.76 0 145.52 0 0 Z " fill="#050505" transform="translate(2320,2327)"/>
<path d="M0 0 C20.46 0 40.92 0 62 0 C62 141.24 62 282.48 62 428 C41.54 428 21.08 428 0 428 C0 286.76 0 145.52 0 0 Z " fill="#000000" transform="translate(667,2327)"/>
<path d="M0 0 C60.72 0 121.44 0 184 0 C184 20.13 184 40.26 184 61 C143.74 61 103.48 61 62 61 C62 121.72 62 182.44 62 245 C41.54 245 21.08 245 0 245 C0 164.15 0 83.3 0 0 Z " fill="#000000" transform="translate(973,2510)"/>
<path d="M0 0 C60.39 0 120.78 0 183 0 C183 80.85 183 161.7 183 245 C162.87 245 142.74 245 122 245 C122 184.28 122 123.56 122 61 C81.74 61 41.48 61 0 61 C0 40.87 0 20.74 0 0 Z " fill="#141414" transform="translate(1892,2510)"/>
<path d="M0 0 C80.85 0 161.7 0 245 0 C245 20.13 245 40.26 245 61 C224.87 61 204.74 61 184 61 C184 81.13 184 101.26 184 122 C163.87 122 143.74 122 123 122 C123 101.87 123 81.74 123 61 C82.41 61 41.82 61 0 61 C0 40.87 0 20.74 0 0 Z " fill="#010001" transform="translate(2259,1347)"/>
<path d="M0 0 C80.85 0 161.7 0 245 0 C245 20.13 245 40.26 245 61 C204.41 61 163.82 61 122 61 C122 81.13 122 101.26 122 122 C101.87 122 81.74 122 61 122 C61 101.87 61 81.74 61 61 C40.87 61 20.74 61 0 61 C0 40.87 0 20.74 0 0 Z " fill="#010000" transform="translate(545,1347)"/>
<path d="M0 0 C80.85 0 161.7 0 245 0 C245 20.46 245 40.92 245 62 C164.15 62 83.3 62 0 62 C0 41.54 0 21.08 0 0 Z " fill="#000000" transform="translate(1647,2571)"/>
<path d="M0 0 C80.85 0 161.7 0 245 0 C245 20.46 245 40.92 245 62 C164.15 62 83.3 62 0 62 C0 41.54 0 21.08 0 0 Z " fill="#181818" transform="translate(1157,2571)"/>
<path d="M0 0 C20.46 0 40.92 0 62 0 C62 80.85 62 161.7 62 245 C41.54 245 21.08 245 0 245 C0 164.15 0 83.3 0 0 Z " fill="#040404" transform="translate(1769,245)"/>
<path d="M0 0 C20.46 0 40.92 0 62 0 C62 80.85 62 161.7 62 245 C41.54 245 21.08 245 0 245 C0 164.15 0 83.3 0 0 Z " fill="#030303" transform="translate(1218,245)"/>
<path d="M0 0 C80.85 0 161.7 0 245 0 C245 20.13 245 40.26 245 61 C164.15 61 83.3 61 0 61 C0 40.87 0 20.74 0 0 Z " fill="#000000" transform="translate(1402,2633)"/>
<path d="M0 0 C20.13 0 40.26 0 61 0 C61 80.85 61 161.7 61 245 C40.87 245 20.74 245 0 245 C0 164.15 0 83.3 0 0 Z " fill="#000000" transform="translate(2443,1959)"/>
<path d="M0 0 C20.13 0 40.26 0 61 0 C61 80.85 61 161.7 61 245 C40.87 245 20.74 245 0 245 C0 164.15 0 83.3 0 0 Z " fill="#000000" transform="translate(545,1959)"/>
<path d="M0 0 C20.13 0 40.26 0 61 0 C61 80.85 61 161.7 61 245 C40.87 245 20.74 245 0 245 C0 164.15 0 83.3 0 0 Z " fill="#000000" transform="translate(2504,1714)"/>
<path d="M0 0 C20.13 0 40.26 0 61 0 C61 80.85 61 161.7 61 245 C40.87 245 20.74 245 0 245 C0 164.15 0 83.3 0 0 Z " fill="#000000" transform="translate(484,1714)"/>
<path d="M0 0 C20.13 0 40.26 0 61 0 C61 80.85 61 161.7 61 245 C40.87 245 20.74 245 0 245 C0 164.15 0 83.3 0 0 Z " fill="#000000" transform="translate(545,1469)"/>
<path d="M0 0 C20.13 0 40.26 0 61 0 C61 80.85 61 161.7 61 245 C40.87 245 20.74 245 0 245 C0 164.15 0 83.3 0 0 Z " fill="#000000" transform="translate(2443,1469)"/>
<path d="M0 0 C80.85 0 161.7 0 245 0 C245 20.13 245 40.26 245 61 C164.15 61 83.3 61 0 61 C0 40.87 0 20.74 0 0 Z " fill="#000000" transform="translate(1892,1102)"/>
<path d="M0 0 C80.85 0 161.7 0 245 0 C245 20.13 245 40.26 245 61 C164.15 61 83.3 61 0 61 C0 40.87 0 20.74 0 0 Z " fill="#000000" transform="translate(912,1102)"/>
<path d="M0 0 C80.85 0 161.7 0 245 0 C245 20.13 245 40.26 245 61 C164.15 61 83.3 61 0 61 C0 40.87 0 20.74 0 0 Z " fill="#000000" transform="translate(2137,1041)"/>
<path d="M0 0 C80.85 0 161.7 0 245 0 C245 20.13 245 40.26 245 61 C164.15 61 83.3 61 0 61 C0 40.87 0 20.74 0 0 Z " fill="#000000" transform="translate(1647,1041)"/>
<path d="M0 0 C80.85 0 161.7 0 245 0 C245 20.13 245 40.26 245 61 C164.15 61 83.3 61 0 61 C0 40.87 0 20.74 0 0 Z " fill="#000000" transform="translate(1157,1041)"/>
<path d="M0 0 C80.85 0 161.7 0 245 0 C245 20.13 245 40.26 245 61 C164.15 61 83.3 61 0 61 C0 40.87 0 20.74 0 0 Z " fill="#000000" transform="translate(667,1041)"/>
<path d="M0 0 C20.13 0 40.26 0 61 0 C61 20.13 61 40.26 61 61 C81.13 61 101.26 61 122 61 C122 81.13 122 101.26 122 122 C61.28 122 0.56 122 -62 122 C-62 101.87 -62 81.74 -62 61 C-41.54 61 -21.08 61 0 61 C0 40.87 0 20.74 0 0 Z " fill="#EDC55D" transform="translate(1586,429)"/>
<path d="M0 0 C20.13 0 40.26 0 61 0 C61 20.46 61 40.92 61 62 C81.13 62 101.26 62 122 62 C122 82.13 122 102.26 122 123 C101.87 123 81.74 123 61 123 C61 143.13 61 163.26 61 184 C40.87 184 20.74 184 0 184 C0 123.28 0 62.56 0 0 Z " fill="#EDC55C" transform="translate(1280,367)"/>
<path d="M0 0 C80.85 0 161.7 0 245 0 C245 20.13 245 40.26 245 61 C164.15 61 83.3 61 0 61 C0 40.87 0 20.74 0 0 Z " fill="#040404" transform="translate(1402,61)"/>
<path d="M0 0 C60.72 0 121.44 0 184 0 C184 20.46 184 40.92 184 62 C123.28 62 62.56 62 0 62 C0 41.54 0 21.08 0 0 Z " fill="#EEC969" transform="translate(1402,122)"/>
<path d="M0 0 C40.59 0 81.18 0 123 0 C123 40.59 123 81.18 123 123 C102.54 123 82.08 123 61 123 C61 102.54 61 82.08 61 61 C40.87 61 20.74 61 0 61 C0 40.87 0 20.74 0 0 Z " fill="#000000" transform="translate(361,1163)"/>
<path d="M0 0 C40.59 0 81.18 0 123 0 C123 20.13 123 40.26 123 61 C102.54 61 82.08 61 61 61 C61 81.46 61 101.92 61 123 C40.87 123 20.74 123 0 123 C0 82.41 0 41.82 0 0 Z " fill="#000000" transform="translate(2565,1163)"/>
<path d="M0 0 C20.13 0 40.26 0 61 0 C61 40.59 61 81.18 61 123 C20.74 123 -19.52 123 -61 123 C-61 102.87 -61 82.74 -61 62 C-40.87 62 -20.74 62 0 62 C0 41.54 0 21.08 0 0 Z " fill="#EFCD73" transform="translate(1341,122)"/>
<path d="M0 0 C60.39 0 120.78 0 183 0 C183 20.13 183 40.26 183 61 C122.61 61 62.22 61 0 61 C0 40.87 0 20.74 0 0 Z " fill="#000000" transform="translate(2382,1102)"/>
<path d="M0 0 C60.39 0 120.78 0 183 0 C183 20.13 183 40.26 183 61 C122.61 61 62.22 61 0 61 C0 40.87 0 20.74 0 0 Z " fill="#000000" transform="translate(484,1102)"/>
<path d="M0 0 C20.46 0 40.92 0 62 0 C62 40.59 62 81.18 62 123 C41.54 123 21.08 123 0 123 C0 82.41 0 41.82 0 0 Z " fill="#040404" transform="translate(973,2020)"/>
<path d="M0 0 C40.59 0 81.18 0 123 0 C123 20.46 123 40.92 123 62 C82.41 62 41.82 62 0 62 C0 41.54 0 21.08 0 0 Z " fill="#040404" transform="translate(1463,1224)"/>
<path d="M0 0 C20.46 0 40.92 0 62 0 C62 40.59 62 81.18 62 123 C41.54 123 21.08 123 0 123 C0 82.41 0 41.82 0 0 Z " fill="#2E2E38" transform="translate(1524,673)"/>
<path d="M0 0 C40.59 0 81.18 0 123 0 C123 20.46 123 40.92 123 62 C82.41 62 41.82 62 0 62 C0 41.54 0 21.08 0 0 Z " fill="#0C0C0C" transform="translate(973,367)"/>
<path d="M0 0 C40.26 0 80.52 0 122 0 C122 20.46 122 40.92 122 62 C81.74 62 41.48 62 0 62 C0 41.54 0 21.08 0 0 Z " fill="#000000" transform="translate(2137,2816)"/>
<path d="M0 0 C40.26 0 80.52 0 122 0 C122 20.46 122 40.92 122 62 C81.74 62 41.48 62 0 62 C0 41.54 0 21.08 0 0 Z " fill="#000000" transform="translate(790,2816)"/>
<path d="M0 0 C20.46 0 40.92 0 62 0 C62 40.26 62 80.52 62 122 C41.54 122 21.08 122 0 122 C0 81.74 0 41.48 0 0 Z " fill="#010101" transform="translate(2320,2633)"/>
<path d="M0 0 C40.26 0 80.52 0 122 0 C122 20.46 122 40.92 122 62 C81.74 62 41.48 62 0 62 C0 41.54 0 21.08 0 0 Z " fill="#0C0C0C" transform="translate(1280,2571)"/>
<path d="M0 0 C20.46 0 40.92 0 62 0 C62 40.26 62 80.52 62 122 C41.54 122 21.08 122 0 122 C0 81.74 0 41.48 0 0 Z " fill="#1D1D1D" transform="translate(2320,2327)"/>
<path d="M0 0 C20.13 0 40.26 0 61 0 C61 40.59 61 81.18 61 123 C40.87 123 20.74 123 0 123 C0 82.41 0 41.82 0 0 Z " fill="#000000" transform="translate(606,2204)"/>
<path d="M0 0 C20.13 0 40.26 0 61 0 C61 40.59 61 81.18 61 123 C40.87 123 20.74 123 0 123 C0 82.41 0 41.82 0 0 Z " fill="#000000" transform="translate(2382,2204)"/>
<path d="M0 0 C20.13 0 40.26 0 61 0 C61 40.59 61 81.18 61 123 C40.87 123 20.74 123 0 123 C0 82.41 0 41.82 0 0 Z " fill="#040404" transform="translate(2014,2020)"/>
<path d="M0 0 C20.13 0 40.26 0 61 0 C61 40.59 61 81.18 61 123 C40.87 123 20.74 123 0 123 C0 82.41 0 41.82 0 0 Z " fill="#040404" transform="translate(1647,2020)"/>
<path d="M0 0 C20.13 0 40.26 0 61 0 C61 40.59 61 81.18 61 123 C40.87 123 20.74 123 0 123 C0 82.41 0 41.82 0 0 Z " fill="#151515" transform="translate(1341,2020)"/>
<path d="M0 0 C40.59 0 81.18 0 123 0 C123 20.13 123 40.26 123 61 C82.41 61 41.82 61 0 61 C0 40.87 0 20.74 0 0 Z " fill="#1A1A1A" transform="translate(1463,857)"/>
<path d="M0 0 C20.13 0 40.26 0 61 0 C61 40.26 61 80.52 61 122 C40.87 122 20.74 122 0 122 C0 81.74 0 41.48 0 0 Z " fill="#050505" transform="translate(2014,2633)"/>
<path d="M0 0 C40.26 0 80.52 0 122 0 C122 20.13 122 40.26 122 61 C81.74 61 41.48 61 0 61 C0 40.87 0 20.74 0 0 Z " fill="#050505" transform="translate(1831,2204)"/>
<path d="M0 0 C40.26 0 80.52 0 122 0 C122 20.13 122 40.26 122 61 C81.74 61 41.48 61 0 61 C0 40.87 0 20.74 0 0 Z " fill="#040404" transform="translate(1096,2204)"/>
<path d="M0 0 C40.26 0 80.52 0 122 0 C122 20.13 122 40.26 122 61 C81.74 61 41.48 61 0 61 C0 40.87 0 20.74 0 0 Z " fill="#040404" transform="translate(1831,1898)"/>
<path d="M0 0 C40.26 0 80.52 0 122 0 C122 20.13 122 40.26 122 61 C81.74 61 41.48 61 0 61 C0 40.87 0 20.74 0 0 Z " fill="#040404" transform="translate(1096,1898)"/>
<path d="M0 0 C20.13 0 40.26 0 61 0 C61 40.26 61 80.52 61 122 C40.87 122 20.74 122 0 122 C0 81.74 0 41.48 0 0 Z " fill="#040404" transform="translate(1586,1102)"/>
<path d="M0 0 C20.13 0 40.26 0 61 0 C61 40.26 61 80.52 61 122 C40.87 122 20.74 122 0 122 C0 81.74 0 41.48 0 0 Z " fill="#020202" transform="translate(1402,1102)"/>
<path d="M0 0 C40.26 0 80.52 0 122 0 C122 20.13 122 40.26 122 61 C81.74 61 41.48 61 0 61 C0 40.87 0 20.74 0 0 Z " fill="#040404" transform="translate(1953,490)"/>
<path d="M0 0 C40.26 0 80.52 0 122 0 C122 20.13 122 40.26 122 61 C81.74 61 41.48 61 0 61 C0 40.87 0 20.74 0 0 Z " fill="#F8E7BD" transform="translate(1341,490)"/>
<path d="M0 0 C40.26 0 80.52 0 122 0 C122 20.13 122 40.26 122 61 C81.74 61 41.48 61 0 61 C0 40.87 0 20.74 0 0 Z " fill="#F4DDA1" transform="translate(1280,245)"/>
<path d="M0 0 C40.26 0 80.52 0 122 0 C122 20.13 122 40.26 122 61 C81.74 61 41.48 61 0 61 C0 40.87 0 20.74 0 0 Z " fill="#040404" transform="translate(1035,184)"/>
<path d="M0 0 C20.46 0 40.92 0 62 0 C62 20.46 62 40.92 62 62 C41.54 62 21.08 62 0 62 C0 41.54 0 21.08 0 0 Z " fill="#0C0C0C" transform="translate(2320,2571)"/>
<path d="M0 0 C20.46 0 40.92 0 62 0 C62 20.46 62 40.92 62 62 C41.54 62 21.08 62 0 62 C0 41.54 0 21.08 0 0 Z " fill="#0A0A0A" transform="translate(422,1224)"/>
<path d="M0 0 C20.46 0 40.92 0 62 0 C62 20.46 62 40.92 62 62 C41.54 62 21.08 62 0 62 C0 41.54 0 21.08 0 0 Z " fill="#040404" transform="translate(973,122)"/>
<path d="M0 0 C20.13 0 40.26 0 61 0 C61 20.46 61 40.92 61 62 C40.87 62 20.74 62 0 62 C0 41.54 0 21.08 0 0 Z " fill="#161616" transform="translate(2137,2816)"/>
<path d="M0 0 C20.46 0 40.92 0 62 0 C62 20.13 62 40.26 62 61 C41.54 61 21.08 61 0 61 C0 40.87 0 20.74 0 0 Z " fill="#000000" transform="translate(2075,2755)"/>
<path d="M0 0 C20.46 0 40.92 0 62 0 C62 20.13 62 40.26 62 61 C41.54 61 21.08 61 0 61 C0 40.87 0 20.74 0 0 Z " fill="#0E0E0E" transform="translate(973,2694)"/>
<path d="M0 0 C20.46 0 40.92 0 62 0 C62 20.13 62 40.26 62 61 C41.54 61 21.08 61 0 61 C0 40.87 0 20.74 0 0 Z " fill="#080808" transform="translate(667,2694)"/>
<path d="M0 0 C20.13 0 40.26 0 61 0 C61 20.46 61 40.92 61 62 C40.87 62 20.74 62 0 62 C0 41.54 0 21.08 0 0 Z " fill="#000000" transform="translate(2014,2571)"/>
<path d="M0 0 C20.13 0 40.26 0 61 0 C61 20.46 61 40.92 61 62 C40.87 62 20.74 62 0 62 C0 41.54 0 21.08 0 0 Z " fill="#000000" transform="translate(1280,2571)"/>
<path d="M0 0 C20.13 0 40.26 0 61 0 C61 20.46 61 40.92 61 62 C40.87 62 20.74 62 0 62 C0 41.54 0 21.08 0 0 Z " fill="#020202" transform="translate(1157,2571)"/>
<path d="M0 0 C20.46 0 40.92 0 62 0 C62 20.13 62 40.26 62 61 C41.54 61 21.08 61 0 61 C0 40.87 0 20.74 0 0 Z " fill="#060606" transform="translate(2320,2327)"/>
<path d="M0 0 C20.46 0 40.92 0 62 0 C62 20.13 62 40.26 62 61 C41.54 61 21.08 61 0 61 C0 40.87 0 20.74 0 0 Z " fill="#0A0A0A" transform="translate(667,2327)"/>
<path d="M0 0 C20.13 0 40.26 0 61 0 C61 20.46 61 40.92 61 62 C40.87 62 20.74 62 0 62 C0 41.54 0 21.08 0 0 Z " fill="#0A0A0A" transform="translate(545,1469)"/>
<path d="M0 0 C20.13 0 40.26 0 61 0 C61 20.46 61 40.92 61 62 C40.87 62 20.74 62 0 62 C0 41.54 0 21.08 0 0 Z " fill="#FF7FC3" transform="translate(2504,1224)"/>
<path d="M0 0 C20.13 0 40.26 0 61 0 C61 20.46 61 40.92 61 62 C40.87 62 20.74 62 0 62 C0 41.54 0 21.08 0 0 Z " fill="#040203" transform="translate(2137,1224)"/>
<path d="M0 0 C20.13 0 40.26 0 61 0 C61 20.46 61 40.92 61 62 C40.87 62 20.74 62 0 62 C0 41.54 0 21.08 0 0 Z " fill="#14090F" transform="translate(851,1224)"/>
<path d="M0 0 C20.46 0 40.92 0 62 0 C62 20.13 62 40.26 62 61 C41.54 61 21.08 61 0 61 C0 40.87 0 20.74 0 0 Z " fill="#4A4A5D" transform="translate(1524,796)"/>
<path d="M0 0 C20.46 0 40.92 0 62 0 C62 20.13 62 40.26 62 61 C41.54 61 21.08 61 0 61 C0 40.87 0 20.74 0 0 Z " fill="#707077" transform="translate(1524,612)"/>
<path d="M0 0 C20.46 0 40.92 0 62 0 C62 20.13 62 40.26 62 61 C41.54 61 21.08 61 0 61 C0 40.87 0 20.74 0 0 Z " fill="#040404" transform="translate(1524,429)"/>
<path d="M0 0 C20.13 0 40.26 0 61 0 C61 20.46 61 40.92 61 62 C40.87 62 20.74 62 0 62 C0 41.54 0 21.08 0 0 Z " fill="#EEC967" transform="translate(1647,367)"/>
<path d="M0 0 C20.13 0 40.26 0 61 0 C61 20.46 61 40.92 61 62 C40.87 62 20.74 62 0 62 C0 41.54 0 21.08 0 0 Z " fill="#050505" transform="translate(1463,367)"/>
<path d="M0 0 C20.13 0 40.26 0 61 0 C61 20.46 61 40.92 61 62 C40.87 62 20.74 62 0 62 C0 41.54 0 21.08 0 0 Z " fill="#EFCB6C" transform="translate(1341,367)"/>
<path d="M0 0 C20.13 0 40.26 0 61 0 C61 20.46 61 40.92 61 62 C40.87 62 20.74 62 0 62 C0 41.54 0 21.08 0 0 Z " fill="#040404" transform="translate(1035,367)"/>
<path d="M0 0 C20.46 0 40.92 0 62 0 C62 20.13 62 40.26 62 61 C41.54 61 21.08 61 0 61 C0 40.87 0 20.74 0 0 Z " fill="#040404" transform="translate(1524,306)"/>
<path d="M0 0 C20.13 0 40.26 0 61 0 C61 20.46 61 40.92 61 62 C40.87 62 20.74 62 0 62 C0 41.54 0 21.08 0 0 Z " fill="#040404" transform="translate(1647,122)"/>
<path d="M0 0 C20.13 0 40.26 0 61 0 C61 20.46 61 40.92 61 62 C40.87 62 20.74 62 0 62 C0 41.54 0 21.08 0 0 Z " fill="#F5DEA3" transform="translate(1402,122)"/>
<path d="M0 0 C20.13 0 40.26 0 61 0 C61 20.46 61 40.92 61 62 C40.87 62 20.74 62 0 62 C0 41.54 0 21.08 0 0 Z " fill="#040404" transform="translate(1341,122)"/>
<path d="M0 0 C20.13 0 40.26 0 61 0 C61 20.13 61 40.26 61 61 C40.87 61 20.74 61 0 61 C0 40.87 0 20.74 0 0 Z " fill="#000000" transform="translate(2259,2755)"/>
<path d="M0 0 C20.13 0 40.26 0 61 0 C61 20.13 61 40.26 61 61 C40.87 61 20.74 61 0 61 C0 40.87 0 20.74 0 0 Z " fill="#000000" transform="translate(912,2755)"/>
<path d="M0 0 C20.13 0 40.26 0 61 0 C61 20.13 61 40.26 61 61 C40.87 61 20.74 61 0 61 C0 40.87 0 20.74 0 0 Z " fill="#000000" transform="translate(729,2755)"/>
<path d="M0 0 C20.13 0 40.26 0 61 0 C61 20.13 61 40.26 61 61 C40.87 61 20.74 61 0 61 C0 40.87 0 20.74 0 0 Z " fill="#F6F6F6" transform="translate(1402,2694)"/>
<path d="M0 0 C20.13 0 40.26 0 61 0 C61 20.13 61 40.26 61 61 C40.87 61 20.74 61 0 61 C0 40.87 0 20.74 0 0 Z " fill="#1A1A1A" transform="translate(2014,2633)"/>
<path d="M0 0 C20.13 0 40.26 0 61 0 C61 20.13 61 40.26 61 61 C40.87 61 20.74 61 0 61 C0 40.87 0 20.74 0 0 Z " fill="#0C0C0C" transform="translate(1402,2633)"/>
<path d="M0 0 C20.13 0 40.26 0 61 0 C61 20.13 61 40.26 61 61 C40.87 61 20.74 61 0 61 C0 40.87 0 20.74 0 0 Z " fill="#F4F4F4" transform="translate(1280,2633)"/>
<path d="M0 0 C20.13 0 40.26 0 61 0 C61 20.13 61 40.26 61 61 C40.87 61 20.74 61 0 61 C0 40.87 0 20.74 0 0 Z " fill="#F5F5F5" transform="translate(1035,2633)"/>
<path d="M0 0 C20.13 0 40.26 0 61 0 C61 20.13 61 40.26 61 61 C40.87 61 20.74 61 0 61 C0 40.87 0 20.74 0 0 Z " fill="#000000" transform="translate(1892,2510)"/>
<path d="M0 0 C20.13 0 40.26 0 61 0 C61 20.13 61 40.26 61 61 C40.87 61 20.74 61 0 61 C0 40.87 0 20.74 0 0 Z " fill="#080406" transform="translate(606,2204)"/>
<path d="M0 0 C20.13 0 40.26 0 61 0 C61 20.13 61 40.26 61 61 C40.87 61 20.74 61 0 61 C0 40.87 0 20.74 0 0 Z " fill="#040404" transform="translate(1953,2143)"/>
<path d="M0 0 C20.13 0 40.26 0 61 0 C61 20.13 61 40.26 61 61 C40.87 61 20.74 61 0 61 C0 40.87 0 20.74 0 0 Z " fill="#040404" transform="translate(1035,2143)"/>
<path d="M0 0 C20.13 0 40.26 0 61 0 C61 20.13 61 40.26 61 61 C40.87 61 20.74 61 0 61 C0 40.87 0 20.74 0 0 Z " fill="#040404" transform="translate(1341,2082)"/>
<path d="M0 0 C20.13 0 40.26 0 61 0 C61 20.13 61 40.26 61 61 C40.87 61 20.74 61 0 61 C0 40.87 0 20.74 0 0 Z " fill="#040404" transform="translate(1953,1959)"/>
<path d="M0 0 C20.13 0 40.26 0 61 0 C61 20.13 61 40.26 61 61 C40.87 61 20.74 61 0 61 C0 40.87 0 20.74 0 0 Z " fill="#040404" transform="translate(1035,1959)"/>
<path d="M0 0 C20.13 0 40.26 0 61 0 C61 20.13 61 40.26 61 61 C40.87 61 20.74 61 0 61 C0 40.87 0 20.74 0 0 Z " fill="#171717" transform="translate(2504,1286)"/>
<path d="M0 0 C20.13 0 40.26 0 61 0 C61 20.13 61 40.26 61 61 C40.87 61 20.74 61 0 61 C0 40.87 0 20.74 0 0 Z " fill="#040203" transform="translate(2198,1286)"/>
<path d="M0 0 C20.13 0 40.26 0 61 0 C61 20.13 61 40.26 61 61 C40.87 61 20.74 61 0 61 C0 40.87 0 20.74 0 0 Z " fill="#040203" transform="translate(790,1286)"/>
<path d="M0 0 C20.13 0 40.26 0 61 0 C61 20.13 61 40.26 61 61 C40.87 61 20.74 61 0 61 C0 40.87 0 20.74 0 0 Z " fill="#000000" transform="translate(484,1286)"/>
<path d="M0 0 C20.13 0 40.26 0 61 0 C61 20.13 61 40.26 61 61 C40.87 61 20.74 61 0 61 C0 40.87 0 20.74 0 0 Z " fill="#121212" transform="translate(1096,1102)"/>
<path d="M0 0 C20.13 0 40.26 0 61 0 C61 20.13 61 40.26 61 61 C40.87 61 20.74 61 0 61 C0 40.87 0 20.74 0 0 Z " fill="#040404" transform="translate(1463,857)"/>
<path d="M0 0 C20.13 0 40.26 0 61 0 C61 20.13 61 40.26 61 61 C40.87 61 20.74 61 0 61 C0 40.87 0 20.74 0 0 Z " fill="#2E2E38" transform="translate(1463,796)"/>
<path d="M0 0 C20.13 0 40.26 0 61 0 C61 20.13 61 40.26 61 61 C40.87 61 20.74 61 0 61 C0 40.87 0 20.74 0 0 Z " fill="#040404" transform="translate(1892,612)"/>
<path d="M0 0 C20.13 0 40.26 0 61 0 C61 20.13 61 40.26 61 61 C40.87 61 20.74 61 0 61 C0 40.87 0 20.74 0 0 Z " fill="#30303B" transform="translate(1463,612)"/>
<path d="M0 0 C20.13 0 40.26 0 61 0 C61 20.13 61 40.26 61 61 C40.87 61 20.74 61 0 61 C0 40.87 0 20.74 0 0 Z " fill="#040404" transform="translate(1831,551)"/>
<path d="M0 0 C20.13 0 40.26 0 61 0 C61 20.13 61 40.26 61 61 C40.87 61 20.74 61 0 61 C0 40.87 0 20.74 0 0 Z " fill="#040404" transform="translate(1708,490)"/>
<path d="M0 0 C20.13 0 40.26 0 61 0 C61 20.13 61 40.26 61 61 C40.87 61 20.74 61 0 61 C0 40.87 0 20.74 0 0 Z " fill="#EEC865" transform="translate(1647,490)"/>
<path d="M0 0 C20.13 0 40.26 0 61 0 C61 20.13 61 40.26 61 61 C40.87 61 20.74 61 0 61 C0 40.87 0 20.74 0 0 Z " fill="#F5DFA5" transform="translate(1341,490)"/>
<path d="M0 0 C20.13 0 40.26 0 61 0 C61 20.13 61 40.26 61 61 C40.87 61 20.74 61 0 61 C0 40.87 0 20.74 0 0 Z " fill="#040404" transform="translate(1280,490)"/>
<path d="M0 0 C20.13 0 40.26 0 61 0 C61 20.13 61 40.26 61 61 C40.87 61 20.74 61 0 61 C0 40.87 0 20.74 0 0 Z " fill="#040404" transform="translate(1892,429)"/>
<path d="M0 0 C20.13 0 40.26 0 61 0 C61 20.13 61 40.26 61 61 C40.87 61 20.74 61 0 61 C0 40.87 0 20.74 0 0 Z " fill="#F5DFA5" transform="translate(1586,429)"/>
<path d="M0 0 C20.13 0 40.26 0 61 0 C61 20.13 61 40.26 61 61 C40.87 61 20.74 61 0 61 C0 40.87 0 20.74 0 0 Z " fill="#EFCA6C" transform="translate(1402,429)"/>
<path d="M0 0 C20.13 0 40.26 0 61 0 C61 20.13 61 40.26 61 61 C40.87 61 20.74 61 0 61 C0 40.87 0 20.74 0 0 Z " fill="#EFCB6E" transform="translate(1280,306)"/>
<path d="M0 0 C20.13 0 40.26 0 61 0 C61 20.13 61 40.26 61 61 C40.87 61 20.74 61 0 61 C0 40.87 0 20.74 0 0 Z " fill="#101010" transform="translate(1096,306)"/>
<path d="M0 0 C20.13 0 40.26 0 61 0 C61 20.13 61 40.26 61 61 C40.87 61 20.74 61 0 61 C0 40.87 0 20.74 0 0 Z " fill="#F2D68B" transform="translate(1708,245)"/>
<path d="M0 0 C20.13 0 40.26 0 61 0 C61 20.13 61 40.26 61 61 C40.87 61 20.74 61 0 61 C0 40.87 0 20.74 0 0 Z " fill="#F1D281" transform="translate(1586,245)"/>
<path d="M0 0 C20.13 0 40.26 0 61 0 C61 20.13 61 40.26 61 61 C40.87 61 20.74 61 0 61 C0 40.87 0 20.74 0 0 Z " fill="#F0CE75" transform="translate(1463,245)"/>
<path d="M0 0 C20.13 0 40.26 0 61 0 C61 20.13 61 40.26 61 61 C40.87 61 20.74 61 0 61 C0 40.87 0 20.74 0 0 Z " fill="#F2D589" transform="translate(1280,245)"/>
<path d="M0 0 C20.13 0 40.26 0 61 0 C61 20.13 61 40.26 61 61 C40.87 61 20.74 61 0 61 C0 40.87 0 20.74 0 0 Z " fill="#040404" transform="translate(1708,184)"/>
<path d="M0 0 C20.13 0 40.26 0 61 0 C61 20.13 61 40.26 61 61 C40.87 61 20.74 61 0 61 C0 40.87 0 20.74 0 0 Z " fill="#EFCA6B" transform="translate(1586,184)"/>
<path d="M0 0 C20.13 0 40.26 0 61 0 C61 20.13 61 40.26 61 61 C40.87 61 20.74 61 0 61 C0 40.87 0 20.74 0 0 Z " fill="#040404" transform="translate(1280,184)"/>
<path d="M0 0 C20.13 0 40.26 0 61 0 C61 20.13 61 40.26 61 61 C40.87 61 20.74 61 0 61 C0 40.87 0 20.74 0 0 Z " fill="#040404" transform="translate(1157,61)"/>
<path d="M0 0 C20.13 0 40.26 0 61 0 C61 20.13 61 40.26 61 61 C40.87 61 20.74 61 0 61 C0 40.87 0 20.74 0 0 Z " fill="#040404" transform="translate(1096,0)"/>
</svg>
