<?xml version="1.0" encoding="UTF-8"?>
<svg version="1.1" xmlns="http://www.w3.org/2000/svg" width="500" height="500">
<path d="M0 0 C7.92 0 15.84 0 24 0 C24 3.63 24 7.26 24 11 C27.63 11 31.26 11 35 11 C35 14.63 35 18.26 35 22 C42.26 22 49.52 22 57 22 C57 18.37 57 14.74 57 11 C60.63 11 64.26 11 68 11 C68 7.37 68 3.74 68 0 C75.92 0 83.84 0 92 0 C92 3.63 92 7.26 92 11 C95.63 11 99.26 11 103 11 C104.47360305 13.94720609 104.14233596 16.93035368 104.1328125 20.16015625 C104.13424759 21.21776405 104.13424759 21.21776405 104.13571167 22.29673767 C104.13639229 23.78710011 104.13454621 25.27746552 104.13037109 26.76782227 C104.12501318 29.05687058 104.13032409 31.34572337 104.13671875 33.63476562 C104.1360581 35.0807296 104.13477722 36.52669346 104.1328125 37.97265625 C104.13483673 38.66118179 104.13686096 39.34970734 104.13894653 40.05909729 C104.11495764 44.88504236 104.11495764 44.88504236 103 46 C99.3308423 46.14310287 95.67284559 46.04221662 92 46 C92 49.96 92 53.92 92 58 C88.37 58 84.74 58 81 58 C81 64.93 81 71.86 81 79 C84.63 79 88.26 79 92 79 C92 82.63 92 86.26 92 90 C103.22 90 114.44 90 126 90 C126 93.96 126 97.92 126 102 C133.59 102 141.18 102 149 102 C149 105.63 149 109.26 149 113 C152.63 113 156.26 113 160 113 C160 116.96 160 120.92 160 125 C161.629375 124.979375 163.25875 124.95875 164.9375 124.9375 C166.62499341 124.91613932 168.31391034 124.92794489 170 125 C171 126 171 126 171.09765625 128.28515625 C171.06510417 130.85677083 171.03255208 133.42838542 171 136 C174.96 136 178.92 136 183 136 C183 139.63 183 143.26 183 147 C186.63 147 190.26 147 194 147 C194 150.63 194 154.26 194 158 C196.6915625 157.9690625 196.6915625 157.9690625 199.4375 157.9375 C201.29166122 157.9161878 203.14712498 157.92773498 205 158 C206 159 206 159 206.11352539 161.13305664 C206.10828857 162.04949951 206.10305176 162.96594238 206.09765625 163.91015625 C206.09443359 164.89951172 206.09121094 165.88886719 206.08789062 166.90820312 C206.07951172 167.94912109 206.07113281 168.99003906 206.0625 170.0625 C206.05798828 171.10728516 206.05347656 172.15207031 206.04882812 173.22851562 C206.03699927 175.81903454 206.01906319 178.40952422 206 181 C209.63 181 213.26 181 217 181 C217 188.59 217 196.18 217 204 C220.96 204 224.92 204 229 204 C229 215.22 229 226.44 229 238 C232.63 238 236.26 238 240 238 C240 241.96 240 245.92 240 250 C243.63 250 247.26 250 251 250 C251 283.99 251 317.98 251 353 C247.04 353 243.08 353 239 353 C237.86211266 350.72422532 237.87657937 349.48966576 237.87974548 346.96310425 C237.87768349 345.69685715 237.87768349 345.69685715 237.87557983 344.4050293 C237.87917511 343.477146 237.88277039 342.5492627 237.88647461 341.59326172 C237.88632858 340.61761261 237.88618256 339.6419635 237.8860321 338.63674927 C237.88673065 335.40103966 237.89452034 332.1653871 237.90234375 328.9296875 C237.90420814 326.69052156 237.90563194 324.45135521 237.90663147 322.21218872 C237.91045502 316.31027099 237.92028393 310.40837776 237.93133545 304.50646973 C237.94155306 298.48738944 237.94612984 292.4683052 237.95117188 286.44921875 C237.96190633 274.63280172 237.97898082 262.81640289 238 251 C235.03 251 232.06 251 229 251 C229.00785522 252.99148071 229.00785522 252.99148071 229.01586914 255.02319336 C229.03391426 259.93008759 229.04543021 264.83697887 229.05493164 269.74389648 C229.05997298 271.87118014 229.06680591 273.99846031 229.07543945 276.12573242 C229.08751379 279.17627826 229.09323014 282.22677845 229.09765625 285.27734375 C229.10281754 286.23462875 229.10797882 287.19191376 229.11329651 288.1782074 C229.11340981 289.49946373 229.11340981 289.49946373 229.11352539 290.84741211 C229.115746 291.62684677 229.11796661 292.40628143 229.12025452 293.20933533 C229 295 229 295 228 296 C224.37 296 220.74 296 217 296 C217 307.22 217 318.44 217 330 C213.37 330 209.74 330 206 330 C206.0309375 332.6915625 206.0309375 332.6915625 206.0625 335.4375 C206.0838122 337.29166122 206.07226502 339.14712498 206 341 C205.67 341.33 205.34 341.66 205 342 C201.37 342 197.74 342 194 342 C194 349.26 194 356.52 194 364 C190.37 364 186.74 364 183 364 C183 367.63 183 371.26 183 375 C179.04 375 175.08 375 171 375 C171 378.96 171 382.92 171 387 C167.37 387 163.74 387 160 387 C160 390.63 160 394.26 160 398 C152.74 398 145.48 398 138 398 C138 401.3 138 404.6 138 408 C141.63 408 145.26 408 149 408 C149 411.96 149 415.92 149 420 C152.63 420 156.26 420 160 420 C160 442.44 160 464.88 160 488 C167.59 488 175.18 488 183 488 C183 491.96 183 495.92 183 500 C171.45 500 159.9 500 148 500 C148 473.93 148 447.86 148 421 C144.04 421 140.08 421 136 421 C136 417.37 136 413.74 136 410 C129.07 410 122.14 410 115 410 C115 413.63 115 417.26 115 421 C103.78 421 92.56 421 81 421 C81 424.63 81 428.26 81 432 C57.69525364 433.64365969 34.31019626 433.44080683 11 432 C11 428.37 11 424.74 11 421 C-0.22 421 -11.44 421 -23 421 C-23 417.37 -23 413.74 -23 410 C-29.93 410 -36.86 410 -44 410 C-44 413.63 -44 417.26 -44 421 C-47.96 421 -51.92 421 -56 421 C-56 447.07 -56 473.14 -56 500 C-67.55 500 -79.1 500 -91 500 C-91 496.04 -91 492.08 -91 488 C-83.41 488 -75.82 488 -68 488 C-68 465.56 -68 443.12 -68 420 C-64.37 420 -60.74 420 -57 420 C-57.020625 418.205625 -57.04125 416.41125 -57.0625 414.5625 C-57.0838122 412.70833878 -57.07226502 410.85287502 -57 409 C-56 408 -56 408 -53.71484375 407.90234375 C-51.14322917 407.93489583 -48.57161458 407.96744792 -46 408 C-46 404.7 -46 401.4 -46 398 C-53.26 398 -60.52 398 -68 398 C-68 394.37 -68 390.74 -68 387 C-71.63 387 -75.26 387 -79 387 C-79 383.04 -79 379.08 -79 375 C-82.96 375 -86.92 375 -91 375 C-91 371.37 -91 367.74 -91 364 C-94.63 364 -98.26 364 -102 364 C-102 356.74 -102 349.48 -102 342 C-105.63 342 -109.26 342 -113 342 C-114 341 -114 341 -114.09765625 338.49609375 C-114.04882812 334.24804688 -114.04882812 334.24804688 -114 330 C-117.63 330 -121.26 330 -125 330 C-125 318.78 -125 307.56 -125 296 C-128.63 296 -132.26 296 -136 296 C-137 295 -137 295 -137.12025452 293.17137146 C-137.11803391 292.37417191 -137.11581329 291.57697235 -137.11352539 290.75561523 C-137.11344986 289.85475693 -137.11337433 288.95389862 -137.11329651 288.02574158 C-137.10813522 287.04658279 -137.10297394 286.06742401 -137.09765625 285.05859375 C-137.0962413 284.06118668 -137.09482635 283.0637796 -137.09336853 282.03614807 C-137.08775114 278.83656876 -137.07519571 275.63705831 -137.0625 272.4375 C-137.05748724 270.27408955 -137.05292395 268.11067801 -137.04882812 265.94726562 C-137.03777606 260.63148371 -137.02049979 255.31575354 -137 250 C-139.97 250 -142.94 250 -146 250 C-145.99777939 251.27564316 -145.99555878 252.55128632 -145.99327087 253.86558533 C-145.97304173 265.85893148 -145.95802896 277.85227419 -145.94818783 289.84563351 C-145.94295842 296.0122492 -145.93585973 302.17885118 -145.92456055 308.34545898 C-145.91373371 314.29116006 -145.9077236 320.23684789 -145.90512276 326.18255806 C-145.90326814 328.45646943 -145.89964683 330.73038004 -145.89426994 333.00428581 C-145.88706222 336.1772712 -145.88600894 339.35020117 -145.88647461 342.52319336 C-145.88287933 343.47337341 -145.87928406 344.42355347 -145.87557983 345.40252686 C-145.88594784 351.88594784 -145.88594784 351.88594784 -147 353 C-150.96 353 -154.92 353 -159 353 C-159 319.01 -159 285.02 -159 250 C-155.37 250 -151.74 250 -148 250 C-148 246.04 -148 242.08 -148 238 C-144.37 238 -140.74 238 -137 238 C-137.00785522 236.50835327 -137.00785522 236.50835327 -137.01586914 234.98657227 C-137.03392041 231.30966079 -137.04543246 227.63275325 -137.05493164 223.95581055 C-137.05997157 222.36205386 -137.0668035 220.76830181 -137.07543945 219.17456055 C-137.08751999 216.88849747 -137.09323155 214.60249533 -137.09765625 212.31640625 C-137.10281754 211.59973282 -137.10797882 210.88305939 -137.11329651 210.14466858 C-137.11349263 208.42936328 -137.06192007 206.71418734 -137 205 C-136.67 204.67 -136.34 204.34 -136 204 C-132.37 204 -128.74 204 -125 204 C-125 196.41 -125 188.82 -125 181 C-121.37 181 -117.74 181 -114 181 C-114 173.41 -114 165.82 -114 158 C-110.04 158 -106.08 158 -102 158 C-102 154.37 -102 150.74 -102 147 C-98.37 147 -94.74 147 -91 147 C-91 143.37 -91 139.74 -91 136 C-87.04 136 -83.08 136 -79 136 C-79 132.37 -79 128.74 -79 125 C-75.37 125 -71.74 125 -68 125 C-68 121.04 -68 117.08 -68 113 C-64.37 113 -60.74 113 -57 113 C-57 109.37 -57 105.74 -57 102 C-49.41 102 -41.82 102 -34 102 C-34 98.04 -34 94.08 -34 90 C-22.78 90 -11.56 90 0 90 C0 86.37 0 82.74 0 79 C3.63 79 7.26 79 11 79 C11 72.07 11 65.14 11 58 C7.37 58 3.74 58 0 58 C0 54.04 0 50.08 0 46 C-2.6915625 46.0309375 -2.6915625 46.0309375 -5.4375 46.0625 C-7.29166122 46.0838122 -9.14712498 46.07226502 -11 46 C-12.70492881 44.29507119 -12.1280442 42.15465739 -12.13894653 39.88098145 C-12.13591019 38.81067688 -12.13591019 38.81067688 -12.1328125 37.71875 C-12.13376923 36.99006714 -12.13472595 36.26138428 -12.13571167 35.51062012 C-12.13639335 33.9672029 -12.13453988 32.42378283 -12.13037109 30.88037109 C-12.12502262 28.510026 -12.13031642 26.13987041 -12.13671875 23.76953125 C-12.13605797 22.27343708 -12.1347768 20.77734303 -12.1328125 19.28125 C-12.13483673 18.56771362 -12.13686096 17.85417725 -12.13894653 17.11901855 C-12.11495191 12.11495191 -12.11495191 12.11495191 -11 11 C-7.3308423 10.85689713 -3.67284559 10.95778338 0 11 C0 7.37 0 3.74 0 0 Z " fill="#027D01" transform="translate(204,0)"/>
<path d="M0 0 C7.92 0 15.84 0 24 0 C24 3.63 24 7.26 24 11 C27.63 11 31.26 11 35 11 C35 14.63 35 18.26 35 22 C42.26 22 49.52 22 57 22 C57 18.37 57 14.74 57 11 C60.63 11 64.26 11 68 11 C68 7.37 68 3.74 68 0 C75.92 0 83.84 0 92 0 C92 3.63 92 7.26 92 11 C95.63 11 99.26 11 103 11 C104.47360305 13.94720609 104.14233596 16.93035368 104.1328125 20.16015625 C104.13376923 20.86522812 104.13472595 21.57029999 104.13571167 22.29673767 C104.13639229 23.78710011 104.13454621 25.27746552 104.13037109 26.76782227 C104.12501318 29.05687058 104.13032409 31.34572337 104.13671875 33.63476562 C104.1360581 35.0807296 104.13477722 36.52669346 104.1328125 37.97265625 C104.13483673 38.66118179 104.13686096 39.34970734 104.13894653 40.05909729 C104.11495764 44.88504236 104.11495764 44.88504236 103 46 C99.3308423 46.14310287 95.67284559 46.04221662 92 46 C92 49.96 92 53.92 92 58 C88.37 58 84.74 58 81 58 C81 65.26 81 72.52 81 80 C84.3 80 87.6 80 91 80 C91 83.63 91 87.26 91 91 C61.3 91 31.6 91 1 91 C1 87.37 1 83.74 1 80 C4.3 80 7.6 80 11 80 C11 72.74 11 65.48 11 58 C7.37 58 3.74 58 0 58 C0 54.04 0 50.08 0 46 C-2.6915625 46.0309375 -2.6915625 46.0309375 -5.4375 46.0625 C-7.29166122 46.0838122 -9.14712498 46.07226502 -11 46 C-12.70492881 44.29507119 -12.1280442 42.15465739 -12.13894653 39.88098145 C-12.1369223 39.16744507 -12.13489807 38.45390869 -12.1328125 37.71875 C-12.13376923 36.99006714 -12.13472595 36.26138428 -12.13571167 35.51062012 C-12.13639335 33.9672029 -12.13453988 32.42378283 -12.13037109 30.88037109 C-12.12502262 28.510026 -12.13031642 26.13987041 -12.13671875 23.76953125 C-12.13605797 22.27343708 -12.1347768 20.77734303 -12.1328125 19.28125 C-12.13483673 18.56771362 -12.13686096 17.85417725 -12.13894653 17.11901855 C-12.11495191 12.11495191 -12.11495191 12.11495191 -11 11 C-7.3308423 10.85689713 -3.67284559 10.95778338 0 11 C0 7.37 0 3.74 0 0 Z " fill="#027C03" transform="translate(204,0)"/>
<path d="M0 0 C3.96 0 7.92 0 12 0 C12 3.63 12 7.26 12 11 C8.37 11 4.74 11 1 11 C1 14.96 1 18.92 1 23 C-2.63 23 -6.26 23 -10 23 C-9.9690625 25.4440625 -9.9690625 25.4440625 -9.9375 27.9375 C-9.91613932 29.62499341 -9.92794489 31.31391034 -10 33 C-11 34 -11 34 -13.13305664 34.11352539 C-14.50772095 34.10567017 -14.50772095 34.10567017 -15.91015625 34.09765625 C-16.89951172 34.09443359 -17.88886719 34.09121094 -18.90820312 34.08789062 C-19.94912109 34.07951172 -20.99003906 34.07113281 -22.0625 34.0625 C-23.10728516 34.05798828 -24.15207031 34.05347656 -25.22851562 34.04882812 C-27.81903454 34.03699927 -30.40952422 34.01906319 -33 34 C-33 37.63 -33 41.26 -33 45 C-44.22 45 -55.44 45 -67 45 C-67 48.96 -67 52.92 -67 57 C-97.36 57 -127.72 57 -159 57 C-159 53.04 -159 49.08 -159 45 C-170.22 45 -181.44 45 -193 45 C-193 41.37 -193 37.74 -193 34 C-194.57652344 34.01160156 -196.15304688 34.02320313 -197.77734375 34.03515625 C-199.83072799 34.04453243 -201.8841135 34.05363282 -203.9375 34.0625 C-204.97841797 34.07087891 -206.01933594 34.07925781 -207.09179688 34.08789062 C-208.57583008 34.09272461 -208.57583008 34.09272461 -210.08984375 34.09765625 C-211.46450806 34.10551147 -211.46450806 34.10551147 -212.86694336 34.11352539 C-215 34 -215 34 -216 33 C-216.14257189 29.66381769 -216.04228157 26.34024394 -216 23 C-219.63 23 -223.26 23 -227 23 C-227 19.04 -227 15.08 -227 11 C-223.04 11 -219.08 11 -215 11 C-215 14.63 -215 18.26 -215 22 C-207.41 22 -199.82 22 -192 22 C-192 25.63 -192 29.26 -192 33 C-180.78 33 -169.56 33 -158 33 C-158 36.63 -158 40.26 -158 44 C-128.3 44 -98.6 44 -68 44 C-68 40.37 -68 36.74 -68 33 C-56.78 33 -45.56 33 -34 33 C-34 29.37 -34 25.74 -34 22 C-26.41 22 -18.82 22 -11 22 C-11 18.37 -11 14.74 -11 11 C-10 10 -10 10 -7.71484375 9.90234375 C-5.14322917 9.93489583 -2.57161458 9.96744792 0 10 C0 6.7 0 3.4 0 0 Z " fill="#000F00" transform="translate(363,296)"/>
<path d="M0 0 C3.96 0 7.92 0 12 0 C12 10.89 12 21.78 12 33 C15.96 33 19.92 33 24 33 C24 36.63 24 40.26 24 44 C25.32765381 43.99476318 26.65530762 43.98952637 28.02319336 43.98413086 C32.93008759 43.96608574 37.83697887 43.95456979 42.74389648 43.94506836 C44.87118014 43.94002702 46.99846031 43.93319409 49.12573242 43.92456055 C52.17627826 43.91248621 55.22677845 43.90676986 58.27734375 43.90234375 C59.71327126 43.89460182 59.71327126 43.89460182 61.1782074 43.88670349 C62.49946373 43.88659019 62.49946373 43.88659019 63.84741211 43.88647461 C64.62684677 43.884254 65.40628143 43.88203339 66.20933533 43.87974548 C68 44 68 44 69 45 C69.14310287 48.6691577 69.04221662 52.32715441 69 56 C72.96 56 76.92 56 81 56 C81 59.63 81 63.26 81 67 C84.63 67 88.26 67 92 67 C92 78.55 92 90.1 92 102 C88.04 102 84.08 102 80 102 C80 105.63 80 109.26 80 113 C76.37 113 72.74 113 69 113 C69 116.96 69 120.92 69 125 C61.41 125 53.82 125 46 125 C46 132.26 46 139.52 46 147 C42.37 147 38.74 147 35 147 C35 139.74 35 132.48 35 125 C31.04 125 27.08 125 23 125 C23 121.04 23 117.08 23 113 C19.37 113 15.74 113 12 113 C12 109.37 12 105.74 12 102 C8.04 102 4.08 102 0 102 C-0.09765625 93.50390625 -0.09765625 93.50390625 0 91 C1 90 1 90 3.50390625 89.90234375 C6.3359375 89.93489583 9.16796875 89.96744792 12 90 C12 93.63 12 97.26 12 101 C14.6915625 100.9690625 14.6915625 100.9690625 17.4375 100.9375 C19.29166122 100.9161878 21.14712498 100.92773498 23 101 C25.83823106 103.83823106 24 108.98613514 24 113 C38.52 113 53.04 113 68 113 C68 109.37 68 105.74 68 102 C68.33 101.67 68.66 101.34 69 101 C72.63 101 76.26 101 80 101 C80 90.11 80 79.22 80 68 C76.04 68 72.08 68 68 68 C68 64.37 68 60.74 68 57 C53.15 57 38.3 57 23 57 C23 53.04 23 49.08 23 45 C19.37 45 15.74 45 12 45 C12 41.37 12 37.74 12 34 C8.04 34 4.08 34 0 34 C0 22.78 0 11.56 0 0 Z " fill="#398C14" transform="translate(204,171)"/>
<path d="M0 0 C7.92 0 15.84 0 24 0 C24 3.63 24 7.26 24 11 C27.63 11 31.26 11 35 11 C36.47360305 13.94720609 36.14233596 16.93035368 36.1328125 20.16015625 C36.13376923 20.86522812 36.13472595 21.57029999 36.13571167 22.29673767 C36.13639229 23.78710011 36.13454621 25.27746552 36.13037109 26.76782227 C36.12501318 29.05687058 36.13032409 31.34572337 36.13671875 33.63476562 C36.1360581 35.0807296 36.13477722 36.52669346 36.1328125 37.97265625 C36.13483673 38.66118179 36.13686096 39.34970734 36.13894653 40.05909729 C36.11495764 44.88504236 36.11495764 44.88504236 35 46 C31.3308423 46.14310287 27.67284559 46.04221662 24 46 C24 49.96 24 53.92 24 58 C20.37 58 16.74 58 13 58 C13 64.93 13 71.86 13 79 C12.67 79 12.34 79 12 79 C12 71.74 12 64.48 12 57 C8.37 57 4.74 57 1 57 C1 64.59 1 72.18 1 80 C-14.18 80 -29.36 80 -45 80 C-45 68.45 -45 56.9 -45 45 C-38.48547065 44.97707945 -31.97108047 44.9571556 -25.45654297 44.94506836 C-23.23909024 44.94003091 -21.02164084 44.93320078 -18.80419922 44.92456055 C-15.62206195 44.91246928 -12.43996849 44.9067659 -9.2578125 44.90234375 C-8.26194122 44.89718246 -7.26606995 44.89202118 -6.24002075 44.88670349 C-5.31921722 44.88662796 -4.3984137 44.88655243 -3.44970703 44.88647461 C-2.6369632 44.884254 -1.82421936 44.88203339 -0.98684692 44.87974548 C1 45 1 45 3 46 C2.67 48.97 2.34 51.94 2 55 C4.97 55 7.94 55 11 55 C10.91621094 54.28972656 10.83242188 53.57945313 10.74609375 52.84765625 C10.59333984 51.46900391 10.59333984 51.46900391 10.4375 50.0625 C10.28087891 48.68771484 10.28087891 48.68771484 10.12109375 47.28515625 C10.06115234 46.15400391 10.06115234 46.15400391 10 45 C11 44 11 44 13.28515625 43.90234375 C14.20167969 43.91394531 15.11820312 43.92554688 16.0625 43.9375 C16.98160156 43.94652344 17.90070313 43.95554688 18.84765625 43.96484375 C19.55792969 43.97644531 20.26820313 43.98804688 21 44 C21 42.68 21 41.36 21 40 C21.66 40 22.32 40 23 40 C23 30.76 23 21.52 23 12 C12.11 12 1.22 12 -10 12 C-10 15.3 -10 18.6 -10 22 C-10.33 22 -10.66 22 -11 22 C-11 18.37 -11 14.74 -11 11 C-7.37 11 -3.74 11 0 11 C0 7.37 0 3.74 0 0 Z " fill="#141C14" transform="translate(272,0)"/>
<path d="M0 0 C3.63 0 7.26 0 11 0 C11 11.22 11 22.44 11 34 C14.63 34 18.26 34 22 34 C22 37.63 22 41.26 22 45 C17.05 45.495 17.05 45.495 12 46 C12.00523682 47.32765381 12.01047363 48.65530762 12.01586914 50.02319336 C12.03391426 54.93008759 12.04543021 59.83697887 12.05493164 64.74389648 C12.05997298 66.87118014 12.06680591 68.99846031 12.07543945 71.12573242 C12.08751379 74.17627826 12.09323014 77.22677845 12.09765625 80.27734375 C12.10281754 81.23462875 12.10797882 82.19191376 12.11329651 83.1782074 C12.11337204 84.05904495 12.11344757 84.93988251 12.11352539 85.84741211 C12.115746 86.62684677 12.11796661 87.40628143 12.12025452 88.20933533 C12 90 12 90 11 91 C7.37 91 3.74 91 0 91 C0 102.22 0 113.44 0 125 C-3.63 125 -7.26 125 -11 125 C-10.979375 126.794375 -10.95875 128.58875 -10.9375 130.4375 C-10.9161878 132.29166122 -10.92773498 134.14712498 -11 136 C-11.33 136.33 -11.66 136.66 -12 137 C-15.63 137 -19.26 137 -23 137 C-23 144.26 -23 151.52 -23 159 C-26.63 159 -30.26 159 -34 159 C-34 162.63 -34 166.26 -34 170 C-34.33 170 -34.66 170 -35 170 C-35 166.37 -35 162.74 -35 159 C-38.63 159 -42.26 159 -46 159 C-46 158.67 -46 158.34 -46 158 C-42.37 158 -38.74 158 -35 158 C-35 150.41 -35 142.82 -35 135 C-31.37 135 -27.74 135 -24 135 C-24 131.37 -24 127.74 -24 124 C-20.04 124 -16.08 124 -12 124 C-12 112.78 -12 101.56 -12 90 C-8.37 90 -4.74 90 -1 90 C-1.00222061 88.88722183 -1.00444122 87.77444366 -1.00672913 86.62794495 C-1.02695955 76.1650787 -1.04197166 65.70221639 -1.05181217 55.23933506 C-1.05704125 49.85966238 -1.06413935 44.48000542 -1.07543945 39.1003418 C-1.08626745 33.91325157 -1.09227665 28.72617651 -1.09487724 23.53907585 C-1.09673165 21.5554372 -1.10035256 19.57179942 -1.10573006 17.58816719 C-1.11293932 14.81990864 -1.11399099 12.05171362 -1.11352539 9.28344727 C-1.11712067 8.45482681 -1.12071594 7.62620636 -1.12442017 6.7724762 C-1.11405216 1.11405216 -1.11405216 1.11405216 0 0 Z " fill="#020202" transform="translate(421,205)"/>
<path d="M0 0 C3.63 0 7.26 0 11 0 C11 3.96 11 7.92 11 12 C7.37 12 3.74 12 0 12 C0 15.63 0 19.26 0 23 C-7.26 23 -14.52 23 -22 23 C-22 26.3 -22 29.6 -22 33 C-18.37 33 -14.74 33 -11 33 C-11 36.96 -11 40.92 -11 45 C-7.37 45 -3.74 45 0 45 C0 67.44 0 89.88 0 113 C7.59 113 15.18 113 23 113 C23 116.96 23 120.92 23 125 C11.45 125 -0.1 125 -12 125 C-12 98.93 -12 72.86 -12 46 C-15.96 46 -19.92 46 -24 46 C-24 42.04 -24 38.08 -24 34 C-31.26 34 -38.52 34 -46 34 C-46 30.04 -46 26.08 -46 22 C-38.74 22 -31.48 22 -24 22 C-24 18.37 -24 14.74 -24 11 C-16.08 11 -8.16 11 0 11 C0 7.37 0 3.74 0 0 Z " fill="#060606" transform="translate(364,375)"/>
<path d="M0 0 C7.59 0 15.18 0 23 0 C23 3.63 23 7.26 23 11 C15.74 11 8.48 11 1 11 C1 14.96 1 18.92 1 23 C-2.96 23 -6.92 23 -11 23 C-11 49.07 -11 75.14 -11 102 C-22.55 102 -34.1 102 -46 102 C-46 98.04 -46 94.08 -46 90 C-38.41 90 -30.82 90 -23 90 C-23 67.56 -23 45.12 -23 22 C-19.37 22 -15.74 22 -12 22 C-12 18.37 -12 14.74 -12 11 C-8.04 11 -4.08 11 0 11 C0 7.37 0 3.74 0 0 Z " fill="#040303" transform="translate(159,398)"/>
<path d="M0 0 C7.26 0 14.52 0 22 0 C22 3.63 22 7.26 22 11 C25.96 11 29.92 11 34 11 C34 14.63 34 18.26 34 22 C37.63 22 41.26 22 45 22 C45 25.96 45 29.92 45 34 C48.63 34 52.26 34 56 34 C56 41.26 56 48.52 56 56 C48.74 56 41.48 56 34 56 C34 52.37 34 48.74 34 45 C30.04 45 26.08 45 22 45 C22 41.37 22 37.74 22 34 C18.37 34 14.74 34 11 34 C11 30.04 11 26.08 11 22 C7.37 22 3.74 22 0 22 C0 14.74 0 7.48 0 0 Z " fill="#D7B06F" transform="translate(307,137)"/>
<path d="M0 0 C3.63 0 7.26 0 11 0 C11 7.59 11 15.18 11 23 C26.18 23 41.36 23 57 23 C57 15.41 57 7.82 57 0 C60.63 0 64.26 0 68 0 C68.33 7.26 68.66 14.52 69 22 C72.3 22.33 75.6 22.66 79 23 C79 26.63 79 30.26 79 34 C49.3 34 19.6 34 -11 34 C-11 30.37 -11 26.74 -11 23 C-7.7 22.67 -4.4 22.34 -1 22 C-0.67 14.74 -0.34 7.48 0 0 Z " fill="#010401" transform="translate(216,57)"/>
<path d="M0 0 C0.33 0 0.66 0 1 0 C1 11.22 1 22.44 1 34 C-2.63 34 -6.26 34 -10 34 C-9.83766876 35.59645355 -9.67533752 37.1929071 -9.50808716 38.83773804 C-9.00121715 44.43866036 -8.85813891 49.97544653 -8.87060547 55.59619141 C-8.86885315 56.5910556 -8.86710083 57.5859198 -8.86529541 58.6109314 C-8.86093847 61.85782682 -8.86379069 65.10466665 -8.8671875 68.3515625 C-8.86651323 70.62031057 -8.86554217 72.88905857 -8.86428833 75.1578064 C-8.86282018 79.8898793 -8.86493945 84.62193322 -8.86962891 89.35400391 C-8.87535841 95.43280335 -8.87202139 101.51155895 -8.86605644 107.59035683 C-8.86245474 112.26386856 -8.86358703 116.93736977 -8.86618423 121.61088181 C-8.86685291 123.85408915 -8.86602716 126.09729745 -8.86370468 128.34050369 C-8.86118108 131.45961321 -8.86501308 134.57864986 -8.87060547 137.69775391 C-8.86858124 138.63065247 -8.86655701 139.56355103 -8.86447144 140.52471924 C-8.88573074 146.88573074 -8.88573074 146.88573074 -10 148 C-13.96 148 -17.92 148 -22 148 C-22 114.01 -22 80.02 -22 45 C-18.37 45 -14.74 45 -11 45 C-11 41.04 -11 37.08 -11 33 C-7.37 33 -3.74 33 0 33 C0 22.11 0 11.22 0 0 Z " fill="#272627" transform="translate(67,205)"/>
<path d="M0 0 C3.63 0 7.26 0 11 0 C11 33.99 11 67.98 11 103 C7.04 103 3.08 103 -1 103 C-2.73141861 99.53716279 -2.14715083 95.52866874 -2.14526367 91.71679688 C-2.14862228 90.75411392 -2.1519809 89.79143097 -2.15544128 88.79957581 C-2.16496837 85.60595421 -2.16689517 82.41238493 -2.16796875 79.21875 C-2.17117971 77.00679502 -2.17454365 74.79484026 -2.17805481 72.58288574 C-2.1840502 67.94245918 -2.18589425 63.30205126 -2.18530273 58.66162109 C-2.185201 52.70257499 -2.19886334 46.74364772 -2.21607494 40.78462982 C-2.22716798 36.21571295 -2.22922279 31.64682508 -2.22869301 27.07789612 C-2.22987682 24.88016855 -2.23432085 22.68244033 -2.24202538 20.48472595 C-2.25177255 17.41746577 -2.24896836 14.3504671 -2.24291992 11.28320312 C-2.24853943 10.36781265 -2.25415894 9.45242218 -2.25994873 8.5092926 C-2.22831619 2.22831619 -2.22831619 2.22831619 0 0 Z " fill="#222122" transform="translate(444,250)"/>
<path d="M0 0 C7.92 0 15.84 0 24 0 C24 3.63 24 7.26 24 11 C27.63 11 31.26 11 35 11 C35 14.63 35 18.26 35 22 C42.59 22 50.18 22 58 22 C58 18.7 58 15.4 58 12 C61.63 12 65.26 12 69 12 C69 15.63 69 19.26 69 23 C65.37 23 61.74 23 58 23 C58 26.63 58 30.26 58 34 C50.08 34 42.16 34 34 34 C34 30.37 34 26.74 34 23 C30.37 23 26.74 23 23 23 C23 19.37 23 15.74 23 12 C15.74 12 8.48 12 1 12 C1.01160156 13.711875 1.02320313 15.42375 1.03515625 17.1875 C1.04453985 19.45833224 1.05363944 21.72916566 1.0625 24 C1.07087891 25.12535156 1.07925781 26.25070313 1.08789062 27.41015625 C1.10533416 33.37584397 0.91781223 39.10287573 0 45 C-3.3 45 -6.6 45 -10 45 C-10.33 33.78 -10.66 22.56 -11 11 C-7.37 11 -3.74 11 0 11 C0 7.37 0 3.74 0 0 Z " fill="#010101" transform="translate(204,0)"/>
<path d="M0 0 C0.33 0 0.66 0 1 0 C1 29.37 1 58.74 1 89 C4.3 89 7.6 89 11 89 C11 78.11 11 67.22 11 56 C9.35 56 7.7 56 6 56 C6 55.67 6 55.34 6 55 C8.31 55 10.62 55 13 55 C13.0246519 59.82380802 13.04283693 64.64757967 13.05493164 69.47143555 C13.05997174 71.11369464 13.06680378 72.75594923 13.07543945 74.39819336 C13.08751926 76.75375479 13.09323139 79.10925709 13.09765625 81.46484375 C13.10281754 82.20339096 13.10797882 82.94193817 13.11329651 83.7028656 C13.1134925 85.46898088 13.06194719 87.23497146 13 89 C12.67 89.33 12.34 89.66 12 90 C8.37 90 4.74 90 1 90 C1 101.22 1 112.44 1 124 C-2.63 124 -6.26 124 -10 124 C-9.979375 125.794375 -9.95875 127.58875 -9.9375 129.4375 C-9.9161878 131.29166122 -9.92773498 133.14712498 -10 135 C-10.33 135.33 -10.66 135.66 -11 136 C-14.63 136 -18.26 136 -22 136 C-22 143.26 -22 150.52 -22 158 C-25.63 158 -29.26 158 -33 158 C-33 161.63 -33 165.26 -33 169 C-33.33 169 -33.66 169 -34 169 C-34 165.37 -34 161.74 -34 158 C-37.63 158 -41.26 158 -45 158 C-45 157.67 -45 157.34 -45 157 C-41.37 157 -37.74 157 -34 157 C-34 149.41 -34 141.82 -34 134 C-30.37 134 -26.74 134 -23 134 C-23 130.37 -23 126.74 -23 123 C-19.04 123 -15.08 123 -11 123 C-11 111.78 -11 100.56 -11 89 C-7.37 89 -3.74 89 0 89 C0 59.63 0 30.26 0 0 Z " fill="#3B573A" transform="translate(420,206)"/>
<path d="M0 0 C3.63 0 7.26 0 11 0 C11 7.26 11 14.52 11 22 C18.59 22 26.18 22 34 22 C34 25.96 34 29.92 34 34 C37.63 34 41.26 34 45 34 C45 37.63 45 41.26 45 45 C47.6915625 44.9690625 47.6915625 44.9690625 50.4375 44.9375 C52.29166122 44.9161878 54.14712498 44.92773498 56 45 C57 46 57 46 57.09765625 48.50390625 C57.06510417 51.3359375 57.03255208 54.16796875 57 57 C53.04 57 49.08 57 45 57 C45 53.37 45 49.74 45 46 C41.04 46 37.08 46 33 46 C33 42.04 33 38.08 33 34 C18.48 34 3.96 34 -11 34 C-11 30.37 -11 26.74 -11 23 C-7.37 23 -3.74 23 0 23 C0 15.41 0 7.82 0 0 Z " fill="#408E17" transform="translate(239,125)"/>
<path d="M0 0 C3.96 0 7.92 0 12 0 C12 3.63 12 7.26 12 11 C19.59 11 27.18 11 35 11 C35 14.63 35 18.26 35 22 C46.22 22 57.44 22 69 22 C69 25.63 69 29.26 69 33 C98.7 33 128.4 33 159 33 C159 33.33 159 33.66 159 34 C129.3 34 99.6 34 69 34 C69 37.63 69 41.26 69 45 C99.03 45 129.06 45 160 45 C160 45.33 160 45.66 160 46 C129.64 46 99.28 46 68 46 C68 42.04 68 38.08 68 34 C56.78 34 45.56 34 34 34 C34 30.37 34 26.74 34 23 C31.63521484 23.01740234 31.63521484 23.01740234 29.22265625 23.03515625 C27.16927201 23.04453243 25.1158865 23.05363282 23.0625 23.0625 C22.02158203 23.07087891 20.98066406 23.07925781 19.90820312 23.08789062 C18.42416992 23.09272461 18.42416992 23.09272461 16.91015625 23.09765625 C15.53549194 23.10551147 15.53549194 23.10551147 14.13305664 23.11352539 C12 23 12 23 11 22 C10.85742811 18.66381769 10.95771843 15.34024394 11 12 C7.37 12 3.74 12 0 12 C0 8.04 0 4.08 0 0 Z " fill="#044303" transform="translate(136,307)"/>
<path d="M0 0 C3.63 0 7.26 0 11 0 C11 3.96 11 7.92 11 12 C7.37 12 3.74 12 0 12 C0 15.63 0 19.26 0 23 C-7.26 23 -14.52 23 -22 23 C-22 26.3 -22 29.6 -22 33 C-18.37 33 -14.74 33 -11 33 C-11 36.96 -11 40.92 -11 45 C-7.37 45 -3.74 45 0 45 C0 67.44 0 89.88 0 113 C7.59 113 15.18 113 23 113 C23 116.96 23 120.92 23 125 C22.67 125 22.34 125 22 125 C22 121.37 22 117.74 22 114 C14.41 114 6.82 114 -1 114 C-1 91.56 -1 69.12 -1 46 C-4.3 46 -7.6 46 -11 46 C-11 49.3 -11 52.6 -11 56 C-11.33 56 -11.66 56 -12 56 C-12 52.7 -12 49.4 -12 46 C-15.96 46 -19.92 46 -24 46 C-24 42.04 -24 38.08 -24 34 C-31.26 34 -38.52 34 -46 34 C-46 30.04 -46 26.08 -46 22 C-38.74 22 -31.48 22 -24 22 C-24 18.37 -24 14.74 -24 11 C-16.08 11 -8.16 11 0 11 C0 7.37 0 3.74 0 0 Z " fill="#0D1D0C" transform="translate(364,375)"/>
<path d="M0 0 C3.63 0 7.26 0 11 0 C11 29.37 11 58.74 11 89 C10.01 89 9.02 89 8 89 C8.495 87.515 8.495 87.515 9 86 C9.03920815 84.00038436 9.04443347 81.99950636 9 80 C6.36 79.67 3.72 79.34 1 79 C0.67 67.78 0.34 56.56 0 45 C-3.63 45 -7.26 45 -11 45 C-11 41.37 -11 37.74 -11 34 C-7.37 34 -3.74 34 0 34 C0 22.78 0 11.56 0 0 Z " fill="#020302" transform="translate(68,205)"/>
<path d="M0 0 C14.52 0 29.04 0 44 0 C44 7.26 44 14.52 44 22 C29.48 22 14.96 22 0 22 C0 14.74 0 7.48 0 0 Z " fill="#BD9757" transform="translate(228,57)"/>
<path d="M0 0 C10.625 -0.25 10.625 -0.25 14 2 C13.67 5.3 13.34 8.6 13 12 C9.04 12 5.08 12 1 12 C1 16.29 1 20.58 1 25 C-2.3 25 -5.6 25 -9 25 C-9 32.26 -9 39.52 -9 47 C-12.96 47 -16.92 47 -21 47 C-20.98839844 48.50433594 -20.97679688 50.00867188 -20.96484375 51.55859375 C-20.95546751 53.51822793 -20.94636713 55.47786345 -20.9375 57.4375 C-20.92912109 58.43072266 -20.92074219 59.42394531 -20.91210938 60.44726562 C-20.90888672 61.39150391 -20.90566406 62.33574219 -20.90234375 63.30859375 C-20.89710693 64.18314209 -20.89187012 65.05769043 -20.88647461 65.95874023 C-21 68 -21 68 -22 69 C-25.63 69 -29.26 69 -33 69 C-33 61.41 -33 53.82 -33 46 C-29.37 46 -25.74 46 -22 46 C-22 38.41 -22 30.82 -22 23 C-18.37 23 -14.74 23 -11 23 C-11 19.04 -11 15.08 -11 11 C-7.37 11 -3.74 11 0 11 C0 7.37 0 3.74 0 0 Z " fill="#0F640D" transform="translate(113,136)"/>
<path d="M0 0 C7.59 0 15.18 0 23 0 C23 3.63 23 7.26 23 11 C26.63 11 30.26 11 34 11 C34 14.96 34 18.92 34 23 C30.04 23 26.08 23 22 23 C22 19.37 22 15.74 22 12 C14.74 12 7.48 12 0 12 C0 19.26 0 26.52 0 34 C3.63 34 7.26 34 11 34 C11 37.96 11 41.92 11 46 C7.37 46 3.74 46 0 46 C-0.33 42.37 -0.66 38.74 -1 35 C-4.63 34.67 -8.26 34.34 -12 34 C-12 26.41 -12 18.82 -12 11 C-8.04 11 -4.08 11 0 11 C0 7.37 0 3.74 0 0 Z " fill="#353A0D" transform="translate(307,125)"/>
<path d="M0 0 C3.96 0 7.92 0 12 0 C12 3.63 12 7.26 12 11 C13.629375 10.979375 15.25875 10.95875 16.9375 10.9375 C18.62499341 10.91613932 20.31391034 10.92794489 22 11 C23 12 23 12 23.09765625 14.28515625 C23.06510417 16.85677083 23.03255208 19.42838542 23 22 C26.96 22 30.92 22 35 22 C35 25.63 35 29.26 35 33 C38.63 33 42.26 33 46 33 C46 36.63 46 40.26 46 44 C49.63 44 53.26 44 57 44 C57 51.92 57 59.84 57 68 C53.04 68 49.08 68 45 68 C44 67 44 67 43.88647461 65.05053711 C43.89171143 64.2178833 43.89694824 63.38522949 43.90234375 62.52734375 C43.90556641 61.62822266 43.90878906 60.72910156 43.91210938 59.80273438 C43.92467773 58.38444336 43.92467773 58.38444336 43.9375 56.9375 C43.94201172 55.98810547 43.94652344 55.03871094 43.95117188 54.06054688 C43.9629989 51.70696935 43.97947975 49.35351523 44 47 C42.09927734 47.29003906 42.09927734 47.29003906 40.16015625 47.5859375 C37.06271309 48.05858905 36.30248168 48.16230724 33.4375 46.625 C31.20937124 42.55624313 32.20412847 39.50993864 33 35 C30.03 35 27.06 35 24 35 C23.67 34.34 23.34 33.68 23 33 C26.63 33 30.26 33 34 33 C34 29.7 34 26.4 34 23 C33.24976563 23.01160156 32.49953125 23.02320313 31.7265625 23.03515625 C25.06298228 23.09390318 18.61799774 22.77858797 12 22 C11.67 18.7 11.34 15.4 11 12 C7.37 11.67 3.74 11.34 0 11 C0 7.37 0 3.74 0 0 Z " fill="#255C25" transform="translate(352,114)"/>
<path d="M0 0 C22.44 0 44.88 0 68 0 C68 3.3 68 6.6 68 10 C45.26899562 10.93942159 22.71046312 11.57010609 0 10 C0 6.7 0 3.4 0 0 Z " fill="#010201" transform="translate(216,421)"/>
<path d="M0 0 C3.63 0 7.26 0 11 0 C11 18.81 11 37.62 11 57 C7.37 57 3.74 57 0 57 C0 38.19 0 19.38 0 0 Z " fill="#000500" transform="translate(307,193)"/>
<path d="M0 0 C3.63 0 7.26 0 11 0 C11 18.81 11 37.62 11 57 C7.37 57 3.74 57 0 57 C0 38.19 0 19.38 0 0 Z " fill="#000500" transform="translate(182,193)"/>
<path d="M0 0 C3.96 0 7.92 0 12 0 C12 0.33 12 0.66 12 1 C8.37 1 4.74 1 1 1 C1 8.59 1 16.18 1 24 C-2.63 24 -6.26 24 -10 24 C-10 31.59 -10 39.18 -10 47 C-6.7 47 -3.4 47 0 47 C0 47.33 0 47.66 0 48 C-2.97 48 -5.94 48 -9 48 C-9 77.04 -9 106.08 -9 136 C-5.535 135.01 -5.535 135.01 -2 134 C-1.01 134 -0.02 134 1 134 C0.67 135.32 0.34 136.64 0 138 C-3.3 138 -6.6 138 -10 138 C-10 148.89 -10 159.78 -10 171 C-6.37 171 -2.74 171 1 171 C1 160.11 1 149.22 1 138 C1.33 138 1.66 138 2 138 C2 148.56 2 159.12 2 170 C4.97 170 7.94 170 11 170 C11 170.33 11 170.66 11 171 C8.03 171.33 5.06 171.66 2 172 C1.67 175.63 1.34 179.26 1 183 C0.67 183 0.34 183 0 183 C0 179.37 0 175.74 0 172 C-3.63 172 -7.26 172 -11 172 C-11 160.78 -11 149.56 -11 138 C-14.63 138 -18.26 138 -22 138 C-23 137 -23 137 -23.12025452 135.17137146 C-23.11803391 134.37417191 -23.11581329 133.57697235 -23.11352539 132.75561523 C-23.11344986 131.85475693 -23.11337433 130.95389862 -23.11329651 130.02574158 C-23.10813522 129.04658279 -23.10297394 128.06742401 -23.09765625 127.05859375 C-23.0962413 126.06118668 -23.09482635 125.0637796 -23.09336853 124.03614807 C-23.08775114 120.83656876 -23.07519571 117.63705831 -23.0625 114.4375 C-23.05748724 112.27408955 -23.05292395 110.11067801 -23.04882812 107.94726562 C-23.03777607 102.63148675 -23.02102104 97.31574829 -23 92 C-21 94 -21 94 -20.77294922 97.16455078 C-20.77326611 98.50817963 -20.78457819 99.8518341 -20.8046875 101.1953125 C-20.8075174 101.90275604 -20.81034729 102.61019958 -20.81326294 103.33908081 C-20.82446863 105.6012251 -20.84957321 107.86297515 -20.875 110.125 C-20.88502933 111.65754637 -20.89415526 113.19009894 -20.90234375 114.72265625 C-20.92440914 118.48192301 -20.95894104 122.24089464 -21 126 C-18.36 126 -15.72 126 -13 126 C-12.08848672 129.07635733 -11.91346897 131.798352 -12 135 C-12 135.33 -12 135.66 -12 136 C-11.67 106.63 -11.34 77.26 -11 47 C-14.63 47 -18.26 47 -22 47 C-22 46.67 -22 46.34 -22 46 C-18.37 46 -14.74 46 -11 46 C-11 38.41 -11 30.82 -11 23 C-7.37 23 -3.74 23 0 23 C0 15.41 0 7.82 0 0 Z " fill="#376D38" transform="translate(90,158)"/>
<path d="M0 0 C15.18 0 30.36 0 46 0 C46 3.63 46 7.26 46 11 C45 12 45 12 43.17137146 12.12025452 C42.37417191 12.11803391 41.57697235 12.11581329 40.75561523 12.11352539 C39.85475693 12.11344986 38.95389862 12.11337433 38.02574158 12.11329651 C37.04658279 12.10813522 36.06742401 12.10297394 35.05859375 12.09765625 C34.06118668 12.0962413 33.0637796 12.09482635 32.03614807 12.09336853 C28.83656876 12.08775114 25.63705831 12.07519571 22.4375 12.0625 C20.27408955 12.05748724 18.11067801 12.05292395 15.94726562 12.04882812 C10.63148371 12.03777606 5.31575354 12.02049979 0 12 C0 8.04 0 4.08 0 0 Z " fill="#050C01" transform="translate(227,45)"/>
<path d="M0 0 C6.93 0 13.86 0 21 0 C21.20625 2.68125 21.4125 5.3625 21.625 8.125 C21.73062256 9.37434326 21.73062256 9.37434326 21.83837891 10.64892578 C21.90677979 11.66188721 21.90677979 11.66188721 21.9765625 12.6953125 C22.02893066 13.37609863 22.08129883 14.05688477 22.13525391 14.75830078 C22 17 22 17 20 23 C13.4 22.34 6.8 21.68 0 21 C0 14.07 0 7.14 0 0 Z " fill="#EBB456" transform="translate(308,137)"/>
<path d="M0 0 C0.71542969 0.2578125 1.43085938 0.515625 2.16796875 0.78125 C5.56542266 1.07992727 8.96332045 1.28796824 12.3671875 1.5 C15.16796875 1.78125 15.16796875 1.78125 16.16796875 2.78125 C16.25448486 4.19695123 16.27501779 5.616845 16.265625 7.03515625 C16.26312744 7.8041626 16.26062988 8.57316895 16.25805664 9.36547852 C16.24895264 10.34830811 16.23984863 11.3311377 16.23046875 12.34375 C16.20984375 15.458125 16.18921875 18.5725 16.16796875 21.78125 C9.23796875 21.78125 2.30796875 21.78125 -4.83203125 21.78125 C-5.07953125 18.89375 -5.32703125 16.00625 -5.58203125 13.03125 C-5.6706543 12.12793945 -5.75927734 11.22462891 -5.85058594 10.29394531 C-6.26175036 4.43550702 -6.26175036 4.43550702 -4.09765625 1.140625 C-1.83203125 -0.21875 -1.83203125 -0.21875 0 0 Z " fill="#EBB455" transform="translate(346.83203125,170.21875)"/>
<path d="M0 0 C7.59 0 15.18 0 23 0 C23 3.63 23 7.26 23 11 C15.74 11.33 8.48 11.66 1 12 C0.67 15.3 0.34 18.6 0 22 C-3.63 22 -7.26 22 -11 22 C-11 18.37 -11 14.74 -11 11 C-7.37 11 -3.74 11 0 11 C0 7.37 0 3.74 0 0 Z " fill="#020403" transform="translate(159,398)"/>
<path d="M0 0 C3.63 0 7.26 0 11 0 C11 3.63 11 7.26 11 11 C7.37 11 3.74 11 0 11 C0 14.63 0 18.26 0 22 C-7.59 22 -15.18 22 -23 22 C-23 18.37 -23 14.74 -23 11 C-15.74 10.67 -8.48 10.34 -1 10 C-0.67 6.7 -0.34 3.4 0 0 Z " fill="#000000" transform="translate(262,12)"/>
<path d="M0 0 C11.22 0 22.44 0 34 0 C34 3.63 34 7.26 34 11 C22.78 11 11.56 11 0 11 C0 7.37 0 3.74 0 0 Z " fill="#040A04" transform="translate(284,409)"/>
<path d="M0 0 C11.22 0 22.44 0 34 0 C34 3.63 34 7.26 34 11 C22.78 11 11.56 11 0 11 C0 7.37 0 3.74 0 0 Z " fill="#010600" transform="translate(182,409)"/>
<path d="M0 0 C3.63 0 7.26 0 11 0 C11 3.63 11 7.26 11 11 C18.59 11 26.18 11 34 11 C33.67 14.63 33.34 18.26 33 22 C25.74 22 18.48 22 11 22 C10.67 18.7 10.34 15.4 10 12 C6.7 11.67 3.4 11.34 0 11 C0 7.37 0 3.74 0 0 Z " fill="#010301" transform="translate(330,182)"/>
<path d="M0 0 C10.89 0 21.78 0 33 0 C33 3.63 33 7.26 33 11 C22.11 11 11.22 11 0 11 C0 7.37 0 3.74 0 0 Z " fill="#030303" transform="translate(114,489)"/>
<path d="M0 0 C3.63 0 7.26 0 11 0 C11 10.89 11 21.78 11 33 C7.37 33 3.74 33 0 33 C0 22.11 0 11.22 0 0 Z " fill="#010500" transform="translate(409,296)"/>
<path d="M0 0 C3.63 0 7.26 0 11 0 C11 10.89 11 21.78 11 33 C7.37 33 3.74 33 0 33 C0 22.11 0 11.22 0 0 Z " fill="#000500" transform="translate(80,296)"/>
<path d="M0 0 C3.63 0 7.26 0 11 0 C11 10.89 11 21.78 11 33 C7.37 33 3.74 33 0 33 C0 22.11 0 11.22 0 0 Z " fill="#408E17" transform="translate(284,239)"/>
<path d="M0 0 C3.63 0 7.26 0 11 0 C11 10.89 11 21.78 11 33 C7.37 33 3.74 33 0 33 C0 22.11 0 11.22 0 0 Z " fill="#408E17" transform="translate(205,171)"/>
<path d="M0 0 C10.89 0 21.78 0 33 0 C33 3.63 33 7.26 33 11 C22.11 11 11.22 11 0 11 C0 7.37 0 3.74 0 0 Z " fill="#010201" transform="translate(296,91)"/>
<path d="M0 0 C10.89 0 21.78 0 33 0 C33 3.63 33 7.26 33 11 C22.11 11 11.22 11 0 11 C0 7.37 0 3.74 0 0 Z " fill="#010201" transform="translate(171,91)"/>
<path d="M0 0 C0.33 0 0.66 0 1 0 C1 3.63 1 7.26 1 11 C4.63 11 8.26 11 12 11 C12 7.7 12 4.4 12 1 C12.33 1 12.66 1 13 1 C13 4.63 13 8.26 13 12 C9.04 12 5.08 12 1 12 C1 38.07 1 64.14 1 91 C0.67 91 0.34 91 0 91 C0 87.37 0 83.74 0 80 C-10.89 80 -21.78 80 -33 80 C-33 83.63 -33 87.26 -33 91 C-33.33 91 -33.66 91 -34 91 C-34 87.04 -34 83.08 -34 79 C-26.41 79 -18.82 79 -11 79 C-11 56.56 -11 34.12 -11 11 C-7.37 11 -3.74 11 0 11 C0 7.37 0 3.74 0 0 Z M-10 12 C-10 30.48 -10 48.96 -10 68 C-6.7 68 -3.4 68 0 68 C0 49.52 0 31.04 0 12 C-3.3 12 -6.6 12 -10 12 Z " fill="#282727" transform="translate(147,409)"/>
<path d="M0 0 C0.66 0 1.32 0 2 0 C2 1.65 2 3.3 2 5 C5.96 5 9.92 5 14 5 C14 5.33 14 5.66 14 6 C10.37 6 6.74 6 3 6 C3 9.96 3 13.92 3 18 C-0.63 18 -4.26 18 -8 18 C-8 24.93 -8 31.86 -8 39 C-8.33 39 -8.66 39 -9 39 C-9 31.74 -9 24.48 -9 17 C-12.63 17 -16.26 17 -20 17 C-20 24.59 -20 32.18 -20 40 C-35.18 40 -50.36 40 -66 40 C-66 32.41 -66 24.82 -66 17 C-65.67 17 -65.34 17 -65 17 C-65 24.26 -65 31.52 -65 39 C-50.48 39 -35.96 39 -21 39 C-21.03921451 31.88106285 -21.03921451 31.88106285 -21.09008789 24.76220703 C-21.10744763 18.44438296 -20.77105679 12.27103007 -20 6 C-19.34 6 -18.68 6 -18 6 C-18.33 8.97 -18.66 11.94 -19 15 C-16.03 15 -13.06 15 -10 15 C-10.08378906 14.28972656 -10.16757812 13.57945313 -10.25390625 12.84765625 C-10.40666016 11.46900391 -10.40666016 11.46900391 -10.5625 10.0625 C-10.71912109 8.68771484 -10.71912109 8.68771484 -10.87890625 7.28515625 C-10.93884766 6.15400391 -10.93884766 6.15400391 -11 5 C-10 4 -10 4 -7.71484375 3.90234375 C-6.79832031 3.91394531 -5.88179688 3.92554688 -4.9375 3.9375 C-4.01839844 3.94652344 -3.09929687 3.95554688 -2.15234375 3.96484375 C-1.44207031 3.97644531 -0.73179687 3.98804688 0 4 C0 2.68 0 1.36 0 0 Z " fill="#4F6638" transform="translate(293,40)"/>
<path d="M0 0 C10.89 0 21.78 0 33 0 C33 3.3 33 6.6 33 10 C22.11 10 11.22 10 0 10 C0 6.7 0 3.4 0 0 Z " fill="#000400" transform="translate(296,330)"/>
<path d="M0 0 C10.89 0 21.78 0 33 0 C33 3.3 33 6.6 33 10 C22.11 10 11.22 10 0 10 C0 6.7 0 3.4 0 0 Z " fill="#000400" transform="translate(171,330)"/>
<path d="M0 0 C7.59 0 15.18 0 23 0 C23 3.96 23 7.92 23 12 C26.63 12 30.26 12 34 12 C34 15.63 34 19.26 34 23 C36.6915625 22.9690625 36.6915625 22.9690625 39.4375 22.9375 C41.29166122 22.9161878 43.14712498 22.92773498 45 23 C46 24 46 24 46.09765625 26.50390625 C46.06510417 29.3359375 46.03255208 32.16796875 46 35 C42.04 35 38.08 35 34 35 C34 31.37 34 27.74 34 24 C30.04 24 26.08 24 22 24 C22 16.41 22 8.82 22 1 C14.74 1 7.48 1 0 1 C0 0.67 0 0.34 0 0 Z " fill="#21870C" transform="translate(250,147)"/>
<path d="M0 0 C0 10.89 0 21.78 0 33 C-2.97 33 -5.94 33 -9 33 C-9 22.11 -9 11.22 -9 0 C-6 -1 -6 -1 0 0 Z " fill="#010000" transform="translate(431,262)"/>
<path d="M0 0 C2.83203125 0.03255208 5.6640625 0.06510417 8.49609375 0.09765625 C8.49609375 3.72765625 8.49609375 7.35765625 8.49609375 11.09765625 C12.12609375 11.09765625 15.75609375 11.09765625 19.49609375 11.09765625 C19.49609375 15.05765625 19.49609375 19.01765625 19.49609375 23.09765625 C15.86609375 23.09765625 12.23609375 23.09765625 8.49609375 23.09765625 C8.49609375 19.46765625 8.49609375 15.83765625 8.49609375 12.09765625 C4.53609375 12.09765625 0.57609375 12.09765625 -3.50390625 12.09765625 C-3.6015625 3.6015625 -3.6015625 3.6015625 -3.50390625 1.09765625 C-2.50390625 0.09765625 -2.50390625 0.09765625 0 0 Z " fill="#368B13" transform="translate(207.50390625,260.90234375)"/>
<path d="M0 0 C3.63 0 7.26 0 11 0 C11 7.59 11 15.18 11 23 C7.37 23 3.74 23 0 23 C0 15.41 0 7.82 0 0 Z " fill="#010901" transform="translate(409,182)"/>
<path d="M0 0 C3.63 0 7.26 0 11 0 C11 7.59 11 15.18 11 23 C7.37 23 3.74 23 0 23 C0 15.41 0 7.82 0 0 Z " fill="#000801" transform="translate(80,182)"/>
<path d="M0 0 C3.63 0 7.26 0 11 0 C11 7.59 11 15.18 11 23 C7.37 23 3.74 23 0 23 C0 15.41 0 7.82 0 0 Z " fill="#010700" transform="translate(364,170)"/>
<path d="M0 0 C3.63 0 7.26 0 11 0 C11 7.59 11 15.18 11 23 C7.37 23 3.74 23 0 23 C0 15.41 0 7.82 0 0 Z " fill="#010300" transform="translate(398,159)"/>
<path d="M0 0 C3.63 0 7.26 0 11 0 C11 7.59 11 15.18 11 23 C7.37 23 3.74 23 0 23 C0 15.41 0 7.82 0 0 Z " fill="#010401" transform="translate(91,159)"/>
<path d="M0 0 C7.59 0 15.18 0 23 0 C23 3.63 23 7.26 23 11 C15.41 11 7.82 11 0 11 C0 7.37 0 3.74 0 0 Z " fill="#010901" transform="translate(307,125)"/>
<path d="M0 0 C3.96 0 7.92 0 12 0 C12 3.63 12 7.26 12 11 C13.629375 10.979375 15.25875 10.95875 16.9375 10.9375 C18.62499341 10.91613932 20.31391034 10.92794489 22 11 C23 12 23 12 23.09765625 14.28515625 C23.06510417 16.85677083 23.03255208 19.42838542 23 22 C19.37 22 15.74 22 12 22 C11.67 18.7 11.34 15.4 11 12 C7.37 11.67 3.74 11.34 0 11 C0 7.37 0 3.74 0 0 Z " fill="#020703" transform="translate(352,114)"/>
<path d="M0 0 C7.59 0 15.18 0 23 0 C23 3.63 23 7.26 23 11 C15.41 11 7.82 11 0 11 C0 7.37 0 3.74 0 0 Z " fill="#000800" transform="translate(329,103)"/>
<path d="M0 0 C7.59 0 15.18 0 23 0 C23 3.63 23 7.26 23 11 C15.41 11 7.82 11 0 11 C0 7.37 0 3.74 0 0 Z " fill="#000800" transform="translate(148,103)"/>
<path d="M0 0 C7.26 0 14.52 0 22 0 C22 3.63 22 7.26 22 11 C14.74 11 7.48 11 0 11 C0 7.37 0 3.74 0 0 Z " fill="#000201" transform="translate(273,0)"/>
<path d="M0 0 C7.26 0 14.52 0 22 0 C22 3.63 22 7.26 22 11 C14.74 11 7.48 11 0 11 C0 7.37 0 3.74 0 0 Z " fill="#000200" transform="translate(205,0)"/>
<path d="M0 0 C0 3.63 0 7.26 0 11 C-7.59 11 -15.18 11 -23 11 C-23 7.7 -23 4.4 -23 1 C-15.29928525 0.24739961 -7.73773151 -0.10181226 0 0 Z " fill="#020603" transform="translate(159,386)"/>
<path d="M0 0 C0.33 0 0.66 0 1 0 C1 3.63 1 7.26 1 11 C8.26 11 15.52 11 23 11 C23 7.37 23 3.74 23 0 C23.33 0 23.66 0 24 0 C24 3.63 24 7.26 24 11 C27.63 11 31.26 11 35 11 C35 14.63 35 18.26 35 22 C42.26 22 49.52 22 57 22 C57 22.33 57 22.66 57 23 C49.74 23 42.48 23 35 23 C35 26.63 35 30.26 35 34 C34.67 34 34.34 34 34 34 C34 30.37 34 26.74 34 23 C30.37 23 26.74 23 23 23 C23 19.37 23 15.74 23 12 C11.78 12 0.56 12 -11 12 C-11 11.67 -11 11.34 -11 11 C-7.37 11 -3.74 11 0 11 C0 7.37 0 3.74 0 0 Z " fill="#223A21" transform="translate(204,0)"/>
<path d="M0 0 C3.3 0 6.6 0 10 0 C10 7.59 10 15.18 10 23 C6.7 23 3.4 23 0 23 C0 15.41 0 7.82 0 0 Z " fill="#020302" transform="translate(387,341)"/>
<path d="M0 0 C3.3 0 6.6 0 10 0 C10 7.59 10 15.18 10 23 C6.7 23 3.4 23 0 23 C0 15.41 0 7.82 0 0 Z " fill="#010301" transform="translate(103,341)"/>
<path d="M0 0 C7.26 0 14.52 0 22 0 C22 3.3 22 6.6 22 10 C14.74 10 7.48 10 0 10 C0 6.7 0 3.4 0 0 Z " fill="#010201" transform="translate(341,387)"/>
<path d="M0 0 C7.26 0 14.52 0 22 0 C22 3.3 22 6.6 22 10 C14.74 10 7.48 10 0 10 C0 6.7 0 3.4 0 0 Z " fill="#000500" transform="translate(148,319)"/>
<path d="M0 0 C7.26 0 14.52 0 22 0 C22 3.3 22 6.6 22 10 C14.74 10 7.48 10 0 10 C0 6.7 0 3.4 0 0 Z " fill="#000500" transform="translate(330,319)"/>
<path d="M0 0 C0.66 0 1.32 0 2 0 C1.67 14.85 1.34 29.7 1 45 C4.3 45 7.6 45 11 45 C11.33 45.33 11.66 45.66 12 46 C11.82236496 49.35214508 11.38013585 52.66325198 11 56 C6.05 56.495 6.05 56.495 1 57 C1 67.89 1 78.78 1 90 C0.67 90 0.34 90 0 90 C0 60.3 0 30.6 0 0 Z " fill="#011001" transform="translate(421,205)"/>
<path d="M0 0 C1.27423828 -0.00193359 1.27423828 -0.00193359 2.57421875 -0.00390625 C3.91419922 0.00189453 3.91419922 0.00189453 5.28125 0.0078125 C6.17457031 0.00394531 7.06789063 0.00007813 7.98828125 -0.00390625 C8.83777344 -0.00261719 9.68726563 -0.00132812 10.5625 0 C11.34689453 0.00112793 12.13128906 0.00225586 12.93945312 0.00341797 C14.78125 0.1328125 14.78125 0.1328125 15.78125 1.1328125 C15.78125 4.1028125 15.78125 7.0728125 15.78125 10.1328125 C8.85125 10.1328125 1.92125 10.1328125 -5.21875 10.1328125 C-5.21875 0.00750437 -5.21875 0.00750437 0 0 Z " fill="#000000" transform="translate(324.21875,398.8671875)"/>
<path d="M0 0 C2.97 0 5.94 0 9 0 C9 6.93 9 13.86 9 21 C2 21 2 21 0 20 C0 13.4 0 6.8 0 0 Z " fill="#010101" transform="translate(297,137)"/>
<path d="M0 0 C2 2 2 2 2.22705078 5.16455078 C2.22673389 6.50817963 2.21542181 7.8518341 2.1953125 9.1953125 C2.1924826 9.90275604 2.18965271 10.61019958 2.18673706 11.33908081 C2.17553137 13.6012251 2.15042679 15.86297515 2.125 18.125 C2.11497067 19.65754637 2.10584474 21.19009894 2.09765625 22.72265625 C2.07559086 26.48192301 2.04105896 30.24089464 2 34 C4.64 34 7.28 34 10 34 C10.91026797 37.07215439 11.25288404 39.79680216 11 43 C10.34 43.66 9.68 44.32 9 45 C6.03 45 3.06 45 0 45 C0 30.15 0 15.3 0 0 Z " fill="#373637" transform="translate(67,250)"/>
<path d="M0 0 C0.33 0 0.66 0 1 0 C1 3.3 1 6.6 1 10 C4.63 10 8.26 10 12 10 C12 13.96 12 17.92 12 22 C15.63 22 19.26 22 23 22 C23 44.44 23 66.88 23 90 C30.59 90 38.18 90 46 90 C46 93.96 46 97.92 46 102 C45.67 102 45.34 102 45 102 C45 98.37 45 94.74 45 91 C37.41 91 29.82 91 22 91 C22 68.56 22 46.12 22 23 C18.7 23 15.4 23 12 23 C12 26.3 12 29.6 12 33 C11.67 33 11.34 33 11 33 C11 29.7 11 26.4 11 23 C7.04 23 3.08 23 -1 23 C-1 19.37 -1 15.74 -1 12 C-0.67 12 -0.34 12 0 12 C0 15.3 0 18.6 0 22 C3.63 22 7.26 22 11 22 C11 18.37 11 14.74 11 11 C7.37 11 3.74 11 0 11 C0 7.37 0 3.74 0 0 Z " fill="#363636" transform="translate(341,398)"/>
<path d="M0 0 C3.63 0 7.26 0 11 0 C11 3.63 11 7.26 11 11 C7.37 11 3.74 11 0 11 C0 14.63 0 18.26 0 22 C-7.59 22 -15.18 22 -23 22 C-23 19.36 -23 16.72 -23 14 C-22.67 14 -22.34 14 -22 14 C-22 16.31 -22 18.62 -22 21 C-15.4 21 -8.8 21 -2 21 C-2 17.7 -2 14.4 -2 11 C-1.67 10.67 -1.34 10.34 -1 10 C-0.76712992 8.31816052 -0.58735834 6.6287584 -0.4375 4.9375 C-0.293125 3.308125 -0.14875 1.67875 0 0 Z " fill="#011101" transform="translate(262,12)"/>
<path d="M0 0 C3.63 0 7.26 0 11 0 C11 3.63 11 7.26 11 11 C18.59 11 26.18 11 34 11 C34 11.33 34 11.66 34 12 C30.20835009 12.02943124 26.41673021 12.0469419 22.625 12.0625 C21.03365234 12.07506836 21.03365234 12.07506836 19.41015625 12.08789062 C12.86049003 12.10798163 6.50552214 11.76642051 0 11 C0 7.37 0 3.74 0 0 Z " fill="#120F01" transform="translate(330,182)"/>
<path d="M0 0 C0.66 0 1.32 0 2 0 C2 10.89 2 21.78 2 33 C5.3 33 8.6 33 12 33 C12 30.36 12 27.72 12 25 C12.33 25 12.66 25 13 25 C13 27.64 13 30.28 13 33 C16.63 33 20.26 33 24 33 C24 33.33 24 33.66 24 34 C20.37 34 16.74 34 13 34 C13 37.63 13 41.26 13 45 C16.63 45 20.26 45 24 45 C24 52.26 24 59.52 24 67 C23.67 67 23.34 67 23 67 C23 60.07 23 53.14 23 46 C19.37 46 15.74 46 12 46 C12 42.04 12 38.08 12 34 C9.3084375 34.0309375 9.3084375 34.0309375 6.5625 34.0625 C4.70833878 34.0838122 2.85287502 34.07226502 1 34 C0 33 0 33 -0.11352539 29.85717773 C-0.11336633 28.46597303 -0.10767506 27.07476239 -0.09765625 25.68359375 C-0.0962413 24.95253922 -0.09482635 24.22148468 -0.09336853 23.46827698 C-0.08775408 21.12464368 -0.07519922 18.78110461 -0.0625 16.4375 C-0.05748686 14.85221492 -0.05292363 13.26692834 -0.04882812 11.68164062 C-0.03777997 7.7877239 -0.02050572 3.89387795 0 0 Z " fill="#676F68" transform="translate(192,12)"/>
<path d="M0 0 C2.57161458 0.03255208 5.14322917 0.06510417 7.71484375 0.09765625 C7.71484375 4.05765625 7.71484375 8.01765625 7.71484375 12.09765625 C4.08484375 12.09765625 0.45484375 12.09765625 -3.28515625 12.09765625 C-3.3828125 3.6015625 -3.3828125 3.6015625 -3.28515625 1.09765625 C-2.28515625 0.09765625 -2.28515625 0.09765625 0 0 Z " fill="#020802" transform="translate(94.28515625,328.90234375)"/>
<path d="M0 0 C0.33 0 0.66 0 1 0 C1 3.63 1 7.26 1 11 C4.63 11 8.26 11 12 11 C12 7.7 12 4.4 12 1 C12.33 1 12.66 1 13 1 C13 4.63 13 8.26 13 12 C9.04 12 5.08 12 1 12 C1 38.07 1 64.14 1 91 C0.67 91 0.34 91 0 91 C0 64.93 0 38.86 0 12 C-3.63 12 -7.26 12 -11 12 C-11 11.67 -11 11.34 -11 11 C-7.37 11 -3.74 11 0 11 C0 7.37 0 3.74 0 0 Z " fill="#434242" transform="translate(147,409)"/>
<path d="M0 0 C3.63 0 7.26 0 11 0 C11 3.63 11 7.26 11 11 C7.37 11 3.74 11 0 11 C0 7.37 0 3.74 0 0 Z " fill="#000401" transform="translate(364,375)"/>
<path d="M0 0 C3.63 0 7.26 0 11 0 C11 3.63 11 7.26 11 11 C7.37 11 3.74 11 0 11 C0 7.37 0 3.74 0 0 Z " fill="#010301" transform="translate(125,375)"/>
<path d="M0 0 C3.63 0 7.26 0 11 0 C11 3.63 11 7.26 11 11 C7.37 11 3.74 11 0 11 C0 7.37 0 3.74 0 0 Z " fill="#010401" transform="translate(114,364)"/>
<path d="M0 0 C3.63 0 7.26 0 11 0 C11 3.63 11 7.26 11 11 C7.37 11 3.74 11 0 11 C0 7.37 0 3.74 0 0 Z " fill="#010401" transform="translate(375,364)"/>
<path d="M0 0 C3.63 0 7.26 0 11 0 C11 3.63 11 7.26 11 11 C7.37 11 3.74 11 0 11 C0 7.37 0 3.74 0 0 Z " fill="#020402" transform="translate(398,330)"/>
<path d="M0 0 C3.63 0 7.26 0 11 0 C11 3.63 11 7.26 11 11 C7.37 11 3.74 11 0 11 C0 7.37 0 3.74 0 0 Z " fill="#010A00" transform="translate(364,296)"/>
<path d="M0 0 C3.63 0 7.26 0 11 0 C11 3.63 11 7.26 11 11 C7.37 11 3.74 11 0 11 C0 7.37 0 3.74 0 0 Z " fill="#000B01" transform="translate(125,296)"/>
<path d="M0 0 C3.63 0 7.26 0 11 0 C11 3.63 11 7.26 11 11 C7.37 11 3.74 11 0 11 C0 7.37 0 3.74 0 0 Z " fill="#3F8E17" transform="translate(273,273)"/>
<path d="M0 0 C3.63 0 7.26 0 11 0 C11 3.63 11 7.26 11 11 C7.37 11 3.74 11 0 11 C0 7.37 0 3.74 0 0 Z " fill="#3E8E17" transform="translate(216,205)"/>
<path d="M0 0 C3.63 0 7.26 0 11 0 C11 3.63 11 7.26 11 11 C7.37 11 3.74 11 0 11 C0 7.37 0 3.74 0 0 Z " fill="#020800" transform="translate(318,171)"/>
<path d="M0 0 C3.63 0 7.26 0 11 0 C11 3.63 11 7.26 11 11 C7.37 11 3.74 11 0 11 C0 7.37 0 3.74 0 0 Z " fill="#010A00" transform="translate(353,159)"/>
<path d="M0 0 C3.63 0 7.26 0 11 0 C11 3.63 11 7.26 11 11 C7.37 11 3.74 11 0 11 C0 7.37 0 3.74 0 0 Z " fill="#030900" transform="translate(307,160)"/>
<path d="M0 0 C3.63 0 7.26 0 11 0 C11 3.63 11 7.26 11 11 C7.37 11 3.74 11 0 11 C0 7.37 0 3.74 0 0 Z " fill="#050401" transform="translate(341,148)"/>
<path d="M0 0 C3.63 0 7.26 0 11 0 C11 3.63 11 7.26 11 11 C7.37 11 3.74 11 0 11 C0 7.37 0 3.74 0 0 Z " fill="#020A01" transform="translate(330,136)"/>
<path d="M0 0 C3.63 0 7.26 0 11 0 C11 3.63 11 7.26 11 11 C7.37 11 3.74 11 0 11 C0 7.37 0 3.74 0 0 Z " fill="#010302" transform="translate(125,125)"/>
<path d="M0 0 C3.63 0 7.26 0 11 0 C11 3.63 11 7.26 11 11 C7.37 11 3.74 11 0 11 C0 7.37 0 3.74 0 0 Z " fill="#010801" transform="translate(137,114)"/>
<path d="M0 0 C3.63 0 7.26 0 11 0 C11 3.63 11 7.26 11 11 C7.37 11 3.74 11 0 11 C0 7.37 0 3.74 0 0 Z " fill="#010501" transform="translate(205,46)"/>
<path d="M0 0 C3.63 0 7.26 0 11 0 C11 3.63 11 7.26 11 11 C7.37 11 3.74 11 0 11 C0 7.37 0 3.74 0 0 Z " fill="#010601" transform="translate(284,46)"/>
<path d="M0 0 C7.71484375 -0.09765625 7.71484375 -0.09765625 10 0 C11 1 11 1 11.09765625 3.28515625 C11.04882812 7.14257812 11.04882812 7.14257812 11 11 C7.37 11 3.74 11 0 11 C0 7.37 0 3.74 0 0 Z " fill="#040604" transform="translate(114,136)"/>
<path d="M0 0 C0.33 0 0.66 0 1 0 C1.33 2.97 1.66 5.94 2 9 C2.71027344 8.98839844 3.42054688 8.97679687 4.15234375 8.96484375 C5.07144531 8.95582031 5.99054688 8.94679688 6.9375 8.9375 C7.85402344 8.92589844 8.77054688 8.91429687 9.71484375 8.90234375 C12 9 12 9 13 10 C13.07226502 11.85287502 13.0838122 13.70833878 13.0625 15.5625 C13.05347656 16.57441406 13.04445312 17.58632813 13.03515625 18.62890625 C13.02355469 19.41136719 13.01195312 20.19382812 13 21 C13.59014893 20.96447021 14.18029785 20.92894043 14.78833008 20.89233398 C17.46273828 20.73470626 20.1375704 20.58600534 22.8125 20.4375 C23.74126953 20.38142578 24.67003906 20.32535156 25.62695312 20.26757812 C26.51962891 20.21923828 27.41230469 20.17089844 28.33203125 20.12109375 C29.15421143 20.0739624 29.9763916 20.02683105 30.82348633 19.97827148 C33 20 33 20 36 21 C36 24.63 36 28.26 36 32 C39.93289545 31.88162872 43.86555666 31.75737207 47.7980957 31.62768555 C49.79303319 31.56312994 51.78811929 31.5032217 53.78320312 31.44335938 C55.66362305 31.38051758 55.66362305 31.38051758 57.58203125 31.31640625 C58.73936768 31.27974854 59.8967041 31.24309082 61.08911133 31.20532227 C64.0643446 31.11671491 64.0643446 31.11671491 67 30 C67.495 31.485 67.495 31.485 68 33 C57.11 33 46.22 33 35 33 C35 29.37 35 25.74 35 22 C27.41 22 19.82 22 12 22 C12 18.37 12 14.74 12 11 C8.04 11 4.08 11 0 11 C0 7.37 0 3.74 0 0 Z " fill="#0A6709" transform="translate(136,296)"/>
<path d="M0 0 C3.3 0 6.6 0 10 0 C10 3.63 10 7.26 10 11 C6.7 11 3.4 11 0 11 C0 7.37 0 3.74 0 0 Z " fill="#000E01" transform="translate(353,307)"/>
<path d="M0 0 C3.63 0 7.26 0 11 0 C11 3.3 11 6.6 11 10 C7.37 10 3.74 10 0 10 C0 6.7 0 3.4 0 0 Z " fill="#408F17" transform="translate(273,228)"/>
<path d="M0 0 C3.63 0 7.26 0 11 0 C11 3.3 11 6.6 11 10 C7.37 10 3.74 10 0 10 C0 6.7 0 3.4 0 0 Z " fill="#418E16" transform="translate(273,160)"/>
<path d="M0 0 C3.63 0 7.26 0 11 0 C11 3.3 11 6.6 11 10 C7.37 10 3.74 10 0 10 C0 6.7 0 3.4 0 0 Z " fill="#408E17" transform="translate(216,160)"/>
<path d="M0 0 C3.3 0 6.6 0 10 0 C10 3.63 10 7.26 10 11 C6.7 11 3.4 11 0 11 C0 7.37 0 3.74 0 0 Z " fill="#000501" transform="translate(387,148)"/>
<path d="M0 0 C3.3 0 6.6 0 10 0 C10 3.63 10 7.26 10 11 C6.7 11 3.4 11 0 11 C0 7.37 0 3.74 0 0 Z " fill="#010401" transform="translate(103,148)"/>
<path d="M0 0 C3.63 0 7.26 0 11 0 C11 3.3 11 6.6 11 10 C7.37 10 3.74 10 0 10 C0 6.7 0 3.4 0 0 Z " fill="#000401" transform="translate(375,137)"/>
<path d="M0 0 C6.93359375 -0.09765625 6.93359375 -0.09765625 9 0 C9.33 0.33 9.66 0.66 10 1 C9.91036938 2.69141656 9.75422324 4.37959602 9.5625 6.0625 C9.46066406 6.98160156 9.35882813 7.90070313 9.25390625 8.84765625 C9.17011719 9.55792969 9.08632813 10.26820313 9 11 C6.03 11 3.06 11 0 11 C0 7.37 0 3.74 0 0 Z " fill="#1D1D1D" transform="translate(423,250)"/>
<path d="M0 0 C0.33 0 0.66 0 1 0 C1 7.59 1 15.18 1 23 C-2.63 23 -6.26 23 -10 23 C-9.814375 24.753125 -9.62875 26.50625 -9.4375 28.3125 C-8.77574863 34.56237408 -9.39972232 39.39694553 -10 46 C-17.59 46 -25.18 46 -33 46 C-33 45.67 -33 45.34 -33 45 C-29.7 45 -26.4 45 -23 45 C-23.020625 43.370625 -23.04125 41.74125 -23.0625 40.0625 C-23.08386068 38.37500659 -23.07205511 36.68608966 -23 35 C-22 34 -22 34 -19.49609375 33.90234375 C-16.6640625 33.93489583 -13.83203125 33.96744792 -11 34 C-11 30.04 -11 26.08 -11 22 C-7.37 22 -3.74 22 0 22 C0 14.74 0 7.48 0 0 Z M-22 35 C-22 38.3 -22 41.6 -22 45 C-18.37 45 -14.74 45 -11 45 C-11 41.7 -11 38.4 -11 35 C-14.63 35 -18.26 35 -22 35 Z " fill="#1E850A" transform="translate(238,125)"/>
<path d="M0 0 C3.3 0 6.6 0 10 0 C10 3.3 10 6.6 10 10 C6.7 10 3.4 10 0 10 C0 6.7 0 3.4 0 0 Z " fill="#408F18" transform="translate(205,262)"/>
<path d="M0 0 C3.3 0 6.6 0 10 0 C10 3.3 10 6.6 10 10 C6.7 10 3.4 10 0 10 C0 6.7 0 3.4 0 0 Z " fill="#408E17" transform="translate(285,171)"/>
<path d="M0 0 C3.3 0 6.6 0 10 0 C10 3.3 10 6.6 10 10 C6.7 10 3.4 10 0 10 C0 6.7 0 3.4 0 0 Z " fill="#010301" transform="translate(228,12)"/>
<path d="M0 0 C3.3 0 6.6 0 10 0 C10.125 7.75 10.125 7.75 9 10 C6.03 10 3.06 10 0 10 C0 6.7 0 3.4 0 0 Z " fill="#000701" transform="translate(137,307)"/>
<path d="M0 0 C9.57 0 19.14 0 29 0 C29 0.33 29 0.66 29 1 C20.42 1.33 11.84 1.66 3 2 C2.67 4.97 2.34 7.94 2 11 C-1.85506365 12.92753182 -2.7639723 13.2330787 -6.765625 12.9765625 C-7.65507812 12.925 -8.54453125 12.8734375 -9.4609375 12.8203125 C-10.38132813 12.75585938 -11.30171875 12.69140625 -12.25 12.625 C-13.18585938 12.56828125 -14.12171875 12.5115625 -15.0859375 12.453125 C-17.39125246 12.31198327 -19.69573135 12.15730247 -22 12 C-22 14.97 -22 17.94 -22 21 C-22.33 21 -22.66 21 -23 21 C-23 17.7 -23 14.4 -23 11 C-15.41 11 -7.82 11 0 11 C0 7.37 0 3.74 0 0 Z " fill="#0F740D" transform="translate(171,103)"/>
<path d="M0 0 C3.96 0 7.92 0 12 0 C12 3.63 12 7.26 12 11 C13.629375 10.979375 15.25875 10.95875 16.9375 10.9375 C18.62499341 10.91613932 20.31391034 10.92794489 22 11 C23 12 23 12 23.09765625 14.28515625 C23.08605469 15.20167969 23.07445312 16.11820313 23.0625 17.0625 C23.05347656 17.98160156 23.04445313 18.90070313 23.03515625 19.84765625 C23.02355469 20.55792969 23.01195312 21.26820313 23 22 C22.34 22 21.68 22 21 22 C21 19.03 21 16.06 21 13 C20.28972656 13.01160156 19.57945312 13.02320313 18.84765625 13.03515625 C17.92855469 13.04417969 17.00945312 13.05320313 16.0625 13.0625 C15.14597656 13.07410156 14.22945313 13.08570313 13.28515625 13.09765625 C11 13 11 13 10 12 C9.85742811 8.66381769 9.95771843 5.34024394 10 2 C6.7 2 3.4 2 0 2 C0 1.34 0 0.68 0 0 Z " fill="#0B620C" transform="translate(318,182)"/>
<path d="M0 0 C0.66 0 1.32 0 2 0 C2.33 7.59 2.66 15.18 3 23 C-0.74368742 24.87184371 -1.8400791 25.23999767 -5.75 25.125 C-6.54921875 25.10695312 -7.3484375 25.08890625 -8.171875 25.0703125 C-8.77515625 25.04710937 -9.3784375 25.02390625 -10 25 C-10 27.64 -10 30.28 -10 33 C-10.33 33 -10.66 33 -11 33 C-11 29.7 -11 26.4 -11 23 C-7.37 23 -3.74 23 0 23 C0 15.41 0 7.82 0 0 Z " fill="#116D10" transform="translate(375,170)"/>
<path d="M0 0 C3.96 0 7.92 0 12 0 C10.68 1.32 9.36 2.64 8 4 C7.34 4 6.68 4 6 4 C6 4.66 6 5.32 6 6 C5.34 6 4.68 6 4 6 C4 6.66 4 7.32 4 8 C4.66 8 5.32 8 6 8 C6.33 8.99 6.66 9.98 7 11 C6.01 11 5.02 11 4 11 C2.68 11.33 1.36 11.66 0 12 C0 8.04 0 4.08 0 0 Z " fill="#0E7F0F" transform="translate(114,148)"/>
<path d="M0 0 C0.33 0 0.66 0 1 0 C1 3.3 1 6.6 1 10 C4.63 10 8.26 10 12 10 C12 13.96 12 17.92 12 22 C15.63 22 19.26 22 23 22 C23 22.33 23 22.66 23 23 C19.37 23 15.74 23 12 23 C12 26.3 12 29.6 12 33 C11.67 33 11.34 33 11 33 C11 29.7 11 26.4 11 23 C7.04 23 3.08 23 -1 23 C-1 19.37 -1 15.74 -1 12 C-0.67 12 -0.34 12 0 12 C0 15.3 0 18.6 0 22 C3.63 22 7.26 22 11 22 C11 18.37 11 14.74 11 11 C7.37 11 3.74 11 0 11 C0 7.37 0 3.74 0 0 Z " fill="#8A8A8A" transform="translate(341,398)"/>
<path d="M0 0 C2.97 0 5.94 0 9 0 C8.67 3.63 8.34 7.26 8 11 C7.01 10.67 6.02 10.34 5 10 C5.33 9.01 5.66 8.02 6 7 C4.7934375 7.2784375 4.7934375 7.2784375 3.5625 7.5625 C2.716875 7.706875 1.87125 7.85125 1 8 C0 7 0 7 -0.0625 3.4375 C-0.041875 2.303125 -0.02125 1.16875 0 0 Z " fill="#E0B971" transform="translate(330,149)"/>
<path d="M0 0 C0.33 0 0.66 0 1 0 C1 3.63 1 7.26 1 11 C4.63 11 8.26 11 12 11 C12 7.7 12 4.4 12 1 C12.66 1.33 13.32 1.66 14 2 C13.67 5.3 13.34 8.6 13 12 C9.04 12 5.08 12 1 12 C1 15.63 1 19.26 1 23 C0.67 23 0.34 23 0 23 C0 19.37 0 15.74 0 12 C-3.3 12 -6.6 12 -10 12 C-10 15.63 -10 19.26 -10 23 C-10.33 23 -10.66 23 -11 23 C-11 19.04 -11 15.08 -11 11 C-7.37 11 -3.74 11 0 11 C0 7.37 0 3.74 0 0 Z " fill="#2A472A" transform="translate(113,136)"/>
<path d="M0 0 C0.66 0 1.32 0 2 0 C2.02927916 3.99998437 2.04689219 7.99994076 2.0625 12 C2.07087891 13.12535156 2.07925781 14.25070313 2.08789062 15.41015625 C2.10533416 21.37584397 1.91781223 27.10287573 1 33 C0.67 33 0.34 33 0 33 C-0.16750929 28.62196815 -0.32807935 24.24375401 -0.48217773 19.86523438 C-0.53560003 18.37525558 -0.59092962 16.88534391 -0.64819336 15.39550781 C-0.73009836 13.25600663 -0.80517709 11.11635907 -0.87890625 8.9765625 C-0.9260376 7.68830566 -0.97316895 6.40004883 -1.02172852 5.07275391 C-1 2 -1 2 0 0 Z " fill="#002500" transform="translate(203,12)"/>
<path d="M0 0 C0 3.96 0 7.92 0 12 C-3.63 12 -7.26 12 -11 12 C-11 11.01 -11 10.02 -11 9 C-7.535 8.505 -7.535 8.505 -4 8 C-3.814375 6.2984375 -3.814375 6.2984375 -3.625 4.5625 C-3.41875 3.386875 -3.2125 2.21125 -3 1 C-1 0 -1 0 0 0 Z " fill="#107213" transform="translate(375,363)"/>
<path d="M0 0 C0.66 0 1.32 0 2 0 C2 10.89 2 21.78 2 33 C-1.63 33 -5.26 33 -9 33 C-9 32.34 -9 31.68 -9 31 C-6.36 31 -3.72 31 -1 31 C0.06888524 27.52334905 0.11475767 24.32862522 0.09765625 20.703125 C0.09443359 19.49785156 0.09121094 18.29257812 0.08789062 17.05078125 C0.07951172 15.79652344 0.07113281 14.54226563 0.0625 13.25 C0.05798828 11.98027344 0.05347656 10.71054687 0.04882812 9.40234375 C0.03704556 6.26818164 0.02059416 3.13411459 0 0 Z " fill="#106C0F" transform="translate(407,296)"/>
<path d="M0 0 C0.33 0 0.66 0 1 0 C1 3.96 1 7.92 1 12 C-9.89 12 -20.78 12 -32 12 C-31.67 11.34 -31.34 10.68 -31 10 C-21.1 10 -11.2 10 -1 10 C-1 7.03 -1 4.06 -1 1 C-0.67 0.67 -0.34 0.34 0 0 Z " fill="#0F7311" transform="translate(328,317)"/>
<path d="M0 0 C0.33 0 0.66 0 1 0 C1 3.63 1 7.26 1 11 C4.63 11 8.26 11 12 11 C12 7.7 12 4.4 12 1 C12.33 1 12.66 1 13 1 C13 4.63 13 8.26 13 12 C9.04 12 5.08 12 1 12 C1 13.98 1 15.96 1 18 C0.67 18 0.34 18 0 18 C0 16.02 0 14.04 0 12 C-3.63 12 -7.26 12 -11 12 C-11 11.67 -11 11.34 -11 11 C-7.37 11 -3.74 11 0 11 C0 7.37 0 3.74 0 0 Z " fill="#6C6C6C" transform="translate(147,409)"/>
<path d="M0 0 C0.66 0 1.32 0 2 0 C2 2.64 2 5.28 2 8 C4.89924366 9.44962183 7.52300355 9.22126481 10.7578125 9.31640625 C11.75238968 9.3475779 11.75238968 9.3475779 12.76705933 9.37937927 C14.88626694 9.44479231 17.005599 9.50372105 19.125 9.5625 C20.56121081 9.60569309 21.99740902 9.64930764 23.43359375 9.69335938 C26.95559594 9.80046499 30.47773825 9.90175575 34 10 C34 10.33 34 10.66 34 11 C22.78 11 11.56 11 0 11 C0 7.37 0 3.74 0 0 Z " fill="#0F6A10" transform="translate(182,398)"/>
<path d="M0 0 C3.63 0 7.26 0 11 0 C11 7.59 11 15.18 11 23 C10.34 22.67 9.68 22.34 9 22 C9.00523682 21.42967041 9.01047363 20.85934082 9.01586914 20.27172852 C9.03658221 17.70199677 9.0496419 15.13228253 9.0625 12.5625 C9.07087891 11.66466797 9.07925781 10.76683594 9.08789062 9.84179688 C9.09111328 8.98779297 9.09433594 8.13378906 9.09765625 7.25390625 C9.10289307 6.46314697 9.10812988 5.6723877 9.11352539 4.85766602 C9.20495909 2.98407311 9.20495909 2.98407311 8 2 C5.32941149 1.85884839 2.67567762 1.95752893 0 2 C0 1.34 0 0.68 0 0 Z " fill="#106E10" transform="translate(398,182)"/>
<path d="M0 0 C0.33 0 0.66 0 1 0 C1 2.97 1 5.94 1 9 C4.93289545 8.88162872 8.86555666 8.75737207 12.7980957 8.62768555 C14.79303319 8.56312994 16.78811929 8.5032217 18.78320312 8.44335938 C20.66362305 8.38051758 20.66362305 8.38051758 22.58203125 8.31640625 C23.73936768 8.27974854 24.8967041 8.24309082 26.08911133 8.20532227 C29.0643446 8.11671491 29.0643446 8.11671491 32 7 C32.495 8.485 32.495 8.485 33 10 C22.11 10 11.22 10 0 10 C0 6.7 0 3.4 0 0 Z " fill="#0F7210" transform="translate(171,319)"/>
<path d="M0 0 C3.63 0 7.26 0 11 0 C11 2.97 11 5.94 11 9 C9.68 8.01 8.36 7.02 7 6 C7 6.66 7 7.32 7 8 C6.34 8 5.68 8 5 8 C5.33 5.69 5.66 3.38 6 1 C4.02 1 2.04 1 0 1 C0 0.67 0 0.34 0 0 Z " fill="#0A7608" transform="translate(307,171)"/>
<path d="M0 0 C7.26 0 14.52 0 22 0 C22 3.3 22 6.6 22 10 C21.34 9.67 20.68 9.34 20 9 C20 8.01 20 7.02 20 6 C19.34 6 18.68 6 18 6 C18 5.34 18 4.68 18 4 C18.99 4 19.98 4 21 4 C21 3.01 21 2.02 21 1 C10.605 1.495 10.605 1.495 0 2 C0 1.34 0 0.68 0 0 Z " fill="#0A750C" transform="translate(148,330)"/>
<path d="M0 0 C1.64574566 -0.02688151 3.29161413 -0.04634123 4.9375 -0.0625 C5.85402344 -0.07410156 6.77054687 -0.08570313 7.71484375 -0.09765625 C10 0 10 0 11 1 C11.07226502 2.85287502 11.0838122 4.70833878 11.0625 6.5625 C11.05347656 7.57441406 11.04445313 8.58632812 11.03515625 9.62890625 C11.02355469 10.41136719 11.01195312 11.19382813 11 12 C10.34 11.67 9.68 11.34 9 11 C9 8.03 9 5.06 9 2 C6.03 2 3.06 2 0 2 C0 1.34 0 0.68 0 0 Z " fill="#0E620E" transform="translate(296,159)"/>
<path d="M0 0 C2.31 0 4.62 0 7 0 C7 3.63 7 7.26 7 11 C3.37 11 -0.26 11 -4 11 C-4 8.69 -4 6.38 -4 4 C-2 7.75 -2 7.75 -2 10 C1.465 9.505 1.465 9.505 5 9 C5 7.02 5 5.04 5 3 C2.525 2.01 2.525 2.01 0 1 C0 0.67 0 0.34 0 0 Z " fill="#379119" transform="translate(220,273)"/>
<path d="M0 0 C0.33 0 0.66 0 1 0 C1 2.31 1 4.62 1 7 C2.32 6.01 3.64 5.02 5 4 C5.33 5.65 5.66 7.3 6 9 C8.33075929 8.04134491 8.33075929 8.04134491 10 5 C10 6.65 10 8.3 10 10 C6.7 10 3.4 10 0 10 C0 6.7 0 3.4 0 0 Z " fill="#DFB87B" transform="translate(330,171)"/>
<path d="M0 0 C0.33 0 0.66 0 1 0 C1 3.3 1 6.6 1 10 C-0.65 10 -2.3 10 -4 10 C-3.525625 9.46375 -3.05125 8.9275 -2.5625 8.375 C-0.71813924 5.57157164 -0.37543153 3.30379742 0 0 Z " fill="#369219" transform="translate(283,160)"/>
</svg>
