<?xml version="1.0" encoding="UTF-8"?>
<svg version="1.1" xmlns="http://www.w3.org/2000/svg" width="3000" height="3000">
<path d="M0 0 C990 0 1980 0 3000 0 C3000 990 3000 1980 3000 3000 C2010 3000 1020 3000 0 3000 C0 2010 0 1020 0 0 Z " fill="#FFFFFF" transform="translate(0,0)"/>
<path d="M0 0 C401.28 0 802.56 0 1216 0 C1216 26.73 1216 53.46 1216 81 C1242.73 81 1269.46 81 1297 81 C1297 107.73 1297 134.46 1297 162 C1323.73 162 1350.46 162 1378 162 C1378 188.73 1378 215.46 1378 243 C1404.73 243 1431.46 243 1459 243 C1459 323.19 1459 403.38 1459 486 C1485.73 486 1512.46 486 1540 486 C1540 914.34 1540 1342.68 1540 1784 C1085.26 1784 630.52 1784 162 1784 C162 1328.93 162 873.86 162 405 C108.54 405 55.08 405 0 405 C0 378.27 0 351.54 0 324 C-26.73 324 -53.46 324 -81 324 C-81 243.81 -81 163.62 -81 81 C-54.27 81 -27.54 81 0 81 C0 54.27 0 27.54 0 0 Z " fill="#C89754" transform="translate(651,484)"/>
<path d="M0 0 C53.79 0 107.58 0 163 0 C163 26.73 163 53.46 163 81 C216.46 81 269.92 81 325 81 C325 161.19 325 241.38 325 324 C351.73 324 378.46 324 406 324 C406 431.25 406 538.5 406 649 C379.27 649 352.54 649 325 649 C325 675.73 325 702.46 325 730 C431.92 730 538.84 730 649 730 C649 756.73 649 783.46 649 811 C515.35 811 381.7 811 244 811 C244 864.46 244 917.92 244 973 C217.27 973 190.54 973 163 973 C163 999.73 163 1026.46 163 1054 C109.21 1054 55.42 1054 0 1054 C0 1027.27 0 1000.54 0 973 C-26.73 973 -53.46 973 -81 973 C-81 946.27 -81 919.54 -81 892 C-134.46 892 -187.92 892 -243 892 C-243 865.27 -243 838.54 -243 811 C-216.27 811 -189.54 811 -162 811 C-162 757.54 -162 704.08 -162 649 C-188.73 649 -215.46 649 -243 649 C-243 541.75 -243 434.5 -243 324 C-216.27 324 -189.54 324 -162 324 C-162 270.54 -162 217.08 -162 162 C-135.27 162 -108.54 162 -81 162 C-81 135.27 -81 108.54 -81 81 C-54.27 81 -27.54 81 0 81 C0 54.27 0 27.54 0 0 Z " fill="#F1B100" transform="translate(1380,646)"/>
<path d="M0 0 C26.73 0 53.46 0 81 0 C81 481.8 81 963.6 81 1460 C482.28 1460 883.56 1460 1297 1460 C1297 1058.39 1297 656.78 1297 243 C1323.73 243 1350.46 243 1378 243 C1378 671.34 1378 1099.68 1378 1541 C923.26 1541 468.52 1541 0 1541 C0 1085.93 0 630.86 0 162 C-53.46 162 -106.92 162 -162 162 C-162 135.27 -162 108.54 -162 81 C-108.54 81 -55.08 81 0 81 C0 54.27 0 27.54 0 0 Z " fill="#010101" transform="translate(813,727)"/>
<path d="M0 0 C401.28 0 802.56 0 1216 0 C1216 26.73 1216 53.46 1216 81 C814.72 81 413.44 81 0 81 C0 54.27 0 27.54 0 0 Z " fill="#010101" transform="translate(651,484)"/>
<path d="M0 0 C53.79 0 107.58 0 163 0 C163 26.73 163 53.46 163 81 C189.73 81 216.46 81 244 81 C244 134.79 244 188.58 244 244 C217.27 244 190.54 244 163 244 C163 270.73 163 297.46 163 325 C109.21 325 55.42 325 0 325 C0 298.27 0 271.54 0 244 C-26.73 244 -53.46 244 -81 244 C-81 190.21 -81 136.42 -81 81 C-54.27 81 -27.54 81 0 81 C0 54.27 0 27.54 0 0 Z " fill="#F1B100" transform="translate(1380,1781)"/>
<path d="M0 0 C26.73 0 53.46 0 81 0 C81 53.46 81 106.92 81 162 C107.73 162 134.46 162 162 162 C162 215.46 162 268.92 162 324 C135.27 324 108.54 324 81 324 C81 297.27 81 270.54 81 243 C27.54 243 -25.92 243 -81 243 C-81 216.27 -81 189.54 -81 162 C-54.27 162 -27.54 162 0 162 C0 108.54 0 55.08 0 0 Z " fill="#B68A4F" transform="translate(1218,1295)"/>
<path d="M0 0 C26.73 0 53.46 0 81 0 C81 26.73 81 53.46 81 81 C187.92 81 294.84 81 405 81 C405 107.73 405 134.46 405 162 C271.35 162 137.7 162 0 162 C0 108.54 0 55.08 0 0 Z " fill="#AB824A" transform="translate(1624,1295)"/>
<path d="M0 0 C133.65 0 267.3 0 405 0 C405 27.06 405 54.12 405 82 C271.35 82 137.7 82 0 82 C0 54.94 0 27.88 0 0 Z " fill="#AA824A" transform="translate(1624,1943)"/>
<path d="M0 0 C26.73 0 53.46 0 81 0 C81 107.25 81 214.5 81 325 C54.27 325 27.54 325 0 325 C0 217.75 0 110.5 0 0 Z " fill="#000000" transform="translate(1705,970)"/>
<path d="M0 0 C26.73 0 53.46 0 81 0 C81 107.25 81 214.5 81 325 C54.27 325 27.54 325 0 325 C0 217.75 0 110.5 0 0 Z " fill="#000000" transform="translate(1137,970)"/>
<path d="M0 0 C106.92 0 213.84 0 324 0 C324 26.73 324 53.46 324 81 C217.08 81 110.16 81 0 81 C0 54.27 0 27.54 0 0 Z " fill="#AB824A" transform="translate(975,1700)"/>
<path d="M0 0 C53.46 0 106.92 0 162 0 C162 80.19 162 160.38 162 243 C135.27 243 108.54 243 81 243 C81 189.54 81 136.08 81 81 C54.27 81 27.54 81 0 81 C0 54.27 0 27.54 0 0 Z " fill="#000000" transform="translate(1543,727)"/>
<path d="M0 0 C80.19 0 160.38 0 243 0 C243 27.06 243 54.12 243 82 C162.81 82 82.62 82 0 82 C0 54.94 0 27.88 0 0 Z " fill="#B0864B" transform="translate(975,1943)"/>
<path d="M0 0 C80.19 0 160.38 0 243 0 C243 26.73 243 53.46 243 81 C162.81 81 82.62 81 0 81 C0 54.27 0 27.54 0 0 Z " fill="#AE844B" transform="translate(1705,1619)"/>
<path d="M0 0 C80.19 0 160.38 0 243 0 C243 26.73 243 53.46 243 81 C162.81 81 82.62 81 0 81 C0 54.27 0 27.54 0 0 Z " fill="#AF864B" transform="translate(1786,1052)"/>
<path d="M0 0 C26.73 0 53.46 0 81 0 C81 80.19 81 160.38 81 243 C54.27 243 27.54 243 0 243 C0 162.81 0 82.62 0 0 Z " fill="#000000" transform="translate(2029,727)"/>
<path d="M0 0 C80.19 0 160.38 0 243 0 C243 26.73 243 53.46 243 81 C162.81 81 82.62 81 0 81 C0 54.27 0 27.54 0 0 Z " fill="#AC834A" transform="translate(1705,727)"/>
<path d="M0 0 C26.73 0 53.46 0 81 0 C81 80.19 81 160.38 81 243 C54.27 243 27.54 243 0 243 C0 162.81 0 82.62 0 0 Z " fill="#000000" transform="translate(570,565)"/>
<path d="M0 0 C53.79 0 107.58 0 163 0 C163 26.73 163 53.46 163 81 C109.21 81 55.42 81 0 81 C0 54.27 0 27.54 0 0 Z " fill="#010101" transform="translate(1380,2025)"/>
<path d="M0 0 C26.73 0 53.46 0 81 0 C81 53.79 81 107.58 81 163 C54.27 163 27.54 163 0 163 C0 109.21 0 55.42 0 0 Z " fill="#000000" transform="translate(1543,1862)"/>
<path d="M0 0 C26.73 0 53.46 0 81 0 C81 53.79 81 107.58 81 163 C54.27 163 27.54 163 0 163 C0 109.21 0 55.42 0 0 Z " fill="#000000" transform="translate(1299,1862)"/>
<path d="M0 0 C53.79 0 107.58 0 163 0 C163 26.73 163 53.46 163 81 C109.21 81 55.42 81 0 81 C0 54.27 0 27.54 0 0 Z " fill="#000000" transform="translate(1380,1781)"/>
<path d="M0 0 C53.79 0 107.58 0 163 0 C163 26.73 163 53.46 163 81 C109.21 81 55.42 81 0 81 C0 54.27 0 27.54 0 0 Z " fill="#000000" transform="translate(1380,1619)"/>
<path d="M0 0 C53.79 0 107.58 0 163 0 C163 26.73 163 53.46 163 81 C109.21 81 55.42 81 0 81 C0 54.27 0 27.54 0 0 Z " fill="#000000" transform="translate(1380,646)"/>
<path d="M0 0 C26.73 0 53.46 0 81 0 C81 53.46 81 106.92 81 162 C54.27 162 27.54 162 0 162 C0 108.54 0 55.08 0 0 Z " fill="#BB8E4F" transform="translate(1624,1619)"/>
<path d="M0 0 C26.73 0 53.46 0 81 0 C81 53.46 81 106.92 81 162 C54.27 162 27.54 162 0 162 C0 108.54 0 55.08 0 0 Z " fill="#000000" transform="translate(1543,1457)"/>
<path d="M0 0 C26.73 0 53.46 0 81 0 C81 53.46 81 106.92 81 162 C54.27 162 27.54 162 0 162 C0 108.54 0 55.08 0 0 Z " fill="#000000" transform="translate(1299,1457)"/>
<path d="M0 0 C53.46 0 106.92 0 162 0 C162 26.73 162 53.46 162 81 C108.54 81 55.08 81 0 81 C0 54.27 0 27.54 0 0 Z " fill="#AA824A" transform="translate(975,1457)"/>
<path d="M0 0 C26.73 0 53.46 0 81 0 C81 53.46 81 106.92 81 162 C54.27 162 27.54 162 0 162 C0 108.54 0 55.08 0 0 Z " fill="#000000" transform="translate(1218,1295)"/>
<path d="M0 0 C26.73 0 53.46 0 81 0 C81 53.46 81 106.92 81 162 C54.27 162 27.54 162 0 162 C0 108.54 0 55.08 0 0 Z " fill="#000000" transform="translate(1624,1295)"/>
<path d="M0 0 C53.46 0 106.92 0 162 0 C162 26.73 162 53.46 162 81 C108.54 81 55.08 81 0 81 C0 54.27 0 27.54 0 0 Z " fill="#AC834A" transform="translate(975,889)"/>
<path d="M0 0 C26.73 0 53.46 0 81 0 C81 53.46 81 106.92 81 162 C54.27 162 27.54 162 0 162 C0 108.54 0 55.08 0 0 Z " fill="#000000" transform="translate(1218,808)"/>
<path d="M0 0 C53.46 0 106.92 0 162 0 C162 26.73 162 53.46 162 81 C108.54 81 55.08 81 0 81 C0 54.27 0 27.54 0 0 Z " fill="#B2884D" transform="translate(1543,727)"/>
<path d="M0 0 C53.46 0 106.92 0 162 0 C162 26.73 162 53.46 162 81 C108.54 81 55.08 81 0 81 C0 54.27 0 27.54 0 0 Z " fill="#B3884C" transform="translate(1056,646)"/>
<path d="M0 0 C26.73 0 53.46 0 81 0 C81 27.06 81 54.12 81 82 C54.27 82 27.54 82 0 82 C0 54.94 0 27.88 0 0 Z " fill="#F1B50D" transform="translate(1380,1943)"/>
<path d="M0 0 C26.73 0 53.46 0 81 0 C81 27.06 81 54.12 81 82 C54.27 82 27.54 82 0 82 C0 54.94 0 27.88 0 0 Z " fill="#B98D4F" transform="translate(1137,1943)"/>
<path d="M0 0 C26.73 0 53.46 0 81 0 C81 26.73 81 53.46 81 81 C54.27 81 27.54 81 0 81 C0 54.27 0 27.54 0 0 Z " fill="#AA824A" transform="translate(1948,1700)"/>
<path d="M0 0 C26.73 0 53.46 0 81 0 C81 26.73 81 53.46 81 81 C54.27 81 27.54 81 0 81 C0 54.27 0 27.54 0 0 Z " fill="#181818" transform="translate(1218,1295)"/>
<path d="M0 0 C26.73 0 53.46 0 81 0 C81 26.73 81 53.46 81 81 C54.27 81 27.54 81 0 81 C0 54.27 0 27.54 0 0 Z " fill="#AF854B" transform="translate(975,1133)"/>
<path d="M0 0 C26.73 0 53.46 0 81 0 C81 26.73 81 53.46 81 81 C54.27 81 27.54 81 0 81 C0 54.27 0 27.54 0 0 Z " fill="#0D0A06" transform="translate(1705,1052)"/>
<path d="M0 0 C26.73 0 53.46 0 81 0 C81 26.73 81 53.46 81 81 C54.27 81 27.54 81 0 81 C0 54.27 0 27.54 0 0 Z " fill="#B2874C" transform="translate(1056,1052)"/>
<path d="M0 0 C26.73 0 53.46 0 81 0 C81 26.73 81 53.46 81 81 C54.27 81 27.54 81 0 81 C0 54.27 0 27.54 0 0 Z " fill="#BB8E50" transform="translate(1137,889)"/>
<path d="M0 0 C26.73 0 53.46 0 81 0 C81 26.73 81 53.46 81 81 C54.27 81 27.54 81 0 81 C0 54.27 0 27.54 0 0 Z " fill="#1D160C" transform="translate(1624,808)"/>
<path d="M0 0 C26.73 0 53.46 0 81 0 C81 26.73 81 53.46 81 81 C54.27 81 27.54 81 0 81 C0 54.27 0 27.54 0 0 Z " fill="#0D0D0D" transform="translate(651,808)"/>
<path d="M0 0 C26.73 0 53.46 0 81 0 C81 26.73 81 53.46 81 81 C54.27 81 27.54 81 0 81 C0 54.27 0 27.54 0 0 Z " fill="#000000" transform="translate(1543,727)"/>
<path d="M0 0 C26.73 0 53.46 0 81 0 C81 26.73 81 53.46 81 81 C54.27 81 27.54 81 0 81 C0 54.27 0 27.54 0 0 Z " fill="#000000" transform="translate(1299,727)"/>
<path d="M0 0 C26.73 0 53.46 0 81 0 C81 26.73 81 53.46 81 81 C54.27 81 27.54 81 0 81 C0 54.27 0 27.54 0 0 Z " fill="#000000" transform="translate(1948,646)"/>
<path d="M0 0 C26.73 0 53.46 0 81 0 C81 26.73 81 53.46 81 81 C54.27 81 27.54 81 0 81 C0 54.27 0 27.54 0 0 Z " fill="#BE9050" transform="translate(1218,646)"/>
<path d="M0 0 C26.73 0 53.46 0 81 0 C81 26.73 81 53.46 81 81 C54.27 81 27.54 81 0 81 C0 54.27 0 27.54 0 0 Z " fill="#000000" transform="translate(732,646)"/>
<path d="M0 0 C26.73 0 53.46 0 81 0 C81 26.73 81 53.46 81 81 C54.27 81 27.54 81 0 81 C0 54.27 0 27.54 0 0 Z " fill="#000000" transform="translate(1867,565)"/>
<path d="M0 0 C26.73 0 53.46 0 81 0 C81 26.73 81 53.46 81 81 C54.27 81 27.54 81 0 81 C0 54.27 0 27.54 0 0 Z " fill="#101010" transform="translate(813,484)"/>
</svg>
