<?xml version="1.0" encoding="UTF-8"?>
<svg version="1.1" xmlns="http://www.w3.org/2000/svg" width="3000" height="3000">
<path d="M0 0 C990 0 1980 0 3000 0 C3000 990 3000 1980 3000 3000 C2010 3000 1020 3000 0 3000 C0 2010 0 1020 0 0 Z " fill="#FEFEFE" transform="translate(0,0)"/>
<path d="M0 0 C396 0 792 0 1200 0 C1200 19.8 1200 39.6 1200 60 C1219.8 60 1239.6 60 1260 60 C1260 79.8 1260 99.6 1260 120 C1279.8 120 1299.6 120 1320 120 C1320 159.6 1320 199.2 1320 240 C1339.8 240 1359.6 240 1380 240 C1380 259.8 1380 279.6 1380 300 C1399.8 300 1419.6 300 1440 300 C1440 319.8 1440 339.6 1440 360 C1459.8 360 1479.6 360 1500 360 C1500 459 1500 558 1500 660 C1480.2 660 1460.4 660 1440 660 C1440 679.8 1440 699.6 1440 720 C1420.2 720 1400.4 720 1380 720 C1380 739.8 1380 759.6 1380 780 C1360.2 780 1340.4 780 1320 780 C1320 839.4 1320 898.8 1320 960 C1379.4 960 1438.8 960 1500 960 C1500 999.6 1500 1039.2 1500 1080 C1480.2 1080 1460.4 1080 1440 1080 C1440 1218.6 1440 1357.2 1440 1500 C1459.8 1500 1479.6 1500 1500 1500 C1500 1559.4 1500 1618.8 1500 1680 C906 1680 312 1680 -300 1680 C-300 1620.6 -300 1561.2 -300 1500 C-280.2 1500 -260.4 1500 -240 1500 C-240 1361.4 -240 1222.8 -240 1080 C-259.8 1080 -279.6 1080 -300 1080 C-300 1040.4 -300 1000.8 -300 960 C-240.6 960 -181.2 960 -120 960 C-120 900.6 -120 841.2 -120 780 C-139.8 780 -159.6 780 -180 780 C-180 760.2 -180 740.4 -180 720 C-199.8 720 -219.6 720 -240 720 C-240 700.2 -240 680.4 -240 660 C-259.8 660 -279.6 660 -300 660 C-300 561 -300 462 -300 360 C-280.2 360 -260.4 360 -240 360 C-240 340.2 -240 320.4 -240 300 C-220.2 300 -200.4 300 -180 300 C-180 280.2 -180 260.4 -180 240 C-160.2 240 -140.4 240 -120 240 C-120 200.4 -120 160.8 -120 120 C-100.2 120 -80.4 120 -60 120 C-60 100.2 -60 80.4 -60 60 C-40.2 60 -20.4 60 0 60 C0 40.2 0 20.4 0 0 Z " fill="#925E17" transform="translate(900,300)"/>
<path d="M0 0 C396 0 792 0 1200 0 C1200 19.8 1200 39.6 1200 60 C1219.8 60 1239.6 60 1260 60 C1260 79.8 1260 99.6 1260 120 C1279.8 120 1299.6 120 1320 120 C1320 159.6 1320 199.2 1320 240 C1339.8 240 1359.6 240 1380 240 C1380 259.8 1380 279.6 1380 300 C1399.8 300 1419.6 300 1440 300 C1440 319.8 1440 339.6 1440 360 C1459.8 360 1479.6 360 1500 360 C1500 459 1500 558 1500 660 C1480.2 660 1460.4 660 1440 660 C1440 679.8 1440 699.6 1440 720 C1341 720 1242 720 1140 720 C1140 700.2 1140 680.4 1140 660 C1080.6 660 1021.2 660 960 660 C960 679.8 960 699.6 960 720 C999.6 720 1039.2 720 1080 720 C1080 799.2 1080 878.4 1080 960 C763.2 960 446.4 960 120 960 C120 880.8 120 801.6 120 720 C159.6 720 199.2 720 240 720 C240 700.2 240 680.4 240 660 C180.6 660 121.2 660 60 660 C60 600.6 60 541.2 60 480 C-39 480 -138 480 -240 480 C-240 420.6 -240 361.2 -240 300 C-220.2 300 -200.4 300 -180 300 C-180 280.2 -180 260.4 -180 240 C-160.2 240 -140.4 240 -120 240 C-120 200.4 -120 160.8 -120 120 C-100.2 120 -80.4 120 -60 120 C-60 100.2 -60 80.4 -60 60 C-40.2 60 -20.4 60 0 60 C0 40.2 0 20.4 0 0 Z " fill="#D2452F" transform="translate(900,300)"/>
<path d="M0 0 C19.8 0 39.6 0 60 0 C60 39.6 60 79.2 60 120 C159 120 258 120 360 120 C360 179.4 360 238.8 360 300 C419.4 300 478.8 300 540 300 C540 319.8 540 339.6 540 360 C500.4 360 460.8 360 420 360 C420 439.2 420 518.4 420 600 C736.8 600 1053.6 600 1380 600 C1380 520.8 1380 441.6 1380 360 C1340.4 360 1300.8 360 1260 360 C1260 340.2 1260 320.4 1260 300 C1319.4 300 1378.8 300 1440 300 C1440 319.8 1440 339.6 1440 360 C1519.2 360 1598.4 360 1680 360 C1680 379.8 1680 399.6 1680 420 C1660.2 420 1640.4 420 1620 420 C1620 479.4 1620 538.8 1620 600 C1679.4 600 1738.8 600 1800 600 C1800 639.6 1800 679.2 1800 720 C1780.2 720 1760.4 720 1740 720 C1740 858.6 1740 997.2 1740 1140 C1759.8 1140 1779.6 1140 1800 1140 C1800 1199.4 1800 1258.8 1800 1320 C1206 1320 612 1320 0 1320 C0 1260.6 0 1201.2 0 1140 C19.8 1140 39.6 1140 60 1140 C60 1001.4 60 862.8 60 720 C40.2 720 20.4 720 0 720 C0 680.4 0 640.8 0 600 C59.4 600 118.8 600 180 600 C180 540.6 180 481.2 180 420 C160.2 420 140.4 420 120 420 C120 400.2 120 380.4 120 360 C100.2 360 80.4 360 60 360 C60 340.2 60 320.4 60 300 C40.2 300 20.4 300 0 300 C0 201 0 102 0 0 Z M240 360 C240 459 240 558 240 660 C200.4 660 160.8 660 120 660 C120 680.13 120 700.26 120 721 C139.8 720.67 159.6 720.34 180 720 C180 838.8 180 957.6 180 1080 C199.8 1080 219.6 1080 240 1080 C240 1099.8 240 1119.6 240 1140 C675.6 1140 1111.2 1140 1560 1140 C1560 1120.2 1560 1100.4 1560 1080 C1579.8 1080 1599.6 1080 1620 1080 C1620 1099.8 1620 1119.6 1620 1140 C1639.8 1140 1659.6 1140 1680 1140 C1680 981.6 1680 823.2 1680 660 C1640.4 660 1600.8 660 1560 660 C1560 580.8 1560 501.6 1560 420 C1520.4 420 1480.8 420 1440 420 C1440 499.2 1440 578.4 1440 660 C1083.6 660 727.2 660 360 660 C360 561 360 462 360 360 C320.4 360 280.8 360 240 360 Z " fill="#A96C17" transform="translate(600,660)"/>
<path d="M0 0 C79.2 0 158.4 0 240 0 C240 118.8 240 237.6 240 360 C220.2 360 200.4 360 180 360 C180 459 180 558 180 660 C279 660 378 660 480 660 C480 679.8 480 699.6 480 720 C559.2 720 638.4 720 720 720 C720 700.2 720 680.4 720 660 C759.6 660 799.2 660 840 660 C840 739.2 840 818.4 840 900 C523.2 900 206.4 900 -120 900 C-120 820.8 -120 741.6 -120 660 C-80.4 660 -40.8 660 0 660 C0 640.2 0 620.4 0 600 C-59.4 600 -118.8 600 -180 600 C-180 540.6 -180 481.2 -180 420 C-160.2 420 -140.4 420 -120 420 C-120 360.6 -120 301.2 -120 240 C-100.2 240 -80.4 240 -60 240 C-60 220.2 -60 200.4 -60 180 C-40.2 180 -20.4 180 0 180 C0 120.6 0 61.2 0 0 Z " fill="#DBC4C1" transform="translate(1140,360)"/>
<path d="M0 0 C99 0 198 0 300 0 C300 19.8 300 39.6 300 60 C319.8 60 339.6 60 360 60 C360 119.4 360 178.8 360 240 C379.8 240 399.6 240 420 240 C420 259.8 420 279.6 420 300 C439.8 300 459.6 300 480 300 C480 319.8 480 339.6 480 360 C499.8 360 519.6 360 540 360 C540 379.8 540 399.6 540 420 C559.8 420 579.6 420 600 420 C600 499.2 600 578.4 600 660 C560.4 660 520.8 660 480 660 C480 640.2 480 620.4 480 600 C420.6 600 361.2 600 300 600 C300 619.8 300 639.6 300 660 C260.4 660 220.8 660 180 660 C180 600.6 180 541.2 180 480 C160.2 480 140.4 480 120 480 C120 440.4 120 400.8 120 360 C100.2 360 80.4 360 60 360 C60 280.8 60 201.6 60 120 C40.2 120 20.4 120 0 120 C0 80.4 0 40.8 0 0 Z " fill="#D9C4C1" transform="translate(1560,360)"/>
<path d="M0 0 C59.4 0 118.8 0 180 0 C180 39.6 180 79.2 180 120 C199.8 120 219.6 120 240 120 C240 199.2 240 278.4 240 360 C259.8 360 279.6 360 300 360 C300 399.6 300 439.2 300 480 C319.8 480 339.6 480 360 480 C360 539.4 360 598.8 360 660 C399.6 660 439.2 660 480 660 C480 679.8 480 699.6 480 720 C400.8 720 321.6 720 240 720 C240 700.2 240 680.4 240 660 C141 660 42 660 -60 660 C-60 561 -60 462 -60 360 C-40.2 360 -20.4 360 0 360 C0 241.2 0 122.4 0 0 Z " fill="#A23F2F" transform="translate(1380,360)"/>
<path d="M0 0 C39.6 0 79.2 0 120 0 C120 19.8 120 39.6 120 60 C179.4 60 238.8 60 300 60 C300 40.2 300 20.4 300 0 C399 0 498 0 600 0 C600 19.8 600 39.6 600 60 C679.2 60 758.4 60 840 60 C840 40.2 840 20.4 840 0 C879.6 0 919.2 0 960 0 C960 79.2 960 158.4 960 240 C643.2 240 326.4 240 0 240 C0 160.8 0 81.6 0 0 Z " fill="#FFFFFF" transform="translate(1020,1020)"/>
<path d="M0 0 C99 0 198 0 300 0 C300 19.8 300 39.6 300 60 C260.4 60 220.8 60 180 60 C180 139.2 180 218.4 180 300 C496.8 300 813.6 300 1140 300 C1140 220.8 1140 141.6 1140 60 C1100.4 60 1060.8 60 1020 60 C1020 40.2 1020 20.4 1020 0 C1079.4 0 1138.8 0 1200 0 C1200 19.8 1200 39.6 1200 60 C1279.2 60 1358.4 60 1440 60 C1440 79.8 1440 99.6 1440 120 C1420.2 120 1400.4 120 1380 120 C1380 179.4 1380 238.8 1380 300 C1439.4 300 1498.8 300 1560 300 C1560 339.6 1560 379.2 1560 420 C1540.2 420 1520.4 420 1500 420 C1500 558.6 1500 697.2 1500 840 C1480.2 840 1460.4 840 1440 840 C1440 681.6 1440 523.2 1440 360 C1400.4 360 1360.8 360 1320 360 C1320 280.8 1320 201.6 1320 120 C1280.4 120 1240.8 120 1200 120 C1200 199.2 1200 278.4 1200 360 C843.6 360 487.2 360 120 360 C120 261 120 162 120 60 C80.4 60 40.8 60 0 60 C0 40.2 0 20.4 0 0 Z " fill="#000000" transform="translate(840,960)"/>
<path d="M0 0 C19.8 0 39.6 0 60 0 C60 39.6 60 79.2 60 120 C159 120 258 120 360 120 C360 179.4 360 238.8 360 300 C320.4 300 280.8 300 240 300 C240 418.8 240 537.6 240 660 C200.4 660 160.8 660 120 660 C120 818.4 120 976.8 120 1140 C100.2 1140 80.4 1140 60 1140 C60 1001.4 60 862.8 60 720 C40.2 720 20.4 720 0 720 C0 680.4 0 640.8 0 600 C59.4 600 118.8 600 180 600 C180 540.6 180 481.2 180 420 C160.2 420 140.4 420 120 420 C120 400.2 120 380.4 120 360 C100.2 360 80.4 360 60 360 C60 340.2 60 320.4 60 300 C40.2 300 20.4 300 0 300 C0 201 0 102 0 0 Z " fill="#A13F2F" transform="translate(600,660)"/>
<path d="M0 0 C99 0 198 0 300 0 C300 59.4 300 118.8 300 180 C280.2 180 260.4 180 240 180 C240 199.8 240 219.6 240 240 C220.2 240 200.4 240 180 240 C180 299.4 180 358.8 180 420 C61.2 420 -57.6 420 -180 420 C-180 360.6 -180 301.2 -180 240 C-160.2 240 -140.4 240 -120 240 C-120 220.2 -120 200.4 -120 180 C-100.2 180 -80.4 180 -60 180 C-60 140.4 -60 100.8 -60 60 C-40.2 60 -20.4 60 0 60 C0 40.2 0 20.4 0 0 Z " fill="#D2452F" transform="translate(840,360)"/>
<path d="M0 0 C19.8 0 39.6 0 60 0 C60 39.6 60 79.2 60 120 C614.4 120 1168.8 120 1740 120 C1740 80.4 1740 40.8 1740 0 C1759.8 0 1779.6 0 1800 0 C1800 59.4 1800 118.8 1800 180 C1206 180 612 180 0 180 C0 120.6 0 61.2 0 0 Z " fill="#000000" transform="translate(600,1800)"/>
<path d="M0 0 C59.4 0 118.8 0 180 0 C180 39.6 180 79.2 180 120 C199.8 120 219.6 120 240 120 C240 199.2 240 278.4 240 360 C259.8 360 279.6 360 300 360 C300 379.8 300 399.6 300 420 C181.2 420 62.4 420 -60 420 C-60 400.2 -60 380.4 -60 360 C-40.2 360 -20.4 360 0 360 C0 241.2 0 122.4 0 0 Z " fill="#BD4836" transform="translate(1380,360)"/>
<path d="M0 0 C118.8 0 237.6 0 360 0 C360 99 360 198 360 300 C300.6 300 241.2 300 180 300 C180 260.4 180 220.8 180 180 C120.6 180 61.2 180 0 180 C0 120.6 0 61.2 0 0 Z " fill="#C7B5B2" transform="translate(960,780)"/>
<path d="M0 0 C99 0 198 0 300 0 C300 19.8 300 39.6 300 60 C319.8 60 339.6 60 360 60 C360 119.4 360 178.8 360 240 C261 240 162 240 60 240 C60 200.4 60 160.8 60 120 C40.2 120 20.4 120 0 120 C0 80.4 0 40.8 0 0 Z " fill="#EEDCD9" transform="translate(1560,360)"/>
<path d="M0 0 C396 0 792 0 1200 0 C1200 19.8 1200 39.6 1200 60 C804 60 408 60 0 60 C0 40.2 0 20.4 0 0 Z " fill="#010000" transform="translate(900,300)"/>
<path d="M0 0 C1.97862864 0.00138269 1.97862864 0.00138269 3.99722958 0.00279331 C4.72726696 0.00193729 5.45730434 0.00108128 6.20946407 0.00019932 C8.68186991 -0.00146577 11.15420913 0.00408371 13.62660885 0.00952244 C15.41893385 0.00982853 17.21125897 0.00969569 19.00358391 0.00915718 C23.82063133 0.00893063 28.63765411 0.01474313 33.4546957 0.02176762 C37.96825905 0.02744584 42.48181628 0.02772982 46.99538326 0.02844334 C60.21157307 0.03369896 73.42775826 0.04766 86.64394283 0.06054783 C116.15831783 0.08117283 145.67269283 0.10179783 176.08144283 0.12304783 C176.08144283 79.32304783 176.08144283 158.52304783 176.08144283 240.12304783 C136.48144283 240.12304783 96.88144283 240.12304783 56.08144283 240.12304783 C56.08144283 220.32304783 56.08144283 200.52304783 56.08144283 180.12304783 C-3.31855717 180.12304783 -62.71855717 180.12304783 -123.91855717 180.12304783 C-123.91855717 199.92304783 -123.91855717 219.72304783 -123.91855717 240.12304783 C-163.51855717 240.12304783 -203.11855717 240.12304783 -243.91855717 240.12304783 C-243.91855717 180.72304783 -243.91855717 121.32304783 -243.91855717 60.12304783 C-224.11855717 60.12304783 -204.31855717 60.12304783 -183.91855717 60.12304783 C-183.91855717 79.92304783 -183.91855717 99.72304783 -183.91855717 120.12304783 C-144.31855717 120.12304783 -104.71855717 120.12304783 -63.91855717 120.12304783 C-63.91855717 100.32304783 -63.91855717 80.52304783 -63.91855717 60.12304783 C-44.11855717 60.12304783 -24.31855717 60.12304783 -3.91855717 60.12304783 C-3.95816888 40.75108577 -3.95816888 40.75108577 -4.00864506 21.37915134 C-4.01156395 18.9617527 -4.01411257 16.54435357 -4.01621342 14.12695408 C-4.02132938 12.85815403 -4.02644535 11.58935398 -4.03171635 10.28210545 C-4.03189762 8.48549473 -4.03189762 8.48549473 -4.03208256 6.65258884 C-4.03430317 5.60668079 -4.03652378 4.56077274 -4.03881168 3.48317051 C-3.86015951 -0.02306818 -3.56265057 0.15020313 0 0 Z " fill="#C7B5B2" transform="translate(1983.9185571670532,779.8769521713257)"/>
<path d="M0 0 C39.6 0 79.2 0 120 0 C120 99 120 198 120 300 C80.4 300 40.8 300 0 300 C0 458.4 0 616.8 0 780 C-19.8 780 -39.6 780 -60 780 C-60 641.4 -60 502.8 -60 360 C-79.8 360 -99.6 360 -120 360 C-120 320.4 -120 280.8 -120 240 C-60.6 240 -1.2 240 60 240 C60 180.6 60 121.2 60 60 C40.2 60 20.4 60 0 60 C0 40.2 0 20.4 0 0 Z " fill="#010101" transform="translate(720,1020)"/>
<path d="M0 0 C118.8 0 237.6 0 360 0 C360 59.4 360 118.8 360 180 C241.2 180 122.4 180 0 180 C0 120.6 0 61.2 0 0 Z " fill="#BD4835" transform="translate(660,600)"/>
<path d="M0 0 C19.8 0 39.6 0 60 0 C60 99 60 198 60 300 C40.2 300 20.4 300 0 300 C0 319.8 0 339.6 0 360 C-59.4 360 -118.8 360 -180 360 C-180 280.8 -180 201.6 -180 120 C-120.6 120 -61.2 120 0 120 C0 80.4 0 40.8 0 0 Z " fill="#A13F2F" transform="translate(2340,660)"/>
<path d="M0 0 C79.2 0 158.4 0 240 0 C240 79.2 240 158.4 240 240 C141 240 42 240 -60 240 C-60 220.2 -60 200.4 -60 180 C-40.2 180 -20.4 180 0 180 C0 120.6 0 61.2 0 0 Z " fill="#EEDCD9" transform="translate(1140,360)"/>
<path d="M0 0 C118.8 0 237.6 0 360 0 C360 59.4 360 118.8 360 180 C280.8 180 201.6 180 120 180 C120 160.2 120 140.4 120 120 C100.2 120 80.4 120 60 120 C60 100.2 60 80.4 60 60 C40.2 60 20.4 60 0 60 C0 40.2 0 20.4 0 0 Z " fill="#BD4835" transform="translate(1980,600)"/>
<path d="M0 0 C59.4 0 118.8 0 180 0 C180 39.6 180 79.2 180 120 C199.8 120 219.6 120 240 120 C240 159.6 240 199.2 240 240 C160.8 240 81.6 240 0 240 C0 160.8 0 81.6 0 0 Z " fill="#D2452F" transform="translate(1380,360)"/>
<path d="M0 0 C79.2 0 158.4 0 240 0 C240 39.6 240 79.2 240 120 C220.2 120 200.4 120 180 120 C180 139.8 180 159.6 180 180 C140.4 180 100.8 180 60 180 C60 219.6 60 259.2 60 300 C40.2 300 20.4 300 0 300 C0 201 0 102 0 0 Z " fill="#F1B101" transform="translate(1860,1440)"/>
<path d="M0 0 C19.8 0 39.6 0 60 0 C60 59.4 60 118.8 60 180 C99.6 180 139.2 180 180 180 C180 120.6 180 61.2 180 0 C199.8 0 219.6 0 240 0 C240 99 240 198 240 300 C220.2 300 200.4 300 180 300 C180 280.2 180 260.4 180 240 C140.4 240 100.8 240 60 240 C60 259.8 60 279.6 60 300 C40.2 300 20.4 300 0 300 C0 201 0 102 0 0 Z " fill="#F1B100" transform="translate(1260,1440)"/>
<path d="M0 0 C39.6 0 79.2 0 120 0 C120 59.4 120 118.8 120 180 C80.4 180 40.8 180 0 180 C0 120.6 0 61.2 0 0 Z " fill="#875817" transform="translate(1620,1500)"/>
<path d="M0 0 C99 0 198 0 300 0 C300 19.8 300 39.6 300 60 C201 60 102 60 0 60 C0 40.2 0 20.4 0 0 Z " fill="#000000" transform="translate(1320,960)"/>
<path d="M0 0 C19.8 0 39.6 0 60 0 C60 99 60 198 60 300 C40.2 300 20.4 300 0 300 C0 201 0 102 0 0 Z " fill="#000000" transform="translate(2340,660)"/>
<path d="M0 0 C19.8 0 39.6 0 60 0 C60 99 60 198 60 300 C40.2 300 20.4 300 0 300 C0 201 0 102 0 0 Z " fill="#000000" transform="translate(600,660)"/>
<path d="M0 0 C79.2 0 158.4 0 240 0 C240 19.8 240 39.6 240 60 C160.8 60 81.6 60 0 60 C0 40.2 0 20.4 0 0 Z " fill="#000000" transform="translate(1620,1020)"/>
<path d="M0 0 C59.4 0 118.8 0 180 0 C180 19.8 180 39.6 180 60 C120.6 60 61.2 60 0 60 C0 40.2 0 20.4 0 0 Z " fill="#F1B100" transform="translate(960,1680)"/>
<path d="M0 0 C59.4 0 118.8 0 180 0 C180 19.8 180 39.6 180 60 C120.6 60 61.2 60 0 60 C0 40.2 0 20.4 0 0 Z " fill="#F1B100" transform="translate(960,1560)"/>
<path d="M0 0 C19.8 0 39.6 0 60 0 C60 59.4 60 118.8 60 180 C40.2 180 20.4 180 0 180 C0 120.6 0 61.2 0 0 Z " fill="#F1B100" transform="translate(1740,1500)"/>
<path d="M0 0 C19.8 0 39.6 0 60 0 C60 59.4 60 118.8 60 180 C40.2 180 20.4 180 0 180 C0 120.6 0 61.2 0 0 Z " fill="#F1B202" transform="translate(1560,1500)"/>
<path d="M0 0 C59.4 0 118.8 0 180 0 C180 19.8 180 39.6 180 60 C120.6 60 61.2 60 0 60 C0 40.2 0 20.4 0 0 Z " fill="#F1B100" transform="translate(960,1440)"/>
<path d="M0 0 C59.4 0 118.8 0 180 0 C180 19.8 180 39.6 180 60 C120.6 60 61.2 60 0 60 C0 40.2 0 20.4 0 0 Z " fill="#000000" transform="translate(1140,1020)"/>
<path d="M0 0 C39.6 0 79.2 0 120 0 C120 19.8 120 39.6 120 60 C80.4 60 40.8 60 0 60 C0 40.2 0 20.4 0 0 Z " fill="#F1B100" transform="translate(1620,1680)"/>
<path d="M0 0 C39.6 0 79.2 0 120 0 C120 19.8 120 39.6 120 60 C80.4 60 40.8 60 0 60 C0 40.2 0 20.4 0 0 Z " fill="#875817" transform="translate(1920,1500)"/>
<path d="M0 0 C39.6 0 79.2 0 120 0 C120 19.8 120 39.6 120 60 C80.4 60 40.8 60 0 60 C0 40.2 0 20.4 0 0 Z " fill="#F1B100" transform="translate(1620,1440)"/>
<path d="M0 0 C19.8 0 39.6 0 60 0 C60 39.6 60 79.2 60 120 C40.2 120 20.4 120 0 120 C0 80.4 0 40.8 0 0 Z " fill="#000000" transform="translate(2160,420)"/>
<path d="M0 0 C19.8 0 39.6 0 60 0 C60 39.6 60 79.2 60 120 C40.2 120 20.4 120 0 120 C0 80.4 0 40.8 0 0 Z " fill="#000000" transform="translate(780,420)"/>
<path d="M0 0 C19.8 0 39.6 0 60 0 C60 19.8 60 39.6 60 60 C40.2 60 20.4 60 0 60 C0 40.2 0 20.4 0 0 Z " fill="#171717" transform="translate(2280,1920)"/>
<path d="M0 0 C19.8 0 39.6 0 60 0 C60 19.8 60 39.6 60 60 C40.2 60 20.4 60 0 60 C0 40.2 0 20.4 0 0 Z " fill="#000000" transform="translate(660,1740)"/>
<path d="M0 0 C19.8 0 39.6 0 60 0 C60 19.8 60 39.6 60 60 C40.2 60 20.4 60 0 60 C0 40.2 0 20.4 0 0 Z " fill="#F2B60E" transform="translate(1440,1680)"/>
<path d="M0 0 C19.8 0 39.6 0 60 0 C60 19.8 60 39.6 60 60 C40.2 60 20.4 60 0 60 C0 40.2 0 20.4 0 0 Z " fill="#F1B100" transform="translate(1140,1620)"/>
<path d="M0 0 C19.8 0 39.6 0 60 0 C60 19.8 60 39.6 60 60 C40.2 60 20.4 60 0 60 C0 40.2 0 20.4 0 0 Z " fill="#F1B100" transform="translate(900,1500)"/>
<path d="M0 0 C19.8 0 39.6 0 60 0 C60 19.8 60 39.6 60 60 C40.2 60 20.4 60 0 60 C0 40.2 0 20.4 0 0 Z " fill="#080808" transform="translate(2220,1260)"/>
<path d="M0 0 C19.8 0 39.6 0 60 0 C60 19.8 60 39.6 60 60 C40.2 60 20.4 60 0 60 C0 40.2 0 20.4 0 0 Z " fill="#000000" transform="translate(2280,960)"/>
<path d="M0 0 C19.8 0 39.6 0 60 0 C60 19.8 60 39.6 60 60 C40.2 60 20.4 60 0 60 C0 40.2 0 20.4 0 0 Z " fill="#000000" transform="translate(660,960)"/>
<path d="M0 0 C19.8 0 39.6 0 60 0 C60 19.8 60 39.6 60 60 C40.2 60 20.4 60 0 60 C0 40.2 0 20.4 0 0 Z " fill="#B14433" transform="translate(720,840)"/>
<path d="M0 0 C19.8 0 39.6 0 60 0 C60 19.8 60 39.6 60 60 C40.2 60 20.4 60 0 60 C0 40.2 0 20.4 0 0 Z " fill="#DBC4C1" transform="translate(2100,780)"/>
<path d="M0 0 C19.8 0 39.6 0 60 0 C60 19.8 60 39.6 60 60 C40.2 60 20.4 60 0 60 C0 40.2 0 20.4 0 0 Z " fill="#E1CECB" transform="translate(2040,720)"/>
<path d="M0 0 C19.8 0 39.6 0 60 0 C60 19.8 60 39.6 60 60 C40.2 60 20.4 60 0 60 C0 40.2 0 20.4 0 0 Z " fill="#EEDCD9" transform="translate(1020,660)"/>
<path d="M0 0 C19.8 0 39.6 0 60 0 C60 19.8 60 39.6 60 60 C40.2 60 20.4 60 0 60 C0 40.2 0 20.4 0 0 Z " fill="#000000" transform="translate(2280,600)"/>
<path d="M0 0 C19.8 0 39.6 0 60 0 C60 19.8 60 39.6 60 60 C40.2 60 20.4 60 0 60 C0 40.2 0 20.4 0 0 Z " fill="#000000" transform="translate(660,600)"/>
<path d="M0 0 C19.8 0 39.6 0 60 0 C60 19.8 60 39.6 60 60 C40.2 60 20.4 60 0 60 C0 40.2 0 20.4 0 0 Z " fill="#000000" transform="translate(2220,540)"/>
<path d="M0 0 C19.8 0 39.6 0 60 0 C60 19.8 60 39.6 60 60 C40.2 60 20.4 60 0 60 C0 40.2 0 20.4 0 0 Z " fill="#000000" transform="translate(720,540)"/>
<path d="M0 0 C19.8 0 39.6 0 60 0 C60 19.8 60 39.6 60 60 C40.2 60 20.4 60 0 60 C0 40.2 0 20.4 0 0 Z " fill="#000000" transform="translate(2100,360)"/>
<path d="M0 0 C19.8 0 39.6 0 60 0 C60 19.8 60 39.6 60 60 C40.2 60 20.4 60 0 60 C0 40.2 0 20.4 0 0 Z " fill="#000000" transform="translate(840,360)"/>
</svg>
